<?xml version="1.0" encoding="utf-8"?>
<!-- Generator: Adobe Illustrator 16.0.0, SVG Export Plug-In . SVG Version: 6.00 Build 0)  -->
<!DOCTYPE svg PUBLIC "-//W3C//DTD SVG 1.1//EN" "http://www.w3.org/Graphics/SVG/1.1/DTD/svg11.dtd">
<svg version="1.1" id="_x3C_Layer_x3E_" xmlns="http://www.w3.org/2000/svg" xmlns:xlink="http://www.w3.org/1999/xlink" x="0px"
	 y="0px" width="429.256px" height="320.951px" viewBox="786.991 245.381 429.256 320.951"
	 enable-background="new 786.991 245.381 429.256 320.951" xml:space="preserve">
<g>
	<g>
		<g>
			<path fill-rule="evenodd" clip-rule="evenodd" fill="#00B1EB" d="M913.977,300.149c0.036-31.35-47.079-31.368-47.057,0
				C866.884,331.509,913.991,331.509,913.977,300.149L913.977,300.149z"/>
			<path fill="#008F4C" d="M851.385,565.186v-60.555h12.247v23.806h23.892v-23.806h12.247v60.555h-12.247v-26.432h-23.892v26.432
				H851.385z"/>
			<path fill="#008F4C" d="M929.67,519.18c3.108-3.465,7.173-5.207,12.229-5.207c5.055,0,9.084,1.721,12.143,5.135
				c3.053,3.451,4.584,8.62,4.584,15.6c0,7.051-1.582,12.327-4.693,15.869c-3.154,3.505-7.156,5.268-12.034,5.268
				c-4.888,0-8.917-1.763-12.089-5.322c-3.18-3.56-4.766-8.764-4.766-15.643C925.044,527.872,926.594,522.663,929.67,519.18z
				 M920.446,558.061c5.281,5.516,12.463,8.271,21.453,8.271c8.926,0,16.023-2.77,21.344-8.312c5.326-5.543,7.995-13.2,7.995-23.024
				c0-9.894-2.683-17.609-8.04-23.17c-5.375-5.557-12.518-8.344-21.466-8.344c-4.924,0-9.274,0.809-13.051,2.408
				c-2.841,1.201-5.452,3.027-7.833,5.467c-2.39,2.471-4.265,5.252-5.642,8.348c-1.853,4.191-2.755,9.391-2.755,15.58
				C912.451,544.961,915.12,552.55,920.446,558.061z"/>
			<path fill="#008F4C" d="M983.124,504.631h12.274v32.85c0,5.217,0.145,8.601,0.446,10.146c0.525,2.461,1.758,4.462,3.741,5.971
				c1.979,1.496,4.649,2.246,8.054,2.246c3.438,0,6.067-0.701,7.833-2.119c1.758-1.423,2.819-3.167,3.181-5.236
				c0.361-2.063,0.542-5.502,0.542-10.303v-33.555h12.241v31.873c0,7.282-0.334,12.418-0.989,15.436
				c-0.664,3.004-1.883,5.543-3.667,7.617c-1.776,2.064-4.135,3.699-7.115,4.938c-2.969,1.229-6.857,1.838-11.659,1.838
				c-5.773,0-10.186-0.668-13.146-2.014c-2.99-1.334-5.344-3.064-7.092-5.195c-1.744-2.146-2.878-4.373-3.438-6.736
				c-0.791-3.465-1.206-8.601-1.206-15.395V504.631z"/>
			<path fill="#008F4C" d="M1043.65,545.444l11.909-1.151c0.717,4.016,2.163,6.951,4.358,8.835c2.178,1.87,5.146,2.806,8.863,2.806
				c3.943,0,6.912-0.827,8.907-2.498c1.993-1.686,3.004-3.632,3.004-5.863c0-1.441-0.41-2.666-1.264-3.668
				c-0.841-1.03-2.3-1.889-4.388-2.63c-1.444-0.505-4.697-1.378-9.742-2.661c-6.56-1.621-11.141-3.636-13.802-5.984
				c-3.686-3.352-5.537-7.418-5.537-12.215c0-3.104,0.857-5.981,2.605-8.66c1.744-2.691,4.242-4.743,7.536-6.143
				c3.288-1.405,7.268-2.129,11.907-2.129c7.576,0,13.29,1.667,17.125,5.037c3.812,3.348,5.845,7.807,6.03,13.385l-12.255,0.451
				c-0.524-3.099-1.618-5.324-3.339-6.689c-1.717-1.355-4.265-2.037-7.675-2.037c-3.537,0-6.306,0.718-8.284,2.195
				c-1.297,0.93-1.93,2.178-1.93,3.745c0,1.437,0.597,2.638,1.798,3.677c1.555,1.283,5.294,2.633,11.23,4.033
				c5.918,1.419,10.286,2.879,13.146,4.396c2.841,1.508,5.06,3.577,6.676,6.174c1.596,2.617,2.403,5.851,2.403,9.682
				c0,3.496-0.943,6.748-2.886,9.803c-1.93,3.049-4.686,5.312-8.187,6.793c-3.546,1.465-7.937,2.205-13.186,2.205
				c-7.661,0-13.552-1.779-17.667-5.34C1046.913,557.451,1044.45,552.248,1043.65,545.444z"/>
			<path fill="#008F4C" d="M1105.891,565.186v-60.555h44.848v10.309h-32.615v13.425h30.308v10.286h-30.308v16.222h33.758v10.313
				H1105.891z"/>
			<g>
				<path fill-rule="evenodd" clip-rule="evenodd" fill="#F6921E" d="M998.465,404.562c-4.504,6.654-7.079,12.283-7.662,13.629
					c-0.316,0.623-0.609,1.225-0.894,1.812c-6.803,12.751-6.121,22.748-2.918,30.793c7.737-3.216,22.203-12.178,31.648-25.703
					c1.626-3.172,2.899-6.252,3.822-9.283c0.857-2.755,1.351-5.367,1.59-7.738h0.031c0.863-7.995-0.7-16.045-4.779-24.962
					C1010.029,389.141,1003.419,396.951,998.465,404.562z"/>
				<path fill-rule="evenodd" clip-rule="evenodd" fill="#F6921E" d="M1029.797,253.689c-31.021-18.693-59.254,0-59.254,0
					l-52.839,33.297c1.929,3.975,3.027,8.438,3.027,13.163c0,16.655-13.62,30.244-30.275,30.244
					c-9.577,0-18.119-4.463-23.675-11.429l-8.24,5.182l-31.223,19.514c-0.117-0.018-0.189-0.032-0.216-0.05
					c-4.648,2.973-8.063,5.173-11.023,7.07l-4.029,2.521h0.081c-4.711,3.004-9.161,5.773-17.441,10.842
					c-6.419,3.907-9.518,11.446-6.586,17.469c1.871,3.862,6.352,6.726,10.168,6.96c4.626,0.267,22.108-0.217,29.638-0.235
					c7.607,0,6.699,4.179,6.912,11.429v76.799h0.488h18.502h295.573h18.647h0.353v-82.748c0.682-2.395,2.168-5.33,5.7-5.408
					c8.904-0.23,17.495,0.195,29.854-0.054c6.817-0.145,12.45-2.48,12.306-12.341c-0.145-9.333-11.401-16.547-15.57-19.05
					l-22.148-13.254c0,0-0.023,0-0.068,0 M880.852,473.32c-4.265-21.42-2.436-38.592,0.252-51.28
					c1.139-4.812,2.543-10.19,3.546-13.968h0.045c2.033-7.195,3.148-11.288,0.447-12.228c-2.331,0.289-2.855-0.248-5.104-1.062
					c-2.354-2.656,27.917-22.921,32.412-18.435c3.152,5.773-4.997,16.366-7.675,21.534c-0.456,1.025-0.917,2.028-1.36,3.009
					l-0.063-0.014c0,0-2.779,6.139-5.818,12.896C888.016,434.436,882.771,446.43,880.852,473.32z M964.362,426.517
					c-3.387,13.548-4.548,25.79-6.386,42.468c-2.381-24.936-2.882-40.236-1.676-52.5c0.596-4.49,1.3-8.859,1.851-12.07
					c1.731-8.19,4.382-15.991,7.798-26.156c-9.585,4.287-20.92,12.685-30.208,22.311l-0.018-0.013c0,0-6.785,6.225-12.3,15.691
					c-1.776,2.955-3.203,5.891-4.188,8.729c-0.199,0.528-0.393,1.062-0.578,1.612h0.067c-1.328,4.585-1.423,8.891,0.167,12.567
					c1.713,6.916,14.984,14.36,29.697,13.818c-6.234,6.748-12.934,16.746-17.496,22.289c-22.835-5.092-30.885-19.574-29.213-41.424
					c1.229-4.825,2.367-8.818,3.731-12.378c2.335-5.073,6.423-12.215,12.938-18.638c1.477-1.445,2.579-2.539,3.393-3.339
					c0.966-0.881,1.978-1.78,3.071-2.719c14.835-9.934,26.236-15.007,42.065-22.452c1.311-5.99,6.437-15.955,11.678-25.861
					l0.085-0.009l5.449-10.588h0.04c0.809-1.558,1.563-3.076,2.282-4.526l0.167-0.334h-0.009c3.351-6.848,5.447-12.223,4.346-14.044
					c-2.381-1.726-7.426-1.319-8.136-1.26c4.057-6.998,33.238-25.871,38.158-17.27c4.928,7.052-6.346,24.651-12.83,35.795
					c-0.315,0.519-0.645,1.084-0.971,1.64l0,0l-3.772,6.238c-0.013,0-0.018,0-0.018,0c-0.555,0.913-1.102,1.83-1.644,2.747
					l-1.577,2.616h0.018c-8.38,14.139-16.239,28.26-23.909,43.095c-1.468,3.334-2.802,6.487-4.008,9.5h-0.04
					c0,0-0.217,0.57-0.578,1.559c-0.592,1.527-1.166,3.014-1.699,4.463h0.076c-0.587,1.663-1.255,3.578-1.938,5.602h-0.126
					c-1.165,3.47-2.16,6.776-3.026,9.992c-0.276,0.967-0.538,1.924-0.782,2.851H964.362z M1046.781,401.242
					c-0.14,0.917-1.522,9.314-4.165,16.701c-2.963,7.291-6.717,13.268-8.425,15.535c-12.3,14.744-24.39,18.484-39.088,23.778
					c8.528,19.587,33.328,2.986,37.544-9.302c0.094,4.947-7.753,16.01-20.925,22.176c-14.817,4.64-25.194,5.652-35.018-7.777
					c-5.276,1.611-6.568,3.262-9.41,0.658c0.99-3.992,2.015-3.451,7.007-5.723c-4.694-12.947-1.058-25.586,5.208-39.111
					c2.11-4.102,5.335-9.469,9.861-14.93c8.539-9.396,20.21-17.129,31.084-23.698c2.872-1.726,6.613-1.147,10.01-1.012
					C1043.638,382.428,1047.328,391.499,1046.781,401.242z M1119.972,401.486l-0.009-0.009c0,0-5.787,11.546-9.229,20.499h0.104
					c-5.521,14.131-9.573,28.74-11.245,43.756c-3.396-13.35-2.072-30.836,1.474-47.297c1.351-5.357,2.118-8.561,2.656-10.787
					c4.313-15.513,10.253-28.952,15.444-35.384c-12.657,1.915-28.156,11.506-41.618,28.72c-1.305,1.555-6.229,7.59-9.555,14.189
					c-0.066,0.123-0.126,0.235-0.198,0.344c-0.148,0.316-0.28,0.623-0.41,0.931c-1.487,3.202-2.531,6.468-2.558,9.391
					c-1.373,15.265,11.75,25.935,28.454,22.763c-4.873,7.934-9.387,15.49-14.283,23.423c-16.194-3.637-27.759-16.335-30.022-25.595
					c-3.771-9.328-0.673-20.369,3.299-29.219c1.968-4.215,5.054-10.06,9.093-15.3l-0.108-0.009
					c11.207-14.198,27.258-22.312,40.294-28.45c30.148-14.677,34.53-6.311,35.94-3.523
					C1131.323,380.087,1125.329,390.626,1119.972,401.486z"/>
			</g>
		</g>
		<line fill-rule="evenodd" clip-rule="evenodd" fill="#F6921E" x1="1178.457" y1="343.61" x2="1029.797" y2="253.689"/>
	</g>
	<g>
		<path fill="#008F4C" d="M1161.517,317.862v-26.349h-9.256v-5.38h24.759v5.38h-9.255v26.349H1161.517z"/>
		<path fill="#008F4C" d="M1184.388,317.862v-31.729l9.433,0.032l5.656,21.665l5.613-21.697l9.479,0.032v31.698h-5.869v-25.026
			l-6.211,25.026h-6.039l-6.185-25.026v25.026H1184.388z"/>
	</g>
</g>
</svg>
