<?xml version="1.0" encoding="utf-8"?>
<!-- Generator: Adobe Illustrator 16.0.0, SVG Export Plug-In . SVG Version: 6.00 Build 0)  -->
<!DOCTYPE svg PUBLIC "-//W3C//DTD SVG 1.1//EN" "http://www.w3.org/Graphics/SVG/1.1/DTD/svg11.dtd">
<svg version="1.1" id="_x3C_Layer_x3E_" xmlns="http://www.w3.org/2000/svg" xmlns:xlink="http://www.w3.org/1999/xlink" x="0px"
	 y="0px" width="103.021px" height="77.028px" viewBox="-836.383 522.462 103.021 77.028"
	 enable-background="new -836.383 522.462 103.021 77.028" xml:space="preserve">
<g>
	<g>
		<g>
			<path fill="#00B1EB" d="M-805.906,535.606c0.008-7.525-11.299-7.529-11.294,0C-817.209,543.133-805.903,543.133-805.906,535.606
				L-805.906,535.606z"/>
			<path fill="#008F4C" d="M-820.928,599.215v-14.533h2.939v5.714h5.734v-5.714h2.94v14.533h-2.94v-6.344h-5.734v6.344H-820.928
				L-820.928,599.215z"/>
			<path fill="#008F4C" d="M-802.14,588.174c0.746-0.832,1.722-1.25,2.935-1.25s2.18,0.413,2.914,1.232
				c0.733,0.828,1.101,2.069,1.101,3.744c0,1.692-0.38,2.958-1.126,3.809c-0.757,0.841-1.717,1.265-2.888,1.265
				c-1.173,0-2.14-0.424-2.901-1.277c-0.763-0.854-1.144-2.104-1.144-3.755C-803.25,590.26-802.878,589.009-802.14,588.174z
				 M-804.354,597.505c1.267,1.324,2.991,1.984,5.148,1.984c2.143,0,3.846-0.664,5.123-1.994c1.278-1.33,1.919-3.168,1.919-5.525
				c0-2.375-0.644-4.227-1.929-5.561c-1.291-1.334-3.005-2.003-5.152-2.003c-1.182,0-2.226,0.194-3.132,0.577
				c-0.682,0.289-1.309,0.727-1.88,1.312c-0.574,0.594-1.023,1.261-1.354,2.004c-0.445,1.006-0.661,2.254-0.661,3.738
				C-806.272,594.361-805.632,596.183-804.354,597.505z"/>
			<path fill="#008F4C" d="M-789.311,584.682h2.946v7.884c0,1.252,0.035,2.064,0.107,2.436c0.126,0.591,0.422,1.07,0.898,1.433
				c0.475,0.359,1.116,0.539,1.933,0.539c0.825,0,1.456-0.168,1.88-0.509c0.422-0.342,0.677-0.76,0.763-1.256
				c0.087-0.495,0.13-1.32,0.13-2.474v-8.053h2.938v7.649c0,1.748-0.081,2.98-0.237,3.705c-0.16,0.721-0.452,1.33-0.88,1.828
				c-0.426,0.495-0.993,0.887-1.708,1.186c-0.712,0.294-1.646,0.44-2.798,0.44c-1.386,0-2.444-0.16-3.155-0.483
				c-0.718-0.32-1.283-0.735-1.703-1.246c-0.418-0.516-0.69-1.05-0.825-1.617c-0.19-0.832-0.29-2.064-0.29-3.695V584.682z"/>
			<path fill="#008F4C" d="M-774.785,594.478l2.858-0.277c0.172,0.965,0.519,1.668,1.046,2.121c0.522,0.449,1.234,0.673,2.127,0.673
				c0.946,0,1.659-0.198,2.138-0.599c0.478-0.405,0.721-0.873,0.721-1.407c0-0.347-0.099-0.64-0.304-0.881
				c-0.202-0.247-0.552-0.454-1.053-0.631c-0.347-0.122-1.127-0.331-2.339-0.639c-1.574-0.39-2.673-0.872-3.312-1.437
				c-0.885-0.805-1.329-1.78-1.329-2.932c0-0.745,0.206-1.436,0.625-2.078c0.418-0.646,1.018-1.139,1.809-1.475
				c0.789-0.337,1.744-0.511,2.857-0.511c1.818,0,3.19,0.399,4.11,1.208c0.916,0.805,1.403,1.875,1.447,3.213l-2.941,0.108
				c-0.126-0.743-0.388-1.277-0.801-1.604c-0.412-0.326-1.024-0.49-1.842-0.49c-0.849,0-1.514,0.173-1.989,0.527
				c-0.311,0.223-0.463,0.523-0.463,0.899c0,0.345,0.143,0.633,0.432,0.882c0.373,0.309,1.27,0.632,2.695,0.969
				c1.42,0.34,2.468,0.69,3.154,1.055c0.682,0.361,1.215,0.857,1.603,1.481c0.383,0.628,0.577,1.404,0.577,2.323
				c0,0.84-0.226,1.62-0.692,2.354c-0.463,0.731-1.125,1.274-1.965,1.63c-0.851,0.352-1.905,0.529-3.165,0.529
				c-1.839,0-3.252-0.427-4.24-1.282C-774.002,597.358-774.593,596.109-774.785,594.478z"/>
			<path fill="#008F4C" d="M-759.847,599.215v-14.533h10.764v2.474h-7.828v3.223h7.274v2.469h-7.274v3.894h8.102v2.475H-759.847z"/>
			<g>
				<path fill="#F6921E" d="M-785.629,560.665c-1.081,1.598-1.699,2.947-1.839,3.271c-0.076,0.149-0.146,0.293-0.214,0.435
					c-1.633,3.061-1.469,5.459-0.7,7.391c1.857-0.772,5.329-2.923,7.595-6.169c0.39-0.762,0.696-1.5,0.917-2.229
					c0.206-0.66,0.324-1.287,0.382-1.856h0.007c0.207-1.919-0.168-3.851-1.147-5.991
					C-782.854,556.964-784.44,558.838-785.629,560.665z"/>
				<path fill="#F6921E" d="M-778.109,524.455c-7.445-4.485-14.221,0-14.221,0l-12.681,7.991c0.463,0.955,0.727,2.025,0.727,3.16
					c0,3.996-3.269,7.258-7.266,7.258c-2.298,0-4.349-1.071-5.682-2.742l-1.978,1.243l-7.494,4.683
					c-0.028-0.004-0.045-0.007-0.052-0.012c-1.115,0.714-1.935,1.242-2.645,1.697l-0.968,0.604h0.02
					c-1.131,0.722-2.199,1.386-4.186,2.603c-1.541,0.938-2.284,2.747-1.581,4.192c0.449,0.927,1.524,1.614,2.44,1.671
					c1.11,0.064,5.306-0.053,7.113-0.057c1.825,0,1.608,1.003,1.659,2.742v18.433h0.117h4.441h70.938h4.476h0.084v-19.859
					c0.164-0.575,0.521-1.28,1.368-1.299c2.137-0.054,4.199,0.047,7.165-0.013c1.636-0.034,2.988-0.595,2.954-2.961
					c-0.035-2.24-2.736-3.972-3.737-4.572l-5.315-3.182c0,0-0.006,0-0.017,0 M-813.856,577.167
					c-1.023-5.141-0.584-9.262,0.061-12.307c0.273-1.155,0.61-2.446,0.851-3.353h0.011c0.488-1.728,0.755-2.71,0.107-2.935
					c-0.56,0.068-0.685-0.061-1.225-0.256c-0.565-0.637,6.7-5.5,7.779-4.424c0.756,1.386-1.199,3.928-1.841,5.168
					c-0.11,0.246-0.221,0.486-0.327,0.723l-0.016-0.004c0,0-0.667,1.474-1.396,3.096
					C-812.137,567.835-813.396,570.714-813.856,577.167z M-793.814,565.935c-0.813,3.251-1.091,6.189-1.533,10.192
					c-0.571-5.985-0.691-9.657-0.402-12.601c0.144-1.077,0.312-2.126,0.444-2.896c0.416-1.966,1.052-3.838,1.872-6.277
					c-2.3,1.028-5.021,3.044-7.25,5.354l-0.004-0.003c0,0-1.629,1.494-2.952,3.766c-0.426,0.709-0.769,1.414-1.005,2.095
					c-0.047,0.127-0.094,0.255-0.138,0.387h0.016c-0.319,1.101-0.341,2.134,0.04,3.017c0.411,1.66,3.596,3.446,7.127,3.316
					c-1.496,1.619-3.104,4.02-4.199,5.35c-5.48-1.223-7.412-4.698-7.011-9.942c0.295-1.157,0.568-2.116,0.896-2.971
					c0.56-1.218,1.542-2.931,3.105-4.473c0.354-0.347,0.619-0.609,0.814-0.802c0.231-0.211,0.475-0.428,0.737-0.652
					c3.561-2.384,6.297-3.602,10.096-5.389c0.314-1.438,1.545-3.829,2.803-6.206l0.02-0.003l1.308-2.541h0.01
					c0.194-0.374,0.375-0.738,0.548-1.086l0.04-0.08h-0.002c0.805-1.645,1.308-2.934,1.043-3.371
					c-0.572-0.414-1.782-0.316-1.953-0.302c0.974-1.681,7.977-6.21,9.158-4.146c1.183,1.692-1.523,5.916-3.079,8.592
					c-0.076,0.124-0.155,0.26-0.233,0.393l0,0l-0.905,1.497c-0.003,0-0.004,0-0.004,0c-0.133,0.22-0.264,0.439-0.395,0.66
					l-0.378,0.628h0.004c-2.011,3.393-3.897,6.781-5.738,10.342c-0.352,0.801-0.673,1.558-0.962,2.28h-0.009
					c0,0-0.052,0.138-0.139,0.374c-0.142,0.367-0.28,0.724-0.408,1.072h0.019c-0.141,0.398-0.302,0.857-0.465,1.344h-0.03
					c-0.28,0.832-0.519,1.627-0.727,2.398c-0.066,0.231-0.129,0.461-0.188,0.684H-793.814L-793.814,565.935z M-774.033,559.868
					c-0.034,0.221-0.365,2.235-1,4.008c-0.711,1.751-1.612,3.186-2.021,3.729c-2.952,3.539-5.854,4.437-9.381,5.707
					c2.047,4.701,7.999,0.717,9.011-2.232c0.022,1.188-1.861,3.842-5.022,5.322c-3.556,1.113-6.047,1.356-8.404-1.867
					c-1.267,0.387-1.577,0.784-2.259,0.158c0.238-0.957,0.484-0.828,1.682-1.373c-1.126-3.107-0.254-6.141,1.25-9.387
					c0.507-0.984,1.281-2.272,2.367-3.583c2.049-2.255,4.85-4.11,7.46-5.688c0.689-0.413,1.587-0.274,2.402-0.242
					C-774.788,555.353-773.902,557.53-774.033,559.868z M-756.468,559.927l-0.002-0.002c0,0-1.389,2.771-2.215,4.92h0.025
					c-1.325,3.391-2.297,6.897-2.699,10.502c-0.815-3.205-0.497-7.401,0.354-11.353c0.324-1.285,0.509-2.054,0.638-2.589
					c1.035-3.723,2.461-6.947,3.707-8.492c-3.038,0.46-6.757,2.762-9.988,6.893c-0.313,0.373-1.495,1.822-2.293,3.406
					c-0.016,0.029-0.03,0.057-0.047,0.082c-0.035,0.076-0.067,0.149-0.098,0.225c-0.357,0.768-0.608,1.552-0.614,2.253
					c-0.329,3.664,2.82,6.225,6.829,5.464c-1.169,1.904-2.253,3.717-3.428,5.621c-3.887-0.873-6.662-3.921-7.206-6.143
					c-0.905-2.239-0.162-4.889,0.792-7.014c0.472-1.011,1.213-2.414,2.182-3.672l-0.026-0.002c2.689-3.407,6.542-5.355,9.67-6.827
					c7.235-3.522,8.287-1.516,8.625-0.847C-753.743,554.791-755.182,557.32-756.468,559.927z"/>
			</g>
		</g>
		<line fill="none" x1="-742.431" y1="546.036" x2="-778.109" y2="524.455"/>
	</g>
	<g>
		<path fill="#008F4C" d="M-746.497,539.857v-6.324h-2.221v-1.292h5.942v1.292h-2.221v6.324H-746.497z"/>
		<path fill="#008F4C" d="M-741.008,539.857v-7.616l2.264,0.009l1.357,5.199l1.348-5.208l2.275,0.009v7.607h-1.409v-6.006
			l-1.491,6.006h-1.449l-1.485-6.006v6.006H-741.008L-741.008,539.857z"/>
	</g>
</g>
</svg>
