<svg version="1.1" id="_x3C_Layer_x3E_" xmlns="http://www.w3.org/2000/svg" xmlns:xlink="http://www.w3.org/1999/xlink" x="0px"
	 y="0px" width="100%" height="100%" viewBox="0 0 429.256 320.952" enable-background="new 0 0 429.256 320.952"
	 xml:space="preserve">
<g>
	<g>
		<g>
			<path fill-rule="evenodd" clip-rule="evenodd" fill="#FFFFFF" d="M126.986,54.769c0.036-31.35-47.079-31.368-47.057,0
				C79.894,86.128,127,86.128,126.986,54.769L126.986,54.769z"/>
			<path fill="#FFFFFF" d="M64.394,319.804V259.25h12.247v23.806h23.892V259.25h12.247v60.555h-12.247v-26.431H76.641v26.431H64.394
				z"/>
			<path fill="#FFFFFF" d="M142.679,273.799c3.108-3.465,7.173-5.208,12.229-5.208c5.055,0,9.084,1.721,12.143,5.136
				c3.053,3.451,4.584,8.62,4.584,15.599c0,7.052-1.582,12.328-4.693,15.869c-3.154,3.505-7.156,5.268-12.034,5.268
				c-4.888,0-8.917-1.762-12.089-5.322c-3.18-3.56-4.766-8.763-4.766-15.643C138.054,282.491,139.604,277.282,142.679,273.799z
				 M133.455,312.68c5.281,5.516,12.463,8.271,21.453,8.271c8.926,0,16.023-2.77,21.344-8.312c5.326-5.543,7.995-13.2,7.995-23.025
				c0-9.893-2.683-17.608-8.04-23.169c-5.375-5.556-12.518-8.343-21.466-8.343c-4.924,0-9.274,0.809-13.051,2.408
				c-2.841,1.202-5.452,3.027-7.833,5.466c-2.39,2.471-4.265,5.253-5.642,8.348c-1.853,4.192-2.755,9.392-2.755,15.58
				C125.46,299.58,128.129,307.169,133.455,312.68z"/>
			<path fill="#FFFFFF" d="M196.133,259.25h12.274v32.85c0,5.218,0.145,8.601,0.446,10.146c0.525,2.461,1.758,4.462,3.741,5.972
				c1.979,1.495,4.649,2.245,8.054,2.245c3.438,0,6.067-0.701,7.833-2.119c1.758-1.423,2.819-3.167,3.181-5.236
				c0.361-2.064,0.542-5.502,0.542-10.304V259.25h12.241v31.874c0,7.282-0.334,12.418-0.989,15.436
				c-0.664,3.004-1.883,5.543-3.667,7.616c-1.776,2.064-4.135,3.7-7.115,4.938c-2.969,1.229-6.857,1.839-11.659,1.839
				c-5.773,0-10.186-0.669-13.146-2.015c-2.99-1.333-5.344-3.063-7.092-5.195c-1.744-2.146-2.878-4.373-3.438-6.735
				c-0.791-3.465-1.206-8.601-1.206-15.395V259.25z"/>
			<path fill="#FFFFFF" d="M256.66,300.063l11.909-1.152c0.717,4.016,2.163,6.952,4.358,8.835c2.178,1.871,5.146,2.806,8.863,2.806
				c3.943,0,6.912-0.827,8.907-2.498c1.993-1.686,3.004-3.632,3.004-5.863c0-1.442-0.41-2.666-1.264-3.668
				c-0.841-1.03-2.3-1.889-4.388-2.63c-1.444-0.505-4.697-1.377-9.742-2.661c-6.56-1.621-11.141-3.636-13.802-5.985
				c-3.686-3.352-5.537-7.417-5.537-12.215c0-3.103,0.857-5.981,2.605-8.66c1.744-2.692,4.242-4.743,7.536-6.143
				c3.288-1.405,7.268-2.128,11.907-2.128c7.576,0,13.29,1.667,17.125,5.037c3.812,3.347,5.845,7.806,6.03,13.385l-12.255,0.451
				c-0.524-3.099-1.618-5.325-3.339-6.69c-1.717-1.355-4.265-2.037-7.675-2.037c-3.537,0-6.306,0.718-8.284,2.196
				c-1.297,0.93-1.93,2.177-1.93,3.745c0,1.436,0.597,2.638,1.798,3.677c1.555,1.283,5.294,2.633,11.23,4.034
				c5.918,1.418,10.286,2.878,13.146,4.396c2.841,1.509,5.06,3.578,6.676,6.175c1.596,2.616,2.403,5.85,2.403,9.681
				c0,3.497-0.943,6.749-2.886,9.802c-1.93,3.05-4.686,5.312-8.187,6.794c-3.546,1.464-7.937,2.205-13.186,2.205
				c-7.661,0-13.552-1.78-17.667-5.34C259.922,312.07,257.459,306.867,256.66,300.063z"/>
			<path fill="#FFFFFF" d="M318.9,319.804V259.25h44.848v10.309h-32.615v13.425h30.308v10.286h-30.308v16.222h33.758v10.313H318.9z"
				/>
			<g>
				<path fill-rule="evenodd" clip-rule="evenodd" fill="#FFFFFF" d="M211.474,159.182c-4.504,6.654-7.079,12.283-7.662,13.629
					c-0.316,0.624-0.609,1.224-0.894,1.812c-6.803,12.751-6.121,22.749-2.918,30.794c7.737-3.216,22.203-12.179,31.648-25.703
					c1.626-3.172,2.899-6.252,3.822-9.283c0.857-2.755,1.351-5.367,1.59-7.739h0.031c0.863-7.995-0.7-16.045-4.779-24.962
					C223.039,143.76,216.428,151.57,211.474,159.182z"/>
				<path fill-rule="evenodd" clip-rule="evenodd" fill="#FFFFFF" d="M242.806,8.308c-31.021-18.693-59.254,0-59.254,0
					l-52.839,33.297c1.929,3.975,3.027,8.438,3.027,13.163c0,16.655-13.62,30.244-30.275,30.244
					c-9.577,0-18.119-4.463-23.675-11.429l-8.24,5.182L40.326,98.279c-0.117-0.018-0.189-0.032-0.216-0.05
					c-4.648,2.973-8.063,5.173-11.023,7.07l-4.029,2.521h0.081c-4.711,3.004-9.161,5.773-17.441,10.842
					c-6.419,3.907-9.518,11.446-6.586,17.469c1.871,3.862,6.352,6.726,10.168,6.96c4.626,0.267,22.108-0.217,29.638-0.235
					c7.607,0,6.699,4.179,6.912,11.429v76.799h0.488H66.82h295.573h18.647h0.353v-82.748c0.682-2.395,2.168-5.33,5.7-5.408
					c8.904-0.23,17.495,0.195,29.854-0.054c6.817-0.145,12.45-2.48,12.306-12.341c-0.145-9.333-11.401-16.547-15.57-19.05
					l-22.148-13.254c0,0-0.023,0-0.068,0 M93.861,227.94c-4.265-21.421-2.436-38.592,0.252-51.281
					c1.139-4.811,2.543-10.19,3.546-13.968h0.045c2.033-7.196,3.148-11.288,0.447-12.228c-2.331,0.289-2.855-0.248-5.104-1.062
					c-2.354-2.656,27.917-22.921,32.412-18.435c3.152,5.773-4.997,16.366-7.675,21.534c-0.456,1.025-0.917,2.028-1.36,3.008
					l-0.063-0.014c0,0-2.779,6.139-5.818,12.897C101.025,189.055,95.781,201.048,93.861,227.94z M177.372,181.136
					c-3.387,13.548-4.548,25.79-6.386,42.467c-2.381-24.936-2.882-40.235-1.676-52.5c0.596-4.491,1.3-8.859,1.851-12.071
					c1.731-8.19,4.382-15.991,7.798-26.155c-9.585,4.287-20.92,12.685-30.208,22.311l-0.018-0.013c0,0-6.785,6.225-12.3,15.692
					c-1.776,2.955-3.203,5.891-4.188,8.728c-0.199,0.528-0.393,1.062-0.578,1.612h0.067c-1.328,4.585-1.423,8.891,0.167,12.567
					c1.713,6.916,14.984,14.36,29.697,13.819c-6.234,6.748-12.934,16.745-17.496,22.288c-22.835-5.091-30.885-19.574-29.213-41.424
					c1.229-4.825,2.367-8.817,3.731-12.377c2.335-5.073,6.423-12.215,12.938-18.638c1.477-1.445,2.579-2.539,3.393-3.338
					c0.966-0.881,1.978-1.78,3.071-2.719c14.835-9.934,26.236-15.007,42.065-22.452c1.311-5.99,6.437-15.955,11.678-25.861
					l0.085-0.009l5.449-10.588h0.04c0.809-1.558,1.563-3.076,2.282-4.526l0.167-0.334h-0.009c3.351-6.848,5.447-12.223,4.346-14.044
					c-2.381-1.726-7.426-1.319-8.136-1.26c4.057-6.998,33.238-25.871,38.158-17.27c4.928,7.052-6.346,24.651-12.83,35.795
					c-0.315,0.519-0.645,1.084-0.971,1.64l0,0l-3.772,6.238c-0.013,0-0.018,0-0.018,0c-0.555,0.913-1.102,1.83-1.643,2.747
					l-1.578,2.616h0.018c-8.38,14.139-16.239,28.26-23.909,43.095c-1.468,3.334-2.802,6.487-4.008,9.5h-0.04
					c0,0-0.217,0.57-0.578,1.559c-0.592,1.527-1.166,3.013-1.699,4.463h0.076c-0.587,1.663-1.255,3.578-1.938,5.602h-0.126
					c-1.165,3.469-2.16,6.776-3.026,9.992c-0.276,0.966-0.538,1.924-0.782,2.85H177.372z M259.791,155.861
					c-0.14,0.917-1.522,9.315-4.165,16.701c-2.963,7.291-6.717,13.268-8.425,15.535c-12.3,14.745-24.39,18.485-39.088,23.779
					c8.528,19.587,33.328,2.986,37.544-9.301c0.094,4.947-7.753,16.01-20.925,22.176c-14.817,4.639-25.194,5.651-35.018-7.778
					c-5.276,1.612-6.568,3.262-9.41,0.659c0.99-3.993,2.015-3.452,7.007-5.724c-4.694-12.947-1.058-25.585,5.208-39.111
					c2.11-4.102,5.335-9.468,9.861-14.93c8.539-9.396,20.21-17.129,31.084-23.698c2.872-1.726,6.613-1.147,10.01-1.012
					C256.647,137.047,260.337,146.118,259.791,155.861z M332.981,156.106l-0.009-0.009c0,0-5.787,11.546-9.229,20.5h0.104
					c-5.521,14.13-9.573,28.739-11.245,43.755c-3.396-13.349-2.072-30.835,1.474-47.297c1.351-5.357,2.118-8.56,2.656-10.787
					c4.313-15.512,10.253-28.952,15.444-35.384c-12.657,1.915-28.156,11.506-41.618,28.721c-1.305,1.554-6.229,7.589-9.555,14.189
					c-0.066,0.123-0.126,0.235-0.198,0.344c-0.148,0.316-0.28,0.623-0.41,0.931c-1.487,3.202-2.531,6.468-2.558,9.391
					c-1.373,15.264,11.75,25.935,28.454,22.763c-4.873,7.933-9.387,15.49-14.283,23.422c-16.194-3.637-27.759-16.335-30.022-25.595
					c-3.771-9.328-0.673-20.368,3.299-29.218c1.968-4.215,5.054-10.06,9.093-15.3l-0.108-0.009
					c11.207-14.198,27.258-22.311,40.294-28.45c30.148-14.677,34.53-6.311,35.94-3.523
					C344.333,134.707,338.338,145.246,332.981,156.106z"/>
			</g>
		</g>
		<line fill-rule="evenodd" clip-rule="evenodd" fill="#FFFFFF" x1="391.466" y1="98.229" x2="242.806" y2="8.308"/>
	</g>
	<g>
		<path fill="#FFFFFF" d="M374.526,72.481V46.132h-9.256v-5.38h24.759v5.38h-9.255v26.349H374.526z"/>
		<path fill="#FFFFFF" d="M397.397,72.481V40.751l9.433,0.032l5.656,21.665l5.613-21.697l9.479,0.032v31.698h-5.869V47.455
			l-6.211,25.026h-6.039l-6.185-25.026v25.026H397.397z"/>
	</g>
</g>
</svg>
