<?xml version="1.0" encoding="utf-8"?>
<!-- Generator: Adobe Illustrator 16.0.0, SVG Export Plug-In . SVG Version: 6.00 Build 0)  -->
<!DOCTYPE svg PUBLIC "-//W3C//DTD SVG 1.1//EN" "http://www.w3.org/Graphics/SVG/1.1/DTD/svg11.dtd">
<svg version="1.1" id="Layer_1" xmlns="http://www.w3.org/2000/svg" xmlns:xlink="http://www.w3.org/1999/xlink" x="0px" y="0px"
	 width="50px" height="35.684px" viewBox="1 0 50 35.684" enable-background="new 1 0 50 35.684" xml:space="preserve">
<path fill="#60AF74" d="M49.75,15.315L30.617,0.656c-0.017-0.012-0.032-0.017-0.049-0.029c-0.12-0.088-0.244-0.166-0.369-0.237
	c-0.049-0.027-0.098-0.049-0.151-0.071c-0.098-0.049-0.19-0.093-0.293-0.125c-0.054-0.022-0.117-0.042-0.173-0.059
	c-0.098-0.029-0.195-0.049-0.293-0.071c-0.063-0.012-0.125-0.022-0.186-0.034c-0.103-0.01-0.2-0.015-0.303-0.022
	C28.757,0.007,28.718,0,28.678,0c-0.017,0-0.032,0.005-0.046,0.005c-0.208,0-0.413,0.027-0.62,0.071
	c-0.042,0.012-0.085,0.022-0.127,0.032c-0.203,0.054-0.41,0.12-0.605,0.215c-0.005,0.002-0.01,0.002-0.015,0.01
	c-1.086,0.537-1.775,1.643-1.775,2.852l0,0v5.552v0.911H4.184C2.426,9.646,1,11.611,1,13.369v8.945v1.069
	c0,1.763,1.426,2.651,3.184,2.651H25.49v6.46l0,0c0,1.216,0.688,2.323,1.775,2.86c0.005,0.001,0.012,0.001,0.02,0.002
	c0.19,0.097,0.398,0.165,0.603,0.219c0.042,0.014,0.083,0.023,0.125,0.029c0.208,0.044,0.413,0.068,0.62,0.072
	c0.015,0,0.032,0.006,0.049,0.006c0.037,0,0.081-0.01,0.122-0.01c0.1-0.005,0.198-0.014,0.295-0.024
	c0.066-0.009,0.129-0.02,0.19-0.03c0.098-0.02,0.195-0.047,0.286-0.072c0.061-0.02,0.127-0.034,0.183-0.055
	c0.1-0.038,0.193-0.082,0.291-0.126c0.049-0.024,0.103-0.048,0.156-0.073c0.125-0.068,0.244-0.146,0.364-0.238
	c0.012-0.002,0.022-0.012,0.039-0.021c0-0.001,0.005-0.001,0.005-0.005l2.104-1.613L49.75,20.369C50.538,19.765,51,18.83,51,17.844
	C51,16.85,50.538,15.918,49.75,15.315z"/>
</svg>
