<?xml version="1.0" encoding="utf-8"?>
<!-- Generator: Adobe Illustrator 16.0.0, SVG Export Plug-In . SVG Version: 6.00 Build 0)  -->
<!DOCTYPE svg PUBLIC "-//W3C//DTD SVG 1.1//EN" "http://www.w3.org/Graphics/SVG/1.1/DTD/svg11.dtd">
<svg version="1.1" id="Layer_1" xmlns="http://www.w3.org/2000/svg" xmlns:xlink="http://www.w3.org/1999/xlink" x="0px" y="0px"
	 width="560px" height="560px" viewBox="0 0 560 560" enable-background="new 0 0 560 560" xml:space="preserve">
<g>
	<g>
		<g>
			<path fill="#231F20" d="M250.438,418.67c-15.926,0-31.854,0.085-47.779-0.008c-18.929-0.11-38.001-5.814-48.883-22.267
				c-9.979-15.086-11.113-34.324-11.113-51.848c0-11.253,0-22.506,0-33.759c0-57.028,0-114.056,0-171.084c0-0.292,0-0.583,0-0.875
				c-0.833,0.833-1.667,1.667-2.5,2.5c36.758,0,73.517,0,110.275,0c3.225,0,3.225-5,0-5c-36.758,0-73.517,0-110.275,0
				c-1.363,0-2.5,1.137-2.5,2.5c0,53.971,0,107.941,0,161.913c0,12.805,0,25.61,0,38.416c0,15.56,0.265,31.163,5.276,46.073
				c5.412,16.101,16.789,28.258,32.755,34.135c9.647,3.551,20.114,4.304,30.304,4.304c11.557,0,23.114,0,34.671,0
				c3.256,0,6.512,0,9.769,0C253.663,423.67,253.663,418.67,250.438,418.67L250.438,418.67z"/>
		</g>
	</g>
	<g>
		<g>
			<path fill="#231F20" d="M250.438,423.67c15.925,0,31.853,0.085,47.777-0.008c17.941-0.104,36.407-4.901,48.677-18.73
				c19.886-22.412,16.32-56.19,16.32-84.082c0-59.434,0-118.867,0-178.301c0-1.24,0-2.479,0-3.719c0-1.363-1.137-2.5-2.5-2.5
				c-36.758,0-73.517,0-110.274,0c-3.225,0-3.225,5,0,5c36.758,0,73.517,0,110.274,0c-0.833-0.833-1.667-1.667-2.5-2.5
				c0,53.971,0,107.941,0,161.913c0,12.805,0,25.61,0,38.416c0,15.85-0.252,31.721-5.835,46.781
				c-6.56,17.695-21.3,28.111-39.487,31.463c-12.397,2.285-25.43,1.268-37.968,1.268c-7.433,0-14.865,0-22.297,0
				c-0.729,0-1.458,0-2.187,0C247.214,418.67,247.214,423.67,250.438,423.67L250.438,423.67z"/>
		</g>
	</g>
	<g>
		<g>
			<path fill="#231F20" d="M309.562,423.043c15.926,0,31.853,0.085,47.777-0.008c17.941-0.104,36.407-4.901,48.677-18.729
				c19.903-22.432,16.32-56.255,16.32-84.17c0-59.294,0-118.588,0-177.882c0-1.141,0-2.283,0-3.424c0-1.363-1.138-2.5-2.5-2.5
				c-36.758,0-73.517,0-110.274,0c-3.225,0-3.225,5,0,5c36.758,0,73.517,0,110.274,0c-0.833-0.833-1.667-1.667-2.5-2.5
				c0,54.03,0,108.06,0,162.09c0,12.71,0,25.419,0,38.129c0,16.032-0.331,32.109-6.223,47.263
				c-6.861,17.645-22.074,27.596-40.285,30.664c-12.476,2.102-25.567,1.067-38.163,1.067c-7.101,0-14.2,0-21.3,0
				c-0.602,0-1.202,0-1.804,0C306.338,418.043,306.338,423.043,309.562,423.043L309.562,423.043z"/>
		</g>
	</g>
	<g>
		<g>
			<path fill="#231F20" d="M367.861,407.921c18.576-6.921,29.741-21.896,34.574-40.77c4.173-16.292,3.309-33.378,3.309-50.054
				c0-42.443,0-84.886,0-127.329c0-10.463,0-20.925,0-31.388c0-3.224-5-3.224-5,0c0,43.199,0,86.398,0,129.598
				c0,15.282,0,30.565,0,45.848c0,20.399-2.072,43.192-17.074,58.558c-4.764,4.88-10.785,8.349-17.137,10.715
				C363.539,404.214,364.834,409.049,367.861,407.921L367.861,407.921z"/>
		</g>
	</g>
	<g>
		<g>
			<path fill="#231F20" d="M313.215,234.625c-0.265,23.82-14.164,44.87-35.81,54.716c-21.979,9.998-48.399,4.385-65.561-12.074
				c-13.248-12.705-17.937-29.621-17.937-47.431c0-14.702,0-29.404,0-44.106c0-4.42,0-8.84,0-13.259c0-3.224-5-3.224-5,0
				c0,16.146,0,32.291,0,48.437c0,3.224,5,3.224,5,0c0-16.146,0-32.291,0-48.437c-0.833,0.833-1.667,1.667-2.5,2.5
				c5.281,0,10.562,0,15.844,0c-0.833-0.833-1.667-1.667-2.5-2.5c0,11.35,0,22.699,0,34.048c0,11.582-1.285,24.111,0.591,35.614
				c3.405,20.875,20.22,37.979,41.375,40.796c21.636,2.881,42.612-8.797,51.542-28.715c5.882-13.119,4.109-28.788,4.109-42.809
				c0-12.979,0-25.957,0-38.935c-0.833,0.833-1.667,1.667-2.5,2.5c5.282,0,10.563,0,15.846,0c-0.833-0.833-1.667-1.667-2.5-2.5
				C313.215,193.189,313.215,213.907,313.215,234.625c0,3.224,5,3.224,5,0c0-20.718,0-41.436,0-62.154c0-1.363-1.137-2.5-2.5-2.5
				c-5.282,0-10.563,0-15.846,0c-1.363,0-2.5,1.137-2.5,2.5c0,11.35,0,22.699,0,34.048c0,11.972,1.403,25.096-0.886,36.939
				c-4.672,24.182-29.494,39.066-53.062,33.795c-20.421-4.566-33.669-23.531-33.669-43.902c0-20.293,0-40.587,0-60.88
				c0-1.363-1.137-2.5-2.5-2.5c-5.281,0-10.562,0-15.844,0c-1.363,0-2.5,1.137-2.5,2.5c0,16.146,0,32.291,0,48.437
				c0,3.224,5,3.224,5,0c0-16.146,0-32.291,0-48.437c0-3.224-5-3.224-5,0c0,11.35,0,22.699,0,34.048
				c0,12.003-0.912,24.476,0.552,36.427c2.611,21.307,16.313,39.937,35.336,49.592c19.589,9.942,43.387,8.546,62.15-2.534
				c19.443-11.481,31.021-33.02,31.269-55.378C318.251,231.4,313.251,231.403,313.215,234.625z"/>
		</g>
	</g>
</g>
</svg>
