<?xml version="1.0" encoding="utf-8"?>
<!-- Generator: Adobe Illustrator 16.0.0, SVG Export Plug-In . SVG Version: 6.00 Build 0)  -->
<!DOCTYPE svg PUBLIC "-//W3C//DTD SVG 1.1//EN" "http://www.w3.org/Graphics/SVG/1.1/DTD/svg11.dtd">
<svg version="1.1" id="Layer_1" xmlns="http://www.w3.org/2000/svg" xmlns:xlink="http://www.w3.org/1999/xlink" x="0px" y="0px"
	 width="560px" height="560px" viewBox="0 0 560 560" enable-background="new 0 0 560 560" xml:space="preserve">
<g>
	<g>
		<path fill="#FFFFFF" d="M250.313,138.774h110.274c0,0,0,178.922,0,208.767c0,47.092-17.757,73.572-63.888,73.572
			c-32.217,0-46.388,0-46.388,0s-14.174,0-46.39,0c-46.129,0-63.886-26.48-63.886-73.572c0-29.845,0-208.767,0-208.767H250.313z"/>
		<g>
			<path fill="#231F20" d="M250.313,141.274c36.758,0,73.517,0,110.274,0c-0.834-0.833-1.668-1.667-2.5-2.5
				c0,53.97,0,107.941,0,161.912c0,12.805,0,25.61,0,38.416c0,15.85-0.252,31.721-5.836,46.781
				c-6.56,17.695-21.3,28.11-39.486,31.464c-12.397,2.285-25.43,1.268-37.968,1.268c-7.433,0-14.865,0-22.297,0
				c-10.358,0-20.716,0-31.074,0c-20.995,0-44.008,1.419-60.654-13.773c-22.624-20.648-18.234-56.987-18.234-84.847
				c0-59.269,0-118.539,0-177.809c0-1.137,0-2.273,0-3.411c-0.833,0.833-1.667,1.667-2.5,2.5
				C176.796,141.274,213.555,141.274,250.313,141.274c3.225,0,3.225-5,0-5c-36.758,0-73.517,0-110.275,0c-1.363,0-2.5,1.137-2.5,2.5
				c0,53.97,0,107.941,0,161.912c0,12.805,0,25.61,0,38.416c0,15.561,0.265,31.163,5.276,46.073
				c5.412,16.101,16.789,28.259,32.755,34.136c9.647,3.551,20.114,4.304,30.304,4.304c11.557,0,23.114,0,34.671,0
				c7.775,0,15.55,0,23.325,0c12.305,0,24.649,0.294,36.948-0.072c9.447-0.281,19.104-1.862,27.812-5.643
				c32.262-13.999,34.459-50.465,34.459-81.078c0-61.329,0-122.66,0-183.99c0-4.686,0-9.371,0-14.056c0-1.363-1.138-2.5-2.5-2.5
				c-36.758,0-73.518,0-110.274,0C247.089,136.274,247.089,141.274,250.313,141.274z"/>
		</g>
	</g>
	<g>
		<path fill="#FFFFFF" d="M309.438,420.487c0,0,14.172,0,46.389,0c46.129,0,63.886-26.479,63.886-73.57
			c0-29.846,0-208.142,0-208.142H309.438"/>
		<g>
			<path fill="#231F20" d="M309.438,422.987c15.926,0,31.854,0.085,47.777-0.008c17.94-0.104,36.406-4.901,48.677-18.729
				c19.903-22.433,16.319-56.257,16.319-84.17c0-59.294,0-118.588,0-177.882c0-1.141,0-2.283,0-3.424c0-1.363-1.138-2.5-2.5-2.5
				c-36.758,0-73.517,0-110.273,0c-3.225,0-3.225,5,0,5c36.758,0,73.517,0,110.273,0c-0.833-0.833-1.667-1.667-2.5-2.5
				c0,54.03,0,108.06,0,162.09c0,12.708,0,25.418,0,38.127c0,16.033-0.33,32.109-6.223,47.264
				c-6.859,17.645-22.074,27.597-40.285,30.665c-12.476,2.102-25.566,1.066-38.162,1.066c-7.102,0-14.201,0-21.301,0
				c-0.602,0-1.201,0-1.804,0C306.213,417.987,306.213,422.987,309.438,422.987L309.438,422.987z"/>
		</g>
	</g>
	<g>
		<path fill="#FFFFFF" d="M367.072,405.453c25.623-9.241,36.047-33.222,36.047-69.304c0-22.025,0-125.251,0-177.825"/>
		<g>
			<path fill="#231F20" d="M367.736,407.865c18.576-6.921,29.741-21.896,34.574-40.771c4.173-16.292,3.309-33.378,3.309-50.053
				c0-42.443,0-84.886,0-127.329c0-10.463,0-20.926,0-31.388c0-3.224-5-3.224-5,0c0,43.199,0,86.398,0,129.597
				c0,15.283,0,30.564,0,45.848c0,20.399-2.072,43.192-17.074,58.559c-4.764,4.881-10.785,8.35-17.137,10.716
				C363.414,404.158,364.709,408.993,367.736,407.865L367.736,407.865z"/>
		</g>
	</g>
	<g>
		<path fill="#FFFFFF" d="M315.59,234.57c0,34.329-27.828,62.152-62.154,62.152s-62.152-27.825-62.152-62.152v-62.154v48.437
			v-48.437h15.844v62.154c0,25.577,20.734,46.307,46.309,46.307c25.578,0,46.309-20.73,46.309-46.307v-62.154h15.847v62.154H315.59z
			"/>
		<g>
			<path fill="#231F20" d="M313.09,234.57c-0.266,23.82-14.166,44.869-35.811,54.715c-21.979,9.998-48.398,4.385-65.561-12.073
				c-13.248-12.705-17.937-29.621-17.937-47.431c0-14.702,0-29.404,0-44.106c0-4.419,0-8.839,0-13.259c0-3.224-5-3.224-5,0
				c0,16.146,0,32.291,0,48.437c0,3.224,5,3.224,5,0c0-16.146,0-32.291,0-48.437c-0.833,0.833-1.667,1.667-2.5,2.5
				c5.281,0,10.562,0,15.844,0c-0.833-0.833-1.667-1.667-2.5-2.5c0,11.35,0,22.699,0,34.049c0,11.582-1.285,24.111,0.591,35.613
				c3.405,20.875,20.22,37.98,41.375,40.797c21.636,2.881,42.612-8.798,51.542-28.716c5.883-13.118,4.109-28.787,4.109-42.808
				c0-12.979,0-25.957,0-38.935c-0.833,0.833-1.667,1.667-2.5,2.5c5.282,0,10.562,0,15.846,0c-0.832-0.833-1.666-1.667-2.5-2.5
				C313.09,193.134,313.09,213.851,313.09,234.57c0,3.224,5,3.224,5,0c0-20.718,0-41.436,0-62.154c0-1.363-1.138-2.5-2.5-2.5
				c-5.282,0-10.563,0-15.847,0c-1.362,0-2.5,1.137-2.5,2.5c0,11.35,0,22.699,0,34.049c0,11.972,1.403,25.096-0.886,36.938
				c-4.672,24.182-29.494,39.065-53.062,33.796c-20.421-4.567-33.669-23.531-33.669-43.903c0-20.293,0-40.587,0-60.88
				c0-1.363-1.137-2.5-2.5-2.5c-5.281,0-10.562,0-15.844,0c-1.363,0-2.5,1.137-2.5,2.5c0,16.146,0,32.291,0,48.437
				c0,3.224,5,3.224,5,0c0-16.146,0-32.291,0-48.437c0-3.224-5-3.224-5,0c0,11.35,0,22.699,0,34.049
				c0,12.003-0.912,24.476,0.552,36.426c2.611,21.307,16.313,39.935,35.336,49.59c19.589,9.942,43.387,8.546,62.15-2.534
				c19.443-11.479,31.021-33.018,31.27-55.377C318.127,231.344,313.127,231.348,313.09,234.57z"/>
		</g>
	</g>
</g>
</svg>
