<?xml version="1.0" encoding="utf-8"?>
<!-- Generator: Adobe Illustrator 16.0.0, SVG Export Plug-In . SVG Version: 6.00 Build 0)  -->
<!DOCTYPE svg PUBLIC "-//W3C//DTD SVG 1.1//EN" "http://www.w3.org/Graphics/SVG/1.1/DTD/svg11.dtd">
<svg version="1.1" id="Layer_1" xmlns="http://www.w3.org/2000/svg" xmlns:xlink="http://www.w3.org/1999/xlink" x="0px" y="0px"
	 width="560px" height="560px" viewBox="-999.5 400.5 560 560" enable-background="new -999.5 400.5 560 560" xml:space="preserve">
<g>
	<g>
		<g>
			<path fill="#231F20" d="M-585.12,684.998c-0.232,46.146-24.006,89.222-62.949,114c-39.352,25.038-90.326,27.143-131.957,6.475
				c-40.865-20.289-68.923-61.279-73.72-106.536c-4.869-45.938,14.966-91.4,50.968-120.016
				c36.531-29.034,86.957-36.059,130.469-19.99c42.684,15.762,74.57,53.719,84.248,97.926
				C-586.037,666.099-585.167,675.547-585.12,684.998c0.016,3.224,5.016,3.226,5,0c-0.223-44.338-21.317-85.833-56.762-112.39
				c-35.938-26.926-84.146-34.105-126.667-20.275c-41.375,13.458-74.265,46.701-88.474,87.632
				c-14.725,42.417-7.053,90.586,19.073,126.876c25.772,35.799,67.786,57.147,111.757,57.812
				c44.23,0.668,86.299-20.748,113.014-55.706c18.324-23.979,27.906-53.872,28.059-83.95
				C-580.104,681.772-585.104,681.774-585.12,684.998z"/>
		</g>
	</g>
	<g>
		<g>
			<path fill="#231F20" d="M-607.077,699.03c-7.143,56.397-56.032,99.172-112.705,99.515c-3.223,0.021-3.225,5.021,0,5
				c59.65-0.361,110.219-45.404,117.705-104.515C-601.673,695.838-606.679,695.877-607.077,699.03L-607.077,699.03z"/>
		</g>
	</g>
	<g>
		<g>
			<path fill="#231F20" d="M-685.782,576.627c39.167,12.515,68.727,45.349,77.254,85.539c0.669,3.153,5.489,1.815,4.821-1.329
				c-8.89-41.9-39.989-76.01-80.746-89.031C-687.533,570.821-688.841,575.649-685.782,576.627L-685.782,576.627z"/>
		</g>
	</g>
	<g>
		<g>
			<path fill="#231F20" d="M-761.182,790.775c-47.012-18.625-75.894-66.374-71.654-116.56c3.988-47.201,39.284-87.201,84.664-99.188
				c9.266-2.447,18.82-3.521,28.391-3.578c3.224-0.021,3.226-5.021,0-5c-45.058,0.271-86.513,26.057-106.519,66.47
				c-21.121,42.664-13.431,94.761,17.574,130.443c12.478,14.359,28.584,25.248,46.216,32.232
				C-759.51,796.785-758.221,791.948-761.182,790.775L-761.182,790.775z"/>
		</g>
	</g>
	<g>
		<g>
			<path fill="#231F20" d="M-771.652,662.792c16.737,9.548,33.475,19.096,50.213,28.645c0.899,0.514,2.327,0.478,3.029-0.391
				c17-21.007,34.001-42.016,51.001-63.021c2.009-2.482-1.506-6.043-3.535-3.535c-17,21.007-34.001,42.015-51.001,63.021
				c1.011-0.13,2.021-0.261,3.029-0.391c-16.737-9.549-33.475-19.096-50.213-28.645
				C-771.934,656.874-774.452,661.194-771.652,662.792L-771.652,662.792z"/>
		</g>
	</g>
	<g>
		<g>
			<path fill="#231F20" d="M-800.332,799.682c-9.814,14.146-19.629,28.289-29.443,42.435c-1.843,2.656,2.493,5.151,4.317,2.522
				c9.814-14.145,19.629-28.289,29.443-42.434C-794.172,799.549-798.508,797.053-800.332,799.682L-800.332,799.682z"/>
		</g>
	</g>
	<g>
		<g>
			<path fill="#231F20" d="M-639.286,802.205c9.814,14.145,19.628,28.289,29.441,42.434c1.824,2.629,6.161,0.134,4.317-2.522
				c-9.813-14.146-19.628-28.289-29.442-42.435C-636.793,797.053-641.13,799.549-639.286,802.205L-639.286,802.205z"/>
		</g>
	</g>
	<g>
		<g>
			<path fill="#231F20" d="M-783.992,539.284c-16.754-25.954-51.837-31.71-76.047-12.653c-24.883,19.587-24.303,57.959-1.187,78.509
				c1.175,1.045,3.104,0.967,3.926-0.506c15.867-28.41,41.27-50.369,71.813-61.678c2.997-1.109,1.701-5.943-1.329-4.821
				c-31.769,11.763-58.277,34.388-74.802,63.976c1.309-0.168,2.618-0.336,3.926-0.506c-20.915-18.594-21.322-50.779-0.781-69.758
				c21.017-19.42,55.018-13.5,70.162,9.961C-786.567,544.506-782.237,542.002-783.992,539.284z"/>
		</g>
	</g>
	<g>
		<g>
			<path fill="#231F20" d="M-650.661,541.808c15.161-23.48,47.623-28.732,69.189-10.813c21.949,18.235,21.07,52.049,0.192,70.612
				c1.31,0.168,2.617,0.336,3.926,0.506c-16.523-29.59-43.034-52.215-74.803-63.977c-3.03-1.121-4.326,3.713-1.329,4.821
				c30.543,11.31,55.948,33.269,71.814,61.678c0.821,1.474,2.751,1.552,3.926,0.507c23.23-20.656,23.176-57.203-0.191-77.684
				c-23.607-20.689-60.369-13.998-77.043,11.826C-656.733,542.002-652.404,544.506-650.661,541.808z"/>
		</g>
	</g>
	<circle fill="#231F20" cx="-740.906" cy="798.529" r="3.93"/>
	<circle fill="#231F20" cx="-603.162" cy="679.654" r="3.93"/>
	<path fill="#231F20" d="M-697.763,568.949c0,2.171-1.761,3.932-3.932,3.932c-2.17,0-3.929-1.761-3.929-3.932
		c0-2.168,1.759-3.929,3.929-3.929C-699.523,565.021-697.763,566.781-697.763,568.949z"/>
</g>
</svg>
