<?xml version="1.0" encoding="utf-8"?>
<!-- Generator: Adobe Illustrator 16.0.0, SVG Export Plug-In . SVG Version: 6.00 Build 0)  -->
<!DOCTYPE svg PUBLIC "-//W3C//DTD SVG 1.1//EN" "http://www.w3.org/Graphics/SVG/1.1/DTD/svg11.dtd">
<svg version="1.1" id="Layer_1" xmlns="http://www.w3.org/2000/svg" xmlns:xlink="http://www.w3.org/1999/xlink" x="0px" y="0px"
	 width="560px" height="560px" viewBox="0 0 560 560" enable-background="new 0 0 560 560" xml:space="preserve">
<g>
	<g>
		<circle fill="#FFFFFF" cx="279.743" cy="284.084" r="124.501"/>
		<g>
			<path fill="#231F20" d="M401.974,284.083c-0.21,41.886-21.789,80.985-57.138,103.477c-35.718,22.727-81.987,24.637-119.774,5.877
				c-37.094-18.416-62.562-55.622-66.916-96.7c-4.419-41.699,13.585-82.964,46.264-108.937
				c33.158-26.355,78.928-32.729,118.423-18.144c38.743,14.306,67.686,48.759,76.472,88.885
				C401.143,266.928,401.932,275.504,401.974,284.083c0.017,2.928,4.556,2.928,4.54,0c-0.204-40.245-19.349-77.91-51.522-102.015
				c-32.62-24.44-76.379-30.957-114.973-18.403c-37.556,12.215-67.409,42.391-80.307,79.542
				c-13.365,38.502-6.402,82.223,17.311,115.164c23.395,32.495,61.529,51.873,101.441,52.476
				c40.147,0.606,78.332-18.833,102.582-50.563c16.631-21.766,25.33-48.897,25.47-76.2
				C406.529,281.156,401.99,281.158,401.974,284.083z"/>
		</g>
	</g>
	<g>
		<g>
			<path fill="#231F20" d="M382.044,296.821c-6.482,51.189-50.858,90.015-102.301,90.327c-2.925,0.019-2.927,4.557,0,4.539
				c54.143-0.329,100.044-41.212,106.839-94.866C386.949,293.923,382.407,293.957,382.044,296.821L382.044,296.821z"/>
		</g>
	</g>
	<g>
		<g>
			<path fill="#231F20" d="M310.604,185.716c35.553,11.359,62.383,41.163,70.123,77.643c0.608,2.862,4.983,1.648,4.376-1.206
				c-8.069-38.033-36.297-68.994-73.291-80.812C309.016,180.445,307.829,184.829,310.604,185.716L310.604,185.716z"/>
		</g>
	</g>
	<g>
		<g>
			<path fill="#231F20" d="M242.165,380.096c-42.672-16.904-68.887-60.247-65.039-105.799c3.62-42.845,35.658-79.152,76.849-90.032
				c8.411-2.221,17.083-3.195,25.77-3.248c2.926-0.018,2.928-4.557,0-4.538c-40.898,0.247-78.526,23.652-96.686,60.333
				c-19.171,38.726-12.19,86.013,15.952,118.403c11.326,13.033,25.946,22.918,41.951,29.256
				C243.683,385.551,244.853,381.16,242.165,380.096L242.165,380.096z"/>
		</g>
	</g>
	<g>
		<g>
			<path fill="#231F20" d="M232.662,263.926c15.192,8.667,30.385,17.334,45.578,26c0.816,0.467,2.112,0.436,2.75-0.354
				c15.43-19.068,30.861-38.137,46.292-57.205c1.824-2.253-1.367-5.485-3.211-3.209c-15.43,19.068-30.859,38.136-46.29,57.206
				c0.917-0.119,1.833-0.237,2.749-0.355c-15.192-8.668-30.384-17.335-45.577-26.002
				C232.406,258.556,230.12,262.476,232.662,263.926L232.662,263.926z"/>
		</g>
	</g>
	<g>
		<g>
			<path fill="#231F20" d="M206.629,388.181c-8.908,12.84-17.816,25.677-26.724,38.518c-1.673,2.411,2.262,4.675,3.918,2.289
				c8.908-12.839,17.817-25.678,26.726-38.518C212.221,388.06,208.285,385.794,206.629,388.181L206.629,388.181z"/>
		</g>
	</g>
	<g>
		<g>
			<path fill="#231F20" d="M352.809,390.47c8.907,12.84,17.816,25.679,26.724,38.518c1.654,2.386,5.592,0.121,3.918-2.289
				c-8.906-12.841-17.816-25.678-26.723-38.518C355.069,385.794,351.135,388.06,352.809,390.47L352.809,390.47z"/>
		</g>
	</g>
	<g>
		<path fill="#FFFFFF" d="M219.502,152.965c-7.831-12.529-21.742-20.869-37.606-20.869c-24.482,0-44.331,19.847-44.331,44.329
			c0,13.42,5.972,25.438,15.396,33.567C167.411,183.775,191.032,163.322,219.502,152.965z"/>
		<g>
			<path fill="#231F20" d="M221.462,151.82c-15.207-23.557-47.051-28.783-69.027-11.485c-22.585,17.78-22.059,52.609-1.078,71.263
				c1.067,0.948,2.817,0.878,3.563-0.46c14.402-25.787,37.46-45.719,65.183-55.984c2.721-1.006,1.545-5.395-1.205-4.375
				c-28.837,10.677-52.897,31.213-67.897,58.069c1.188-0.152,2.376-0.306,3.563-0.458c-18.984-16.877-19.353-46.093-0.708-63.32
				c19.077-17.625,49.939-12.253,63.685,9.042C219.124,156.56,223.054,154.287,221.462,151.82z"/>
		</g>
	</g>
	<g>
		<path fill="#FFFFFF" d="M340.525,152.965c7.832-12.529,21.741-20.869,37.605-20.869c24.486,0,44.332,19.847,44.332,44.329
			c0,13.42-5.973,25.438-15.396,33.567C392.617,183.775,368.996,163.322,340.525,152.965z"/>
		<g>
			<path fill="#231F20" d="M342.483,154.11c13.76-21.313,43.228-26.081,62.802-9.816c19.921,16.552,19.125,47.245,0.175,64.094
				c1.188,0.152,2.375,0.306,3.562,0.458c-14.995-26.856-39.06-47.392-67.897-58.069c-2.751-1.019-3.927,3.369-1.206,4.375
				c27.725,10.265,50.783,30.197,65.185,55.984c0.746,1.338,2.497,1.408,3.565,0.46c21.085-18.749,21.035-51.923-0.175-70.513
				c-21.428-18.779-54.798-12.705-69.932,10.734C336.972,154.287,340.902,156.56,342.483,154.11z"/>
		</g>
	</g>
	<circle fill="#231F20" cx="260.57" cy="387.134" r="3.568"/>
	<circle fill="#231F20" cx="385.598" cy="279.232" r="3.567"/>
	<path fill="#231F20" d="M299.729,178.747c0,1.971-1.598,3.569-3.568,3.569c-1.97,0-3.566-1.598-3.566-3.569
		c0-1.967,1.597-3.565,3.566-3.565C298.134,175.182,299.729,176.779,299.729,178.747z"/>
</g>
</svg>
