<?xml version="1.0" encoding="utf-8"?>
<!-- Generator: Adobe Illustrator 16.0.0, SVG Export Plug-In . SVG Version: 6.00 Build 0)  -->
<!DOCTYPE svg PUBLIC "-//W3C//DTD SVG 1.1//EN" "http://www.w3.org/Graphics/SVG/1.1/DTD/svg11.dtd">
<svg version="1.1" id="Layer_1" xmlns="http://www.w3.org/2000/svg" xmlns:xlink="http://www.w3.org/1999/xlink" x="0px" y="0px"
	 width="560px" height="560px" viewBox="0 0 560 560" enable-background="new 0 0 560 560" xml:space="preserve">
<g>
	<path fill="#FFFFFF" d="M375.066,446.555c0,4.502-3.65,8.15-8.152,8.15H190.992c-4.5,0-8.15-3.648-8.15-8.15V180.304
		c0-4.501,3.65-8.15,8.15-8.15h175.922c4.502,0,8.152,3.649,8.152,8.15V446.555z"/>
	<g>
		<path fill="#231F20" d="M372.566,446.555c-0.651,8.075-14.344,5.65-19.814,5.65c-12.902,0-25.805,0-38.707,0
			c-31.351,0-62.7,0-94.051,0c-8.887,0-17.773,0-26.66,0c-3.703,0-7.992-0.746-7.992-5.695c0-1.229,0-2.457,0-3.687
			c0-20.204,0-40.408,0-60.612c0-59.711,0-119.422,0-179.133c0-6.815,0-13.631,0-20.446c0-3,0.102-5.507,3.167-7.41
			c1.604-0.996,4.792-0.568,6.581-0.568c25.292,0,50.585,0,75.877,0c28.352,0,56.704,0,85.056,0c4.994,0,16.544-1.942,16.544,5.828
			c0,4.672,0,9.345,0,14.017c0,57.794,0,115.589,0,173.383C372.566,394.105,372.566,420.33,372.566,446.555c0,3.225,5,3.225,5,0
			c0-44.375,0-88.75,0-133.125c0-44.375,0-88.751,0-133.126c0-11.072-10.907-10.65-18.654-10.65c-11.365,0-22.73,0-34.095,0
			c-31.718,0-63.435,0-95.152,0c-10.792,0-21.583,0-32.374,0c-7.471,0-16.949,0.5-16.949,10.729c0,14.853,0,29.705,0,44.557
			c0,60.99,0,121.979,0,182.968c0,9.631,0,19.262,0,28.893c0,4.043-0.872,9.738,0.757,13.592c3.497,8.272,12.502,6.812,19.779,6.812
			c11.908,0,23.816,0,35.724,0c30.546,0,61.093,0,91.64,0c10.515,0,21.03,0,31.545,0c7.994,0,16.925-0.051,17.78-10.65
			C377.826,443.339,372.824,443.363,372.566,446.555z"/>
	</g>
</g>
<g>
	<g>
		<path fill="#231F20" d="M196.402,338.619c3.225,0,3.225-5,0-5S193.178,338.619,196.402,338.619L196.402,338.619z"/>
	</g>
</g>
<g>
	<g>
		<path fill="#231F20" d="M267.393,436.359c-11.299,0-22.599,0-33.898,0c-7.253,0-14.506,0-21.759,0
			c-4.523,0-12.833,1.253-12.833-5.667c0-24.498,0-48.996,0-73.494c0-1.177,0-2.354,0-3.531c0-3.225-5-3.225-5,0
			c0,24.35,0,48.699,0,73.049c0,4.727,0.088,8.924,4.069,12.339c3.416,2.93,8.323,2.305,12.494,2.305c14.861,0,29.723,0,44.584,0
			c4.114,0,8.229,0,12.343,0C270.617,441.359,270.617,436.359,267.393,436.359L267.393,436.359z"/>
	</g>
</g>
<g>
	<g>
		<path fill="#231F20" d="M362.316,294.451c3.225,0,3.225-5,0-5S359.092,294.451,362.316,294.451L362.316,294.451z"/>
	</g>
</g>
<g>
	<g>
		<path fill="#231F20" d="M291.326,189.711c11.299,0,22.599,0,33.897,0c7.253,0,14.506,0,21.759,0
			c4.524,0,12.834-1.252,12.834,5.667c0,24.498,0,48.996,0,73.493c0,1.177,0,2.354,0,3.532c0,3.224,5,3.224,5,0
			c0-24.35,0-48.699,0-73.049c0-4.726-0.088-8.923-4.069-12.338c-3.416-2.93-8.324-2.305-12.495-2.305c-14.861,0-29.723,0-44.583,0
			c-4.114,0-8.229,0-12.343,0C288.102,184.711,288.102,189.711,291.326,189.711L291.326,189.711z"/>
	</g>
</g>
<g>
	<g>
		<path fill="#231F20" d="M258.285,364.489c5.947,0,11.894,0,17.84,0c6.291,0,13.219,0.738,19.119-1.866
			c20.789-9.18,17.595-39.597-4.4-44.649c-5.894-1.354-12.461-0.334-18.456-0.528c-14.324-0.463-20.935-17.201-14.141-28.53
			c4.941-8.238,13.878-8.426,22.278-8.426c6.057,0,12.114,0,18.171,0c3.225,0,3.225-5,0-5c-6.057,0-12.114,0-18.171,0
			c-7.343,0-14.05,0.019-20.419,4.393c-8.491,5.831-11.543,16.788-8.676,26.409c2.922,9.808,12.458,15.88,22.34,16.199
			c6.639,0.215,13.896-1.049,20.147,1.712c12.742,5.626,13.643,22.504,3.847,31.172c-5.879,5.202-14.396,4.115-21.637,4.115
			c-5.947,0-11.894,0-17.84,0C255.061,359.489,255.061,364.489,258.285,364.489L258.285,364.489z"/>
	</g>
</g>
<g>
	<g>
		<path fill="#231F20" d="M274.1,268.686c0,34.203,0,68.405,0,102.608c0,3.225,5,3.225,5,0c0-34.203,0-68.405,0-102.608
			C279.1,265.461,274.1,265.461,274.1,268.686L274.1,268.686z"/>
	</g>
</g>
<g>
	<g>
		<path fill="#231F20" d="M282.992,268.686c0,34.203,0,68.405,0,102.608c0,3.225,5,3.225,5,0c0-34.203,0-68.405,0-102.608
			C287.992,265.461,282.992,265.461,282.992,268.686L282.992,268.686z"/>
	</g>
</g>
<g>
	<path fill="#FFFFFF" d="M182.932,164.334l8.317-44.111c0-3.938,3.192-7.13,7.129-7.13h158.343c3.938,0,7.131,3.192,7.131,7.13
		l8.91,44.111"/>
	<g>
		<path fill="#231F20" d="M185.342,164.999c2.292-12.158,4.585-24.317,6.877-36.475c0.734-3.892,1.065-12.931,6.233-12.931
			c1.995,0,3.99,0,5.984,0c27.359,0,54.718,0,82.077,0c22.447,0,44.894,0,67.341,0c3.355,0,7.076-0.063,7.497,4.63
			c0.345,3.847,1.521,7.752,2.283,11.528c2.239,11.083,4.478,22.165,6.717,33.248c0.638,3.159,5.457,1.819,4.82-1.329
			c-2.455-12.159-4.911-24.317-7.367-36.475c-0.956-4.735-1.191-10.662-4.723-14.192c-2.434-2.434-5.791-2.409-8.941-2.409
			c-25.198,0-50.396,0-75.593,0c-25.667,0-51.335,0-77.003,0c-2.89,0-5.28,0.011-8.026,1.315c-4.865,2.31-4.973,9.203-5.845,13.828
			c-2.377,12.607-4.754,25.214-7.132,37.822c-0.007,0.038-0.014,0.075-0.021,0.112C179.927,166.82,184.745,168.165,185.342,164.999
			L185.342,164.999z"/>
	</g>
</g>
<g>
	<path fill="#FFFFFF" d="M328.858,143.178c0,2.18-3.007,3.949-6.716,3.949h-91.5c-3.709,0-6.717-1.77-6.717-3.949l0,0
		c0-2.182,3.007-3.949,6.717-3.949h91.5C325.852,139.229,328.858,140.996,328.858,143.178L328.858,143.178z"/>
	<g>
		<path fill="#231F20" d="M326.447,142.513c-0.592,3.023-8.972,2.114-11.082,2.114c-6.244,0-12.488,0-18.731,0
			c-15.796,0-31.591,0-47.386,0c-5.199,0-10.398,0-15.598,0c-0.96,0-1.92,0-2.88,0c-3.504,0-3.597-2.664-0.128-2.898
			c0.225-0.015,0.457,0,0.683,0c11.084,0,22.168,0,33.253,0c12.986,0,25.973,0,38.959,0c4.626,0,9.253,0,13.88,0
			c2.114,0,8.482-0.686,9.03,2.114c0.62,3.163,5.438,1.82,4.822-1.329c-1.676-8.556-20.049-5.785-26.12-5.785
			c-15.726,0-31.451,0-47.176,0c-9.11,0-18.221,0-27.331,0c-3.817,0-8.318,1.65-9.127,5.785c-0.812,4.145,4.172,6.778,7.587,7.009
			c2.952,0.2,5.922,0.104,8.88,0.104c18.636,0,37.271,0,55.907,0c7.682,0,15.363,0,23.045,0c5.08,0,13.071,0.665,14.336-5.785
			C331.887,140.693,327.067,139.351,326.447,142.513z"/>
	</g>
</g>
<polygon fill="#FFFFFF" points="237.786,144.535 242.541,132.42 244.239,126.986 273.275,112 308.764,123.483 312.499,135.477 
	312.499,144.535 "/>
<g>
	<path fill="#FFFFFF" d="M234.287,147.252c0-23.253,18.851-42.104,42.105-42.104c23.254,0,42.104,18.851,42.104,42.104h-8.705
		c0-18.445-14.953-33.398-33.398-33.398c-18.446,0-33.4,14.953-33.4,33.398H234.287z"/>
	<g>
		<path fill="#231F20" d="M236.787,147.252c0.354-21.854,17.752-39.25,39.605-39.604c21.854-0.354,39.258,18.284,39.604,39.604
			c0.833-0.833,1.667-1.667,2.5-2.5c-2.901,0-5.804,0-8.705,0c0.833,0.833,1.667,1.667,2.5,2.5
			c-0.401-19.845-16.054-35.497-35.898-35.898s-35.511,16.658-35.9,35.898c0.833-0.833,1.667-1.667,2.5-2.5
			c-2.902,0-5.804,0-8.706,0c-3.225,0-3.225,5,0,5c2.902,0,5.804,0,8.706,0c1.384,0,2.472-1.138,2.5-2.5
			c0.346-17.101,13.8-30.552,30.9-30.898c17.1-0.346,30.562,14.319,30.898,30.898c0.027,1.362,1.116,2.5,2.5,2.5
			c2.901,0,5.804,0,8.705,0c1.346,0,2.522-1.137,2.5-2.5c-0.398-24.586-20.017-44.206-44.604-44.604
			c-24.588-0.398-44.217,20.615-44.605,44.604C231.735,150.478,236.735,150.473,236.787,147.252z"/>
	</g>
</g>
<g>
	<line fill="#FFFFFF" x1="275.143" y1="112.84" x2="275.143" y2="105.167"/>
	<g>
		<path fill="#231F20" d="M277.018,112.84c0-2.558,0-5.115,0-7.673c0-2.418-3.75-2.418-3.75,0c0,2.558,0,5.115,0,7.673
			C273.268,115.258,277.018,115.258,277.018,112.84L277.018,112.84z"/>
	</g>
</g>
<g>
	<line fill="#FFFFFF" x1="289.035" y1="115.46" x2="291.973" y2="108.543"/>
	<g>
		<path fill="#231F20" d="M290.654,116.406c0.979-2.306,1.958-4.611,2.938-6.917c0.399-0.941,0.291-2-0.673-2.565
			c-0.796-0.466-2.165-0.269-2.565,0.673c-0.979,2.306-1.958,4.611-2.938,6.917c-0.399,0.941-0.291,2,0.673,2.565
			C288.885,117.545,290.254,117.348,290.654,116.406L290.654,116.406z"/>
	</g>
</g>
<g>
	<line fill="#FFFFFF" x1="261.752" y1="117.196" x2="258.071" y2="109.629"/>
	<g>
		<path fill="#231F20" d="M263.372,116.25c-1.227-2.522-2.454-5.045-3.681-7.567c-1.058-2.174-4.291-0.272-3.238,1.893
			c1.227,2.522,2.454,5.045,3.681,7.567C261.191,120.317,264.425,118.415,263.372,116.25L263.372,116.25z"/>
	</g>
</g>
<g>
	<line fill="#FFFFFF" x1="245.402" y1="133.051" x2="239.228" y2="129.972"/>
	<g>
		<path fill="#231F20" d="M246.348,131.432c-2.058-1.026-4.116-2.053-6.174-3.079c-2.157-1.076-4.057,2.159-1.893,3.238
			c2.058,1.026,4.116,2.053,6.174,3.079C246.612,135.746,248.513,132.511,246.348,131.432L246.348,131.432z"/>
	</g>
</g>
<g>
	<line fill="#FFFFFF" x1="306.438" y1="132.014" x2="313.238" y2="128.818"/>
	<g>
		<path fill="#231F20" d="M307.385,133.633c2.267-1.065,4.533-2.13,6.8-3.195c2.188-1.028,0.282-4.26-1.893-3.238
			c-2.267,1.065-4.533,2.13-6.8,3.195C303.305,131.422,305.21,134.655,307.385,133.633L307.385,133.633z"/>
	</g>
</g>
<g>
	<line fill="#FFFFFF" x1="309.456" y1="143.592" x2="318.414" y2="142.44"/>
	<g>
		<path fill="#231F20" d="M309.456,145.467c2.986-0.384,5.972-0.768,8.958-1.151c2.364-0.304,2.394-4.058,0-3.75
			c-2.986,0.384-5.972,0.768-8.958,1.151C307.092,142.021,307.062,145.774,309.456,145.467L309.456,145.467z"/>
	</g>
</g>
<g>
	<line fill="#FFFFFF" x1="242.901" y1="144.027" x2="235.338" y2="143.305"/>
	<g>
		<path fill="#231F20" d="M242.901,142.152c-2.521-0.241-5.042-0.482-7.563-0.723c-2.407-0.23-2.385,3.522,0,3.75
			c2.521,0.241,5.042,0.482,7.563,0.723C245.309,146.132,245.286,142.38,242.901,142.152L242.901,142.152z"/>
	</g>
</g>
<g>
	<line fill="#FFFFFF" x1="300.082" y1="121.764" x2="305.11" y2="116.736"/>
	<g>
		<path fill="#231F20" d="M301.408,123.089c1.676-1.676,3.352-3.352,5.028-5.027c1.711-1.711-0.94-4.363-2.652-2.651
			c-1.676,1.676-3.352,3.352-5.028,5.027C297.045,122.149,299.696,124.801,301.408,123.089L301.408,123.089z"/>
	</g>
</g>
<g>
	<line fill="#FFFFFF" x1="252.158" y1="124.564" x2="245.771" y2="118.857"/>
	<g>
		<path fill="#231F20" d="M253.484,123.239c-2.129-1.902-4.258-3.805-6.387-5.707c-1.797-1.606-4.458,1.037-2.651,2.651
			c2.129,1.902,4.258,3.805,6.387,5.707C252.629,127.496,255.291,124.853,253.484,123.239L253.484,123.239z"/>
	</g>
</g>
</svg>
