<?xml version="1.0" encoding="utf-8"?>
<!-- Generator: Adobe Illustrator 16.0.0, SVG Export Plug-In . SVG Version: 6.00 Build 0)  -->
<!DOCTYPE svg PUBLIC "-//W3C//DTD SVG 1.1//EN" "http://www.w3.org/Graphics/SVG/1.1/DTD/svg11.dtd">
<svg version="1.1" id="Layer_1" xmlns="http://www.w3.org/2000/svg" xmlns:xlink="http://www.w3.org/1999/xlink" x="0px" y="0px"
	 width="560px" height="560px" viewBox="-999.5 400.5 560 560" enable-background="new -999.5 400.5 560 560" xml:space="preserve">
<g>
	<g>
		<g>
			<path fill="#231F20" d="M-625.776,847.08c-0.652,8.075-14.343,5.65-19.813,5.65c-12.902,0-25.806,0-38.707,0
				c-31.351,0-62.701,0-94.052,0c-8.887,0-17.773,0-26.66,0c-3.703,0-7.992-0.746-7.992-5.695c0-1.229,0-2.457,0-3.687
				c0-20.204,0-40.408,0-60.612c0-59.711,0-119.422,0-179.133c0-6.815,0-13.631,0-20.446c0-3,0.102-5.507,3.167-7.41
				c1.604-0.995,4.792-0.567,6.581-0.567c25.292,0,50.585,0,75.877,0c28.352,0,56.704,0,85.056,0c4.995,0,16.544-1.942,16.544,5.828
				c0,4.672,0,9.344,0,14.017c0,57.794,0,115.588,0,173.382C-625.776,794.631-625.776,820.855-625.776,847.08c0,3.226,5,3.226,5,0
				c0-44.375,0-88.75,0-133.125s0-88.75,0-133.125c0-11.072-10.907-10.65-18.654-10.65c-11.364,0-22.729,0-34.095,0
				c-31.717,0-63.435,0-95.152,0c-10.792,0-21.583,0-32.374,0c-7.471,0-16.949,0.5-16.949,10.73c0,14.852,0,29.705,0,44.557
				c0,60.989,0,121.979,0,182.969c0,9.631,0,19.262,0,28.893c0,4.043-0.872,9.738,0.757,13.592
				c3.497,8.272,12.502,6.812,19.779,6.812c11.908,0,23.816,0,35.724,0c30.546,0,61.093,0,91.64,0c10.515,0,21.03,0,31.545,0
				c7.994,0,16.925-0.051,17.779-10.65C-620.518,843.864-625.52,843.889-625.776,847.08z"/>
		</g>
	</g>
	<g>
		<g>
			<path fill="#231F20" d="M-801.94,739.146c3.224,0,3.224-5,0-5C-805.165,734.146-805.165,739.146-801.94,739.146L-801.94,739.146z
				"/>
		</g>
	</g>
	<g>
		<g>
			<path fill="#231F20" d="M-730.951,836.885c-11.299,0-22.599,0-33.898,0c-7.253,0-14.506,0-21.759,0
				c-4.524,0-12.833,1.253-12.833-5.669c0-24.496,0-48.994,0-73.491c0-1.178,0-2.354,0-3.532c0-3.224-5-3.224-5,0
				c0,24.35,0,48.699,0,73.048c0,4.727,0.088,8.924,4.069,12.339c3.416,2.93,8.323,2.305,12.494,2.305c14.861,0,29.723,0,44.584,0
				c4.114,0,8.229,0,12.343,0C-727.727,841.885-727.727,836.885-730.951,836.885L-730.951,836.885z"/>
		</g>
	</g>
	<g>
		<g>
			<path fill="#231F20" d="M-636.026,694.978c3.224,0,3.224-5,0-5S-639.25,694.978-636.026,694.978L-636.026,694.978z"/>
		</g>
	</g>
	<g>
		<g>
			<path fill="#231F20" d="M-707.017,590.237c11.299,0,22.599,0,33.897,0c7.252,0,14.506,0,21.759,0
				c4.524,0,12.834-1.252,12.834,5.667c0,24.498,0,48.996,0,73.493c0,1.177,0,2.354,0,3.532c0,3.224,5,3.224,5,0
				c0-24.351,0-48.699,0-73.049c0-4.727-0.087-8.924-4.069-12.338c-3.417-2.931-8.324-2.306-12.496-2.306
				c-14.861,0-29.722,0-44.582,0c-4.115,0-8.229,0-12.343,0C-710.24,585.237-710.24,590.237-707.017,590.237L-707.017,590.237z"/>
		</g>
	</g>
	<g>
		<g>
			<path fill="#231F20" d="M-740.058,765.016c5.947,0,11.893,0,17.84,0c6.291,0,13.22,0.737,19.119-1.866
				c20.791-9.18,17.595-39.597-4.399-44.65c-5.895-1.354-12.461-0.333-18.457-0.526c-14.324-0.465-20.935-17.201-14.141-28.531
				c4.941-8.238,13.878-8.426,22.278-8.426c6.057,0,12.114,0,18.17,0c3.224,0,3.224-5,0-5c-6.058,0-12.114,0-18.17,0
				c-7.344,0-14.05,0.019-20.419,4.393c-8.491,5.831-11.543,16.787-8.676,26.409c2.922,9.808,12.458,15.879,22.34,16.199
				c6.639,0.215,13.895-1.05,20.146,1.712c12.743,5.625,13.644,22.504,3.846,31.172c-5.877,5.202-14.396,4.115-21.637,4.115
				c-5.947,0-11.893,0-17.84,0C-743.281,760.016-743.281,765.016-740.058,765.016L-740.058,765.016z"/>
		</g>
	</g>
	<g>
		<g>
			<path fill="#231F20" d="M-724.244,669.211c0,34.203,0,68.406,0,102.608c0,3.224,5,3.224,5,0c0-34.203,0-68.406,0-102.608
				C-719.244,665.987-724.244,665.987-724.244,669.211L-724.244,669.211z"/>
		</g>
	</g>
	<g>
		<g>
			<path fill="#231F20" d="M-715.351,669.211c0,34.203,0,68.406,0,102.608c0,3.224,5,3.224,5,0c0-34.203,0-68.406,0-102.608
				C-710.351,665.987-715.351,665.987-715.351,669.211L-715.351,669.211z"/>
		</g>
	</g>
	<g>
		<g>
			<path fill="#231F20" d="M-813,565.524c2.292-12.158,4.585-24.317,6.877-36.476c0.734-3.892,1.065-12.931,6.233-12.931
				c1.995,0,3.99,0,5.984,0c27.359,0,54.718,0,82.076,0c22.447,0,44.895,0,67.342,0c3.354,0,7.076-0.063,7.496,4.63
				c0.346,3.848,1.521,7.752,2.285,11.529c2.238,11.082,4.478,22.165,6.715,33.247c0.639,3.159,5.457,1.819,4.822-1.329
				c-2.457-12.158-4.912-24.316-7.369-36.475c-0.957-4.735-1.19-10.662-4.722-14.192c-2.434-2.435-5.791-2.409-8.94-2.409
				c-25.198,0-50.396,0-75.594,0c-25.667,0-51.334,0-77.002,0c-2.89,0-5.28,0.012-8.026,1.315
				c-4.865,2.311-4.973,9.202-5.845,13.827c-2.377,12.607-4.754,25.215-7.132,37.822c-0.007,0.038-0.014,0.075-0.021,0.112
				C-818.416,567.346-813.598,568.69-813,565.524L-813,565.524z"/>
		</g>
	</g>
	<g>
		<path fill="#FFFFFF" d="M-669.484,543.703c0,2.18-3.008,3.949-6.717,3.949h-91.5c-3.709,0-6.717-1.77-6.717-3.949l0,0
			c0-2.182,3.007-3.949,6.717-3.949h91.5C-672.492,539.754-669.484,541.522-669.484,543.703L-669.484,543.703z"/>
		<g>
			<path fill="#231F20" d="M-671.896,543.039c-0.593,3.023-8.974,2.114-11.083,2.114c-6.244,0-12.486,0-18.73,0
				c-15.795,0-31.59,0-47.386,0c-5.199,0-10.398,0-15.598,0c-0.96,0-1.92,0-2.88,0c-3.504,0-3.597-2.664-0.128-2.897
				c0.225-0.016,0.457,0,0.683,0c11.084,0,22.168,0,33.253,0c12.986,0,25.972,0,38.958,0c4.627,0,9.253,0,13.88,0
				c2.114,0,8.483-0.687,9.032,2.113c0.62,3.163,5.438,1.82,4.821-1.329c-1.677-8.556-20.048-5.784-26.12-5.784
				c-15.727,0-31.451,0-47.176,0c-9.11,0-18.221,0-27.331,0c-3.817,0-8.318,1.649-9.127,5.784c-0.812,4.146,4.172,6.778,7.587,7.009
				c2.952,0.2,5.922,0.104,8.88,0.104c18.635,0,37.271,0,55.905,0c7.683,0,15.365,0,23.046,0c5.079,0,13.071,0.665,14.335-5.785
				C-666.457,541.219-671.275,539.877-671.896,543.039z"/>
		</g>
	</g>
	<polygon fill="#FFFFFF" points="-760.557,545.062 -755.803,532.946 -754.104,527.512 -725.067,512.526 -689.578,524.01 
		-685.844,536.002 -685.844,545.062 	"/>
	<g>
		<path fill="#FFFFFF" d="M-764.056,547.778c0-23.253,18.851-42.104,42.104-42.104c23.255,0,42.104,18.852,42.104,42.104h-8.706
			c0-18.445-14.953-33.397-33.398-33.397s-33.399,14.952-33.399,33.397H-764.056z"/>
		<g>
			<path fill="#231F20" d="M-761.556,547.778c0.354-21.854,17.752-39.25,39.604-39.604c21.854-0.354,39.26,18.284,39.604,39.604
				c0.833-0.833,1.667-1.667,2.5-2.5c-2.901,0-5.804,0-8.706,0c0.833,0.833,1.667,1.667,2.5,2.5
				c-0.4-19.845-16.054-35.497-35.898-35.897c-19.843-0.401-35.51,16.657-35.899,35.897c0.833-0.833,1.667-1.667,2.5-2.5
				c-2.902,0-5.804,0-8.706,0c-3.224,0-3.224,5,0,5c2.902,0,5.804,0,8.706,0c1.384,0,2.473-1.138,2.5-2.5
				c0.346-17.101,13.8-30.552,30.899-30.897c17.101-0.347,30.563,14.318,30.898,30.897c0.027,1.362,1.116,2.5,2.5,2.5
				c2.902,0,5.805,0,8.706,0c1.347,0,2.522-1.138,2.5-2.5c-0.397-24.586-20.018-44.206-44.604-44.604
				c-24.587-0.397-44.216,20.615-44.604,44.604C-766.607,551.004-761.607,550.999-761.556,547.778z"/>
		</g>
	</g>
	<g>
		<line fill="none" x1="-723.2" y1="513.365" x2="-723.2" y2="505.693"/>
		<g>
			<path fill="#231F20" d="M-721.324,513.365c0-2.559,0-5.115,0-7.673c0-2.418-3.75-2.418-3.75,0c0,2.558,0,5.114,0,7.673
				C-725.075,515.784-721.324,515.784-721.324,513.365L-721.324,513.365z"/>
		</g>
	</g>
	<g>
		<line fill="none" x1="-709.308" y1="515.986" x2="-706.371" y2="509.069"/>
		<g>
			<path fill="#231F20" d="M-707.688,516.932c0.979-2.305,1.958-4.61,2.937-6.916c0.399-0.941,0.293-2-0.672-2.565
				c-0.797-0.466-2.166-0.269-2.565,0.673c-0.979,2.307-1.958,4.611-2.938,6.917c-0.399,0.941-0.292,2,0.673,2.565
				C-709.457,518.071-708.088,517.873-707.688,516.932L-707.688,516.932z"/>
		</g>
	</g>
	<g>
		<line fill="none" x1="-736.59" y1="517.723" x2="-740.271" y2="510.155"/>
		<g>
			<path fill="#231F20" d="M-734.972,516.776c-1.227-2.522-2.454-5.045-3.681-7.567c-1.058-2.174-4.292-0.271-3.238,1.894
				c1.227,2.521,2.454,5.045,3.681,7.567C-737.151,520.842-733.917,518.941-734.972,516.776L-734.972,516.776z"/>
		</g>
	</g>
	<g>
		<line fill="none" x1="-752.94" y1="533.576" x2="-759.115" y2="530.497"/>
		<g>
			<path fill="#231F20" d="M-751.995,531.957c-2.058-1.025-4.116-2.053-6.174-3.078c-2.157-1.076-4.057,2.158-1.893,3.237
				c2.058,1.026,4.116,2.054,6.174,3.079C-751.73,536.271-749.831,533.037-751.995,531.957L-751.995,531.957z"/>
		</g>
	</g>
	<g>
		<line fill="none" x1="-691.904" y1="532.539" x2="-685.104" y2="529.344"/>
		<g>
			<path fill="#231F20" d="M-690.957,534.158c2.267-1.064,4.532-2.13,6.799-3.195c2.188-1.027,0.281-4.26-1.894-3.238
				c-2.267,1.065-4.532,2.131-6.799,3.195C-695.039,531.948-693.133,535.18-690.957,534.158L-690.957,534.158z"/>
		</g>
	</g>
	<g>
		<line fill="none" x1="-688.887" y1="544.117" x2="-679.929" y2="542.967"/>
		<g>
			<path fill="#231F20" d="M-688.887,545.992c2.986-0.384,5.973-0.768,8.958-1.15c2.364-0.305,2.394-4.059,0-3.75
				c-2.985,0.383-5.972,0.768-8.958,1.15C-691.25,542.547-691.28,546.301-688.887,545.992L-688.887,545.992z"/>
		</g>
	</g>
	<g>
		<line fill="none" x1="-755.441" y1="544.553" x2="-763.004" y2="543.83"/>
		<g>
			<path fill="#231F20" d="M-755.441,542.678c-2.521-0.24-5.042-0.481-7.563-0.723c-2.408-0.23-2.385,3.522,0,3.75
				c2.521,0.241,5.042,0.482,7.563,0.723C-753.035,546.658-753.057,542.906-755.441,542.678L-755.441,542.678z"/>
		</g>
	</g>
	<g>
		<line fill="none" x1="-698.261" y1="522.289" x2="-693.232" y2="517.262"/>
		<g>
			<path fill="#231F20" d="M-696.935,523.615c1.676-1.676,3.353-3.352,5.028-5.027c1.711-1.711-0.94-4.363-2.651-2.65
				c-1.676,1.676-3.353,3.352-5.028,5.027C-701.297,522.676-698.646,525.326-696.935,523.615L-696.935,523.615z"/>
		</g>
	</g>
	<g>
		<line fill="none" x1="-746.185" y1="525.09" x2="-752.571" y2="519.383"/>
		<g>
			<path fill="#231F20" d="M-744.858,523.764c-2.129-1.901-4.258-3.805-6.387-5.707c-1.797-1.605-4.458,1.037-2.651,2.651
				c2.129,1.902,4.258,3.806,6.387,5.707C-745.713,528.022-743.052,525.379-744.858,523.764L-744.858,523.764z"/>
		</g>
	</g>
</g>
</svg>
