<?xml version="1.0" encoding="utf-8"?>
<!-- Generator: Adobe Illustrator 16.0.0, SVG Export Plug-In . SVG Version: 6.00 Build 0)  -->
<!DOCTYPE svg PUBLIC "-//W3C//DTD SVG 1.1//EN" "http://www.w3.org/Graphics/SVG/1.1/DTD/svg11.dtd">
<svg version="1.1" id="Layer_1" xmlns="http://www.w3.org/2000/svg" xmlns:xlink="http://www.w3.org/1999/xlink" x="0px" y="0px"
	 width="560px" height="560px" viewBox="0 0 560 560" enable-background="new 0 0 560 560" xml:space="preserve">
<g>
	<path fill="#FFFFFF" d="M398.505,445.225c0,4.456-3.612,8.068-8.068,8.068H166.789c-4.456,0-8.068-3.612-8.068-8.068V221.577
		c0-4.456,3.612-8.068,8.068-8.068h223.647c4.456,0,8.068,3.612,8.068,8.068V445.225z"/>
	<g>
		<path d="M396.005,445.225c-0.611,7.577-11.77,5.568-16.996,5.568c-10.97,0-21.94,0-32.91,0c-31.728,0-63.455,0-95.183,0
			c-25.124,0-50.248,0-75.373,0c-4.807,0-14.322,1.577-14.322-5.779c0-5.452,0-10.904,0-16.355c0-58.361,0-116.722,0-175.083
			c0-8.989,0-17.979,0-26.968c0-5.194,0.139-10.598,7.042-10.598c20.03,0,40.06,0,60.09,0c53.267,0,106.534,0,159.801,0
			c3.618,0,7.852,0.719,7.852,5.574c0,1.268,0,2.536,0,3.804c0,8.447,0,16.894,0,25.34c0,30.219,0,60.437,0,90.654
			C396.005,375.996,396.005,410.61,396.005,445.225c0,3.225,5,3.225,5,0c0-47.796,0-95.592,0-143.387c0-24.37,0-48.739,0-73.109
			c0-7.266,0.493-15.287-8.595-17.525c-4.396-1.083-9.919-0.195-14.362-0.195c-57.757,0-115.515,0-173.272,0
			c-10.017,0-20.035,0-30.052,0c-6.805,0-14.481-0.98-17.75,6.756c-1.811,4.285-0.752,10.764-0.752,15.24c0,10.97,0,21.94,0,32.911
			c0,56.852,0,113.704,0,170.555c0,5.778-1.229,13.843,4.542,17.424c4.656,2.891,11.268,1.898,16.528,1.898
			c25.841,0,51.683,0,77.523,0c31.501,0,63.002,0,94.503,0c10.504,0,21.007,0,31.51,0c5.886,0,12.299,1.009,17.083-3.096
			c2.15-1.844,2.88-4.796,3.096-7.473C401.265,442.009,396.263,442.033,396.005,445.225z"/>
	</g>
</g>
<g>
	<polygon fill="#FFFFFF" points="350.442,152.99 350.442,203.642 306.576,178.315 262.71,152.99 306.576,127.665 350.442,102.338 	
		"/>
	<g>
		<path d="M347.942,152.99c0,16.884,0,33.768,0,50.651c1.254-0.72,2.508-1.439,3.762-2.159
			c-29.244-16.884-58.488-33.768-87.732-50.651c0,1.439,0,2.878,0,4.317c29.244-16.884,58.488-33.768,87.732-50.652
			c-1.254-0.72-2.508-1.439-3.762-2.159C347.942,119.222,347.942,136.106,347.942,152.99c0,3.225,5,3.225,5,0
			c0-16.884,0-33.768,0-50.652c0-1.903-2.122-3.105-3.762-2.159c-29.244,16.884-58.488,33.768-87.732,50.652
			c-1.622,0.937-1.622,3.381,0,4.317c29.244,16.883,58.488,33.767,87.732,50.651c1.64,0.947,3.762-0.256,3.762-2.159
			c0-16.884,0-33.768,0-50.651C352.942,149.766,347.942,149.766,347.942,152.99z"/>
	</g>
</g>
<g>
	<polygon fill="#FFFFFF" points="206.784,152.99 206.784,102.338 250.65,127.664 294.515,152.99 250.65,178.315 206.784,203.642 	
		"/>
	<g>
		<path d="M209.284,152.99c0-16.884,0-33.768,0-50.652c-1.254,0.72-2.508,1.439-3.762,2.159
			c29.244,16.884,58.487,33.768,87.73,50.652c0-1.439,0-2.878,0-4.317c-29.244,16.884-58.487,33.768-87.73,50.651
			c1.254,0.72,2.508,1.439,3.762,2.159C209.284,186.758,209.284,169.874,209.284,152.99c0-3.225-5-3.225-5,0
			c0,16.884,0,33.768,0,50.651c0,1.903,2.122,3.105,3.762,2.159c29.244-16.884,58.487-33.768,87.73-50.651
			c1.622-0.937,1.622-3.381,0-4.317c-29.243-16.884-58.487-33.768-87.73-50.652c-1.64-0.947-3.762,0.256-3.762,2.159
			c0,16.884,0,33.768,0,50.652C204.284,156.215,209.284,156.215,209.284,152.99z"/>
	</g>
</g>
<g>
	<path fill="#FFFFFF" d="M159.071,302.789"/>
	<g>
		<path d="M159.071,305.289c3.225,0,3.225-5,0-5S155.847,305.289,159.071,305.289L159.071,305.289z"/>
	</g>
</g>
<g>
	<g>
		<path d="M159.071,368.59c3.225,0,3.225-5,0-5S155.847,368.59,159.071,368.59L159.071,368.59z"/>
	</g>
</g>
<g>
	<rect x="159.43" y="304.729" fill="#FFFFFF" width="238.366" height="57.926"/>
	<g>
		<path d="M395.296,304.729c0,19.309,0,38.617,0,57.926c0.833-0.833,1.667-1.667,2.5-2.5c-46.687,0-93.374,0-140.061,0.001
			c-32.769,0-65.537,0-98.306,0c0.833,0.833,1.667,1.667,2.5,2.5c0-19.309,0-38.618,0-57.927c-0.833,0.833-1.667,1.667-2.5,2.5
			c46.687,0,93.374,0,140.061,0c32.769,0,65.537,0,98.306,0c3.225,0,3.225-5,0-5c-46.687,0-93.374,0-140.061,0
			c-32.769,0-65.537,0-98.306,0c-1.363,0-2.5,1.137-2.5,2.5c0,19.309,0,38.618,0,57.927c0,1.362,1.137,2.5,2.5,2.5
			c46.687,0,93.374,0,140.061-0.001c32.769,0,65.537,0,98.306,0c1.362,0,2.5-1.137,2.5-2.5c0-19.309,0-38.617,0-57.926
			C400.296,301.504,395.296,301.504,395.296,304.729z"/>
	</g>
</g>
<g>
	<rect x="250.649" y="213.509" fill="#FFFFFF" width="57.927" height="240.366"/>
	<g>
		<path d="M308.576,451.375c-19.309,0-38.618,0-57.927,0c0.833,0.833,1.667,1.667,2.5,2.5c0-46.527,0-93.055,0-139.583
			c0-33.594,0-67.188,0-100.783c-0.833,0.833-1.667,1.667-2.5,2.5c19.309,0,38.618,0,57.927,0c-0.833-0.833-1.667-1.667-2.5-2.5
			c0,46.527,0,93.055,0,139.583c0,33.595,0,67.188,0,100.783c0,3.225,5,3.225,5,0c0-46.527,0-93.055,0-139.583
			c0-33.594,0-67.188,0-100.783c0-1.363-1.137-2.5-2.5-2.5c-19.309,0-38.618,0-57.927,0c-1.363,0-2.5,1.137-2.5,2.5
			c0,46.527,0,93.055,0,139.583c0,33.595,0,67.188,0,100.783c0,1.363,1.137,2.5,2.5,2.5c19.309,0,38.618,0,57.927,0
			C311.801,456.375,311.801,451.375,308.576,451.375z"/>
	</g>
</g>
<g>
	<g>
		<path d="M294.015,262.979c0,48.016,0,96.032,0,144.048c0,1.471,0,2.941,0,4.412c0,3.225,5,3.225,5,0c0-48.016,0-96.032,0-144.048
			c0-1.471,0-2.941,0-4.412C299.015,259.755,294.015,259.755,294.015,262.979L294.015,262.979z"/>
	</g>
</g>
<g>
	<g>
		<path d="M305.094,155.49c11.332,0,22.663,0,33.995,0c3.225,0,3.225-5,0-5c-11.332,0-22.663,0-33.995,0
			C301.869,150.49,301.869,155.49,305.094,155.49L305.094,155.49z"/>
	</g>
</g>
<g>
	<g>
		<path d="M217.559,155.49c11.332,0,22.664,0,33.995,0c3.225,0,3.225-5,0-5c-11.332,0-22.664,0-33.995,0
			C214.334,150.49,214.334,155.49,217.559,155.49L217.559,155.49z"/>
	</g>
</g>
<g>
	<g>
		<path d="M296.515,252.172c3.225,0,3.225-5,0-5S293.29,252.172,296.515,252.172L296.515,252.172z"/>
	</g>
</g>
<g>
	<polygon fill="#FFFFFF" points="278.613,143.809 262.71,152.99 278.613,162.171 294.515,152.99 	"/>
	<g>
		<path d="M277.352,141.65c-5.301,3.061-10.603,6.121-15.903,9.182c-1.622,0.937-1.622,3.381,0,4.317
			c2.934,1.694,5.868,3.388,8.802,5.082c2.123,1.226,5.745,4.441,8.363,4.441s6.24-3.215,8.362-4.441
			c2.934-1.694,5.867-3.388,8.801-5.082c1.622-0.937,1.622-3.381,0-4.317c-5.301-3.061-10.601-6.121-15.901-9.182
			c-2.797-1.615-5.314,2.706-2.523,4.317c5.301,3.061,10.601,6.121,15.901,9.182c0-1.439,0-2.878,0-4.317
			c-5.301,3.061-10.601,6.121-15.901,9.181c0.841,0,1.683,0,2.523,0c-5.301-3.061-10.602-6.121-15.903-9.181
			c0,1.439,0,2.878,0,4.317c5.301-3.061,10.603-6.121,15.903-9.182C282.666,144.356,280.149,140.035,277.352,141.65z"/>
	</g>
</g>
</svg>
