<?xml version="1.0" encoding="utf-8"?>
<!-- Generator: Adobe Illustrator 16.0.0, SVG Export Plug-In . SVG Version: 6.00 Build 0)  -->
<!DOCTYPE svg PUBLIC "-//W3C//DTD SVG 1.1//EN" "http://www.w3.org/Graphics/SVG/1.1/DTD/svg11.dtd">
<svg version="1.1" id="Layer_1" xmlns="http://www.w3.org/2000/svg" xmlns:xlink="http://www.w3.org/1999/xlink" x="0px" y="0px"
	 width="560px" height="560px" viewBox="-999.5 400.5 560 560" enable-background="new -999.5 400.5 560 560" xml:space="preserve">
<g>
	<g>
		<g>
			<path d="M-601.961,847.612c-0.61,7.577-11.769,5.568-16.996,5.568c-10.969,0-21.939,0-32.91,0c-31.729,0-63.455,0-95.183,0
				c-25.124,0-50.248,0-75.373,0c-4.807,0-14.322,1.576-14.322-5.779c0-5.452,0-10.904,0-16.355c0-58.36,0-116.722,0-175.082
				c0-8.99,0-17.979,0-26.969c0-5.193,0.139-10.598,7.042-10.598c20.03,0,40.06,0,60.09,0c53.267,0,106.533,0,159.801,0
				c3.618,0,7.852,0.719,7.852,5.574c0,1.268,0,2.535,0,3.804c0,8.446,0,16.894,0,25.34c0,30.218,0,60.438,0,90.654
				C-601.961,778.384-601.961,812.998-601.961,847.612c0,3.225,5,3.225,5,0c0-47.796,0-95.591,0-143.387c0-24.369,0-48.739,0-73.108
				c0-7.267,0.494-15.287-8.595-17.524c-4.396-1.084-9.918-0.195-14.362-0.195c-57.756,0-115.515,0-173.271,0
				c-10.017,0-20.035,0-30.052,0c-6.805,0-14.481-0.98-17.75,6.756c-1.811,4.285-0.752,10.764-0.752,15.24c0,10.97,0,21.939,0,32.91
				c0,56.853,0,113.703,0,170.556c0,5.778-1.229,13.844,4.542,17.425c4.656,2.89,11.268,1.897,16.528,1.897
				c25.841,0,51.683,0,77.523,0c31.501,0,63.002,0,94.503,0c10.503,0,21.006,0,31.51,0c5.886,0,12.298,1.009,17.083-3.096
				c2.15-1.845,2.879-4.797,3.096-7.474C-596.7,844.396-601.702,844.421-601.961,847.612z"/>
		</g>
	</g>
	<g>
		<g>
			<path d="M-650.022,555.378c0,16.885,0,33.769,0,50.651c1.254-0.72,2.508-1.438,3.763-2.159
				c-29.244-16.884-58.488-33.768-87.732-50.65c0,1.438,0,2.877,0,4.316c29.244-16.884,58.488-33.768,87.732-50.652
				c-1.255-0.72-2.509-1.438-3.763-2.158C-650.022,521.61-650.022,538.494-650.022,555.378c0,3.225,5,3.225,5,0
				c0-16.884,0-33.768,0-50.652c0-1.902-2.122-3.104-3.762-2.158c-29.244,16.884-58.488,33.768-87.732,50.652
				c-1.622,0.937-1.622,3.381,0,4.316c29.244,16.883,58.488,33.768,87.732,50.651c1.64,0.946,3.762-0.257,3.762-2.159
				c0-16.884,0-33.768,0-50.65C-645.022,552.154-650.022,552.154-650.022,555.378z"/>
		</g>
	</g>
	<g>
		<g>
			<path d="M-788.681,555.378c0-16.884,0-33.768,0-50.652c-1.254,0.721-2.508,1.439-3.762,2.16
				c29.244,16.883,58.487,33.768,87.729,50.651c0-1.438,0-2.878,0-4.317c-29.244,16.885-58.486,33.769-87.729,50.651
				c1.254,0.72,2.508,1.438,3.762,2.159C-788.681,589.146-788.681,572.263-788.681,555.378c0-3.224-5-3.224-5,0
				c0,16.885,0,33.769,0,50.651c0,1.903,2.122,3.104,3.762,2.159c29.244-16.885,58.487-33.768,87.73-50.651
				c1.622-0.937,1.622-3.381,0-4.317c-29.243-16.883-58.487-33.768-87.73-50.651c-1.64-0.947-3.762,0.256-3.762,2.159
				c0,16.884,0,33.768,0,50.652C-793.681,558.603-788.681,558.603-788.681,555.378z"/>
		</g>
	</g>
	<g>
		<g>
			<path d="M-838.894,707.677c3.224,0,3.224-5,0-5C-842.117,702.677-842.117,707.677-838.894,707.677L-838.894,707.677z"/>
		</g>
	</g>
	<g>
		<g>
			<path d="M-838.894,770.979c3.224,0,3.224-5,0-5C-842.117,765.979-842.117,770.979-838.894,770.979L-838.894,770.979z"/>
		</g>
	</g>
	<g>
		<g>
			<path d="M-602.67,707.116c0,19.309,0,38.618,0,57.927c0.834-0.833,1.668-1.667,2.5-2.5c-46.687,0-93.373,0-140.061,0
				c-32.769,0-65.537,0-98.306,0c0.833,0.833,1.667,1.667,2.5,2.5c0-19.309,0-38.618,0-57.927c-0.833,0.833-1.667,1.667-2.5,2.5
				c46.687,0,93.374,0,140.061,0c32.769,0,65.537,0,98.306,0c3.225,0,3.225-5,0-5c-46.687,0-93.373,0-140.061,0
				c-32.769,0-65.537,0-98.306,0c-1.363,0-2.5,1.137-2.5,2.5c0,19.309,0,38.618,0,57.927c0,1.363,1.137,2.5,2.5,2.5
				c46.687,0,93.374,0,140.061,0c32.769,0,65.537,0,98.306,0c1.363,0,2.5-1.137,2.5-2.5c0-19.309,0-38.618,0-57.927
				C-597.67,703.893-602.67,703.893-602.67,707.116z"/>
		</g>
	</g>
	<g>
		<rect x="-747.315" y="615.897" fill="#FFFFFF" width="57.927" height="240.365"/>
		<g>
			<path d="M-689.389,853.763c-19.309,0-38.618,0-57.927,0c0.833,0.833,1.667,1.667,2.5,2.5c0-46.527,0-93.056,0-139.583
				c0-33.595,0-67.188,0-100.783c-0.833,0.833-1.667,1.667-2.5,2.5c19.309,0,38.618,0,57.927,0c-0.833-0.833-1.667-1.667-2.5-2.5
				c0,46.526,0,93.055,0,139.583c0,33.594,0,67.188,0,100.783c0,3.225,5,3.225,5,0c0-46.527,0-93.056,0-139.583
				c0-33.595,0-67.188,0-100.783c0-1.363-1.137-2.5-2.5-2.5c-19.309,0-38.618,0-57.927,0c-1.363,0-2.5,1.137-2.5,2.5
				c0,46.526,0,93.055,0,139.583c0,33.594,0,67.188,0,100.783c0,1.362,1.137,2.5,2.5,2.5c19.309,0,38.618,0,57.927,0
				C-686.164,858.763-686.164,853.763-689.389,853.763z"/>
		</g>
	</g>
	<g>
		<g>
			<path d="M-703.95,665.367c0,48.016,0,96.032,0,144.048c0,1.472,0,2.941,0,4.412c0,3.226,5,3.226,5,0c0-48.016,0-96.032,0-144.048
				c0-1.472,0-2.94,0-4.412C-698.95,662.144-703.95,662.144-703.95,665.367L-703.95,665.367z"/>
		</g>
	</g>
	<g>
		<g>
			<path d="M-692.871,557.878c11.332,0,22.664,0,33.994,0c3.225,0,3.225-5,0-5c-11.332,0-22.664,0-33.994,0
				C-696.096,552.878-696.096,557.878-692.871,557.878L-692.871,557.878z"/>
		</g>
	</g>
	<g>
		<g>
			<path d="M-780.406,557.878c11.332,0,22.664,0,33.995,0c3.224,0,3.224-5,0-5c-11.332,0-22.664,0-33.995,0
				C-783.63,552.878-783.63,557.878-780.406,557.878L-780.406,557.878z"/>
		</g>
	</g>
	<g>
		<g>
			<path d="M-701.45,654.56c3.224,0,3.224-5,0-5S-704.674,654.56-701.45,654.56L-701.45,654.56z"/>
		</g>
	</g>
</g>
</svg>
