<?xml version="1.0" encoding="utf-8"?>
<!-- Generator: Adobe Illustrator 16.0.0, SVG Export Plug-In . SVG Version: 6.00 Build 0)  -->
<!DOCTYPE svg PUBLIC "-//W3C//DTD SVG 1.1//EN" "http://www.w3.org/Graphics/SVG/1.1/DTD/svg11.dtd">
<svg version="1.1" id="Layer_1" xmlns="http://www.w3.org/2000/svg" xmlns:xlink="http://www.w3.org/1999/xlink" x="0px" y="0px"
	 width="560px" height="560px" viewBox="-999.5 400.5 560 560" enable-background="new -999.5 400.5 560 560" xml:space="preserve">
<g>
	<g>
		<g>
			<path d="M-723.572,518.055c0.907-1.637,1.95-3.768,4.114-4.004c1.991-0.219,3.375,2.673,4.114,4.004
				c0.074,0.134,0.137,0.277,0.205,0.415c0.575,1.165,1.149,2.33,1.725,3.495c2.39,4.843,4.78,9.686,7.171,14.529
				c7.018,14.22,14.035,28.438,21.053,42.658c4.637,9.393,9.271,18.786,13.908,28.178c5.455,11.053,16.36,15.629,27.77,17.287
				c27.958,4.062,55.916,8.125,83.874,12.188c3.12,0.453,6.24,0.906,9.36,1.359c5.162,0.75,6.979,3.884,2.969,7.793
				c-0.575,0.561-1.15,1.121-1.727,1.683c-8.667,8.448-17.334,16.896-26.001,25.345c-11.062,10.784-22.126,21.568-33.188,32.354
				c-7.774,7.578-15.457,13.828-18.519,24.797c-2.589,9.28,0.664,19.924,2.246,29.15c2.647,15.435,5.294,30.868,7.941,46.303
				c1.934,11.275,3.868,22.552,5.802,33.827c0.203,1.185,0.348,2.283,0.393,3.502c0.174,4.818-4.306,3.756-7.166,2.252
				c-3.235-1.7-6.471-3.401-9.707-5.103c-24.852-13.064-49.703-26.131-74.556-39.195c-10.215-5.371-21.687-7.174-32.379-1.553
				c-9.708,5.104-19.417,10.208-29.126,15.312c-13.958,7.339-27.917,14.677-41.875,22.015c-4.548,2.393-9.097,4.783-13.646,7.175
				c-4.076,2.144-10.985,5.192-9.593-2.924c4.197-24.473,8.395-48.945,12.592-73.418c1.447-8.436,2.894-16.873,4.341-25.309
				c1.546-9.017-1.855-19.919-8.434-26.331c-2.008-1.957-4.016-3.914-6.023-5.871c-20.272-19.761-40.544-39.521-60.817-59.282
				c-2.108-2.055-4.513-4.045-6.315-6.395c-4.23-5.514,4.954-6.201,8.542-6.724c12.957-1.882,25.914-3.765,38.87-5.647
				c14.829-2.154,29.657-4.31,44.485-6.465c11.915-1.73,23.324-3.326,31.097-14.121c5.183-7.197,8.477-16.229,12.378-24.133
				c7.057-14.299,14.113-28.597,21.169-42.896C-732.209,535.555-727.89,526.805-723.572,518.055c1.42-2.88-2.89-5.415-4.317-2.523
				c-10.86,22.006-21.72,44.01-32.58,66.016c-3.917,7.937-7.834,15.873-11.751,23.81c-6.26,12.685-19.534,13.716-31.625,15.474
				c-27.612,4.012-55.225,8.023-82.837,12.035c-3.969,0.577-8.093,1.004-10.895,4.268c-3.825,4.455-0.056,9.928,3.331,13.229
				c8.025,7.823,16.051,15.646,24.077,23.469c11.255,10.972,22.51,21.942,33.765,32.913c7.639,7.446,16.434,14.032,19.416,24.721
				c2.553,9.149-1.236,20.603-2.787,29.643c-2.681,15.629-5.361,31.258-8.042,46.887c-1.771,10.323-3.541,20.646-5.312,30.972
				c-0.865,5.044,0.09,12.506,6.777,12.6c3.89,0.054,7.104-1.873,10.418-3.616c24.78-13.026,49.56-26.055,74.339-39.082
				c10.447-5.491,21.447-12.001,33.523-5.651c8.334,4.382,16.668,8.763,25,13.144c14.129,7.429,28.258,14.855,42.385,22.283
				c7.474,3.929,15.084,9.079,23.048,11.988c8.312,3.037,13.348-2.947,11.95-11.1c-0.475-2.764-0.948-5.526-1.422-8.291
				c-2.431-14.166-4.859-28.333-7.289-42.499c-2.355-13.735-4.711-27.473-7.067-41.209c-0.485-2.832-1.114-5.673-1.317-8.543
				c-0.541-7.601,3.014-15.417,8.367-20.636c19.405-18.916,38.812-37.832,58.216-56.747c3.484-3.396,6.969-6.792,10.452-10.188
				c3.041-2.965,6.398-6.215,5.881-10.848c-0.959-8.605-17.531-8.453-23.817-9.367c-27.268-3.961-54.534-7.924-81.802-11.886
				c-6.84-0.993-12.604-3.845-17.555-8.821c-2.762-2.775-4.277-6.403-5.98-9.855c-5.952-12.059-11.903-24.119-17.855-36.178
				c-6.623-13.422-13.247-26.842-19.87-40.262c-1.396-2.828-2.79-5.655-4.186-8.482c-4.202-8.514-12.519-8.184-16.954-0.186
				C-729.455,518.353-725.135,520.875-723.572,518.055z"/>
		</g>
	</g>
	<g>
		<g>
			<path d="M-728.363,574.074c2.046-4.291,3.95-8.688,6.217-12.865c2.634-4.854,5.996,0.735,7.328,3.437
				c2.293,4.644,4.584,9.286,6.875,13.929c6.555,13.281,13.108,26.562,19.664,39.844c5.453,11.05,13.666,19.382,26.453,21.24
				c13.668,1.985,27.336,3.971,41.006,5.957c6.312,0.918,12.625,1.834,18.939,2.752c4.965,0.723,13.006,2.19,6.588,8.446
				c-8.518,8.302-17.035,16.604-25.552,24.907c-7.886,7.688-16.72,15.014-23.819,23.455c-9.522,11.324-6.683,24.548-4.449,37.567
				c2.553,14.878,5.104,29.756,7.655,44.634c0.532,3.1,2.817,10.157,0.664,12.935c-2.099,2.707-10.171-2.694-12.368-3.85
				c-13.315-7-26.631-14-39.947-21c-10.81-5.684-24.241-14.961-36.485-8.524c-1.857,0.978-3.715,1.953-5.572,2.93
				c-2.854,1.501-0.328,5.816,2.523,4.317c5.069-2.665,8.894-5.016,14.805-4.179c3.681,0.521,7.204,1.886,10.476,3.605
				c4.408,2.317,8.816,4.635,13.225,6.952c13.189,6.935,26.378,13.868,39.566,20.801c3.689,1.939,7.224,4.158,11.432,4.686
				c7.306,0.913,8.664-7.413,7.763-12.666c-2.147-12.527-4.297-25.056-6.446-37.583c-1.19-6.942-2.381-13.884-3.571-20.827
				c-0.868-5.06-1.765-9.503-0.787-14.708c2.343-12.465,14.726-21.221,23.3-29.578c9.891-9.641,19.781-19.282,29.672-28.923
				c3.694-3.601,7.377-8.142,4.396-13.381c-2.322-4.082-8.086-4.308-12.247-4.913c-14.438-2.098-28.876-4.196-43.314-6.294
				c-13.821-2.009-29.493-2.148-37.105-16.259c-10.542-19.537-19.71-39.938-29.536-59.849c-2.371-4.804-6.86-8.42-12.166-5.815
				c-2.926,1.438-4.28,5.354-5.557,8.033c-1.313,2.754-2.626,5.508-3.939,8.263C-734.06,574.445-729.75,576.984-728.363,574.074
				L-728.363,574.074z"/>
		</g>
	</g>
	<g>
		<g>
			<path d="M-783.413,795.233c-4.009,2.107-8.088,4.885-12.389,6.28c-3.974,1.288-3.232-4.958-2.83-7.304
				c0.875-5.104,1.75-10.206,2.626-15.31c2.503-14.597,5.007-29.192,7.511-43.79c0.768-4.479,1.687-8.815,1.039-13.401
				c-1.052-7.44-4.168-14.208-9.558-19.461c-9.603-9.36-19.206-18.722-28.809-28.082c-4.348-4.238-8.696-8.477-13.043-12.715
				c-2.371-2.311-5.254-4.611-6.971-7.475c-2.86-4.77,6.914-5.334,9.849-5.76c5.653-0.822,11.306-1.643,16.959-2.465
				c12.858-1.867,25.716-3.736,38.574-5.604c4.016-0.583,7.857-1.08,11.715-2.47c4.593-1.654,8.912-4.479,12.059-8.217
				c2.75-3.268,4.185-7.896,6.001-11.74c1.369-2.898-2.941-5.438-4.317-2.523c-2.035,4.307-3.628,9.262-7.01,12.69
				c-3.718,3.771-9.383,5.928-14.532,6.676c-4.303,0.625-8.605,1.25-12.909,1.876c-14.938,2.17-29.876,4.342-44.814,6.512
				c-3.624,0.526-7.986,0.633-11.399,2.086c-7.479,3.183-6.386,10.545-1.279,15.523c8.916,8.691,17.833,17.383,26.749,26.074
				c4.967,4.841,9.933,9.683,14.9,14.523c2.996,2.922,6.32,5.722,8.647,9.228c7.643,11.513,2.976,25.474,0.845,37.894
				c-2.393,13.951-4.786,27.902-7.178,41.854c-0.784,4.569-2.057,9.604,0.752,13.735c4.951,7.283,16.258-1.646,21.339-4.315
				C-778.034,798.051-780.562,793.735-783.413,795.233L-783.413,795.233z"/>
		</g>
	</g>
	<g>
		<g>
			<path d="M-747.372,781.686c3.224,0,3.224-5,0-5C-750.595,776.686-750.595,781.686-747.372,781.686L-747.372,781.686z"/>
		</g>
	</g>
	<g>
		<g>
			<path d="M-735.946,586.291c3.224,0,3.224-5,0-5S-739.171,586.291-735.946,586.291L-735.946,586.291z"/>
		</g>
	</g>
</g>
</svg>
