<?xml version="1.0" encoding="utf-8"?>
<!-- Generator: Adobe Illustrator 16.0.0, SVG Export Plug-In . SVG Version: 6.00 Build 0)  -->
<!DOCTYPE svg PUBLIC "-//W3C//DTD SVG 1.1//EN" "http://www.w3.org/Graphics/SVG/1.1/DTD/svg11.dtd">
<svg version="1.1" id="Layer_1" xmlns="http://www.w3.org/2000/svg" xmlns:xlink="http://www.w3.org/1999/xlink" x="0px" y="0px"
	 width="560px" height="560px" viewBox="0 0 560 560" enable-background="new 0 0 560 560" xml:space="preserve">
<g>
	<g>
		<path fill="#FFFFFF" d="M273.77,108.292c3.45-6.99,9.095-6.99,12.545,0l44.336,89.837c3.451,6.99,12.584,13.626,20.3,14.748
			l99.139,14.405c7.715,1.121,9.459,6.49,3.877,11.931l-71.737,69.926c-5.582,5.44-9.07,16.18-7.754,23.862l16.937,98.739
			c1.317,7.684-3.25,11.001-10.149,7.373l-88.674-46.617c-6.898-3.628-18.189-3.628-25.089,0l-88.674,46.617
			c-6.899,3.628-11.467,0.311-10.149-7.373l16.937-98.739c1.318-7.684-2.171-18.422-7.753-23.861l-71.738-69.927
			c-5.582-5.441-3.838-10.81,3.876-11.931l99.14-14.405c7.714-1.121,16.849-7.757,20.298-14.748L273.77,108.292z"/>
		<g>
			<path d="M275.927,109.555c0.907-1.636,1.949-3.766,4.114-4.004c1.99-0.219,3.375,2.673,4.113,4.004
				c0.074,0.134,0.137,0.277,0.205,0.415c0.574,1.165,1.148,2.33,1.725,3.495c2.391,4.843,4.78,9.686,7.171,14.529
				c7.019,14.22,14.035,28.439,21.054,42.659c4.635,9.393,9.271,18.786,13.906,28.178c5.454,11.052,16.361,15.628,27.77,17.286
				c27.959,4.062,55.917,8.125,83.874,12.188c3.12,0.453,6.239,0.907,9.36,1.36c5.162,0.75,6.979,3.883,2.969,7.792
				c-0.574,0.561-1.149,1.122-1.727,1.683c-8.667,8.448-17.334,16.896-26.001,25.345c-11.062,10.784-22.126,21.566-33.188,32.352
				c-7.774,7.578-15.457,13.828-18.519,24.798c-2.59,9.279,0.663,19.924,2.245,29.15c2.646,15.435,5.295,30.868,7.941,46.303
				c1.935,11.275,3.867,22.552,5.803,33.826c0.203,1.186,0.349,2.284,0.393,3.502c0.174,4.819-4.307,3.757-7.167,2.253
				c-3.235-1.7-6.471-3.401-9.704-5.103c-24.854-13.065-49.705-26.131-74.558-39.195c-10.216-5.371-21.686-7.174-32.378-1.552
				c-9.708,5.104-19.417,10.208-29.126,15.312c-13.958,7.338-27.917,14.676-41.875,22.015c-4.549,2.391-9.098,4.782-13.646,7.174
				c-4.076,2.144-10.985,5.192-9.593-2.924c4.197-24.473,8.395-48.945,12.592-73.418c1.447-8.438,2.894-16.873,4.341-25.309
				c1.546-9.018-1.855-19.919-8.434-26.331c-2.008-1.957-4.016-3.914-6.023-5.871c-20.272-19.761-40.544-39.521-60.817-59.281
				c-2.108-2.055-4.512-4.045-6.315-6.395c-4.23-5.513,4.954-6.201,8.542-6.723c12.957-1.882,25.914-3.765,38.87-5.648
				c14.829-2.154,29.657-4.309,44.485-6.464c11.915-1.731,23.324-3.326,31.097-14.121c5.183-7.198,8.477-16.229,12.378-24.134
				c7.057-14.298,14.113-28.596,21.169-42.895C267.292,127.055,271.609,118.305,275.927,109.555c1.421-2.88-2.89-5.415-4.317-2.523
				c-10.86,22.005-21.72,44.01-32.58,66.015c-3.917,7.937-7.834,15.874-11.751,23.81c-6.26,12.685-19.534,13.715-31.625,15.472
				c-27.612,4.012-55.225,8.024-82.837,12.037c-3.969,0.577-8.093,1.003-10.895,4.267c-3.825,4.456-0.056,9.928,3.331,13.229
				c8.026,7.823,16.051,15.646,24.077,23.469c11.255,10.971,22.51,21.941,33.765,32.914c7.639,7.444,16.434,14.03,19.416,24.719
				c2.553,9.148-1.236,20.603-2.787,29.643c-2.681,15.629-5.361,31.258-8.042,46.887c-1.771,10.323-3.541,20.646-5.312,30.972
				c-0.865,5.044,0.09,12.506,6.777,12.6c3.89,0.054,7.104-1.873,10.418-3.616c24.78-13.026,49.56-26.054,74.339-39.081
				c10.448-5.493,21.446-12.002,33.523-5.651c8.334,4.381,16.667,8.763,25.001,13.144c14.128,7.428,28.257,14.854,42.386,22.282
				c7.473,3.929,15.082,9.079,23.047,11.988c8.312,3.036,13.349-2.947,11.949-11.1c-0.474-2.764-0.946-5.526-1.422-8.291
				c-2.43-14.166-4.858-28.333-7.289-42.499c-2.354-13.735-4.711-27.473-7.066-41.209c-0.486-2.831-1.114-5.673-1.318-8.543
				c-0.539-7.601,3.016-15.418,8.368-20.636c19.405-18.916,38.812-37.831,58.216-56.746c3.483-3.396,6.969-6.792,10.452-10.188
				c3.04-2.964,6.397-6.214,5.881-10.847c-0.96-8.606-17.532-8.453-23.817-9.367c-27.268-3.962-54.533-7.924-81.801-11.886
				c-6.841-0.994-12.605-3.845-17.556-8.821c-2.762-2.776-4.278-6.404-5.981-9.856c-5.951-12.059-11.902-24.119-17.854-36.178
				c-6.623-13.421-13.247-26.841-19.87-40.262c-1.396-2.828-2.791-5.655-4.188-8.482c-4.2-8.514-12.518-8.184-16.953-0.187
				C270.045,109.853,274.365,112.375,275.927,109.555z"/>
		</g>
	</g>
	<g>
		<g>
			<path d="M271.136,165.574c2.046-4.291,3.95-8.688,6.217-12.865c2.634-4.854,5.996,0.735,7.328,3.436
				c2.291,4.643,4.584,9.286,6.875,13.929c6.555,13.281,13.108,26.562,19.662,39.843c5.453,11.049,13.667,19.382,26.453,21.24
				c13.669,1.986,27.337,3.972,41.006,5.958c6.313,0.917,12.627,1.834,18.939,2.752c4.966,0.722,13.007,2.19,6.589,8.446
				c-8.519,8.302-17.034,16.604-25.552,24.907c-7.885,7.687-16.719,15.013-23.818,23.454c-9.523,11.324-6.682,24.548-4.449,37.568
				c2.553,14.878,5.104,29.755,7.655,44.633c0.532,3.102,2.817,10.157,0.664,12.936c-2.101,2.708-10.171-2.693-12.369-3.849
				c-13.315-7-26.631-14-39.946-21c-10.811-5.685-24.24-14.96-36.484-8.524c-1.857,0.977-3.715,1.953-5.572,2.93
				c-2.855,1.5-0.328,5.815,2.523,4.316c5.069-2.664,8.895-5.015,14.805-4.179c3.682,0.521,7.203,1.887,10.477,3.606
				c4.406,2.317,8.814,4.635,13.224,6.952c13.188,6.934,26.379,13.867,39.567,20.801c3.688,1.939,7.224,4.158,11.431,4.686
				c7.307,0.913,8.665-7.413,7.764-12.667c-2.147-12.527-4.297-25.056-6.446-37.582c-1.189-6.942-2.381-13.886-3.572-20.827
				c-0.866-5.06-1.765-9.503-0.786-14.707c2.343-12.466,14.726-21.22,23.3-29.577c9.891-9.642,19.781-19.282,29.672-28.923
				c3.694-3.601,7.377-8.142,4.396-13.381c-2.322-4.083-8.088-4.308-12.248-4.913c-14.438-2.098-28.877-4.196-43.313-6.294
				c-13.821-2.008-29.491-2.148-37.104-16.258c-10.543-19.538-19.711-39.938-29.537-59.849c-2.37-4.804-6.859-8.42-12.166-5.815
				c-2.925,1.437-4.279,5.353-5.557,8.033c-1.313,2.754-2.626,5.508-3.939,8.262C265.439,165.945,269.75,168.483,271.136,165.574
				L271.136,165.574z"/>
		</g>
	</g>
	<g>
		<g>
			<path d="M216.087,386.732c-4.008,2.106-8.088,4.886-12.389,6.279c-3.974,1.288-3.232-4.958-2.83-7.305
				c0.875-5.103,1.75-10.205,2.626-15.309c2.503-14.597,5.007-29.193,7.511-43.79c0.768-4.479,1.687-8.815,1.039-13.402
				c-1.052-7.439-4.169-14.206-9.559-19.46c-9.603-9.361-19.206-18.722-28.809-28.082c-4.348-4.238-8.695-8.477-13.043-12.714
				c-2.371-2.311-5.254-4.612-6.971-7.475c-2.86-4.769,6.914-5.334,9.848-5.76c5.653-0.822,11.306-1.643,16.959-2.464
				c12.858-1.869,25.716-3.737,38.574-5.605c4.016-0.583,7.857-1.08,11.715-2.47c4.593-1.654,8.912-4.478,12.059-8.216
				c2.75-3.268,4.185-7.896,6.001-11.741c1.369-2.898-2.941-5.438-4.317-2.523c-2.035,4.307-3.628,9.261-7.01,12.69
				c-3.718,3.77-9.383,5.928-14.532,6.676c-4.303,0.625-8.606,1.25-12.909,1.876c-14.938,2.17-29.876,4.341-44.813,6.512
				c-3.624,0.526-7.986,0.633-11.399,2.085c-7.479,3.183-6.386,10.545-1.278,15.524c8.916,8.691,17.832,17.382,26.748,26.073
				c4.967,4.841,9.933,9.682,14.899,14.523c2.997,2.921,6.32,5.722,8.647,9.228c7.643,11.513,2.976,25.474,0.845,37.894
				c-2.393,13.951-4.786,27.902-7.178,41.854c-0.784,4.568-2.058,9.604,0.752,13.735c4.952,7.283,16.258-1.646,21.339-4.316
				C221.465,389.549,218.938,385.233,216.087,386.732L216.087,386.732z"/>
		</g>
	</g>
	<g>
		<g>
			<path d="M252.128,373.185c3.225,0,3.225-5,0-5S248.903,373.185,252.128,373.185L252.128,373.185z"/>
		</g>
	</g>
	<g>
		<g>
			<path d="M263.553,177.791c3.225,0,3.225-5,0-5C260.329,172.791,260.329,177.791,263.553,177.791L263.553,177.791z"/>
		</g>
	</g>
</g>
</svg>
