<?xml version="1.0" encoding="utf-8"?>
<!-- Generator: Adobe Illustrator 16.0.0, SVG Export Plug-In . SVG Version: 6.00 Build 0)  -->
<!DOCTYPE svg PUBLIC "-//W3C//DTD SVG 1.1//EN" "http://www.w3.org/Graphics/SVG/1.1/DTD/svg11.dtd">
<svg version="1.1" id="Layer_1" xmlns="http://www.w3.org/2000/svg" xmlns:xlink="http://www.w3.org/1999/xlink" x="0px" y="0px"
	 width="560px" height="560px" viewBox="0 0 560 560" enable-background="new 0 0 560 560" xml:space="preserve">
<g>
	<g>
		<path fill="#FFFFFF" d="M262.606,300.267h-5.908c-10.918,0-9.985,10.847-9.985,10.847h-0.02c0,68.921,0,126.509,0,131.038
			c0,10.92-7.753,15.203-14.602,15.203h-12.303h-12.303c-6.853,0-14.603-4.283-14.603-15.203c0-4.529,0-62.117,0-131.038h-0.02
			c0,0,0.932-10.847-9.987-10.847h-5.907"/>
		<g>
			<path d="M262.606,297.923c-4.722,0-10.445-0.713-14.229,2.761c-2.832,2.599-4.284,6.594-4.008,10.43
				c0.781-0.78,1.563-1.562,2.344-2.344c-0.006,0-0.013,0-0.02,0c-1.278,0-2.344,1.065-2.344,2.344c0,42.725,0,85.446,0,128.17
				c0,7.387-1.897,13.889-10.051,15.566c-4.803,0.988-10.37,0.161-15.258,0.161c-6.28,0-14.525,1.406-19.77-2.82
				c-4.704-3.791-4.045-10.291-4.045-15.703c0-41.789,0-83.582,0-125.373c0-1.278-1.066-2.344-2.344-2.344c-0.006,0-0.013,0-0.019,0
				c0.78,0.781,1.563,1.562,2.344,2.344c0.259-3.603-1.031-7.212-3.414-9.883c-3.639-4.08-9.932-3.309-14.825-3.309
				c-3.024,0-3.024,4.688,0,4.688c3.494,0,7.596-0.579,10.714,1.255c2.306,1.355,3.013,4.776,2.836,7.248
				c-0.092,1.276,1.135,2.345,2.344,2.345c0.006,0,0.013,0,0.019,0c-0.781-0.781-1.563-1.563-2.344-2.345
				c0,42.725,0,85.446,0,128.17c0,6.087,0.742,11.81,5.418,16.223c5.082,4.797,12.178,4.193,18.6,4.193
				c11.427,0,27.506,2.991,33.061-9.92c2.107-4.896,1.42-11.005,1.42-16.248c0-9.463,0-18.925,0-28.387c0-31.343,0-62.687,0-94.029
				c-0.781,0.781-1.563,1.563-2.344,2.345c0.006,0,0.013,0,0.02,0c1.209,0,2.436-1.068,2.344-2.345
				c-0.17-2.351,0.455-4.791,2.039-6.568c2.54-2.845,8.075-1.935,11.51-1.935C265.63,302.611,265.63,297.923,262.606,297.923
				L262.606,297.923z"/>
		</g>
	</g>
	<g>
		<line fill="none" x1="177.021" y1="289.808" x2="262.553" y2="289.808"/>
		<g>
			<path d="M177.021,292.151c28.511,0,57.022,0,85.532,0c3.024,0,3.024-4.688,0-4.688c-28.51,0-57.021,0-85.532,0
				C173.998,287.463,173.998,292.151,177.021,292.151L177.021,292.151z"/>
		</g>
	</g>
	<g>
		<polyline fill="#FFFFFF" points="228.843,289.379 228.843,155.823 228.895,155.823 238.001,140.048 228.895,102.345 
			210.679,102.345 201.57,140.048 210.679,155.823 210.731,155.823 210.731,289.379 		"/>
		<g>
			<path d="M231.188,289.379c0-43.972,0-87.944,0-131.916c0-0.547,0-1.093,0-1.64c-0.781,0.781-1.563,1.563-2.344,2.344
				c0.017,0,0.035,0,0.051,0c0.823,0,1.612-0.447,2.025-1.161c2.72-4.711,5.439-9.423,8.16-14.135
				c1.818-3.149,0.71-5.408-0.119-8.841c-2.601-10.77-5.202-21.539-7.803-32.309c-0.244-1.009-1.244-1.721-2.261-1.721
				c-6.071,0-12.144,0-18.215,0c-1.018,0-2.017,0.711-2.261,1.721c-2.702,11.183-5.404,22.367-8.105,33.55
				c-0.332,1.375-0.664,2.75-0.996,4.125c-0.422,1.745,1.394,3.85,2.197,5.242c1.849,3.201,3.696,6.401,5.544,9.602
				c0.828,1.434,1.678,3.928,3.674,3.928c-0.781-0.781-1.563-1.563-2.344-2.344c0,43.973,0,87.944,0,131.917c0,0.546,0,1.093,0,1.64
				c0,3.023,4.688,3.023,4.688,0c0-43.972,0-87.944,0-131.916c0-0.547,0-1.093,0-1.64c0-1.278-1.066-2.344-2.344-2.344
				c-0.018,0-0.035,0-0.052,0c0.675,0.387,1.349,0.774,2.024,1.161c-2.618-4.533-5.235-9.065-7.853-13.599
				c-0.379-0.658-0.76-1.316-1.14-1.975c-0.115-0.199-0.112,2.568,0.283,0.931c0.489-2.026,0.979-4.053,1.468-6.079
				c2.493-10.316,4.985-20.632,7.477-30.949c-0.753,0.574-1.507,1.147-2.26,1.721c6.071,0,12.144,0,18.215,0
				c-0.754-0.574-1.507-1.148-2.261-1.721c2.492,10.316,4.983,20.632,7.476,30.949c0.466,1.931,0.933,3.862,1.398,5.794
				c0.396,1.637-0.252,0.403,0.439-0.794c-0.409,0.708-0.818,1.416-1.227,2.125c-2.617,4.533-5.234,9.065-7.852,13.599
				c0.675-0.387,1.349-0.774,2.024-1.161c-0.017,0-0.035,0-0.051,0c-1.278,0-2.345,1.066-2.345,2.344c0,43.972,0,87.944,0,131.917
				c0,0.546,0,1.093,0,1.64C226.499,292.402,231.188,292.402,231.188,289.379L231.188,289.379z"/>
		</g>
	</g>
	<g>
		<line fill="none" x1="209.429" y1="335.592" x2="209.429" y2="424.223"/>
		<g>
			<path d="M207.085,335.592c0,29.544,0,59.087,0,88.631c0,3.024,4.688,3.024,4.688,0c0-29.544,0-59.087,0-88.631
				C211.773,332.568,207.085,332.568,207.085,335.592L207.085,335.592z"/>
		</g>
	</g>
	<g>
		<line fill="none" x1="230.196" y1="335.592" x2="230.196" y2="424.223"/>
		<g>
			<path d="M227.852,335.592c0,29.544,0,59.087,0,88.631c0,3.024,4.688,3.024,4.688,0c0-29.544,0-59.087,0-88.631
				C232.54,332.568,227.852,332.568,227.852,335.592L227.852,335.592z"/>
		</g>
	</g>
	<g>
		<g>
			<path fill="#FFFFFF" d="M353.844,333.066l29.111,33.694v47.65l-29.111,33.693v-0.242v-65.304l-20.508-23.933l-20.51,23.933
				v65.304l-0.15,0.242l-29.106-33.693v-47.65l29.106-33.694l0.41,0.025h0.016c0-51.585,0-197.45,0-200.84
				c0-8.172,5.803-11.379,10.93-11.379h9.209h9.205c5.129,0,10.93,3.207,10.93,11.379c0,3.39,0,149.255,0,200.84h0.016"/>
			<g>
				<path d="M352.186,334.724c7.541,8.728,15.078,17.454,22.619,26.181c1.654,1.915,3.309,3.83,4.963,5.746
					c0.422,0.489,0.846,0.979,1.27,1.468c0.895,1.035-0.428-2.306-0.428-0.984c0,4.938,0,9.875,0,14.812c0,7.417,0,14.834,0,22.251
					c0,2.524,0,5.051,0,7.576c0,0.686,0,1.374,0,2.062c0,1.603,1.041-1.49,0.541-0.911c-7.984,9.24-15.969,18.481-23.951,27.721
					c-1.672,1.935-3.34,3.867-5.014,5.803c1.336,0.552,2.67,1.104,4.004,1.657c0-18.505,0-37.011,0-55.517c0-3.137,0-6.274,0-9.413
					c0-2.139-1.82-3.596-3.139-5.133c-6.02-7.024-12.039-14.048-18.059-21.073c-0.787-0.919-2.527-0.919-3.314,0
					c-5.879,6.859-11.76,13.721-17.639,20.581c-1.287,1.501-3.559,3.313-3.559,5.439c0,2.971,0,5.942,0,8.913
					c0,11.583,0,23.167,0,34.749c0,5.002,0,10.004,0,15.007c0,1.514,0,3.027,0,4.542c0,1.333-0.508,1.821,0.172,0.722
					c1.229-0.158,2.455-0.315,3.682-0.474c-7.537-8.727-15.078-17.453-22.616-26.179c-1.654-1.915-3.31-3.831-4.964-5.745
					c-0.423-0.49-0.845-0.979-1.269-1.469c-0.895-1.035,0.427,2.306,0.427,0.984c0-4.938,0-9.875,0-14.813c0-7.417,0-14.832,0-22.25
					c0-2.525,0-5.05,0-7.575c0-0.688,0-1.375,0-2.062c0-1.604-1.041,1.49-0.539,0.91c7.983-9.24,15.966-18.482,23.951-27.723
					c1.252-1.451,2.506-2.901,3.76-4.354c0.33-0.381,0.66-0.764,0.99-1.146c0.828-0.958-1.936,0.411-0.973,0.411
					c1.277,0,2.344-1.066,2.344-2.344c-0.002-63.689-0.002-127.377-0.002-191.065c0-2.922,0-5.843,0-8.765
					c0-7.29,4.281-10.044,10.975-10.044c5.342,0,10.686,0,16.027,0c6.654,0,8.586,5.529,8.586,11.123c0,25.646,0,51.292,0,76.938
					c0,40.604,0,81.21,0,121.814c0,1.277,1.066,2.344,2.344,2.344c0.006,0,0.012,0,0.016,0c3.025,0,3.025-4.688,0-4.688
					c-0.004,0-0.01,0-0.016,0c0.781,0.781,1.564,1.563,2.346,2.345c0-63.689,0-127.377,0-191.065c0-8.124,1.342-18.184-7.557-22.301
					c-4.684-2.168-10.867-1.197-15.883-1.197c-6.545,0-13.432-0.889-18.342,4.373c-4.816,5.162-3.184,15.857-3.184,22.395
					c0,13.542,0,27.083,0,40.625c0,49.057,0,98.112,0,147.17c0.781-0.781,1.564-1.563,2.346-2.345c-2.916,0-5.418,4.521-7.094,6.463
					c-4.771,5.522-9.544,11.046-14.314,16.569c-3.212,3.719-6.424,7.437-9.635,11.154c-1.759,2.037-0.834,6.662-0.834,9.1
					c0,12.981,0,25.962,0,38.942c0,2.9,1.718,4.287,3.561,6.421c4.498,5.207,8.996,10.413,13.495,15.62
					c4.246,4.915,8.493,9.83,12.739,14.746c1.018,1.178,2.936,0.736,3.682-0.475c0.902-1.463,0.471-3.891,0.471-5.512
					c0-4.56,0-9.12,0-13.68c0-11.78,0-23.563,0-35.344c0-3.51,0-7.02,0-10.53c0-2.079,0.541-1.438-0.664-0.033
					c0.809-0.944,1.619-1.889,2.428-2.833c6.02-7.024,12.039-14.049,18.059-21.073c-1.105,0-2.209,0-3.314,0
					c5.879,6.859,11.758,13.721,17.637,20.581c0.889,1.037,1.779,2.075,2.668,3.113c-0.014-0.017-0.482-2.455-0.482-0.34
					c0,3.459,0,6.916,0,10.375c0,18.03,0,36.061,0,54.091c0,1.936,2.625,3.252,4.002,1.658c7.539-8.727,15.08-17.452,22.617-26.178
					c1.656-1.916,3.311-3.83,4.965-5.746c0.795-0.919,2.215-2.12,2.215-3.427c0-3.936,0-7.871,0-11.807c0-11.917,0-23.833,0-35.748
					c0-2.652-4.652-6.344-6.178-8.108c-4.803-5.56-9.605-11.118-14.408-16.678c-3.068-3.554-6.141-7.106-9.211-10.661
					C353.521,329.116,350.221,332.448,352.186,334.724L352.186,334.724z"/>
			</g>
		</g>
		<g>
			<path fill="#FFFFFF" d="M343.459,131.227h-9.207c-7.594,0-10.93,0-10.93,11.378c0,3.389,0,152.236,0,152.236"/>
			<g>
				<path d="M343.459,128.883c-5.256,0-12.086-1.049-17.076,0.862c-5.311,2.034-5.404,8.756-5.404,13.526c0,7.529,0,15.06,0,22.588
					c0,29.436,0,58.87,0,88.305c0,13.559,0,27.119,0,40.678c0,3.024,4.688,3.024,4.688,0c0-46.745,0-93.49,0-140.235
					c0-3.903,0-7.806,0-11.708c0-5.01,0.057-9.036,5.713-9.297c4.014-0.186,8.064-0.029,12.08-0.029
					C346.48,133.571,346.48,128.883,343.459,128.883L343.459,128.883z"/>
			</g>
		</g>
		<g>
			<path fill="#FFFFFF" d="M323.307,302.016"/>
			<g>
				<path d="M323.307,304.36c3.023,0,3.023-4.688,0-4.688S320.283,304.36,323.307,304.36L323.307,304.36z"/>
			</g>
		</g>
	</g>
</g>
</svg>
