<?xml version="1.0" encoding="utf-8"?>
<!-- Generator: Adobe Illustrator 16.0.0, SVG Export Plug-In . SVG Version: 6.00 Build 0)  -->
<!DOCTYPE svg PUBLIC "-//W3C//DTD SVG 1.1//EN" "http://www.w3.org/Graphics/SVG/1.1/DTD/svg11.dtd">
<svg version="1.1" id="Layer_1" xmlns="http://www.w3.org/2000/svg" xmlns:xlink="http://www.w3.org/1999/xlink" x="0px" y="0px"
	 width="560px" height="560px" viewBox="-999.5 400.5 560 560" enable-background="new -999.5 400.5 560 560" xml:space="preserve">
<g>
	<g>
		<g>
			<g>
				<path d="M-603.647,631.003c-0.226-43.481-19.396-92.228-61.192-111.312c-17.86-8.156-38.299-8.616-56.6-1.634
					c-19.14,7.304-34.346,22.217-45.106,39.33c-21.414,34.057-25.081,78.432-13.74,116.547
					c9.896,33.264,34.166,65.037,69.312,73.219c0.223-1.637,0.443-3.274,0.665-4.911c-0.159,0-0.317,0-0.476,0
					c-1.363,0-2.5,1.137-2.5,2.5c0,25.956,0,51.912,0,77.868c0,5.16-0.444,10.572,0.373,15.688c1.313,8.223,9.677,9.528,16.42,9.528
					c7.043,0,14.199,0.408,18.184-6.631c2.139-3.778,1.417-9.002,1.417-13.146c0-2.972-0.032-5.94-0.032-8.914
					c0-16.44,0-32.884,0-49.323c0-8.356,0-16.712,0-25.068c0-1.362-1.137-2.5-2.5-2.5c-0.148,0-0.296,0-0.443,0
					c0.222,1.638,0.442,3.274,0.664,4.911C-628.289,735.3-603.896,678.806-603.647,631.003c0.017-3.225-4.983-3.224-5,0
					c-0.238,45.627-23.156,99.983-71.883,111.327c-2.787,0.648-2.125,4.911,0.664,4.911c0.148,0,0.297,0,0.444,0
					c-0.833-0.833-1.667-1.667-2.5-2.5c0,26.508,0,53.016,0,79.524c0,4.687,1.149,11.134-1.26,15.39
					c-2.078,3.67-6.959,3.17-10.501,3.17c-7.418,0-14.602,0.188-14.602-9.479c0-19.49,0-38.98,0-58.473c0-10.044,0-20.088,0-30.133
					c-0.832,0.833-1.666,1.667-2.5,2.5c0.16,0,0.317,0,0.477,0c2.789,0,3.451-4.262,0.665-4.911
					c-47.554-11.068-70.682-63.438-71.849-108.14c-1.166-44.67,20.082-97.951,65.868-112.898
					c27.197-8.881,55.229,1.636,74.522,21.545c22.448,23.166,32.291,56.509,32.455,88.166
					C-608.631,634.227-603.631,634.229-603.647,631.003z"/>
			</g>
		</g>
		<g>
			<g>
				<path d="M-634.943,631.542c-0.165,24.232-7.642,49.196-25.093,66.653c-14.972,14.978-36.907,19.848-56.111,10.224
					c-20.558-10.302-32.178-32.996-36.834-54.573c-5.365-24.859-1.591-52.295,11.368-74.261
					c13.923-23.598,41.422-38.032,67.586-24.921C-646.5,568.458-635.14,602.742-634.943,631.542c0.021,3.224,5.021,3.226,5,0
					c-0.158-23.205-6.737-46.391-21.458-64.608c-12.025-14.884-30.774-24.662-50.18-22.002
					c-20.216,2.771-35.911,17.264-45.699,34.459c-11.925,20.948-15,46.267-11.589,69.858c4.919,34.03,31.047,74.282,70.276,68.905
					c40.04-5.489,58.406-50.94,58.649-86.612C-629.922,628.316-634.922,628.318-634.943,631.542z"/>
			</g>
		</g>
	</g>
	<g>
		<g>
			<g>
				<path d="M-696.772,599.839c-11.426,11.425-22.852,22.852-34.277,34.276c-2.282,2.282,1.253,5.817,3.535,3.535
					c11.426-11.425,22.852-22.852,34.277-34.277C-690.953,601.091-694.491,597.556-696.772,599.839L-696.772,599.839z"/>
			</g>
		</g>
		<g>
			<g>
				<path d="M-662.229,596.042c-24.745,24.745-49.49,49.49-74.234,74.235c-2.282,2.282,1.253,5.817,3.535,3.535
					c24.745-24.745,49.49-49.49,74.234-74.235C-656.411,597.296-659.948,593.761-662.229,596.042L-662.229,596.042z"/>
			</g>
		</g>
		<g>
			<g>
				<path d="M-665.845,630.237c-11.962,11.962-23.925,23.924-35.887,35.886c-2.282,2.282,1.253,5.817,3.534,3.535
					c11.963-11.962,23.926-23.924,35.888-35.886C-660.028,631.49-663.563,627.955-665.845,630.237L-665.845,630.237z"/>
			</g>
		</g>
		<g>
			<g>
				<path d="M-686.44,595.892c3.224,0,3.224-5,0-5C-689.664,590.892-689.664,595.892-686.44,595.892L-686.44,595.892z"/>
			</g>
		</g>
	</g>
	<g>
		<g>
			<path fill="#FFFFFF" d="M-736.621,563.23h-84.062c-7.237,0-13.104,5.866-13.104,13.104v-0.523c0,0,0,230.169,0,237.679
				s5.625,10.457,10.338,10.457h10.719c4.713,0,10.338-2.947,10.338-10.457c0-0.746,0-5.604,0-10.307l-0.031-0.295
				c0-12.102,0-50.354,0-68.847c0-5.464,0-9.383,0-10.679c0-9.13,5.187-10.152,10.191-10.152c5.008,0,55.611,0,55.611,0V563.23
				L-736.621,563.23z"/>
		</g>
		<g>
			<g>
				<path d="M-735.444,560.73c-17.454,0-34.907,0-52.361,0c-9.345,0-18.688,0-28.034,0c-2.37,0-4.613-0.004-6.972,0.354
					c-7.366,1.125-11.949,8.326-12.299,15.25c1.667,0,3.333,0,5,0c0-0.176,0-0.35,0-0.523c0-3.225-5-3.225-5,0
					c0,47.753,0,95.505,0,143.258c0,26.895,0,53.789,0,80.684c0,5.821-0.879,12.696,0.712,18.373
					c2.198,7.844,10.349,8.321,17.014,8.321c6.677,0,14.455,0.13,17.503-7.229c2.576-6.216,1.135-14.262,1.135-20.875
					c0-8.24,0-16.482,0-24.726c0-9.495,0-18.989,0-28.484c0-3.695,0-7.395,0-11.092c0-4.627-0.579-9.786,0.422-14.341
					c1.172-5.335,9.217-3.99,13.359-3.99c6.464,0,12.93,0,19.394,0c10.042,0,20.085,0,30.127,0c3.224,0,3.224-5,0-5
					c-12.771,0-25.543,0-38.314,0c-5.692,0-11.384,0-17.077,0c-8.963,0-12.913,5.153-12.913,13.895c0,21.479,0,42.961,0,64.44
					c0,8.561,1.184,18.116-0.163,26.542c-1.263,7.896-12.761,5.857-18.361,5.857c-9.849,0-7.838-12.586-7.838-19.253
					c0-10.865,0-21.731,0-32.597c0-31.977,0-63.949,0-95.924c0-32.621,0-65.241,0-97.862c0-3.226-5-3.226-5,0
					c0,0.175,0,0.349,0,0.522c0,3.242,4.838,3.201,5,0c0.556-11.006,10.499-10.604,18.476-10.604c9.571,0,19.143,0,28.712,0
					c15.826,0,31.652,0,47.479,0C-732.22,565.73-732.22,560.73-735.444,560.73L-735.444,560.73z"/>
			</g>
		</g>
		<g>
			<g>
				<path d="M-801.246,595.698c21.934,0,43.869,0,65.803,0c3.224,0,3.224-5,0-5c-21.934,0-43.869,0-65.803,0
					C-804.472,590.698-804.472,595.698-801.246,595.698L-801.246,595.698z"/>
			</g>
		</g>
		<g>
			<g>
				<path d="M-801.246,626.035c21.934,0,43.869,0,65.803,0c3.224,0,3.224-5,0-5c-21.934,0-43.869,0-65.803,0
					C-804.472,621.035-804.472,626.035-801.246,626.035L-801.246,626.035z"/>
			</g>
		</g>
		<g>
			<g>
				<path d="M-801.246,655.634c21.934,0,43.869,0,65.803,0c3.224,0,3.224-5,0-5c-21.934,0-43.869,0-65.803,0
					C-804.472,650.634-804.472,655.634-801.246,655.634L-801.246,655.634z"/>
			</g>
		</g>
		<g>
			<g>
				<path d="M-801.246,685.896c21.934,0,43.869,0,65.803,0c3.224,0,3.224-5,0-5c-21.934,0-43.869,0-65.803,0
					C-804.472,680.896-804.472,685.896-801.246,685.896L-801.246,685.896z"/>
			</g>
		</g>
	</g>
</g>
</svg>
