<?xml version="1.0" encoding="utf-8"?>
<!-- Generator: Adobe Illustrator 16.0.0, SVG Export Plug-In . SVG Version: 6.00 Build 0)  -->
<!DOCTYPE svg PUBLIC "-//W3C//DTD SVG 1.1//EN" "http://www.w3.org/Graphics/SVG/1.1/DTD/svg11.dtd">
<svg version="1.1" id="Layer_1" xmlns="http://www.w3.org/2000/svg" xmlns:xlink="http://www.w3.org/1999/xlink" x="0px" y="0px"
	 width="560px" height="560px" viewBox="-999.5 400.5 560 560" enable-background="new -999.5 400.5 560 560" xml:space="preserve">
<g>
	<g>
		<g>
			<path d="M-738.047,699.614c-5.036,0-11.139-0.76-15.175,2.945c-3.021,2.771-4.569,7.031-4.274,11.122
				c0.833-0.833,1.667-1.667,2.5-2.5c-0.007,0-0.014,0-0.021,0c-1.363,0-2.5,1.138-2.5,2.5c0,45.562,0,91.124,0,136.687
				c0,7.877-2.023,14.812-10.718,16.601c-5.123,1.055-11.059,0.172-16.272,0.172c-6.697,0-15.49,1.5-21.083-3.008
				c-5.017-4.043-4.314-10.975-4.314-16.746c0-44.567,0-89.136,0-133.704c0-1.362-1.137-2.5-2.5-2.5c-0.007,0-0.014,0-0.021,0
				c0.833,0.833,1.667,1.667,2.5,2.5c0.277-3.842-1.099-7.69-3.64-10.541c-3.881-4.351-10.592-3.527-15.81-3.527
				c-3.224,0-3.224,5,0,5c3.726,0,8.1-0.618,11.426,1.338c2.459,1.446,3.214,5.093,3.024,7.729c-0.098,1.361,1.211,2.5,2.5,2.5
				c0.007,0,0.014,0,0.021,0c-0.833-0.833-1.667-1.667-2.5-2.5c0,45.562,0,91.124,0,136.687c0,6.492,0.791,12.594,5.778,17.301
				c5.42,5.115,12.987,4.472,19.836,4.472c12.186,0,29.334,3.19,35.258-10.579c2.247-5.221,1.514-11.737,1.514-17.326
				c0-10.093,0-20.184,0-30.274c0-33.426,0-66.852,0-100.277c-0.833,0.833-1.667,1.667-2.5,2.5c0.007,0,0.014,0,0.021,0
				c1.289,0,2.598-1.139,2.5-2.5c-0.181-2.507,0.485-5.109,2.175-7.005c2.708-3.036,8.611-2.062,12.274-2.062
				C-734.823,704.614-734.823,699.614-738.047,699.614L-738.047,699.614z"/>
		</g>
	</g>
	<g>
		<g>
			<path d="M-829.318,693.461c30.405,0,60.81,0,91.215,0c3.224,0,3.224-5,0-5c-30.405,0-60.81,0-91.215,0
				C-832.543,688.461-832.543,693.461-829.318,693.461L-829.318,693.461z"/>
		</g>
	</g>
	<g>
		<g>
			<path d="M-771.553,690.504c0-46.896,0-93.789,0-140.685c0-0.582,0-1.166,0-1.748c-0.833,0.832-1.667,1.666-2.5,2.5
				c0.018,0,0.037,0,0.055,0c0.877,0,1.719-0.478,2.159-1.238c2.9-5.023,5.801-10.049,8.702-15.074
				c1.939-3.359,0.757-5.767-0.127-9.429c-2.774-11.485-5.548-22.97-8.322-34.455c-0.26-1.076-1.326-1.835-2.411-1.835
				c-6.475,0-12.951,0-19.426,0c-1.085,0-2.151,0.759-2.411,1.835c-2.881,11.926-5.763,23.853-8.644,35.778
				c-0.354,1.466-0.709,2.933-1.063,4.398c-0.45,1.86,1.486,4.106,2.343,5.59c1.971,3.413,3.941,6.826,5.912,10.239
				c0.884,1.53,1.79,4.188,3.918,4.188c-0.833-0.832-1.667-1.666-2.5-2.5c0,46.896,0,93.789,0,140.685c0,0.583,0,1.166,0,1.749
				c0,3.225,5,3.225,5,0c0-46.895,0-93.789,0-140.684c0-0.584,0-1.166,0-1.75c0-1.362-1.137-2.5-2.5-2.5c-0.019,0-0.037,0-0.056,0
				c0.72,0.414,1.439,0.826,2.159,1.238c-2.792-4.834-5.583-9.668-8.374-14.503c-0.405-0.702-0.811-1.403-1.216-2.105
				c-0.123-0.214-0.119,2.737,0.302,0.991c0.522-2.16,1.044-4.321,1.566-6.482c2.658-11.001,5.316-22.003,7.974-33.005
				c-0.804,0.612-1.607,1.224-2.411,1.835c6.475,0,12.951,0,19.426,0c-0.804-0.612-1.607-1.225-2.411-1.835
				c2.657,11.001,5.314,22.003,7.972,33.005c0.497,2.061,0.995,4.119,1.492,6.179c0.422,1.746-0.27,0.431,0.468-0.847
				c-0.436,0.755-0.872,1.51-1.308,2.266c-2.791,4.834-5.582,9.668-8.373,14.504c0.72-0.414,1.439-0.826,2.159-1.238
				c-0.018,0-0.037,0-0.055,0c-1.363,0-2.5,1.137-2.5,2.5c0,46.895,0,93.789,0,140.684c0,0.583,0,1.166,0,1.749
				C-776.553,693.728-771.553,693.728-771.553,690.504L-771.553,690.504z"/>
		</g>
	</g>
	<g>
		<g>
			<path d="M-797.257,739.786c0,31.507,0,63.014,0,94.521c0,3.226,5,3.226,5,0c0-31.507,0-63.014,0-94.521
				C-792.257,736.562-797.257,736.562-797.257,739.786L-797.257,739.786z"/>
		</g>
	</g>
	<g>
		<g>
			<path d="M-775.11,739.786c0,31.507,0,63.014,0,94.521c0,3.226,5,3.226,5,0c0-31.507,0-63.014,0-94.521
				C-770.11,736.562-775.11,736.562-775.11,739.786L-775.11,739.786z"/>
		</g>
	</g>
	<g>
		<g>
			<g>
				<path d="M-642.514,738.86c8.04,9.307,16.078,18.612,24.119,27.919c1.765,2.042,3.528,4.085,5.293,6.127
					c0.451,0.521,0.901,1.044,1.354,1.565c0.953,1.104-0.456-2.458-0.456-1.05c0,5.267,0,10.532,0,15.798c0,7.91,0,15.82,0,23.729
					c0,2.692,0,5.386,0,8.078c0,0.732,0,1.467,0,2.2c0,1.71,1.109-1.59,0.575-0.972c-8.514,9.854-17.027,19.709-25.542,29.563
					c-1.782,2.062-3.563,4.124-5.344,6.187c1.422,0.589,2.845,1.179,4.268,1.769c0-19.735,0-39.471,0-59.205
					c0-3.347,0-6.692,0-10.039c0-2.282-1.94-3.835-3.346-5.475c-6.419-7.491-12.839-14.982-19.259-22.475
					c-0.84-0.979-2.696-0.979-3.535,0c-6.27,7.317-12.54,14.634-18.811,21.951c-1.371,1.601-3.795,3.535-3.795,5.801
					c0,3.168,0,6.337,0,9.505c0,12.354,0,24.706,0,37.06c0,5.334,0,10.668,0,16.003c0,1.613,0,3.229,0,4.843
					c0,1.422-0.542,1.942,0.182,0.771c1.31-0.169,2.619-0.337,3.927-0.506c-8.039-9.306-16.079-18.612-24.118-27.918
					c-1.766-2.042-3.529-4.085-5.293-6.127c-0.451-0.521-0.902-1.044-1.354-1.566c-0.953-1.104,0.455,2.46,0.455,1.051
					c0-5.267,0-10.531,0-15.798c0-7.909,0-15.819,0-23.729c0-2.693,0-5.386,0-8.079c0-0.732,0-1.467,0-2.2
					c0-1.71-1.108,1.589-0.574,0.972c8.514-9.855,17.026-19.71,25.541-29.565c1.336-1.547,2.673-3.095,4.01-4.642
					c0.352-0.408,0.705-0.816,1.057-1.225c0.883-1.022-2.066,0.44-1.039,0.44c1.363,0,2.5-1.137,2.5-2.5
					C-681.7,669.2-681.7,601.28-681.7,533.358c0-3.115,0-6.23,0-9.347c0-7.774,4.565-10.713,11.703-10.713
					c5.698,0,11.396,0,17.093,0c7.098,0,9.156,5.897,9.156,11.862c0,27.35,0,54.699,0,82.05c0,43.303,0,86.606,0,129.91
					c0,1.363,1.137,2.5,2.5,2.5c0.005,0,0.01,0,0.016,0c3.225,0,3.225-5,0-5c-0.004,0-0.01,0-0.016,0
					c0.833,0.833,1.667,1.667,2.5,2.5c0-67.921,0-135.841,0-203.763c0-8.664,1.434-19.392-8.058-23.782
					c-4.996-2.312-11.589-1.277-16.938-1.277c-6.98,0-14.322-0.946-19.559,4.665c-5.137,5.505-3.397,16.909-3.397,23.883
					c0,14.441,0,28.883,0,43.324c0,52.316,0,104.634,0.001,156.951c0.834-0.833,1.668-1.667,2.5-2.5
					c-3.109,0-5.774,4.818-7.563,6.89c-5.089,5.891-10.177,11.781-15.267,17.671c-3.425,3.965-6.85,7.931-10.274,11.896
					c-1.877,2.173-0.89,7.104-0.89,9.705c0,13.843,0,27.687,0,41.53c0,3.094,1.832,4.572,3.797,6.848
					c4.797,5.553,9.595,11.104,14.392,16.658c4.528,5.241,9.058,10.483,13.585,15.726c1.084,1.256,3.129,0.784,3.926-0.506
					c0.963-1.561,0.5-4.149,0.5-5.878c0-4.862,0-9.726,0-14.588c0-12.564,0-25.129,0-37.693c0-3.743,0-7.485,0-11.228
					c0-2.219,0.577-1.535-0.708-0.036c0.863-1.008,1.726-2.015,2.589-3.021c6.42-7.492,12.84-14.982,19.258-22.476
					c-1.178,0-2.356,0-3.535,0c6.271,7.316,12.539,14.634,18.81,21.951c0.948,1.105,1.896,2.213,2.845,3.319
					c-0.015-0.017-0.514-2.618-0.514-0.361c0,3.688,0,7.376,0,11.063c0,19.229,0,38.456,0,57.685c0,2.064,2.8,3.468,4.268,1.769
					c8.041-9.306,16.08-18.611,24.121-27.917c1.764-2.043,3.528-4.085,5.293-6.128c0.848-0.98,2.361-2.261,2.361-3.654
					c0-4.197,0-8.395,0-12.592c0-12.708,0-25.417,0-38.125c0-2.828-4.961-6.765-6.587-8.646
					c-5.122-5.929-10.244-11.856-15.366-17.785c-3.273-3.79-6.548-7.58-9.822-11.37C-641.09,732.881-644.609,736.434-642.514,738.86
					L-642.514,738.86z"/>
			</g>
		</g>
		<g>
			<g>
				<path d="M-651.822,519.342c-5.604,0-12.888-1.118-18.209,0.92c-5.664,2.169-5.766,9.339-5.766,14.425c0,8.029,0,16.06,0,24.088
					c0,31.392,0,62.783,0,94.174c0,14.46,0,28.921,0,43.382c0,3.224,5,3.224,5,0c0-49.853,0-99.704,0-149.556
					c0-4.162,0-8.325,0-12.487c0-5.343,0.061-9.636,6.093-9.915c4.279-0.198,8.601-0.031,12.882-0.031
					C-648.598,524.342-648.598,519.342-651.822,519.342L-651.822,519.342z"/>
			</g>
		</g>
		<g>
			<g>
				<path d="M-673.314,706.479c3.225,0,3.225-5,0-5C-676.538,701.479-676.538,706.479-673.314,706.479L-673.314,706.479z"/>
			</g>
		</g>
	</g>
</g>
</svg>
