<?xml version="1.0" encoding="utf-8"?>
<!-- Generator: Adobe Illustrator 16.0.0, SVG Export Plug-In . SVG Version: 6.00 Build 0)  -->
<!DOCTYPE svg PUBLIC "-//W3C//DTD SVG 1.1//EN" "http://www.w3.org/Graphics/SVG/1.1/DTD/svg11.dtd">
<svg version="1.1" id="Layer_1" xmlns="http://www.w3.org/2000/svg" xmlns:xlink="http://www.w3.org/1999/xlink" x="0px" y="0px"
	 width="560px" height="560px" viewBox="0 0 560 560" enable-background="new 0 0 560 560" xml:space="preserve">
<g>
	<g>
		<g>
			<path fill="#FFFFFF" d="M402.154,237.553c0-63.747-39.82-115.424-88.939-115.424c-49.122,0-88.94,51.677-88.94,115.424
				c0,57.011,31.85,104.366,73.719,113.736h-0.476c0,47.403,0,87.012,0,90.126c0,7.51,5.625,10.457,10.338,10.457h10.719
				c4.712,0,10.338-2.947,10.338-10.457c0-0.746,0-5.607,0-10.308l-0.032-0.294c0-12.1,0-78.229,0-79.524h-0.444
				C370.304,341.919,402.154,294.563,402.154,237.553z"/>
			<g>
				<path d="M404.654,237.553c-0.225-43.483-19.396-92.228-61.192-111.314c-17.86-8.156-38.299-8.616-56.6-1.634
					c-19.141,7.304-34.346,22.217-45.107,39.331c-21.414,34.056-25.081,78.431-13.74,116.546
					c9.896,33.263,34.166,65.037,69.312,73.218c0.222-1.638,0.443-3.274,0.665-4.911c-0.159,0-0.317,0-0.476,0
					c-1.363,0-2.5,1.138-2.5,2.5c0,25.956,0,51.912,0,77.868c0,5.16-0.444,10.571,0.374,15.687
					c1.313,8.221,9.677,9.528,16.419,9.528c7.044,0,14.199,0.408,18.184-6.63c2.14-3.779,1.418-9.002,1.418-13.146
					c0-2.972-0.032-5.941-0.032-8.914c0-16.441,0-32.883,0-49.325c0-8.355,0-16.712,0-25.067c0-1.362-1.138-2.5-2.5-2.5
					c-0.148,0-0.296,0-0.444,0c0.222,1.637,0.443,3.273,0.664,4.911C380.012,341.849,404.404,285.354,404.654,237.553
					c0.017-3.225-4.983-3.224-5,0c-0.238,45.626-23.155,99.982-71.883,111.325c-2.787,0.649-2.125,4.911,0.664,4.911
					c0.148,0,0.296,0,0.444,0c-0.833-0.833-1.667-1.667-2.5-2.5c0,26.508,0,53.017,0,79.524c0,4.686,1.149,11.134-1.26,15.389
					c-2.077,3.67-6.96,3.17-10.501,3.17c-7.418,0-14.602,0.187-14.602-9.479c0-19.49,0-38.98,0-58.471c0-10.045,0-20.089,0-30.133
					c-0.834,0.833-1.667,1.667-2.5,2.5c0.158,0,0.316,0,0.476,0c2.789,0,3.451-4.262,0.664-4.911
					c-47.555-11.069-70.683-63.438-71.85-108.139c-1.166-44.67,20.082-97.951,65.868-112.899c27.198-8.88,55.23,1.635,74.523,21.545
					c22.448,23.166,32.292,56.508,32.455,88.167C399.671,240.776,404.671,240.778,404.654,237.553z"/>
			</g>
		</g>
		<g>
			<ellipse fill="#FFFFFF" cx="313.214" cy="238.091" rx="62.644" ry="84.561"/>
			<g>
				<path d="M373.358,238.091c-0.165,24.232-7.642,49.195-25.092,66.651c-14.972,14.978-36.907,19.848-56.112,10.225
					c-20.558-10.302-32.178-32.996-36.835-54.573c-5.365-24.859-1.591-52.295,11.368-74.259
					c13.923-23.598,41.422-38.033,67.587-24.921C361.8,175.008,373.162,209.292,373.358,238.091c0.022,3.223,5.022,3.225,5,0
					c-0.158-23.205-6.737-46.39-21.458-64.609c-12.026-14.883-30.774-24.662-50.18-22.001c-20.217,2.771-35.911,17.263-45.7,34.459
					c-11.925,20.949-15,46.266-11.589,69.858c4.919,34.029,31.047,74.281,70.277,68.904c40.039-5.489,58.406-50.94,58.649-86.61
					C378.381,234.866,373.381,234.868,373.358,238.091z"/>
			</g>
		</g>
	</g>
	<g>
		<g>
			<line fill="#FFFFFF" x1="313.297" y1="208.155" x2="279.019" y2="242.432"/>
			<g>
				<path d="M311.529,206.388c-11.426,11.425-22.853,22.851-34.278,34.277c-2.282,2.282,1.253,5.817,3.535,3.535
					c11.427-11.425,22.853-22.851,34.278-34.277C317.347,207.641,313.811,204.105,311.529,206.388L311.529,206.388z"/>
			</g>
		</g>
		<g>
			<line fill="#FFFFFF" x1="347.84" y1="204.36" x2="273.604" y2="278.593"/>
			<g>
				<path d="M346.072,202.592c-24.745,24.745-49.49,49.489-74.235,74.233c-2.282,2.281,1.253,5.817,3.535,3.535
					c24.746-24.743,49.491-49.488,74.235-74.233C351.89,203.846,348.354,200.31,346.072,202.592L346.072,202.592z"/>
			</g>
		</g>
		<g>
			<line fill="#FFFFFF" x1="344.224" y1="238.555" x2="308.337" y2="274.44"/>
			<g>
				<path d="M342.456,236.787c-11.962,11.961-23.925,23.924-35.887,35.885c-2.282,2.281,1.254,5.817,3.535,3.535
					c11.962-11.961,23.925-23.923,35.887-35.885C348.273,238.041,344.737,234.505,342.456,236.787L342.456,236.787z"/>
			</g>
		</g>
		<g>
			<path fill="#FFFFFF" d="M321.861,199.941"/>
			<g>
				<path d="M321.861,202.441c3.225,0,3.225-5,0-5S318.637,202.441,321.861,202.441L321.861,202.441z"/>
			</g>
		</g>
	</g>
	<g>
		<g>
			<path fill="#FFFFFF" d="M271.679,169.78h-84.062c-7.237,0-13.104,5.867-13.104,13.104v-0.524c0,0,0,230.167,0,237.678
				c0,7.51,5.625,10.457,10.338,10.457h10.719c4.713,0,10.338-2.947,10.338-10.457c0-0.747,0-5.606,0-10.308l-0.031-0.295
				c0-12.1,0-50.352,0-68.844c0-5.465,0-9.384,0-10.68c0-9.129,5.186-10.152,10.191-10.152c5.008,0,55.611,0,55.611,0V169.78z"/>
		</g>
		<g>
			<path fill="#FFFFFF" d="M272.856,169.78h-84.062c-7.237,0-13.104,5.867-13.104,13.104v-0.524c0,0,0,230.167,0,237.678
				c0,7.51,5.626,10.457,10.338,10.457h10.72c4.712,0,10.337-2.947,10.337-10.457c0-0.747,0-5.606,0-10.308l-0.031-0.295
				c0-12.1,0-50.352,0-68.844c0-5.465,0-9.384,0-10.68c0-9.129,5.186-10.152,10.191-10.152c5.008,0,55.611,0,55.611,0"/>
			<g>
				<path d="M272.856,167.28c-17.454,0-34.907,0-52.361,0c-9.345,0-18.689,0-28.034,0c-2.371,0-4.614-0.004-6.972,0.355
					c-7.366,1.125-11.949,8.326-12.299,15.249c1.667,0,3.333,0,5,0c0-0.175,0-0.349,0-0.524c0-3.224-5-3.224-5,0
					c0,47.753,0,95.504,0,143.256c0,26.895,0,53.789,0,80.684c0,5.822-0.879,12.697,0.712,18.374
					c2.198,7.842,10.349,8.321,17.014,8.321c6.676,0,14.455,0.13,17.503-7.228c2.576-6.216,1.134-14.262,1.134-20.876
					c0-8.241,0-16.482,0-24.725c0-9.494,0-18.989,0-28.483c0-3.697,0-7.395,0-11.092c0-4.628-0.579-9.786,0.422-14.342
					c1.172-5.335,9.217-3.99,13.36-3.99c6.464,0,12.929,0,19.394,0c10.042,0,20.084,0,30.127,0c3.225,0,3.225-5,0-5
					c-12.771,0-25.543,0-38.314,0c-5.692,0-11.384,0-17.076,0c-8.963,0-12.913,5.153-12.913,13.893c0,21.481,0,42.962,0,64.442
					c0,8.56,1.183,18.117-0.164,26.543c-1.262,7.895-12.76,5.857-18.361,5.857c-9.849,0-7.838-12.586-7.838-19.253
					c0-10.866,0-21.731,0-32.598c0-31.974,0-63.948,0-95.922c0-32.62,0-65.241,0-97.862c0-3.224-5-3.224-5,0
					c0,0.175,0,0.349,0,0.524c0,3.242,4.838,3.201,5,0c0.556-11.006,10.499-10.604,18.476-10.604c9.571,0,19.141,0,28.712,0
					c15.826,0,31.651,0,47.478,0C276.081,172.28,276.081,167.28,272.856,167.28L272.856,167.28z"/>
			</g>
		</g>
		<g>
			<line fill="#FFFFFF" x1="207.054" y1="199.748" x2="272.856" y2="199.748"/>
			<g>
				<path d="M207.054,202.248c21.934,0,43.869,0,65.803,0c3.225,0,3.225-5,0-5c-21.934,0-43.869,0-65.803,0
					C203.829,197.248,203.829,202.248,207.054,202.248L207.054,202.248z"/>
			</g>
		</g>
		<g>
			<line fill="#FFFFFF" x1="207.054" y1="230.085" x2="272.856" y2="230.085"/>
			<g>
				<path d="M207.054,232.585c21.934,0,43.869,0,65.803,0c3.225,0,3.225-5,0-5c-21.934,0-43.869,0-65.803,0
					C203.829,227.585,203.829,232.585,207.054,232.585L207.054,232.585z"/>
			</g>
		</g>
		<g>
			<line fill="#FFFFFF" x1="207.054" y1="259.684" x2="272.856" y2="259.684"/>
			<g>
				<path d="M207.054,262.184c21.934,0,43.869,0,65.803,0c3.225,0,3.225-5,0-5c-21.934,0-43.869,0-65.803,0
					C203.829,257.184,203.829,262.184,207.054,262.184L207.054,262.184z"/>
			</g>
		</g>
		<g>
			<line fill="#FFFFFF" x1="207.054" y1="289.944" x2="272.856" y2="289.944"/>
			<g>
				<path d="M207.054,292.444c21.934,0,43.869,0,65.803,0c3.225,0,3.225-5,0-5c-21.934,0-43.869,0-65.803,0
					C203.829,287.444,203.829,292.444,207.054,292.444L207.054,292.444z"/>
			</g>
		</g>
	</g>
</g>
</svg>
