<?xml version="1.0" encoding="utf-8"?>
<!-- Generator: Adobe Illustrator 16.0.0, SVG Export Plug-In . SVG Version: 6.00 Build 0)  -->
<!DOCTYPE svg PUBLIC "-//W3C//DTD SVG 1.1//EN" "http://www.w3.org/Graphics/SVG/1.1/DTD/svg11.dtd">
<svg version="1.1" id="Layer_1" xmlns="http://www.w3.org/2000/svg" xmlns:xlink="http://www.w3.org/1999/xlink" x="0px" y="0px"
	 width="560px" height="560px" viewBox="0 0 560 560" enable-background="new 0 0 560 560" xml:space="preserve">
<g>
	<polygon fill="#FFFFFF" points="323.012,449.328 215.444,449.328 196.488,223.578 344.13,223.578 	"/>
	<g>
		<path fill="#231F20" d="M323.012,446.828c-35.855,0-71.712,0-107.568,0c0.833,0.833,1.667,1.667,2.5,2.5
			c-3.987-47.481-7.974-94.962-11.961-142.443c-2.332-27.769-4.664-55.538-6.995-83.307c-0.833,0.833-1.667,1.667-2.5,2.5
			c47.86,0,95.719,0,143.58,0c1.354,0,2.708,0,4.062,0c-0.833-0.833-1.667-1.667-2.5-2.5c-4.424,47.292-8.849,94.585-13.272,141.877
			c-2.615,27.958-5.23,55.915-7.846,83.873c-0.301,3.211,4.702,3.182,5,0c4.424-47.292,8.848-94.585,13.271-141.877
			c2.616-27.958,5.231-55.915,7.847-83.873c0.127-1.359-1.233-2.5-2.5-2.5c-47.86,0-95.72,0-143.58,0c-1.354,0-2.708,0-4.062,0
			c-1.276,0-2.614,1.14-2.5,2.5c3.987,47.481,7.974,94.962,11.961,142.443c2.332,27.769,4.664,55.538,6.995,83.307
			c0.114,1.357,1.051,2.5,2.5,2.5c35.856,0,71.712,0,107.568,0C326.236,451.828,326.236,446.828,323.012,446.828z"/>
	</g>
</g>
<g>
	<path fill="#FFFFFF" d="M216.13,459.697v11.79c0,4.007,2.761,7.255,6.168,7.255h93.222c3.406,0,6.168-3.248,6.168-7.255v-11.79
		H216.13z"/>
	<g>
		<path fill="#231F20" d="M213.63,459.697c0,5.254-1.692,14.581,2.539,18.688c3.134,3.041,6.399,2.857,10.356,2.857
			c13.462,0,26.925,0,40.387,0c14.143,0,28.284,0,42.425,0c3.021,0,6.367,0.393,9.248-0.659c7.393-2.699,5.604-13.341,5.604-19.397
			c0-0.496,0-0.992,0-1.488c0-1.363-1.138-2.5-2.5-2.5c-35.186,0-70.372,0-105.558,0c-3.225,0-3.225,5,0,5
			c35.186,0,70.372,0,105.558,0c-0.834-0.833-1.667-1.667-2.5-2.5c0,3.279,1.777,16.545-3.725,16.545c-2.6,0-5.2,0-7.8,0
			c-12.919,0-25.836,0-38.755,0c-12.918,0-25.836,0-38.754,0c-2.577,0-5.153,0-7.73,0c-5.592,0-3.794-13.184-3.794-16.545
			C218.63,456.473,213.63,456.473,213.63,459.697z"/>
	</g>
</g>
<g>
	<path fill="#FFFFFF" d="M199.314,258.139h160.057c3.669,0,6.645,2.625,6.645,5.863v46.238v34.195h15.497V310.24V250.64
		c0-4.072-4.035-7.373-9.013-7.373H198.165"/>
	<g>
		<path fill="#231F20" d="M199.314,260.639c49.246,0,98.491,0,147.736,0c4.107,0,8.214,0,12.321,0c5.581,0,4.145,7.509,4.145,10.963
			c0,6.488,0,12.978,0,19.466c0,17.789,0,35.579,0,53.368c0,1.363,1.137,2.5,2.5,2.5c5.166,0,10.331,0,15.497,0
			c1.362,0,2.5-1.137,2.5-2.5c0-22.324,0-44.647,0-66.972c0-7.082,0-14.165,0-21.248c0-4.75,0.434-8.928-3.372-12.558
			c-4.585-4.373-14.342-2.892-20.145-2.892c-53.146,0-106.292,0-159.439,0c-0.964,0-1.928,0-2.893,0c-3.224,0-3.224,5,0,5
			c49.89,0,99.779,0,149.668,0c7.868,0,15.735,0,23.604,0c4.275,0,7.575,2.128,7.575,6.542c0,5.808,0,11.615,0,17.422
			c0,24.176,0,48.351,0,72.526c0,0.726,0,1.452,0,2.179c0.833-0.833,1.667-1.667,2.5-2.5c-5.166,0-10.331,0-15.497,0
			c0.833,0.833,1.666,1.667,2.5,2.5c0-23.201,0-46.402,0-69.603c0-4.282,0.842-9.645-0.611-13.778
			c-1.502-4.268-6.074-5.416-10.091-5.416c-8.771,0-17.54,0-26.31,0c-44.063,0-88.127,0-132.19,0
			C196.09,255.639,196.09,260.639,199.314,260.639L199.314,260.639z"/>
	</g>
</g>
<g>
	<path fill="#FFFFFF" d="M343.602,213.246c0,0-9.045-29.293-12.643-29.293H210.203c-3.599,0-13.186,29.293-13.186,29.293H343.602z"
		/>
	<g>
		<path fill="#231F20" d="M346.012,212.581c-1.725-5.571-3.622-11.097-5.688-16.552c-1.377-3.633-3.931-13.681-8.7-14.487
			c-7.032-1.188-15.113-0.089-22.21-0.089c-29.58,0-59.161,0-88.74,0c-3.923,0-11.065-1.512-13.877,2.043
			c-3.55,4.487-5.462,10.564-7.486,15.839c-1.678,4.373-3.244,8.796-4.704,13.246c-0.511,1.559,0.845,3.165,2.411,3.165
			c47.724,0,95.447,0,143.17,0c1.139,0,2.275,0,3.414,0c3.225,0,3.225-5,0-5c-47.724,0-95.447,0-143.17,0c-1.138,0-2.276,0-3.414,0
			c0.804,1.055,1.607,2.109,2.411,3.165c1.773-5.403,3.708-10.758,5.793-16.047c1.323-3.355,2.736-6.701,4.524-9.838
			c0.636-1.116,1.78-1.573,0.469-1.573c0.223,0,0.446,0,0.669,0c9.432,0,18.863,0,28.295,0c28.679,0,57.357,0,86.036,0
			c1.688,0,3.378,0,5.066,0c0.743,0,0.825,0.246-0.084-0.18c0.981,0.46,1.83,2.981,2.274,3.882
			c3.706,7.517,6.244,15.762,8.721,23.756C342.142,216.98,346.969,215.67,346.012,212.581z"/>
	</g>
</g>
<g>
	<g>
		<path fill="#231F20" d="M274.154,179.201c0-4.279,0.756-9.163-0.401-13.349c-2.236-8.083-11.689-8.681-18.569-8.681
			c-10.192,0-20.385,0-30.577,0c-4.384,0-8.299-0.072-12.417-1.953c-4.42-2.02-6.453-5.742-6.262-10.531
			c0.193-4.858,4.619-7.515,8.76-8.714c3.231-0.937,6.501-0.797,9.818-0.798c14.432-0.003,28.864-0.009,43.295-0.013
			c13.882-0.005,27.765-0.01,41.646-0.015c8.555-0.003,18.791-0.703,23.158-9.35c3.584-7.093,0.248-15.361-6.328-19.096
			c-5.172-2.938-11.225-2.947-16.977-2.947c-11.571,0-23.708,1.069-35.255-0.08c-7.679-0.764-9.527-7.246-7.906-13.985
			c0.754-3.134-4.067-4.464-4.821-1.33c-1.742,7.242-0.861,14.83,6.333,18.541c2.481,1.28,5.358,1.854,8.139,1.854
			c5.167,0,10.334,0,15.5,0c8.584,0,17.658-0.991,26.172,0.311c3.401,0.52,6.729,1.688,9.223,4.128
			c3.621,3.545,2.74,9.861-0.632,13.146c-3.248,3.164-8.776,3.807-13.105,3.808c-10.616,0.004-21.232,0.007-31.849,0.011
			c-16.123,0.006-32.246,0.011-48.369,0.016c-8.65,0.002-19.344-1.4-26.567,4.469c-6.049,4.915-7.241,14.752-1.949,20.739
			c3.909,4.423,9.873,6.386,15.634,6.78c6.498,0.445,13.174,0.01,19.684,0.01c5.217,0,10.433,0,15.65,0
			c4.603,0,10.695-0.436,13.385,4.137c1.863,3.168,0.585,9.219,0.585,12.893C269.154,182.426,274.154,182.426,274.154,179.201
			L274.154,179.201z"/>
	</g>
</g>
<g>
	<g>
		<path d="M319.188,310.056c-2.814,33.658-5.628,67.315-8.441,100.974c-0.27,3.215,4.732,3.189,5,0
			c2.813-33.658,5.627-67.315,8.441-100.974C324.456,306.841,319.453,306.866,319.188,310.056L319.188,310.056z"/>
	</g>
</g>
<g>
	<g>
		<path d="M322.499,303.842c3.225,0,3.225-5,0-5S319.274,303.842,322.499,303.842L322.499,303.842z"/>
	</g>
</g>
</svg>
