<?xml version="1.0" encoding="utf-8"?>
<!-- Generator: Adobe Illustrator 16.0.0, SVG Export Plug-In . SVG Version: 6.00 Build 0)  -->
<!DOCTYPE svg PUBLIC "-//W3C//DTD SVG 1.1//EN" "http://www.w3.org/Graphics/SVG/1.1/DTD/svg11.dtd">
<svg version="1.1" id="Layer_1" xmlns="http://www.w3.org/2000/svg" xmlns:xlink="http://www.w3.org/1999/xlink" x="0px" y="0px"
	 width="560px" height="560px" viewBox="-999.5 400.5 560 560" enable-background="new -999.5 400.5 560 560" xml:space="preserve">
<g>
	<g>
		<g>
			<path d="M-621.26,681.661c3.224,0,3.224-5,0-5C-624.484,676.661-624.484,681.661-621.26,681.661L-621.26,681.661z"/>
		</g>
	</g>
	<g>
		<g>
			<path d="M-742.543,776.246c24.887,5.82,50.237,2.959,72.482-9.856c20.881-12.028,36.316-31.933,44.709-54.317
				c1.134-3.025-3.7-4.319-4.821-1.329c-7.851,20.938-22.149,38.89-41.237,50.632c-21.02,12.931-46.006,15.618-69.804,10.052
				C-744.351,770.691-745.682,775.513-742.543,776.246L-742.543,776.246z"/>
		</g>
	</g>
	<g>
		<g>
			<path d="M-608.43,686.784c-2.782,45.287-33.532,84.624-76.422,99.061c-47.043,15.834-98.767-4.521-126.08-45.054
				c-0.941,1.224-1.882,2.448-2.823,3.672c14.394,4.509,28.722,9.448,43.245,13.522c7.375,2.067,16.966,1.349,17.667-8.263
				c0.774-10.611-11.081-12.818-18.948-15.294c-15.654-4.921-31.306-9.761-47.115-14.161c-6.281-1.749-12.543-3.625-18.865-5.223
				c-3.34-0.844-7.89-1.686-11.07,0.146c-3.315,1.908-4.187,5.142-4.038,8.791c0.301,7.394,2.854,14.77,4.292,21.989
				c3.048,15.306,6.958,30.495,9.713,45.847c1.486,8.279,3.938,23.933,16.085,21.104c8.828-2.057,7.891-12.711,6.452-19.27
				c-3.186-14.518-6.282-29.052-9.527-43.556c-1.523,0.643-3.046,1.283-4.569,1.927c27.021,41.578,75.836,65.625,125.31,60.777
				c46.026-4.509,86.963-34.513,106.729-76.032c3.82-8.026,6.725-16.463,8.862-25.084c1.266-5.1,2.031-10.312,2.664-15.521
				c0.533-4.386,1.604-9.521,0.114-13.815c-1.664-4.799-7.218-7.063-11.966-6.264C-604.381,677.043-607.838,681.195-608.43,686.784
				c-0.34,3.205,4.664,3.172,5,0c0.479-4.523,4.682-6.617,8.836-5.534c6.368,1.66,2.914,13.724,2.336,17.996
				c-1.766,13.051-5.897,25.726-11.676,37.534c-10.447,21.347-27.049,39.361-47.041,52.104
				c-43.225,27.556-99.105,25.026-140.943-3.865c-13.614-9.401-25.2-21.671-34.199-35.519c-1.559-2.397-5.194-0.866-4.569,1.926
				c3.154,14.1,6.124,28.235,9.252,42.338c1.166,5.257,2.981,11.271-2.798,14.354c-2.26,1.205-5.268-1.981-6.188-3.622
				c-1.594-2.844-2.194-6.327-2.825-9.483c-2.741-13.712-5.901-27.333-8.664-41.044c-1.346-6.681-2.676-13.352-4.207-19.991
				c-1.108-4.808-4.922-14.915,2.827-14.792c5.104,0.081,10.518,2.413,15.357,3.762c6.995,1.949,14,3.864,20.978,5.873
				c13.62,3.921,27.094,8.339,40.627,12.546c4.952,1.539,10.617,4.312,7.777,10.504c-1.956,4.268-9.385,1.683-12.588,0.729
				c-13.819-4.115-27.528-8.646-41.288-12.955c-2.029-0.638-4.052,1.849-2.823,3.672c27.613,40.977,78.151,61.969,126.347,48.979
				c43.969-11.85,77.633-50.109,84.402-94.989c0.526-3.487,0.854-7.002,1.07-10.521
				C-603.233,683.562-608.233,683.581-608.43,686.784z"/>
		</g>
	</g>
	<g>
		<g>
			<path d="M-817.737,686.654c3.224,0,3.224-5,0-5S-820.962,686.654-817.737,686.654L-817.737,686.654z"/>
		</g>
	</g>
	<g>
		<g>
			<path d="M-696.457,587.068c-24.887-5.82-50.236-2.959-72.482,9.855c-20.881,12.03-36.316,31.935-44.709,54.319
				c-1.134,3.024,3.7,4.319,4.821,1.329c7.85-20.938,22.151-38.892,41.238-50.633c21.02-12.931,46.005-15.616,69.803-10.052
				C-694.649,592.622-693.317,587.802-696.457,587.068L-696.457,587.068z"/>
		</g>
	</g>
	<g>
		<g>
			<path d="M-830.567,674.218c2.781-45.287,33.53-84.625,76.42-99.062c47.043-15.835,98.767,4.521,126.081,45.054
				c0.941-1.224,1.883-2.447,2.823-3.672c-14.395-4.509-28.723-9.447-43.245-13.521c-7.373-2.068-16.971-1.352-17.668,8.262
				c-0.771,10.611,11.08,12.817,18.949,15.293c15.654,4.921,31.307,9.76,47.115,14.162c6.281,1.748,12.543,3.625,18.864,5.222
				c3.341,0.845,7.89,1.688,11.069-0.146c3.315-1.909,4.188-5.144,4.04-8.791c-0.299-7.395-2.854-14.771-4.293-21.989
				c-3.048-15.307-6.96-30.496-9.713-45.847c-1.485-8.282-3.938-23.93-16.085-21.104c-8.829,2.053-7.89,12.712-6.451,19.271
				c3.188,14.516,6.279,29.052,9.527,43.555c1.523-0.644,3.046-1.284,4.568-1.926c-27.021-41.58-75.836-65.625-125.311-60.779
				c-46.025,4.507-86.964,34.513-106.73,76.031c-3.821,8.026-6.725,16.464-8.863,25.084c-1.265,5.1-2.03,10.312-2.663,15.521
				c-0.533,4.387-1.601,9.521-0.113,13.815c1.663,4.799,7.217,7.064,11.965,6.264C-834.616,683.958-831.159,679.808-830.567,674.218
				c0.34-3.205-4.664-3.173-5,0c-0.479,4.523-4.683,6.616-8.837,5.533c-6.366-1.66-2.914-13.724-2.336-17.996
				c1.764-13.05,5.896-25.727,11.675-37.533c10.447-21.348,27.05-39.361,47.042-52.104c43.224-27.555,99.106-25.025,140.944,3.867
				c13.614,9.399,25.2,21.669,34.199,35.517c1.56,2.399,5.194,0.866,4.569-1.926c-3.157-14.097-6.125-28.235-9.252-42.339
				c-1.166-5.254-2.983-11.271,2.795-14.354c2.26-1.205,5.27,1.98,6.188,3.622c1.595,2.844,2.194,6.327,2.825,9.483
				c2.741,13.712,5.9,27.333,8.664,41.045c1.346,6.681,2.676,13.352,4.208,19.993c1.108,4.806,4.922,14.915-2.828,14.792
				c-5.104-0.081-10.518-2.414-15.356-3.763c-6.996-1.948-14-3.863-20.977-5.872c-13.621-3.923-27.095-8.339-40.628-12.548
				c-4.95-1.539-10.618-4.312-7.778-10.504c1.957-4.266,9.385-1.683,12.59-0.728c13.818,4.116,27.527,8.646,41.289,12.956
				c2.028,0.636,4.051-1.851,2.822-3.672c-27.613-40.978-78.152-61.972-126.349-48.98c-43.968,11.85-77.632,50.111-84.4,94.99
				c-0.526,3.487-0.854,7.001-1.07,10.521C-835.764,677.438-830.763,677.42-830.567,674.218z"/>
		</g>
	</g>
</g>
</svg>
