<?xml version="1.0" encoding="utf-8"?>
<!-- Generator: Adobe Illustrator 16.0.0, SVG Export Plug-In . SVG Version: 6.00 Build 0)  -->
<!DOCTYPE svg PUBLIC "-//W3C//DTD SVG 1.1//EN" "http://www.w3.org/Graphics/SVG/1.1/DTD/svg11.dtd">
<svg version="1.1" id="Layer_1" xmlns="http://www.w3.org/2000/svg" xmlns:xlink="http://www.w3.org/1999/xlink" x="0px" y="0px"
	 width="560px" height="560px" viewBox="-999.5 400.5 560 560" enable-background="new -999.5 400.5 560 560" xml:space="preserve">
<g>
	<g>
		<path d="M-622.475,682.979c3.225,0,3.225-5,0-5C-625.7,677.979-625.699,682.979-622.475,682.979L-622.475,682.979z"/>
	</g>
</g>
<g>
	<g>
		<path d="M-743.757,777.565c24.887,5.818,50.237,2.958,72.483-9.857c20.881-12.03,36.315-31.933,44.707-54.318
			c1.135-3.024-3.699-4.319-4.819-1.33c-7.851,20.938-22.15,38.892-41.238,50.633c-21.021,12.931-46.005,15.617-69.803,10.052
			C-745.565,772.01-746.896,776.831-743.757,777.565L-743.757,777.565z"/>
	</g>
</g>
<g>
	<path fill="#FFFFFF" d="M-607.145,688.102c-2.797,50.787-39.688,93.414-89.127,104.472c-46.162,10.324-92.73-11.125-118.033-49.202
		c13.456,4.215,26.91,8.441,40.364,12.67c6.31,1.983,16.063,4.616,17.383-4.999c1.087-7.914-7.668-9.924-13.36-11.705
		c-14.388-4.502-28.735-9.178-43.262-13.223c-5.07-1.41-10.142-2.822-15.212-4.234c-0.029-0.01-0.061-0.016-0.09-0.024
		c-3.11-0.866-6.22-1.731-9.331-2.599c-5.884-1.639-14.606-3.289-13.781,6.045c0.571,6.482,2.56,13.086,3.831,19.459
		c1.488,7.461,2.945,14.931,4.535,22.37c1.502,7.034,3.137,14.042,4.718,21.058c1.432,6.347,1.946,14.482,5.417,20.14
		c1.448,2.36,4.028,3.494,6.654,3.607c0.503,0.174,1.097,0.172,1.771-0.104c0.143-0.059,0.258-0.129,0.393-0.189
		c0.031-0.016,0.061-0.028,0.09-0.045c7.721-3.539,5.129-11.686,3.683-18.37c-1.618-7.478-3.233-14.954-4.851-22.434
		c-1.349-6.243-2.742-12.478-4.137-18.711c26.416,41.179,75.229,65.128,124.681,59.372c53.217-6.195,97.859-45.455,111.199-97.287
		c2.188-8.498,3.333-17.315,3.815-26.063C-589.179,676.917-606.532,676.977-607.145,688.102z"/>
	<g>
		<path d="M-609.645,688.102c-2.781,45.286-33.531,84.624-76.422,99.062c-47.043,15.834-98.767-4.521-126.081-45.054
			c-0.941,1.224-1.882,2.447-2.823,3.673c14.394,4.509,28.722,9.446,43.245,13.521c7.375,2.069,16.966,1.351,17.667-8.262
			c0.773-10.612-11.08-12.82-18.948-15.294c-15.654-4.92-31.306-9.761-47.115-14.161c-6.281-1.748-12.543-3.624-18.865-5.222
			c-3.34-0.845-7.89-1.687-11.07,0.146c-3.315,1.91-4.187,5.143-4.038,8.791c0.301,7.395,2.854,14.771,4.292,21.989
			c3.048,15.305,6.958,30.496,9.713,45.846c1.488,8.287,3.936,23.925,16.085,21.105c8.829-2.049,7.889-12.719,6.452-19.271
			c-3.187-14.516-6.282-29.051-9.527-43.555c-1.523,0.643-3.046,1.285-4.569,1.927c27.021,41.578,75.836,65.624,125.31,60.779
			c46.025-4.508,86.964-34.514,106.729-76.033c3.821-8.025,6.727-16.463,8.863-25.084c1.266-5.1,2.031-10.311,2.664-15.521
			c0.533-4.387,1.604-9.521,0.113-13.814c-1.663-4.8-7.219-7.066-11.966-6.264C-605.596,678.361-609.053,682.514-609.645,688.102
			c-0.34,3.205,4.664,3.172,5,0c0.479-4.523,4.682-6.617,8.836-5.533c6.367,1.66,2.914,13.723,2.336,17.996
			c-1.766,13.051-5.896,25.727-11.676,37.533c-10.446,21.348-27.05,39.361-47.041,52.105
			c-43.224,27.555-99.104,25.025-140.942-3.867c-13.614-9.401-25.2-21.67-34.199-35.517c-1.559-2.399-5.194-0.866-4.569,1.927
			c3.154,14.098,6.124,28.234,9.252,42.338c1.166,5.255,2.981,11.27-2.798,14.354c-2.26,1.204-5.268-1.98-6.188-3.621
			c-1.594-2.845-2.194-6.328-2.825-9.484c-2.741-13.712-5.901-27.333-8.664-41.044c-1.346-6.681-2.676-13.352-4.207-19.993
			c-1.108-4.806-4.922-14.915,2.827-14.793c5.104,0.081,10.518,2.415,15.357,3.763c6.995,1.947,14,3.863,20.977,5.872
			c13.621,3.923,27.095,8.339,40.628,12.546c4.952,1.539,10.617,4.312,7.777,10.506c-1.956,4.267-9.385,1.683-12.588,0.729
			c-13.819-4.117-27.528-8.646-41.288-12.957c-2.029-0.635-4.052,1.85-2.823,3.673c27.613,40.979,78.151,61.969,126.347,48.979
			c43.97-11.85,77.634-50.11,84.401-94.989c0.525-3.487,0.854-7.001,1.07-10.521C-604.446,684.88-609.447,684.898-609.645,688.102z"
			/>
	</g>
</g>
<g>
	<g>
		<path d="M-818.952,687.973c3.225,0,3.225-5,0-5C-822.177,682.973-822.177,687.973-818.952,687.973L-818.952,687.973z"/>
	</g>
</g>
<g>
	<g>
		<path d="M-697.67,588.386c-24.887-5.819-50.237-2.959-72.482,9.857c-20.881,12.03-36.316,31.933-44.709,54.319
			c-1.134,3.024,3.7,4.318,4.821,1.328c7.85-20.938,22.151-38.89,41.238-50.632c21.019-12.93,46.005-15.616,69.802-10.052
			C-695.863,593.941-694.531,589.12-697.67,588.386L-697.67,588.386z"/>
	</g>
</g>
<g>
	<path fill="#FFFFFF" d="M-834.281,675.535c2.796-50.787,39.685-93.414,89.126-104.471c46.159-10.324,92.73,11.125,118.034,49.203
		c-13.459-4.216-26.911-8.442-40.365-12.67c-6.312-1.983-16.062-4.617-17.385,5c-1.084,7.912,7.67,9.922,13.361,11.703
		c14.39,4.504,28.736,9.18,43.263,13.223c5.07,1.412,10.142,2.824,15.213,4.235c0.029,0.011,0.06,0.017,0.089,0.025
		c3.109,0.866,6.221,1.731,9.33,2.598c5.885,1.638,14.605,3.29,13.783-6.044c-0.572-6.482-2.561-13.087-3.832-19.459
		c-1.488-7.461-2.945-14.929-4.536-22.37c-1.503-7.034-3.136-14.042-4.718-21.057c-1.43-6.347-1.945-14.484-5.416-20.14
		c-1.449-2.36-4.029-3.494-6.654-3.607c-0.502-0.174-1.099-0.172-1.771,0.104c-0.144,0.06-0.257,0.129-0.394,0.189
		c-0.031,0.016-0.062,0.029-0.093,0.044c-7.72,3.539-5.126,11.685-3.68,18.37c1.614,7.479,3.231,14.955,4.849,22.434
		c1.352,6.243,2.742,12.479,4.139,18.711c-26.414-41.179-75.229-65.128-124.682-59.371c-53.216,6.194-97.862,45.455-111.201,97.287
		c-2.187,8.496-3.333,17.314-3.814,26.063C-852.249,686.721-834.895,686.661-834.281,675.535z"/>
	<g>
		<path d="M-831.781,675.535c2.781-45.287,33.53-84.624,76.42-99.061c47.042-15.836,98.767,4.521,126.082,45.053
			c0.94-1.223,1.883-2.447,2.822-3.672c-14.395-4.508-28.723-9.447-43.246-13.521c-7.371-2.068-16.971-1.35-17.668,8.262
			c-0.77,10.612,11.081,12.819,18.949,15.293c15.654,4.922,31.307,9.76,47.115,14.162c6.281,1.749,12.543,3.625,18.864,5.223
			c3.341,0.844,7.891,1.686,11.069-0.146c3.315-1.909,4.188-5.143,4.04-8.791c-0.299-7.393-2.854-14.77-4.293-21.988
			c-3.048-15.306-6.961-30.496-9.714-45.847c-1.485-8.283-3.938-23.929-16.085-21.104c-8.829,2.054-7.89,12.713-6.45,19.27
			c3.188,14.516,6.279,29.052,9.525,43.555c1.523-0.642,3.048-1.283,4.57-1.926c-27.021-41.579-75.838-65.624-125.312-60.779
			c-46.025,4.508-86.964,34.514-106.73,76.032c-3.821,8.027-6.725,16.464-8.863,25.084c-1.265,5.099-2.03,10.312-2.663,15.521
			c-0.533,4.387-1.601,9.521-0.113,13.815c1.663,4.8,7.218,7.065,11.965,6.263C-835.831,685.275-832.374,681.124-831.781,675.535
			c0.34-3.205-4.664-3.172-5,0c-0.479,4.523-4.683,6.617-8.837,5.533c-6.366-1.66-2.914-13.723-2.336-17.995
			c1.764-13.052,5.896-25.728,11.675-37.534c10.447-21.348,27.05-39.362,47.042-52.105c43.224-27.554,99.106-25.025,140.944,3.867
			c13.613,9.401,25.2,21.67,34.198,35.518c1.56,2.398,5.194,0.867,4.569-1.926c-3.156-14.098-6.123-28.235-9.252-42.34
			c-1.166-5.254-2.982-11.269,2.795-14.353c2.262-1.206,5.271,1.979,6.189,3.622c1.595,2.843,2.193,6.326,2.825,9.482
			c2.741,13.713,5.899,27.334,8.663,41.045c1.347,6.682,2.676,13.352,4.208,19.993c1.107,4.806,4.923,14.915-2.828,14.792
			c-5.104-0.08-10.519-2.414-15.356-3.762c-6.994-1.948-13.998-3.864-20.977-5.873c-13.621-3.921-27.096-8.338-40.629-12.546
			c-4.95-1.539-10.618-4.312-7.777-10.504c1.957-4.267,9.385-1.683,12.59-0.728c13.819,4.115,27.528,8.646,41.289,12.955
			c2.028,0.637,4.053-1.849,2.822-3.672c-27.613-40.976-78.152-61.97-126.348-48.98c-43.968,11.851-77.632,50.111-84.4,94.99
			c-0.526,3.488-0.854,7.002-1.07,10.521C-836.979,678.757-831.978,678.738-831.781,675.535z"/>
	</g>
</g>
</svg>
