<?xml version="1.0" encoding="utf-8"?>
<!-- Generator: Adobe Illustrator 16.0.0, SVG Export Plug-In . SVG Version: 6.00 Build 0)  -->
<!DOCTYPE svg PUBLIC "-//W3C//DTD SVG 1.1//EN" "http://www.w3.org/Graphics/SVG/1.1/DTD/svg11.dtd">
<svg version="1.1" id="Layer_1" xmlns="http://www.w3.org/2000/svg" xmlns:xlink="http://www.w3.org/1999/xlink" x="0px" y="0px"
	 width="560px" height="560px" viewBox="0 0 560 560" enable-background="new 0 0 560 560" xml:space="preserve">
<g>
	<g>
		<path fill="#FFFFFF" d="M237.784,440.622c0,10.088,5.562,17.98,18.055,17.98c4.374,0,13.86,0,24.346,0c10.487,0,19.973,0,24.347,0
			c12.494,0,18.059-7.893,18.059-17.98H237.784z"/>
		<g>
			<path d="M235.391,440.622c0.168,7.854,3.453,15.632,11.202,18.684c4.263,1.681,8.614,1.691,13.129,1.691
				c6.821,0,13.641,0,20.463,0c6.421,0,12.844,0,19.266,0c4.509,0,8.929,0.116,13.275-1.276c8.373-2.683,12.08-10.869,12.255-19.096
				c0.027-1.305-1.108-2.393-2.393-2.393c-28.268,0-56.537,0-84.806,0c-3.086,0-3.086,4.785,0,4.785c28.269,0,56.538,0,84.806,0
				c-0.798-0.797-1.595-1.596-2.393-2.393c-0.177,8.206-4.444,14.341-12.904,15.45c-8.77,1.148-18.284,0.138-27.106,0.138
				c-8.579,0-17.18,0.178-25.756-0.033c-9.095-0.224-14.069-6.988-14.252-15.553C240.11,437.541,235.324,437.535,235.391,440.622z"
				/>
		</g>
	</g>
	<g>
		<path fill="#FFFFFF" d="M322.589,427.542c0-5.131,0-43.436,0-73.067c0-42.98,0-83.668,0-88.258
			c0-10.089-5.563-17.979-18.058-17.979c-4.372,0-13.859,0-24.347,0c-10.486,0-19.972,0-24.346,0
			c-12.494,0-18.055,7.89-18.055,17.979c0,4.589,0,45.277,0,88.258c0,28.806,0,56.58,0,73.15L322.589,427.542z"/>
		<g>
			<path d="M324.981,427.542c0-46.126,0-92.254,0-138.379c0-7.255,0-14.512,0-21.767c0-7.508-2.196-14.346-8.702-18.623
				c-3.647-2.398-8.324-2.928-12.571-2.928c-6.029,0-12.059,0-18.087,0c-6.88,0-13.759,0-20.639,0
				c-5.013,0-10.111-0.313-15.058,0.625c-11.348,2.153-14.533,12.75-14.533,22.81c0,13.465,0,26.933,0,40.399
				c0,39.313,0,78.629,0,117.946c0,1.302,1.088,2.394,2.393,2.393c28.268-0.027,56.537-0.056,84.806-0.083
				c3.086-0.003,3.087-4.788,0-4.786c-28.269,0.027-56.538,0.057-84.806,0.084c0.796,0.797,1.594,1.595,2.393,2.393
				c0-51.427,0-102.853,0-154.279c0-6.64-0.707-13.774,4.35-18.935c3.662-3.736,9.233-3.781,14.083-3.781c6.578,0,13.157,0,19.735,0
				c6.608,0,13.217,0,19.825,0c5.377,0,10.829-0.457,15.692,2.273c6.812,3.821,6.334,12.22,6.334,18.93
				c0,51.903,0,103.805,0,155.709C320.196,430.629,324.981,430.629,324.981,427.542z"/>
		</g>
	</g>
	<g>
		<path fill="#FFFFFF" d="M310.673,366.905c0-42.982,0-83.669,0-88.261c0-10.087-5.563-17.98-18.055-17.98
			c-4.375,0-13.861,0-24.347,0"/>
		<g>
			<path d="M313.066,366.905c0-28.001,0-56.001,0-84.001c0-7.531-0.475-15.506-7.001-20.5c-4.469-3.416-9.715-4.133-15.197-4.133
				c-7.532,0-15.064,0-22.596,0c-3.086,0-3.086,4.786,0,4.786c6.82,0,13.641,0,20.462,0c5.446,0,10.872-0.043,15.194,3.784
				c5.436,4.81,4.352,13.204,4.352,19.75c0,26.771,0,53.541,0,80.314C308.28,369.993,313.066,369.993,313.066,366.905
				L313.066,366.905z"/>
		</g>
	</g>
	<g>
		<path fill="#FFFFFF" d="M272.995,244.467v-17.398c0-1.028,0.835-1.864,1.864-1.864h10.253c1.031,0,1.864,0.836,1.864,1.864v17.398
			"/>
		<g>
			<path d="M275.387,244.467c0-3.903,0-7.809,0-11.713c0-1.837,0-3.674,0-5.512c0,0.35-0.791,0.355,0.539,0.355
				c1.354,0,2.707,0,4.061,0c1.175,0,2.35,0,3.523,0c0.326,0,0.652,0,0.979,0c0.974,0,0.095,0.12,0.095-0.484
				c0,1.644,0,3.285,0,4.928c0,4.141,0,8.282,0,12.425c0,3.087,4.786,3.087,4.786,0c0-4.988,0-9.974,0-14.961
				c0-2.238,0.096-4.018-1.625-5.739c-1.651-1.651-5.713-0.955-7.759-0.955c-2.11,0-5.331-0.557-7.274,0.581
				c-2.111,1.237-2.109,3.47-2.109,5.584c0,5.163,0,10.327,0,15.49C270.602,247.556,275.387,247.556,275.387,244.467
				L275.387,244.467z"/>
		</g>
	</g>
	<g>
		<circle fill="#FFFFFF" cx="279.986" cy="156.78" r="55.45"/>
		<g>
			<path d="M333.044,156.78c-0.274,23.038-14.986,43.316-36.899,50.553c-21.987,7.263-46.477-1.563-59.718-20.241
				c-13.388-18.883-12.237-45.05,1.872-63.161c14.161-18.176,38.815-24.516,60.267-16.873
				C319.329,114.455,332.787,135.09,333.044,156.78c0.037,3.084,4.823,3.088,4.786,0c-0.249-20.896-11.3-39.866-29.378-50.364
				c-18.2-10.568-41.327-9.578-59.097,1.289c-17.772,10.867-27.885,31.148-27.148,51.761c0.738,20.668,13.372,39.402,31.537,48.871
				c17.881,9.321,39.821,7.944,56.871-2.483c16.977-10.379,26.98-29.375,27.215-49.075
				C337.868,153.693,333.082,153.695,333.044,156.78z"/>
		</g>
	</g>
	<g>
		<g>
			<path d="M319.317,156.78c-0.338,21.691-17.642,38.994-39.331,39.332c-21.691,0.337-39-18.15-39.332-39.332
				c-0.337-21.69,18.149-39,39.332-39.33C301.678,117.112,318.988,135.597,319.317,156.78c0.048,3.083,4.834,3.088,4.786,0
				c-0.322-20.599-14.351-38.289-34.447-43.05c-20.083-4.757-40.919,6.107-49.676,24.459c-8.713,18.255-3.032,41.182,12.98,53.435
				c16.591,12.696,39.404,11.931,55.496-1.153c10.048-8.169,15.448-20.912,15.648-33.69
				C324.15,153.693,319.364,153.697,319.317,156.78z"/>
		</g>
	</g>
	<g>
		<path fill="#FFFFFF" d="M279.984,260.665"/>
		<g>
			<path d="M279.984,263.057c3.087,0,3.087-4.786,0-4.786C276.898,258.271,276.898,263.057,279.984,263.057L279.984,263.057z"/>
		</g>
	</g>
</g>
</svg>
