<?xml version="1.0" encoding="utf-8"?>
<!-- Generator: Adobe Illustrator 16.0.0, SVG Export Plug-In . SVG Version: 6.00 Build 0)  -->
<!DOCTYPE svg PUBLIC "-//W3C//DTD SVG 1.1//EN" "http://www.w3.org/Graphics/SVG/1.1/DTD/svg11.dtd">
<svg version="1.1" id="Layer_1" xmlns="http://www.w3.org/2000/svg" xmlns:xlink="http://www.w3.org/1999/xlink" x="0px" y="0px"
	 width="560px" height="560px" viewBox="-999.5 400.5 560 560" enable-background="new -999.5 400.5 560 560" xml:space="preserve">
<g>
	<g>
		<g>
			<path d="M-766.106,848.314c0.176,8.205,3.608,16.331,11.704,19.52c4.455,1.755,9.001,1.767,13.717,1.767
				c7.126,0,14.252,0,21.379,0c6.709,0,13.418,0,20.127,0c4.711,0,9.329,0.122,13.871-1.334c8.747-2.803,12.619-11.355,12.805-19.95
				c0.028-1.363-1.16-2.5-2.5-2.5c-29.535,0-59.068,0-88.603,0c-3.224,0-3.224,5,0,5c29.534,0,59.067,0,88.603,0
				c-0.834-0.833-1.668-1.667-2.5-2.5c-0.185,8.573-4.645,14.982-13.482,16.142c-9.162,1.2-19.104,0.144-28.32,0.144
				c-8.963,0-17.949,0.186-26.91-0.035c-9.502-0.233-14.698-7.301-14.89-16.249C-761.175,845.096-766.175,845.089-766.106,848.314z"
				/>
		</g>
	</g>
	<g>
		<g>
			<path d="M-672.503,834.649c0-48.191,0-96.384,0-144.574c0-7.581,0-15.162,0-22.743c0-7.844-2.297-14.988-9.093-19.457
				c-3.81-2.505-8.696-3.059-13.135-3.059c-6.298,0-12.597,0-18.896,0c-7.188,0-14.375,0-21.563,0
				c-5.237,0-10.563-0.328-15.732,0.652c-11.856,2.249-15.184,13.323-15.184,23.833c0,14.069,0,28.138,0,42.208
				c0,41.075,0,82.15,0,123.226c0,1.36,1.137,2.501,2.5,2.5c29.534-0.028,59.067-0.059,88.603-0.086c3.224-0.004,3.225-5.004,0-5
				c-29.535,0.027-59.068,0.058-88.603,0.086c0.833,0.833,1.667,1.667,2.5,2.5c0-53.729,0-107.456,0-161.186
				c0-6.94-0.738-14.391,4.545-19.782c3.826-3.904,9.647-3.953,14.713-3.953c6.873,0,13.746,0,20.62,0c6.904,0,13.809,0,20.712,0
				c5.618,0,11.313-0.476,16.396,2.377c7.115,3.992,6.615,12.766,6.615,19.776c0,54.228,0,108.453,0,162.681
				C-677.503,837.874-672.503,837.874-672.503,834.649z"/>
		</g>
	</g>
	<g>
		<g>
			<path d="M-684.955,771.298c0-29.253,0-58.507,0-87.761c0-7.87-0.494-16.2-7.314-21.417c-4.667-3.569-10.148-4.318-15.876-4.318
				c-7.87,0-15.739,0-23.608,0c-3.224,0-3.224,5,0,5c7.126,0,14.251,0,21.378,0c5.69,0,11.357-0.045,15.875,3.952
				c5.679,5.025,4.545,13.796,4.545,20.633c0,27.972,0,55.941,0,83.911C-689.955,774.521-684.955,774.521-684.955,771.298
				L-684.955,771.298z"/>
		</g>
	</g>
	<g>
		<g>
			<path d="M-724.318,643.378c0-4.08,0-8.159,0-12.237c0-1.92,0-3.84,0-5.76c0,0.364-0.826,0.372,0.562,0.372
				c1.414,0,2.828,0,4.242,0c1.228,0,2.455,0,3.683,0c0.341,0,0.682,0,1.022,0c1.017,0,0.099,0.125,0.099-0.506
				c0,1.716,0,3.432,0,5.147c0,4.328,0,8.656,0,12.984c0,3.225,5,3.225,5,0c0-5.211,0-10.422,0-15.633
				c0-2.337,0.102-4.198-1.696-5.995c-1.726-1.726-5.97-0.998-8.107-0.998c-2.204,0-5.569-0.582-7.6,0.606
				c-2.205,1.293-2.203,3.625-2.203,5.834c0,5.396,0,10.791,0,16.186C-729.318,646.604-724.318,646.604-724.318,643.378
				L-724.318,643.378z"/>
		</g>
	</g>
	<g>
		<g>
			<path d="M-664.082,551.763c-0.287,24.069-15.657,45.255-38.552,52.816c-22.971,7.587-48.557-1.634-62.391-21.146
				c-13.988-19.73-12.785-47.07,1.955-65.99c14.795-18.991,40.552-25.614,62.965-17.629
				C-678.412,507.544-664.352,529.104-664.082,551.763c0.039,3.222,5.039,3.226,5,0c-0.261-21.831-11.806-41.651-30.692-52.618
				c-19.015-11.041-43.175-10.007-61.741,1.348c-18.568,11.354-29.134,32.542-28.364,54.078
				c0.772,21.593,13.971,41.166,32.95,51.059c18.681,9.736,41.604,8.298,59.416-2.594c17.735-10.844,28.188-30.691,28.432-51.271
				C-659.042,548.538-664.042,548.541-664.082,551.763z"/>
		</g>
	</g>
	<g>
		<g>
			<path d="M-678.423,551.763c-0.353,22.662-18.43,40.739-41.092,41.093c-22.662,0.353-40.746-18.963-41.091-41.093
				c-0.353-22.661,18.961-40.745,41.091-41.091C-696.852,510.318-678.768,529.632-678.423,551.763c0.051,3.222,5.051,3.226,5,0
				c-0.335-21.522-14.992-40.003-35.988-44.977c-20.98-4.97-42.75,6.38-51.899,25.554c-9.103,19.072-3.167,43.025,13.561,55.826
				c17.334,13.266,41.168,12.465,57.98-1.204c10.498-8.535,16.14-21.849,16.349-35.199
				C-673.373,548.537-678.373,548.542-678.423,551.763z"/>
		</g>
	</g>
	<g>
		<g>
			<path d="M-719.515,662.802c3.225,0,3.225-5,0-5C-722.739,657.802-722.739,662.802-719.515,662.802L-719.515,662.802z"/>
		</g>
	</g>
</g>
</svg>
