<?xml version="1.0" encoding="utf-8"?>
<!-- Generator: Adobe Illustrator 16.0.0, SVG Export Plug-In . SVG Version: 6.00 Build 0)  -->
<!DOCTYPE svg PUBLIC "-//W3C//DTD SVG 1.1//EN" "http://www.w3.org/Graphics/SVG/1.1/DTD/svg11.dtd">
<svg version="1.1" id="Layer_1" xmlns="http://www.w3.org/2000/svg" xmlns:xlink="http://www.w3.org/1999/xlink" x="0px" y="0px"
	 width="560px" height="560px" viewBox="0 0 560 560" enable-background="new 0 0 560 560" xml:space="preserve">
<g>
	<g>
		<path fill="#FFFFFF" d="M237.44,199.559c0-7.248,0-31.059,0-35.517c0-36.098,11.211-62.874,38.864-62.874c5.926,0-5.534,0,3.678,0
			c9.211,0-2.248,0,3.678,0c27.654,0,38.864,26.776,38.866,62.874c0,4.459,0,28.269,0,35.517v1c0,4.459,0,28.271,0,35.518v-18.056
			c0,7.25,0,31.057,0,35.518c0,36.1-11.211,62.874-38.865,62.874c-5.927,0,5.534,0-3.678,0s2.248,0-3.679,0
			c-27.652,0-38.864-26.774-38.864-62.874c0-4.461,0-28.268,0-35.518v18.056c0-7.247,0-31.059,0-35.518"/>
		<g>
			<path fill="#231F20" d="M239.606,199.559c0-19.502-1.526-39.858,1.941-59.126c1.85-10.281,5.465-20.777,12.85-28.42
				c6.348-6.571,14.823-8.679,23.687-8.679c2.794,0,2.794-4.332,0-4.332c-0.612,0-1.226,0-1.838,0c-2.795,0-2.795,4.332,0,4.332
				c2.491,0,4.982,0,7.474,0c2.794,0,2.794-4.332,0-4.332c-0.613,0-1.226,0-1.838,0c-2.794,0-2.794,4.332,0,4.332
				c13.259,0,23.43,5.587,29.946,17.256c7.536,13.49,8.533,30.127,8.533,45.221c0,23.423,0,46.845,0,70.267
				c0,2.795,4.332,2.795,4.332,0c0-6.017,0-12.038,0-18.056c0-2.795-4.332-2.795-4.332,0c0,19.503,1.526,39.858-1.941,59.128
				c-1.85,10.28-5.465,20.777-12.849,28.419c-6.349,6.571-14.823,8.681-23.688,8.681c-2.794,0-2.794,4.332,0,4.332
				c0.613,0,1.226,0,1.839,0c2.794,0,2.794-4.332,0-4.332c-2.491,0-4.982,0-7.474,0c-2.793,0-2.793,4.332,0,4.332
				c0.613,0,1.226,0,1.838,0c2.795,0,2.795-4.332,0-4.332c-9.044,0-17.103-2.219-23.687-8.681
				c-7.558-7.416-10.902-18.304-12.849-28.419c-1.988-10.339-1.941-20.854-1.941-31.334c0-9.264,0-18.529,0-27.794
				c0-2.795-4.332-2.795-4.332,0c0,6.019,0,12.039,0,18.056c0,2.795,4.332,2.795,4.332,0c0-11.838,0-23.678,0-35.518
				c0-2.795-4.332-2.795-4.332,0c0,11.839,0,23.68,0,35.518c0,2.795,4.332,2.795,4.332,0c0-6.017,0-12.038,0-18.056
				c0-2.795-4.332-2.795-4.332,0c0,33.899-7.021,100.559,42.809,100.559c2.795,0,2.795-4.332,0-4.332c-0.612,0-1.225,0-1.838,0
				c-2.793,0-2.793,4.332,0,4.332c2.491,0,4.982,0,7.474,0c2.794,0,2.794-4.332,0-4.332c-0.613,0-1.226,0-1.838,0
				c-2.795,0-2.795,4.332,0,4.332c49.831,0,42.809-66.659,42.809-100.559c0-2.795-4.331-2.795-4.331,0c0,6.019,0,12.039,0,18.056
				c0,2.795,4.331,2.795,4.331,0c0-24.914,0.277-49.847-0.021-74.76c-0.192-15.968-2.441-33.475-11.611-46.995
				C305.784,103.595,294.54,99,281.886,99c-2.795,0-2.795,4.333,0,4.333c0.611,0,1.225,0,1.837,0c2.795,0,2.795-4.333,0-4.333
				c-2.491,0-4.982,0-7.474,0c-2.794,0-2.794,4.333,0,4.333c0.613,0,1.226,0,1.838,0c2.795,0,2.795-4.333,0-4.333
				c-49.829,0-42.808,66.66-42.808,100.559C235.274,202.354,239.606,202.354,239.606,199.559L239.606,199.559z"/>
		</g>
	</g>
	<g>
		<path fill="#FFFFFF" d="M286.944,316.479v17.326c0,1.026-0.83,1.857-1.855,1.857H274.88c-1.027,0-1.857-0.831-1.857-1.857v-17.326
			"/>
		<g>
			<path d="M284.778,316.479c0,3.889,0,7.777,0,11.666c0,1.828,0,3.658,0,5.488c0-0.118,0.193-0.137-0.751-0.137
				c-1.348,0-2.695,0-4.043,0c-1.17,0-2.34,0-3.51,0c-0.872,0-1.284-0.209-1.284,0.267c0-1.637,0-3.271,0-4.907
				c0-4.125,0-8.249,0-12.375c0-2.794-4.333-2.794-4.333,0c0,4.967,0,9.935,0,14.9c0,2.17-0.113,3.894,1.554,5.561
				c1.585,1.585,5.621,0.887,7.573,0.887c2.054,0,5.24,0.561,7.135-0.549c2.029-1.188,1.991-3.349,1.991-5.374
				c0-5.143,0-10.283,0-15.427C289.11,313.686,284.778,313.686,284.778,316.479L284.778,316.479z"/>
		</g>
	</g>
	<g>
		<circle fill="#FFFFFF" cx="279.984" cy="403.685" r="55.216"/>
		<g>
			<path d="M226.935,403.686c0.223-20.559,11.879-38.879,30.3-47.947c18.679-9.195,41.683-5.578,57.365,7.739
				c15.751,13.374,21.812,35.13,16.383,54.87c-5.383,19.567-22.333,33.993-42.037,37.642
				C256.769,461.949,227.28,435.696,226.935,403.686c-0.03-2.794-4.362-2.797-4.332,0c0.204,18.886,9.276,36.099,24.6,47.093
				c15.529,11.141,36.416,13.123,54.054,6.201c17.201-6.75,30.004-21.925,34.499-39.733c4.642-18.396-0.795-38.013-13.248-52.086
				c-15.742-17.791-41.895-23.363-63.795-14.769c-21.771,8.543-35.858,30.119-36.108,53.295
				C222.573,406.48,226.905,406.478,226.935,403.686z"/>
		</g>
	</g>
	<g>
		<g>
			<path d="M237.275,403.686c0.28-21.079,15.396-38.614,36.121-42.222c20.919-3.638,41.297,10.086,47.507,29.937
				c6.313,20.186-4.12,41.778-22.719,50.941c-19.099,9.409-42.578,1.902-54.088-15.489
				C239.552,419.986,237.384,411.867,237.275,403.686c-0.037-2.794-4.37-2.797-4.333,0c0.251,18.867,11.36,35.844,28.744,43.33
				c17.358,7.474,37.613,3.215,51.16-9.67c13.758-13.087,17.671-34.004,10.688-51.439c-6.93-17.31-23.908-28.513-42.336-29.248
				c-26.337-1.05-47.913,21.227-48.256,47.027C232.905,406.48,237.238,406.477,237.275,403.686z"/>
		</g>
	</g>
	<g>
		<g>
			<path fill="#231F20" d="M278.077,199.659c0-4.423,0-8.846,0-13.269c0-3.209,0.411-6.842-0.266-9.999
				c-0.856-3.995-4.671-7.72-8.204-3.599c-1.91,2.227-2.581,8.479,0.754,9.961c5.434,2.416,8.4-6.95,11.046-9.945
				c1.397-1.583-0.704-3.649-2.297-2.297c-0.193,0.163-0.386,0.327-0.578,0.49c0.766,0.767,1.531,1.533,2.297,2.298
				c2.676-2.841,6.131-7.092,3.646-11.086c-1.55-2.491-4.955-2.637-7.363-1.585c-3.515,1.534-2.402,5.96-1.035,8.503
				c1.652,3.073,4.479,5.456,6.307,8.465c1.183,1.947,2.248,4.25,4.352,5.354c5.775,3.026,8.044-10.375,1.204-11.867
				c-4.077-0.889-5.253,4.13-5.594,7.048c-0.815,6.994-0.054,14.497-0.054,21.53c0,2.095,3.249,2.095,3.249,0
				c0-5.915,0-11.83,0-17.743c0-2.372-0.183-4.858,0.897-7.05c1.082-2.193,2.333,1.034,2.446,1.406
				c0.324,1.058,0.28,2.678-0.426,3.583c-0.646,0.829-3.626-4.487-3.889-4.92c-1.641-2.7-3.952-4.825-5.688-7.445
				c-1.419-2.143-1.107-4.894,1.926-4.143c3.818,0.948-1.335,6.652-2.275,7.653c-1.455,1.545,0.715,3.638,2.297,2.296
				c0.193-0.163,0.386-0.328,0.579-0.489c-0.767-0.767-1.532-1.534-2.298-2.298c-2.216,2.51-3.794,5.355-5.59,8.159
				c-3.426,5.349-2.186-7.427,0.409-3.801c1.7,2.378,0.899,7.442,0.899,10.278c0,4.838,0,9.677,0,14.515
				C274.828,201.754,278.077,201.754,278.077,199.659L278.077,199.659z"/>
		</g>
	</g>
	<g>
		<g>
			<path fill="#231F20" d="M270.728,200.194c-0.156-6.701-2.527-12.297-6.273-17.763c-3.579-5.217-7.177-9.839-6.889-16.496
				c0.564-13.01,9.391-22.089,22.617-22.089c13.167,0,21.577,8.739,22.583,21.531c0.508,6.47-2.733,11.219-6.306,16.269
				c-4.017,5.68-6.659,11.498-6.823,18.547c-0.049,2.098,3.2,2.092,3.249,0c0.203-8.747,5.044-14.553,9.559-21.527
				c3.224-4.98,4.147-10.341,3.254-16.146c-2.069-13.426-11.825-21.924-25.516-21.924c-13.412,0-23.12,8.137-25.417,21.28
				c-0.999,5.726-0.26,10.946,2.675,16.014c4.362,7.526,9.821,13.029,10.037,22.302
				C267.527,202.288,270.776,202.292,270.728,200.194L270.728,200.194z"/>
		</g>
	</g>
	<g>
		<g>
			<path fill="#231F20" d="M282.15,132.881c0-5.957,0-11.913,0-17.869c0-2.793-4.333-2.793-4.333,0c0,5.957,0,11.913,0,17.869
				C277.817,135.675,282.15,135.675,282.15,132.881L282.15,132.881z"/>
		</g>
	</g>
	<g>
		<g>
			<path fill="#231F20" d="M269.695,208.107c6.991,0,13.982,0,20.974,0c2.096,0,2.096-3.25,0-3.25c-6.991,0-13.982,0-20.974,0
				C267.601,204.857,267.601,208.107,269.695,208.107L269.695,208.107z"/>
		</g>
	</g>
	<g>
		<g>
			<path fill="#231F20" d="M269.695,213.341c6.991,0,13.982,0,20.974,0c2.096,0,2.096-3.25,0-3.25c-6.991,0-13.982,0-20.974,0
				C267.601,210.092,267.601,213.341,269.695,213.341L269.695,213.341z"/>
		</g>
	</g>
	<g>
		<g>
			<path fill="#231F20" d="M269.695,218.577c6.991,0,13.982,0,20.974,0c2.096,0,2.096-3.249,0-3.249c-6.991,0-13.982,0-20.974,0
				C267.601,215.328,267.601,218.577,269.695,218.577L269.695,218.577z"/>
		</g>
	</g>
	<g>
		<g>
			<path fill="#231F20" d="M310.153,244.759c2.795,0,2.795-4.332,0-4.332C307.361,240.429,307.361,244.759,310.153,244.759
				L310.153,244.759z"/>
		</g>
	</g>
	<g>
		<g>
			<path fill="#231F20" d="M247.648,217.406c0,8.396,0,16.792,0,25.188c0,2.793,4.332,2.793,4.332,0c0-4.268,0-8.539,0-12.805
				c0-2.795-4.332-2.795-4.332,0c0,24.441-4.853,71.944,30.985,71.944c2.795,0,2.795-4.332,0-4.332c-0.432,0-0.863,0-1.295,0
				c-2.794,0-2.794,4.332,0,4.332c1.764,0,3.527,0,5.291,0c2.794,0,2.794-4.332,0-4.332c-0.432,0-0.863,0-1.295,0
				c-2.795,0-2.795,4.332,0,4.332c25.198,0,30.871-26.192,30.986-46.757c0.017-2.796-4.316-2.794-4.332,0
				c-0.101,17.971-4.132,42.425-26.654,42.425c-2.795,0-2.795,4.332,0,4.332c0.432,0,0.864,0,1.295,0c2.794,0,2.794-4.332,0-4.332
				c-1.764,0-3.527,0-5.291,0c-2.794,0-2.794,4.332,0,4.332c0.432,0,0.863,0,1.295,0c2.795,0,2.795-4.332,0-4.332
				c-32.253,0-26.653-45.909-26.653-67.612c0-2.795-4.332-2.795-4.332,0c0,4.267,0,8.538,0,12.805c0,2.793,4.332,2.793,4.332,0
				c0-8.396,0-16.793,0-25.188C251.98,214.612,247.648,214.612,247.648,217.406L247.648,217.406z"/>
		</g>
	</g>
	<path fill="#FFFFFF" d="M249.814,165.573c0,2.21-1.792,4-4.003,4h-15.982c-2.211,0-4.002-1.791-4.002-4l0,0
		c0-2.212,1.791-4.002,4.002-4.002h15.982C248.021,161.571,249.814,163.362,249.814,165.573L249.814,165.573z"/>
	<g>
		<g>
			<path fill="#231F20" d="M247.038,163.661c-5.957,0-11.913,0-17.869,0c-2.795,0-2.795,4.333,0,4.333c5.957,0,11.913,0,17.869,0
				C249.832,167.993,249.832,163.661,247.038,163.661L247.038,163.661z"/>
		</g>
	</g>
	<g>
		<g>
			<path fill="#231F20" d="M304.812,144.063c2.9-2.9,5.801-5.799,8.701-8.7c1.978-1.979-1.086-5.041-3.063-3.063
				c-2.9,2.9-5.8,5.799-8.7,8.7C299.772,142.977,302.837,146.04,304.812,144.063L304.812,144.063z"/>
		</g>
	</g>
	<path fill="#FFFFFF" d="M333.861,165.573c0,2.21-1.792,4-4.003,4h-15.984c-2.209,0-4.003-1.791-4.003-4l0,0
		c0-2.212,1.794-4.002,4.003-4.002h15.984C332.069,161.571,333.861,163.362,333.861,165.573L333.861,165.573z"/>
	<g>
		<g>
			<path fill="#231F20" d="M312.931,167.993c5.956,0,11.914,0,17.871,0c2.795,0,2.795-4.333,0-4.333c-5.957,0-11.915,0-17.871,0
				C310.137,163.661,310.137,167.993,312.931,167.993L312.931,167.993z"/>
		</g>
	</g>
	<g>
		<g>
			<path fill="#231F20" d="M258.218,141c-2.898-2.901-5.798-5.8-8.697-8.7c-1.977-1.978-5.041,1.084-3.063,3.063
				c2.899,2.901,5.799,5.799,8.698,8.7C257.132,146.04,260.196,142.977,258.218,141L258.218,141z"/>
		</g>
	</g>
</g>
</svg>
