<?xml version="1.0" encoding="utf-8"?>
<!-- Generator: Adobe Illustrator 16.0.0, SVG Export Plug-In . SVG Version: 6.00 Build 0)  -->
<!DOCTYPE svg PUBLIC "-//W3C//DTD SVG 1.1//EN" "http://www.w3.org/Graphics/SVG/1.1/DTD/svg11.dtd">
<svg version="1.1" id="Layer_1" xmlns="http://www.w3.org/2000/svg" xmlns:xlink="http://www.w3.org/1999/xlink" x="0px" y="0px"
	 width="560px" height="560px" viewBox="-999.5 400.5 560 560" enable-background="new -999.5 400.5 560 560" xml:space="preserve">
<g>
	<g>
		<g>
			<path d="M-713.984,722.604c0,4.486,0,8.975,0,13.461c0,2.111,0,4.224,0,6.335c0-0.136,0.225-0.158-0.867-0.158
				c-1.555,0-3.109,0-4.666,0c-1.35,0-2.699,0-4.05,0c-1.007,0-1.483-0.242-1.483,0.307c0-1.888,0-3.775,0-5.664
				c0-4.761,0-9.521,0-14.281c0-3.225-5-3.225-5,0c0,5.731,0,11.464,0,17.195c0,2.507-0.131,4.493,1.793,6.418
				c1.829,1.83,6.488,1.025,8.741,1.025c2.369,0,6.048,0.647,8.234-0.634c2.341-1.372,2.298-3.865,2.298-6.203
				c0-5.935,0-11.868,0-17.802C-708.984,719.38-713.984,719.38-713.984,722.604L-713.984,722.604z"/>
		</g>
	</g>
	<g>
		<g>
			<path d="M-780.742,823.247c0.256-23.725,13.71-44.869,34.969-55.334c21.557-10.612,48.105-6.437,66.205,8.931
				c18.177,15.435,25.172,40.543,18.906,63.325c-6.213,22.583-25.772,39.232-48.514,43.443
				C-746.311,890.489-780.343,860.191-780.742,823.247c-0.035-3.223-5.035-3.226-5,0c0.235,21.797,10.706,41.663,28.39,54.351
				c17.923,12.857,42.028,15.145,62.384,7.156c19.853-7.79,34.627-25.303,39.813-45.855c5.358-21.233-0.917-43.871-15.289-60.113
				c-18.168-20.533-48.349-26.963-73.625-17.044c-25.127,9.861-41.384,34.76-41.673,61.507
				C-785.776,826.473-780.776,826.471-780.742,823.247z"/>
		</g>
	</g>
	<g>
		<g>
			<path d="M-768.809,823.247c0.323-24.327,17.768-44.563,41.687-48.724c24.142-4.199,47.662,11.637,54.828,34.547
				c7.287,23.297-4.754,48.216-26.219,58.791c-22.042,10.859-49.14,2.196-62.423-17.875
				C-766.182,842.061-768.684,832.69-768.809,823.247c-0.043-3.222-5.043-3.226-5,0c0.289,21.776,13.11,41.369,33.173,50.008
				c20.033,8.625,43.409,3.71,59.044-11.159c15.877-15.103,20.392-39.244,12.334-59.366c-8-19.977-27.593-32.906-48.86-33.754
				c-30.396-1.211-55.296,24.497-55.691,54.271C-773.852,826.473-768.852,826.469-768.809,823.247z"/>
		</g>
	</g>
	<g>
		<g>
			<path fill="#231F20" d="M-721.948,587.777c0-5.104,0-10.209,0-15.314c0-3.703,0.475-7.896-0.306-11.541
				c-0.988-4.611-5.392-8.91-9.469-4.154c-2.205,2.572-2.979,9.787,0.869,11.498c6.271,2.787,9.695-8.021,12.749-11.479
				c1.614-1.827-0.812-4.208-2.651-2.65c-0.223,0.188-0.444,0.377-0.668,0.564c0.885,0.884,1.769,1.768,2.651,2.65
				c3.088-3.278,7.076-8.184,4.208-12.793c-1.789-2.877-5.719-3.043-8.498-1.83c-4.056,1.77-2.773,6.88-1.195,9.814
				c1.906,3.545,5.169,6.295,7.278,9.77c1.365,2.248,2.595,4.906,5.022,6.179c6.666,3.492,9.283-11.974,1.39-13.696
				c-4.705-1.027-6.062,4.769-6.456,8.135c-0.941,8.072-0.062,16.733-0.062,24.847c0,2.418,3.75,2.418,3.75,0
				c0-6.826,0-13.651,0-20.478c0-2.738-0.211-5.606,1.037-8.136c1.248-2.532,2.691,1.194,2.822,1.622
				c0.374,1.223,0.323,3.092-0.49,4.139c-0.746,0.955-4.186-5.181-4.488-5.68c-1.894-3.118-4.562-5.568-6.565-8.594
				c-1.637-2.471-1.278-5.648,2.222-4.781c4.407,1.094-1.539,7.678-2.625,8.831c-1.681,1.783,0.824,4.198,2.65,2.651
				c0.223-0.188,0.445-0.377,0.668-0.565c-0.884-0.884-1.768-1.769-2.65-2.651c-2.559,2.896-4.379,6.178-6.453,9.416
				c-3.953,6.174-2.521-8.572,0.472-4.387c1.963,2.745,1.038,8.589,1.038,11.861c0,5.584,0,11.168,0,16.752
				C-725.698,590.196-721.948,590.196-721.948,587.777L-721.948,587.777z"/>
		</g>
	</g>
	<g>
		<g>
			<path fill="#231F20" d="M-730.429,588.396c-0.18-7.734-2.916-14.194-7.24-20.5c-4.13-6.022-8.283-11.355-7.95-19.039
				c0.652-15.016,10.838-25.495,26.102-25.495c15.196,0,24.903,10.087,26.062,24.851c0.587,7.467-3.153,12.947-7.276,18.776
				c-4.636,6.555-7.687,13.271-7.875,21.407c-0.056,2.42,3.694,2.414,3.75,0c0.233-10.096,5.821-16.795,11.032-24.846
				c3.72-5.748,4.785-11.936,3.754-18.633c-2.389-15.498-13.646-25.306-29.447-25.306c-15.479,0-26.683,9.392-29.333,24.562
				c-1.154,6.608-0.301,12.635,3.087,18.482c5.034,8.686,11.334,15.038,11.583,25.741
				C-734.123,590.811-730.373,590.816-730.429,588.396L-730.429,588.396z"/>
		</g>
	</g>
	<g>
		<g>
			<path fill="#231F20" d="M-717.017,510.707c0-6.875,0-13.749,0-20.623c0-3.224-5-3.224-5,0c0,6.875,0,13.749,0,20.623
				C-722.017,513.932-717.017,513.932-717.017,510.707L-717.017,510.707z"/>
		</g>
	</g>
	<g>
		<g>
			<path fill="#231F20" d="M-731.621,597.528c8.069,0,16.137,0,24.206,0c2.418,0,2.418-3.75,0-3.75c-8.068,0-16.136,0-24.206,0
				C-734.039,593.778-734.039,597.528-731.621,597.528L-731.621,597.528z"/>
		</g>
	</g>
	<g>
		<g>
			<path fill="#231F20" d="M-731.621,603.57c8.069,0,16.137,0,24.206,0c2.418,0,2.418-3.75,0-3.75c-8.068,0-16.136,0-24.206,0
				C-734.039,599.82-734.039,603.57-731.621,603.57L-731.621,603.57z"/>
		</g>
	</g>
	<g>
		<g>
			<path fill="#231F20" d="M-731.621,609.612c8.069,0,16.137,0,24.206,0c2.418,0,2.418-3.75,0-3.75c-8.068,0-16.136,0-24.206,0
				C-734.039,605.862-734.039,609.612-731.621,609.612L-731.621,609.612z"/>
		</g>
	</g>
	<g>
		<g>
			<path fill="#231F20" d="M-771.115,588.818c0,13.665,0,27.329,0,40.992c0,3.225,5,3.225,5,0c0-6.946,0-13.893,0-20.84
				c0-3.224-5-3.224-5,0c0,39.125-8.103,116.058,49.406,116.058c3.225,0,3.225-5,0-5c-0.707,0-1.415,0-2.122,0c-3.224,0-3.224,5,0,5
				c2.875,0,5.75,0,8.625,0c3.224,0,3.224-5,0-5c-0.709,0-1.416,0-2.122,0c-3.226,0-3.226,5,0,5
				c57.509,0,49.405-76.933,49.405-116.058c0-3.224-5-3.224-5,0c0,6.947,0,13.894,0,20.84c0,3.225,5,3.225,5,0
				c0-13.664,0-27.328,0-40.992c0-3.225-5-3.225-5,0c0,13.665,0,27.329,0,40.992c0,3.225,5,3.225,5,0c0-6.946,0-13.893,0-20.84
				c0-3.224-5-3.224-5,0c0,22.51,1.763,46.002-2.239,68.242c-2.136,11.864-6.308,23.979-14.829,32.799
				c-7.327,7.584-17.108,10.017-27.337,10.017c-3.226,0-3.226,5,0,5c0.706,0,1.413,0,2.122,0c3.224,0,3.224-5,0-5
				c-2.875,0-5.75,0-8.625,0c-3.224,0-3.224,5,0,5c0.707,0,1.415,0,2.122,0c3.225,0,3.225-5,0-5
				c-10.438,0-19.739-2.561-27.337-10.017c-8.722-8.56-12.583-21.125-14.829-32.799c-2.294-11.932-2.24-24.07-2.24-36.164
				c0-10.692,0-21.386,0-32.078c0-3.225-5-3.225-5,0c0,6.946,0,13.893,0,20.84c0,3.224,5,3.224,5,0c0-13.666,0-27.329,0-40.993
				C-766.115,585.594-771.115,585.594-771.115,588.818L-771.115,588.818z"/>
		</g>
	</g>
	<g>
		<g>
			<path fill="#231F20" d="M-719.517,639.832c3.225,0,3.225-5,0-5C-722.741,634.832-722.741,639.832-719.517,639.832
				L-719.517,639.832z"/>
		</g>
	</g>
	<g>
		<g>
			<path fill="#231F20" d="M-756.837,608.26c0,9.691,0,19.381,0,29.072c0,3.225,5,3.225,5,0c0-4.926,0-9.853,0-14.779
				c0-3.224-5-3.224-5,0c0,28.209-5.6,83.033,35.761,83.033c3.225,0,3.225-5,0-5c-0.498,0-0.996,0-1.495,0c-3.224,0-3.224,5,0,5
				c2.036,0,4.071,0,6.106,0c3.225,0,3.225-5,0-5c-0.498,0-0.996,0-1.494,0c-3.226,0-3.226,5,0,5
				c29.08,0,35.629-30.226,35.762-53.962c0.018-3.225-4.982-3.223-5,0c-0.116,20.742-4.77,48.962-30.762,48.962
				c-3.226,0-3.226,5,0,5c0.498,0,0.996,0,1.494,0c3.225,0,3.225-5,0-5c-2.035,0-4.07,0-6.106,0c-3.224,0-3.224,5,0,5
				c0.499,0,0.997,0,1.495,0c3.225,0,3.225-5,0-5c-37.224,0-30.761-52.982-30.761-78.033c0-3.224-5-3.224-5,0
				c0,4.926,0,9.854,0,14.779c0,3.225,5,3.225,5,0c0-9.691,0-19.381,0-29.072C-751.837,605.035-756.837,605.035-756.837,608.26
				L-756.837,608.26z"/>
		</g>
	</g>
	<g>
		<g>
			<path fill="#231F20" d="M-667.919,587.664c0-39.124,8.101-116.058-49.407-116.058c-3.226,0-3.226,5,0,5c0.706,0,1.413,0,2.12,0
				c3.226,0,3.226-5,0-5c-2.875,0-5.75,0-8.625,0c-3.225,0-3.225,5,0,5c0.707,0,1.414,0,2.121,0c3.226,0,3.226-5,0-5
				c-57.507,0-49.404,76.934-49.404,116.058c0,3.225,5,3.225,5,0c0-22.509-1.762-46.001,2.24-68.24
				c2.135-11.867,6.307-23.979,14.829-32.801c7.327-7.584,17.108-10.017,27.337-10.017c3.225,0,3.225-5,0-5
				c-0.707,0-1.415,0-2.122,0c-3.225,0-3.225,5,0,5c2.875,0,5.75,0,8.625,0c3.225,0,3.225-5,0-5c-0.707,0-1.414,0-2.121,0
				c-3.225,0-3.225,5,0,5c10.438,0,19.738,2.561,27.337,10.017c8.722,8.561,12.584,21.126,14.83,32.801
				c2.295,11.931,2.241,24.066,2.241,36.161c0,10.693,0,21.386,0,32.079C-672.919,590.889-667.919,590.889-667.919,587.664
				L-667.919,587.664z"/>
		</g>
	</g>
	<path fill="#FFFFFF" d="M-705.675,548.438c0,2.552-2.067,4.619-4.619,4.619h-18.445c-2.551,0-4.618-2.067-4.618-4.619l0,0
		c0-2.551,2.067-4.618,4.618-4.618h18.445C-707.744,543.819-705.675,545.887-705.675,548.438L-705.675,548.438z"/>
	<g>
		<g>
			<path fill="#231F20" d="M-709.207,546.231c-6.875,0-13.749,0-20.623,0c-3.224,0-3.224,5,0,5c6.875,0,13.75,0,20.623,0
				C-705.982,551.231-705.982,546.231-709.207,546.231L-709.207,546.231z"/>
		</g>
	</g>
	<g>
		<g>
			<path fill="#231F20" d="M-722.77,523.611c3.347-3.348,6.694-6.693,10.041-10.04c2.282-2.282-1.253-5.817-3.535-3.535
				c-3.347,3.347-6.694,6.693-10.041,10.04C-728.587,522.358-725.052,525.893-722.77,523.611L-722.77,523.611z"/>
		</g>
	</g>
	<path fill="#FFFFFF" d="M-705.673,548.438c0,2.552-2.068,4.619-4.619,4.619h-18.447c-2.55,0-4.619-2.067-4.619-4.619l0,0
		c0-2.551,2.069-4.618,4.619-4.618h18.447C-707.743,543.819-705.673,545.887-705.673,548.438L-705.673,548.438z"/>
	<g>
		<g>
			<path fill="#231F20" d="M-729.829,551.231c6.875,0,13.75,0,20.623,0c3.225,0,3.225-5,0-5c-6.875,0-13.749,0-20.623,0
				C-733.053,546.231-733.053,551.231-729.829,551.231L-729.829,551.231z"/>
		</g>
	</g>
	<g>
		<g>
			<path fill="#231F20" d="M-712.731,520.076c-3.346-3.347-6.692-6.693-10.038-10.04c-2.281-2.282-5.817,1.253-3.535,3.535
				c3.346,3.347,6.692,6.692,10.038,10.04C-713.985,525.893-710.449,522.358-712.731,520.076L-712.731,520.076z"/>
		</g>
	</g>
</g>
</svg>
