<?xml version="1.0" encoding="utf-8"?>
<!-- Generator: Adobe Illustrator 16.0.0, SVG Export Plug-In . SVG Version: 6.00 Build 0)  -->
<!DOCTYPE svg PUBLIC "-//W3C//DTD SVG 1.1//EN" "http://www.w3.org/Graphics/SVG/1.1/DTD/svg11.dtd">
<svg version="1.1" id="Layer_1" xmlns="http://www.w3.org/2000/svg" xmlns:xlink="http://www.w3.org/1999/xlink" x="0px" y="0px"
	 width="560px" height="560px" viewBox="-999.5 400.5 560 560" enable-background="new -999.5 400.5 560 560" xml:space="preserve">
<g>
	<g>
		<g>
			<path d="M-621.86,614.111c0-15.975,0-31.949,0-47.926c0-1.361-1.137-2.5-2.5-2.5c-49.178,0-98.354,0-147.53,0
				c-17.202,0-34.403,0-51.605,0c-11.293,0-22.106,5.756-26.245,16.77c-6.569,17.479,6.166,35.641,24.614,36.156
				c3.226,0.09,3.217-4.91,0-5c-13.117-0.365-23.061-11.678-21.217-24.816c1.459-10.398,10.993-18.109,21.321-18.109
				c5.619,0,11.238,0,16.857,0c28.804,0,57.608,0,86.413,0c32.465,0,64.928,0,97.393,0c-0.834-0.832-1.668-1.666-2.5-2.5
				c0,15.977,0,31.951,0,47.926C-626.86,617.336-621.86,617.336-621.86,614.111L-621.86,614.111z"/>
		</g>
	</g>
	<g>
		<g>
			<path d="M-663.044,585.668c-48.271,0-96.541,0-144.812,0c-4.214,0-8.34-0.07-12.52,0.688
				c-12.237,2.223-16.455,12.893-16.455,24.094c0,3.223,5,3.223,5,0c0-10.873,4.214-18.592,15.804-19.688
				c2.306-0.217,4.699-0.096,7.013-0.096c10.855,0,21.71,0,32.565,0c30.826,0,61.652,0,92.479,0c6.976,0,13.949,0,20.924,0
				C-659.819,590.668-659.819,585.668-663.044,585.668L-663.044,585.668z"/>
		</g>
	</g>
	<g>
		<g>
			<path d="M-825.126,616.611c47.401,0,94.802,0,142.203,0c29.23,0,58.462,0,87.693,0c-0.833-0.832-1.667-1.666-2.5-2.5
				c0,49.807,0,99.615,0,149.42c0,10.428,0,20.854,0,31.283c0.833-0.834,1.667-1.668,2.5-2.5c-47.401,0-94.803,0-142.203,0
				c-29.231,0-58.462,0-87.693,0c0.833,0.832,1.667,1.666,2.5,2.5c0-0.008,0-0.016,0-0.021c0-1.393-1.138-2.463-2.5-2.5
				c-11.72-0.328-21.463-9.531-21.463-21.492c0-1.652,0-3.307,0-4.959c0-10.084,0-20.168,0-30.252c0-31.572,0-63.145,0-94.715
				c0-16.908,0-33.818,0-50.727c0-3.225-5-3.225-5,0c0,49.801,0,99.602,0,149.402c0,9.586,0,19.172,0,28.758
				c0,15.584,10.126,28.529,26.463,28.984c-0.833-0.834-1.667-1.668-2.5-2.5c0,0.006,0,0.014,0,0.021c0,1.361,1.137,2.5,2.5,2.5
				c47.401,0,94.802,0,142.203,0c29.23,0,58.462,0,87.693,0c1.363,0,2.5-1.139,2.5-2.5c0-49.809,0-99.615,0-149.422
				c0-10.426,0-20.854,0-31.281c0-1.363-1.137-2.5-2.5-2.5c-47.401,0-94.803,0-142.203,0c-29.231,0-58.462,0-87.693,0
				C-828.35,611.611-828.35,616.611-825.126,616.611L-825.126,616.611z"/>
		</g>
	</g>
	<g>
		<path fill="#FFFFFF" d="M-582.171,732.314c0,1.664-1.35,3.014-3.014,3.014h-90.407c-1.664,0-3.014-1.35-3.014-3.014v-47.213
			c0-1.666,1.35-3.014,3.014-3.014h90.407c1.664,0,3.014,1.348,3.014,3.014V732.314L-582.171,732.314z"/>
		<g>
			<path d="M-584.582,731.648c-0.472,2.338-6.922,1.178-8.645,1.178c-6.544,0-13.088,0-19.634,0c-15.693,0-31.387,0-47.082,0
				c-4.657,0-9.314,0-13.973,0c-3.326,0-2.191-3.178-2.191-5.945c0-13.607,0-27.217,0-40.826c0-2.455,4.025-1.467,5.804-1.467
				c5.951,0,11.901,0,17.854,0c15.855,0,31.711,0,47.566,0c5.412,0,10.824,0,16.236,0c3.188,0,3.973-0.389,3.973,3.059
				c0,13.873,0,27.746,0,41.619c0,1.016,0,2.031,0,3.049c0,3.223,5,3.223,5,0c0-12.422,0-24.844,0-37.266
				c0-3.916,1.104-9.887-1.224-13.34c-1.881-2.789-6.195-2.121-9.09-2.121c-27.24,0-54.481,0-81.723,0
				c-3.112,0-8.237-0.463-9.071,3.676c-0.875,4.334-0.326,9.098-0.326,13.49c0,7.969,0,15.938,0,23.906
				c0,4.395-0.549,9.156,0.326,13.49c0.834,4.139,5.959,3.676,9.071,3.676c5.552,0,11.104,0,16.657,0c15.867,0,31.732,0,47.6,0
				c5.979,0,11.956,0,17.935,0c4.116,0,8.703,0.369,9.756-4.848C-579.125,729.83-583.943,728.49-584.582,731.648z"/>
		</g>
	</g>
	<g>
		<g>
			<path d="M-655.017,590.668c3.224,0,3.224-5,0-5C-658.241,585.668-658.241,590.668-655.017,590.668L-655.017,590.668z"/>
		</g>
	</g>
	<g>
		<circle fill="#FFFFFF" cx="-619.841" cy="708.707" r="10.547"/>
		<g>
			<path d="M-611.793,708.707c-0.559,10.373-15.536,10.375-16.095,0C-628.446,698.328-612.349,698.383-611.793,708.707
				c0.173,3.207,5.175,3.223,5,0c-0.396-7.381-5.668-12.65-13.048-13.047c-7.363-0.396-12.682,6.264-13.047,13.047
				c-0.396,7.363,6.266,12.682,13.047,13.047c7.364,0.396,12.684-6.264,13.048-13.047
				C-606.618,705.484-611.62,705.5-611.793,708.707z"/>
		</g>
	</g>
</g>
</svg>
