<?xml version="1.0" encoding="utf-8"?>
<!-- Generator: Adobe Illustrator 16.0.0, SVG Export Plug-In . SVG Version: 6.00 Build 0)  -->
<!DOCTYPE svg PUBLIC "-//W3C//DTD SVG 1.1//EN" "http://www.w3.org/Graphics/SVG/1.1/DTD/svg11.dtd">
<svg version="1.1" id="Layer_1" xmlns="http://www.w3.org/2000/svg" xmlns:xlink="http://www.w3.org/1999/xlink" x="0px" y="0px"
	 width="560px" height="560px" viewBox="-1143.41 237.313 560 560" enable-background="new -1143.41 237.313 560 560"
	 xml:space="preserve">
<g>
	<path fill="#FFFFFF" d="M-772.271,450.925V403h-200.766C-986.271,403-997,413.729-997,426.962
		c0,13.234,10.729,23.963,23.963,23.963"/>
	<g>
		<path d="M-769.771,450.925c0-15.975,0-31.949,0-47.925c0-1.362-1.137-2.5-2.5-2.5c-49.177,0-98.354,0-147.529,0
			c-17.201,0-34.402,0-51.604,0c-11.293,0-22.106,5.755-26.245,16.769c-6.568,17.479,6.166,35.643,24.614,36.156
			c3.227,0.09,3.218-4.91,0-5c-13.117-0.365-23.062-11.678-21.217-24.814c1.459-10.399,10.993-18.109,21.32-18.109
			c5.619,0,11.238,0,16.856,0c28.805,0,57.607,0,86.413,0c32.464,0,64.928,0,97.392,0c-0.833-0.833-1.667-1.667-2.5-2.5
			c0,15.976,0,31.95,0,47.926C-774.771,454.149-769.771,454.149-769.771,450.925L-769.771,450.925z"/>
	</g>
</g>
<g>
	<g>
		<path d="M-810.955,422.481c-48.271,0-96.541,0-144.812,0c-4.215,0-8.34-0.07-12.519,0.688
			c-12.236,2.222-16.455,12.893-16.455,24.093c0,3.226,5,3.226,5,0c0-10.872,4.214-18.591,15.804-19.686
			c2.307-0.218,4.699-0.097,7.013-0.097c10.855,0,21.712,0,32.566,0c30.826,0,61.652,0,92.479,0c6.975,0,13.948,0,20.924,0
			C-807.73,427.481-807.73,422.481-810.955,422.481L-810.955,422.481z"/>
	</g>
</g>
<g>
	<g>
		<path d="M-802.927,427.481c3.226,0,3.226-5,0-5C-806.152,422.481-806.152,427.481-802.927,427.481L-802.927,427.481z"/>
	</g>
</g>
<g>
	<path fill="#FFFFFF" d="M-973.037,450.925h229.896v180.702h-229.896v-0.021c-13.234,0-23.963-10.729-23.963-23.963V426.961
		C-997,440.196-986.271,450.925-973.037,450.925"/>
	<g>
		<path d="M-973.037,453.425c47.4,0,94.802,0,142.203,0c29.23,0,58.462,0,87.692,0c-0.833-0.833-1.667-1.667-2.5-2.5
			c0,49.807,0,99.613,0,149.42c0,10.428,0,20.855,0,31.282c0.833-0.833,1.667-1.667,2.5-2.5c-47.4,0-94.802,0-142.203,0
			c-29.23,0-58.462,0-87.692,0c0.833,0.833,1.667,1.667,2.5,2.5c0-0.007,0-0.014,0-0.021c0-1.393-1.139-2.463-2.5-2.5
			c-11.721-0.327-21.463-9.53-21.463-21.492c0-1.652,0-3.307,0-4.958c0-10.085,0-20.169,0-30.254c0-31.571,0-63.145,0-94.716
			c0-16.907,0-33.816,0-50.726c-1.667,0-3.333,0-5,0C-999.09,441.668-987.743,453.015-973.037,453.425c3.227,0.09,3.218-4.91,0-5
			c-11.947-0.333-21.13-9.516-21.463-21.463c-0.09-3.216-5-3.229-5,0c0,49.801,0,99.604,0,149.403c0,9.586,0,19.171,0,28.757
			c0,15.582,10.127,28.528,26.463,28.984c-0.833-0.833-1.667-1.667-2.5-2.5c0,0.007,0,0.014,0,0.021c0,1.362,1.137,2.5,2.5,2.5
			c47.4,0,94.802,0,142.203,0c29.23,0,58.462,0,87.692,0c1.363,0,2.5-1.138,2.5-2.5c0-49.807,0-99.612,0-149.421
			c0-10.427,0-20.854,0-31.281c0-1.362-1.137-2.5-2.5-2.5c-47.4,0-94.802,0-142.203,0c-29.23,0-58.462,0-87.692,0
			C-976.261,448.425-976.261,453.425-973.037,453.425L-973.037,453.425z"/>
	</g>
</g>
<g>
	<path fill="#FFFFFF" d="M-730.082,569.127c0,1.665-1.351,3.014-3.015,3.014h-90.407c-1.664,0-3.015-1.349-3.015-3.014v-47.212
		c0-1.665,1.351-3.014,3.015-3.014h90.407c1.664,0,3.015,1.349,3.015,3.014V569.127z"/>
	<g>
		<path d="M-732.492,568.462c-0.473,2.338-6.923,1.18-8.646,1.18c-6.544,0-13.089,0-19.633,0c-15.693,0-31.389,0-47.083,0
			c-4.657,0-9.313,0-13.972,0c-3.325,0-2.192-3.179-2.192-5.945c0-13.608,0-27.217,0-40.825c0-2.455,4.026-1.469,5.806-1.469
			c5.95,0,11.901,0,17.854,0c15.855,0,31.712,0,47.567,0c5.411,0,10.823,0,16.235,0c3.188,0,3.975-0.39,3.975,3.06
			c0,13.872,0,27.745,0,41.617c0,1.018,0,2.032,0,3.049c0,3.226,5,3.226,5,0c0-12.421,0-24.843,0-37.265
			c0-3.915,1.104-9.887-1.226-13.34c-1.88-2.789-6.194-2.121-9.09-2.121c-27.241,0-54.48,0-81.723,0
			c-3.113,0-8.236-0.463-9.072,3.676c-0.875,4.336-0.326,9.097-0.326,13.491c0,7.969,0,15.937,0,23.904
			c0,4.396-0.549,9.155,0.326,13.491c0.836,4.14,5.959,3.677,9.072,3.677c5.553,0,11.104,0,16.657,0c15.865,0,31.732,0,47.6,0
			c5.979,0,11.956,0,17.935,0c4.116,0,8.703,0.368,9.757-4.85C-727.036,566.644-731.854,565.303-732.492,568.462z"/>
	</g>
</g>
<g>
	<circle fill="#FFFFFF" cx="-767.752" cy="545.52" r="10.547"/>
	<g>
		<path d="M-759.705,545.521c-0.56,10.373-15.535,10.373-16.094,0C-776.357,535.142-760.26,535.196-759.705,545.521
			c0.173,3.207,5.174,3.224,5,0c-0.397-7.379-5.668-12.649-13.047-13.048c-7.363-0.396-12.683,6.267-13.047,13.048
			c-0.396,7.362,6.265,12.683,13.047,13.048c7.363,0.396,12.682-6.267,13.047-13.048
			C-754.531,542.297-759.532,542.313-759.705,545.521z"/>
	</g>
</g>
</svg>
