<?xml version="1.0" encoding="utf-8"?>
<!-- Generator: Adobe Illustrator 16.0.0, SVG Export Plug-In . SVG Version: 6.00 Build 0)  -->
<!DOCTYPE svg PUBLIC "-//W3C//DTD SVG 1.1//EN" "http://www.w3.org/Graphics/SVG/1.1/DTD/svg11.dtd">
<svg version="1.1" id="Layer_1" xmlns="http://www.w3.org/2000/svg" xmlns:xlink="http://www.w3.org/1999/xlink" x="0px" y="0px"
	 width="560px" height="560px" viewBox="-999.5 400.5 560 560" enable-background="new -999.5 400.5 560 560" xml:space="preserve">
<g>
	<g>
		<g>
			<path fill="#231F20" d="M-611.041,647.785c0,23.064,0,46.13,0,69.195c0,13.961,0,27.922,0,41.884
				c0,11.614-0.146,22.983-2.751,34.42c-10.396,45.61-51.632,78.835-98.03,80.925c-46.875,2.112-89.975-28.758-104.317-73.142
				c-4.107-12.709-4.892-25.714-4.892-38.93c0-13.093,0-26.186,0-39.277c0-24.897,0-49.794,0-74.691c0-0.128,0-0.255,0-0.383
				c-0.761,0.761-1.521,1.521-2.283,2.282c16.473,0,32.945,0,49.418,0c-0.761-0.76-1.521-1.521-2.283-2.282
				c0,21.399,0,42.799,0,64.198c0,14.095,0,28.189,0,42.285c0,15.629,3.484,29.792,13.263,42.345
				c13.438,17.251,35.855,24.921,57.143,21.604c21.187-3.302,38.683-18.872,46.232-38.604c4.395-11.483,3.65-23.744,3.65-35.785
				c0-15.61,0-31.221,0-46.831c0-16.404,0-32.809,0-49.212c-0.762,0.761-1.522,1.521-2.283,2.282c16.472,0,32.943,0,49.415,0
				c2.944,0,2.944-4.564,0-4.564c-16.472,0-32.943,0-49.415,0c-1.244,0-2.283,1.039-2.283,2.283c0,21.398,0,42.799,0,64.198
				c0,14.095,0,28.189,0,42.286c0,17.148-4.646,32.611-17.213,44.9c-17.389,17.002-44.626,19.796-65.658,8.215
				c-17.907-9.859-28.286-29.242-28.286-49.41c0-25.779,0-51.561,0-77.34c0-10.949,0-21.898,0-32.849
				c0-1.244-1.039-2.283-2.283-2.283c-16.473,0-32.945,0-49.418,0c-1.244,0-2.283,1.039-2.283,2.283c0,23.065,0,46.13,0,69.195
				c0,13.961,0,27.922,0,41.884c0,11.104,0.121,22.018,2.33,32.988c8.679,43.108,44.416,77.118,87.342,85.192
				c43.725,8.226,88.478-11.937,112.437-49.09c11.203-17.373,17.013-38.132,17.013-58.76c0-8.192,0-16.384,0-24.575
				c0-29.37,0-58.74,0-88.109c0-2.908,0-5.818,0-8.727C-606.475,644.841-611.041,644.841-611.041,647.785z"/>
		</g>
	</g>
	<g>
		<g>
			<path fill="#231F20" d="M-626.059,694.297c0,6.827,0,13.654,0,20.482c0,9.185,0,18.369,0,27.554
				c0,12.227,0.582,24.547-1.403,36.659c-6.667,40.663-39.542,77.561-82.501,77.938c-2.942,0.025-2.945,4.592,0,4.564
				c42.695-0.375,75.502-34.469,85.445-74.24c2.854-11.411,3.023-22.896,3.023-34.583c0-11.21,0-22.421,0-33.632
				c0-8.248,0-16.496,0-24.743C-621.494,691.354-626.059,691.354-626.059,694.297L-626.059,694.297z"/>
		</g>
	</g>
	<g>
		<g>
			<path fill="#231F20" d="M-608.758,626.893c-16.473,0-32.943,0-49.415,0c0.761,0.76,1.521,1.521,2.282,2.282
				c0-11.62,0-23.239,0-34.858c-0.76,0.762-1.521,1.521-2.282,2.283c16.472,0,32.942,0,49.415,0
				c-0.762-0.761-1.521-1.521-2.283-2.283c0,11.621,0,23.24,0,34.858c0,2.944,4.564,2.944,4.564,0c0-11.62,0-23.239,0-34.858
				c0-1.243-1.039-2.282-2.282-2.282c-16.472,0-32.943,0-49.415,0c-1.244,0-2.283,1.039-2.283,2.282c0,11.621,0,23.24,0,34.858
				c0,1.244,1.039,2.283,2.283,2.283c16.472,0,32.943,0,49.415,0C-605.814,631.458-605.814,626.893-608.758,626.893z"/>
		</g>
	</g>
	<g>
		<g>
			<path fill="#231F20" d="M-773.896,626.893c-16.473,0-32.945,0-49.418,0c0.761,0.76,1.521,1.521,2.283,2.282
				c0-11.62,0-23.239,0-34.858c-0.761,0.762-1.521,1.521-2.283,2.283c16.473,0,32.945,0,49.418,0
				c-0.761-0.761-1.521-1.521-2.283-2.283c0,11.621,0,23.24,0,34.858c0,2.944,4.565,2.944,4.565,0c0-11.62,0-23.239,0-34.858
				c0-1.243-1.039-2.282-2.283-2.282c-16.473,0-32.945,0-49.418,0c-1.244,0-2.283,1.039-2.283,2.282c0,11.621,0,23.24,0,34.858
				c0,1.244,1.039,2.283,2.283,2.283c16.473,0,32.945,0,49.418,0C-770.952,631.458-770.952,626.893-773.896,626.893z"/>
		</g>
	</g>
	<g>
		<g>
			<path fill="#231F20" d="M-720.786,478.749c-10.412,28.14-20.825,56.278-31.237,84.417c-0.577,1.559,1.235,3.413,2.808,2.809
				c14.503-5.578,29.006-11.156,43.51-16.734c-0.963-0.734-1.926-1.467-2.891-2.201c-2.603,21.568-5.205,43.138-7.809,64.707
				c-0.324,2.693,3.693,2.895,4.484,0.607c10.412-30.123,20.825-60.246,31.236-90.367c0.555-1.604-1.207-3.355-2.808-2.809
				c-14.131,4.836-28.263,9.67-42.395,14.504c0.963,0.734,1.926,1.467,2.89,2.201c2.231-18.842,4.462-37.684,6.693-56.525
				c0.346-2.92-4.224-2.887-4.565,0c-2.231,18.842-4.462,37.684-6.693,56.525c-0.17,1.44,1.592,2.645,2.89,2.201
				c14.131-4.835,28.263-9.669,42.396-14.504c-0.937-0.936-1.873-1.872-2.809-2.809c-10.412,30.123-20.825,60.246-31.237,90.367
				c1.495,0.203,2.989,0.405,4.484,0.607c2.603-21.569,5.206-43.139,7.81-64.707c0.168-1.402-1.601-2.697-2.891-2.201
				c-14.503,5.578-29.006,11.156-43.51,16.734c0.936,0.936,1.872,1.871,2.808,2.808c10.412-28.139,20.825-56.278,31.237-84.417
				C-715.359,477.195-719.773,476.014-720.786,478.749z"/>
		</g>
	</g>
	<g>
		<g>
			<path fill="#231F20" d="M-624.115,685.393c2.944,0,2.944-4.565,0-4.565C-627.059,680.827-627.059,685.393-624.115,685.393
				L-624.115,685.393z"/>
		</g>
	</g>
</g>
</svg>
