<?xml version="1.0" encoding="utf-8"?>
<!-- Generator: Adobe Illustrator 16.0.0, SVG Export Plug-In . SVG Version: 6.00 Build 0)  -->
<!DOCTYPE svg PUBLIC "-//W3C//DTD SVG 1.1//EN" "http://www.w3.org/Graphics/SVG/1.1/DTD/svg11.dtd">
<svg version="1.1" id="Layer_1" xmlns="http://www.w3.org/2000/svg" xmlns:xlink="http://www.w3.org/1999/xlink" x="0px" y="0px"
	 width="560px" height="560px" viewBox="0 0 560 560" enable-background="new 0 0 560 560" xml:space="preserve">
<g>
	<g>
		<path fill="#FFFFFF" d="M378.846,224.195V336.15c0,54.592-44.254,98.847-98.843,98.847c-54.593,0-98.847-44.255-98.847-98.847
			V224.195h45.534v26.815v75.615c0,29.447,23.868,53.316,53.313,53.316c29.44,0,53.313-23.869,53.313-53.316V251.01v-26.815H378.846
			z"/>
		<g>
			<path fill="#231F20" d="M376.746,224.195c0,37.32,0,74.638,0,111.956c0,39.069-24.27,74.898-60.375,89.69
				c-36.484,14.945-79.078,5.304-106.316-22.854c-13.253-13.698-21.918-31.316-25.347-50.003
				c-1.605-8.746-1.453-17.568-1.453-26.411c0-25.107,0-50.214,0-75.322c0-9.02,0-18.037,0-27.055
				c-0.699,0.701-1.4,1.402-2.101,2.103c15.176,0,30.354,0,45.531,0c-0.699-0.701-1.4-1.402-2.102-2.103c0,17.276,0,34.553,0,51.827
				c0,13.087,0,26.172,0,39.257c0,10.165-0.224,20.005,3.156,29.811c5.812,16.871,20.021,29.769,36.988,34.823
				c17.593,5.244,36.755,0.675,50.83-10.789c12.702-10.349,19.858-26.533,19.858-42.801c0-9.041,0-18.082,0-27.123
				c0-25,0-50.001,0-75.003c-0.701,0.701-1.404,1.402-2.103,2.103c15.179,0,30.354,0,45.529,0c2.715,0,2.715-4.207,0-4.207
				c-15.176,0-30.352,0-45.529,0c-1.147,0-2.104,0.957-2.104,2.104c0,17.275,0,34.552,0,51.827c0,13.087,0,26.172,0,39.255
				c0,10.584,0.168,20.666-3.799,30.771c-7.23,18.422-25.566,30.685-45.068,31.736c-19.765,1.07-38.265-10.039-47.636-27.232
				c-5.659-10.391-5.917-21.477-5.917-32.896c0-12.805,0-25.607,0-38.408c0-18.351,0-36.703,0-55.053
				c0-1.147-0.957-2.104-2.104-2.104c-15.179,0-30.355,0-45.531,0c-1.148,0-2.104,0.956-2.104,2.104c0,37.317,0,74.638,0,111.955
				c0,37.242,21.101,71.814,53.872,89.321c33.242,17.756,74.777,14.646,105.445-6.955c27.078-19.075,42.58-50.605,42.58-83.527
				c0-21.615,0-43.231,0-64.844c0-15.316,0-30.634,0-45.95C380.949,221.483,376.746,221.483,376.746,224.195z"/>
		</g>
	</g>
	<g>
		<g>
			<path fill="#231F20" d="M362.904,267.051c0,6.287,0,12.574,0,18.86c0,8.938,0,17.879,0,26.819
				c0,11.142,0.469,22.307-1.463,33.323c-6.494,37.085-36.609,70.507-75.847,70.847c-2.711,0.021-2.713,4.229,0,4.206
				c39.187-0.34,69.388-31.546,78.642-68.034c2.637-10.396,2.875-20.856,2.875-31.519c0-10.375,0-20.75,0-31.123
				c0-7.782,0-15.568,0-23.351c0-0.011,0-0.021,0-0.03C367.109,264.338,362.904,264.338,362.904,267.051L362.904,267.051z"/>
		</g>
	</g>
	<g>
		<rect x="333.316" y="174.929" fill="#FFFFFF" width="45.528" height="32.12"/>
		<g>
			<path fill="#231F20" d="M378.846,204.945c-15.176,0-30.354,0-45.529,0c0.697,0.701,1.402,1.403,2.103,2.104
				c0-10.707,0-21.413,0-32.12c-0.699,0.701-1.403,1.402-2.103,2.103c15.177,0,30.354,0,45.529,0
				c-0.699-0.701-1.399-1.402-2.1-2.103c0,10.707,0,21.414,0,32.12c0,2.712,4.203,2.712,4.203,0c0-10.707,0-21.413,0-32.12
				c0-1.146-0.955-2.104-2.104-2.104c-15.176,0-30.354,0-45.528,0c-1.148,0-2.104,0.958-2.104,2.104c0,10.707,0,21.414,0,32.12
				c0,1.146,0.955,2.103,2.104,2.103c15.176,0,30.354,0,45.528,0C381.559,209.151,381.559,204.945,378.846,204.945z"/>
		</g>
	</g>
	<g>
		<rect x="181.155" y="174.929" fill="#FFFFFF" width="45.532" height="32.12"/>
		<g>
			<path fill="#231F20" d="M226.687,204.945c-15.178,0-30.355,0-45.532,0c0.702,0.701,1.402,1.403,2.102,2.104
				c0-10.707,0-21.413,0-32.12c-0.699,0.701-1.4,1.402-2.102,2.103c15.177,0,30.354,0,45.532,0c-0.699-0.701-1.4-1.402-2.102-2.103
				c0,10.707,0,21.414,0,32.12c0,2.712,4.206,2.712,4.206,0c0-10.707,0-21.413,0-32.12c0-1.146-0.957-2.104-2.104-2.104
				c-15.178,0-30.355,0-45.532,0c-1.146,0-2.104,0.958-2.104,2.104c0,10.707,0,21.414,0,32.12c0,1.146,0.958,2.103,2.104,2.103
				c15.177,0,30.354,0,45.532,0C229.4,209.151,229.4,204.945,226.687,204.945z"/>
		</g>
	</g>
	<g>
		<polygon fill="#FFFFFF" points="277.651,69.004 248.871,146.786 288.959,131.366 281.764,190.987 310.549,107.725 
			271.485,121.088 		"/>
		<g>
			<path fill="#231F20" d="M275.623,68.445c-9.593,25.928-19.188,51.857-28.781,77.782c-0.532,1.435,1.138,3.145,2.587,2.586
				c13.364-5.138,26.727-10.279,40.091-15.418c-0.891-0.677-1.774-1.35-2.664-2.029c-2.396,19.874-4.797,39.748-7.195,59.621
				c-0.298,2.482,3.402,2.667,4.131,0.56c9.596-27.754,19.186-55.508,28.783-83.264c0.51-1.477-1.113-3.092-2.59-2.587
				c-13.019,4.454-26.039,8.909-39.06,13.363c0.887,0.679,1.773,1.353,2.661,2.029c2.056-17.361,4.112-34.721,6.168-52.083
				c0.318-2.689-3.891-2.661-4.206,0c-2.057,17.362-4.113,34.722-6.169,52.083c-0.156,1.328,1.468,2.438,2.665,2.029
				c13.021-4.456,26.042-8.909,39.06-13.365c-0.859-0.863-1.724-1.725-2.584-2.586c-9.596,27.754-19.189,55.508-28.784,83.264
				c1.378,0.188,2.753,0.373,4.13,0.559c2.399-19.874,4.797-39.748,7.194-59.62c0.159-1.292-1.473-2.485-2.66-2.028
				c-13.363,5.139-26.727,10.279-40.09,15.419c0.863,0.861,1.726,1.725,2.588,2.587c9.593-25.926,19.188-51.855,28.782-77.782
				C280.623,67.015,276.557,65.923,275.623,68.445z"/>
		</g>
	</g>
	<g>
		<g>
			<path fill="#231F20" d="M364.695,258.848c2.713,0,2.713-4.207,0-4.207S361.982,258.848,364.695,258.848L364.695,258.848z"/>
		</g>
	</g>
</g>
</svg>
