<?xml version="1.0" encoding="utf-8"?>
<!-- Generator: Adobe Illustrator 16.0.0, SVG Export Plug-In . SVG Version: 6.00 Build 0)  -->
<!DOCTYPE svg PUBLIC "-//W3C//DTD SVG 1.1//EN" "http://www.w3.org/Graphics/SVG/1.1/DTD/svg11.dtd">
<svg version="1.1" id="Layer_1" xmlns="http://www.w3.org/2000/svg" xmlns:xlink="http://www.w3.org/1999/xlink" x="0px" y="0px"
	 width="560px" height="560px" viewBox="0 0 560 560" enable-background="new 0 0 560 560" xml:space="preserve">
<g>
	<g>
		<path fill="#FFFFFF" d="M344.062,307.979c0,3.562-2.891,6.453-6.455,6.453H221.428c-3.564,0-6.454-2.891-6.454-6.453V120.8
			c0-3.563,2.89-6.455,6.454-6.455h116.179c3.564,0,6.455,2.892,6.455,6.455V307.979z"/>
		<g>
			<path d="M341.562,307.979c-0.498,4.946-6.048,3.953-9.447,3.953c-5.312,0-10.623,0-15.935,0c-15.688,0-31.379,0-47.068,0
				c-13.414,0-26.827,0-40.24,0c-2.466,0-4.932,0-7.398,0c-4.394,0-3.999-4.122-3.999-6.935c0-54.082,0-108.162,0-162.243
				c0-7.087,0-14.175,0-21.263c0-7.01,13.679-4.647,18.009-4.647c29.58,0,59.16,0,88.74,0c4.486,0,17.34-2.309,17.34,4.791
				c0,7.267,0,14.53,0,21.796c0,30.432,0,60.861,0,91.293C341.562,259.144,341.562,283.561,341.562,307.979c0,3.225,5,3.225,5,0
				c0-49.831,0-99.658,0-149.487c0-10.454,0-20.907,0-31.361c0-6.64,0.076-15.285-9.232-15.285c-25.001,0-50.004,0-75.005,0
				c-12.23,0-24.459,0-36.689,0c-3.253,0-6.076-0.186-9.076,1.443c-3.433,1.863-4.084,5.766-4.084,9.262c0,22.535,0,45.071,0,67.606
				c0,30.803,0,61.604,0,92.408c0,7.957,0,15.914,0,23.871c0,4.122,1.318,7.553,5.18,9.646c2.347,1.274,5.797,0.85,8.391,0.85
				c23.556,0,47.111,0,70.667,0c10.976,0,21.948,0,32.924,0c7.265,0,15.939,0.815,16.927-8.953
				C346.886,304.771,341.883,304.803,341.562,307.979z"/>
		</g>
	</g>
	<g>
		<path fill="#FFFFFF" d="M349.2,333.451c0,3.848-3.119,6.969-6.969,6.969h-125.43c-3.848,0-6.968-3.121-6.968-6.969V131.37
			c0-3.849,3.12-6.969,6.968-6.969h125.43c3.85,0,6.969,3.12,6.969,6.969V333.451z"/>
		<g>
			<path d="M346.7,333.451c-0.471,5.241-5.514,4.469-9.172,4.469c-4.901,0-9.807,0-14.709,0c-15.265,0-30.526,0-45.792,0
				c-14.799,0-29.598,0-44.397,0c-4.202,0-20.297,2.499-20.297-4.631c0-50.527,0-101.057,0-151.583c0-12.092,0-24.185,0-36.276
				c0-3.493,0-6.985,0-10.479c0-1.938-0.253-4.017,0.61-5.835c1.409-2.967,6.338-2.213,8.979-2.213c5.014,0,10.027,0,15.041,0
				c15.345,0,30.691,0,46.037,0c14.693,0,29.391,0,44.086,0c4.275,0,19.613-2.44,19.613,4.701c0,18.78,0,37.562,0,56.342
				C346.7,236.446,346.7,284.949,346.7,333.451c0,3.225,5,3.225,5,0c0-49.104,0-98.208,0-147.311c0-18.224,0-36.444,0-54.666
				c0-10.688-11.197-9.573-18.484-9.573c-13.45,0-26.899,0-40.352,0c-25.136,0-50.271,0-75.407,0
				c-8.706,0-10.124,7.173-10.124,13.968c0,9.275,0,18.552,0,27.827c0,55.085,0,110.17,0,165.256
				c0,6.795,1.418,13.968,10.124,13.968c9.177,0,18.354,0,27.532,0c29.409,0,58.817,0,88.227,0c7.737,0,17.537,1.104,18.484-9.469
				C351.987,330.238,346.985,330.267,346.7,333.451z"/>
		</g>
	</g>
	<g>
		<g>
			<path d="M327.571,164.241c-0.328,8.546-6.683,14.899-15.229,15.229c-8.54,0.328-14.919-7.181-15.229-15.229
				c-0.33-8.54,7.18-14.918,15.229-15.229C320.885,148.683,327.264,156.192,327.571,164.241c0.125,3.213,5.125,3.226,5,0
				c-0.436-11.322-8.904-19.792-20.229-20.229c-11.312-0.436-19.816,9.562-20.229,20.229c-0.437,11.312,9.561,19.817,20.229,20.229
				c11.312,0.437,19.815-9.562,20.229-20.229C332.696,161.015,327.696,161.028,327.571,164.241z"/>
		</g>
	</g>
	<g>
		<g>
			<path d="M277.017,150.827c0,34.78,0,69.56,0,104.339c0,3.225,5,3.225,5,0c0-34.779,0-69.559,0-104.339
				C282.018,147.601,277.017,147.601,277.017,150.827L277.017,150.827z"/>
		</g>
	</g>
	<g>
		<g>
			<path d="M256.112,150.827c0,34.78,0,69.56,0,104.339c0,3.225,5,3.225,5,0c0-34.779,0-69.559,0-104.339
				C261.112,147.601,256.112,147.601,256.112,150.827L256.112,150.827z"/>
		</g>
	</g>
	<g>
		<g>
			<path d="M233.465,150.827c0,34.78,0,69.56,0,104.339c0,3.225,5,3.225,5,0c0-34.779,0-69.559,0-104.339
				C238.465,147.601,233.465,147.601,233.465,150.827L233.465,150.827z"/>
		</g>
	</g>
	<g>
		<path fill="#FFFFFF" d="M331.375,199.394c-4.244,0-10.83,0-17.589,0c0.004,0.192,0.016,0.387,0.016,0.582
			c0,18.922-15.339,34.262-34.261,34.262s-34.261-15.34-34.261-34.262c0-0.194,0.011-0.388,0.015-0.582c-7.011,0-13.075,0-16.426,0
			c-19.577,0-31.209,8.188-31.209,23.799c0,6.486,0,50.445,0,82.35c0,0,0,14.719,0,33.709c0,31.904,0,75.865,0,82.353
			c0,15.608,11.633,23.799,31.209,23.799c12.079,0,90.427,0,102.507,0c19.575,0,31.209-8.188,31.209-23.799
			c0-6.485,0-50.446,0-82.353c0-18.99,0-33.709,0-33.709c0-31.905,0-75.864,0-82.35C362.584,207.582,350.95,199.394,331.375,199.394
			z"/>
		<g>
			<path d="M331.375,196.894c-5.862,0-11.728,0-17.589,0c-1.338,0-2.533,1.137-2.5,2.5c0.447,17.797-14.299,31.998-31.746,32.343
				c-17.466,0.345-32.181-15.065-31.746-32.343c0.034-1.363-1.163-2.5-2.5-2.5c-17.973,0-45.151-2.156-49.664,20.95
				c-1.257,6.438-0.472,13.675-0.472,20.188c0,11.663,0,23.326,0,34.989c0,45.986,0,91.974,0,137.961
				c0,6.684-0.649,13.746,1.602,20.146c2.947,8.382,10.705,13.15,18.919,15.312c6.743,1.772,13.824,1.457,20.735,1.457
				c7.473,0,14.946,0,22.419,0c18.173,0,36.346,0,54.519,0c13.87,0,31.149,2.312,42.735-6.777
				c6.539-5.131,8.996-12.527,8.996-20.634c0-7.864,0-15.729,0-23.595c0-26.097,0-52.188,0-78.283c0-21.26,0-42.519,0-63.777
				c0-9.239,0-18.479,0-27.721c0-7.097-0.465-14.198-5.285-19.884C352.818,198.999,341.646,197.007,331.375,196.894
				c-3.228-0.036-3.224,4.964,0,5c10.335,0.114,22.887,2.36,27.284,13.098c2.527,6.167,1.425,14.326,1.425,20.865
				c0,23.297,0,46.595,0,69.893c0,23.051,0,46.104,0,69.152c0,11.346,0,22.689,0,34.036c0,6.791,0.858,14.373-1.425,20.862
				c-5.656,16.096-29.03,13.101-42.627,13.101c-17.989,0-35.982,0-53.975,0c-7.836,0-15.672,0-23.508,0
				c-6.768,0-13.621,0.316-20.292-0.992c-10.688-2.101-17.881-9.211-18.101-20.307c-0.137-6.933,0-13.878,0-20.811
				c0-41.54,0-83.08,0-124.62c0-17.431,0-34.86,0-52.291c0-24.418,27.848-21.989,45.136-21.989c-0.833-0.832-1.667-1.666-2.5-2.5
				c-0.517,20.538,16.648,36.946,36.746,37.344c20.118,0.396,37.248-17.402,36.745-37.344c-0.832,0.834-1.666,1.668-2.5,2.5
				c5.863,0,11.728,0,17.589,0C334.6,201.894,334.6,196.894,331.375,196.894z"/>
		</g>
	</g>
	<g>
		<g>
			<path d="M210,245.111c0,29.434,0,58.868,0,88.302c0,20.62,0,41.24,0,61.86c0,6.778-0.928,14.483,1.514,20.938
				c3.208,8.479,12.234,12.406,20.696,13.284c14.781,1.533,30.211,0.334,45.047,0.334c14.856,0,29.714,0,44.571,0
				c8.746,0,19.168-1.801,24.605-9.454c4.271-6.01,3.811-13.015,3.811-20.011c0-21.896,0-43.789,0-65.686
				c0-20.393,0-40.782,0-61.177c0-3.224-5-3.224-5,0c0,37.724,0,75.445,0,113.167c0,7.449,0.15,14.916-0.028,22.362
				c-0.303,12.403-13.181,15.797-23.388,15.797c-14.856,0-29.715,0-44.571,0c-8.731,0-17.462,0-26.193,0
				c-6.445,0-13.158,0.446-19.554-0.432c-10.428-1.435-16.51-7.693-16.51-18.22c0-8.816,0-17.638,0-26.457c0-36.79,0-73.58,0-110.37
				c0-8.081,0-16.161,0-24.242C215,241.886,210,241.886,210,245.111L210,245.111z"/>
		</g>
	</g>
	<g>
		<g>
			<path d="M347.743,257.666c3.226,0,3.226-5,0-5C344.519,252.666,344.52,257.666,347.743,257.666L347.743,257.666z"/>
		</g>
	</g>
</g>
</svg>
