<?xml version="1.0" encoding="utf-8"?>
<!-- Generator: Adobe Illustrator 16.0.0, SVG Export Plug-In . SVG Version: 6.00 Build 0)  -->
<!DOCTYPE svg PUBLIC "-//W3C//DTD SVG 1.1//EN" "http://www.w3.org/Graphics/SVG/1.1/DTD/svg11.dtd">
<svg version="1.1" id="Layer_1" xmlns="http://www.w3.org/2000/svg" xmlns:xlink="http://www.w3.org/1999/xlink" x="0px" y="0px"
	 width="560px" height="560px" viewBox="-999.5 400.5 560 560" enable-background="new -999.5 400.5 560 560" xml:space="preserve">
<g>
	<g>
		<path fill="#FFFFFF" d="M-654.095,712.069c0,3.564-2.892,6.455-6.455,6.455h-116.179c-3.564,0-6.454-2.891-6.454-6.455V524.891
			c0-3.563,2.89-6.453,6.454-6.453h116.179c3.563,0,6.455,2.89,6.455,6.453V712.069z"/>
		<g>
			<path d="M-656.595,712.069c-0.499,4.948-6.048,3.955-9.448,3.955c-5.311,0-10.622,0-15.934,0c-15.689,0-31.379,0-47.068,0
				c-13.414,0-26.827,0-40.24,0c-2.466,0-4.932,0-7.398,0c-4.394,0-4-4.124-4-6.936c0-54.08,0-108.159,0-162.241
				c0-7.087,0-14.175,0-21.263c0-7.01,13.679-4.647,18.009-4.647c29.58,0,59.16,0,88.74,0c4.486,0,17.339-2.309,17.339,4.791
				c0,7.266,0,14.53,0,21.795c0,30.432,0,60.862,0,91.293C-656.595,663.234-656.595,687.652-656.595,712.069c0,3.224,5,3.224,5,0
				c0-49.829,0-99.657,0-149.485c0-10.454,0-20.907,0-31.361c0-6.64,0.075-15.285-9.234-15.285c-25.001,0-50.003,0-75.004,0
				c-12.23,0-24.46,0-36.689,0c-3.253,0-6.076-0.186-9.076,1.442c-3.433,1.864-4.084,5.767-4.084,9.263c0,22.534,0,45.07,0,67.605
				c0,30.802,0,61.605,0,92.408c0,7.957,0,15.912,0,23.87c0,4.122,1.318,7.553,5.18,9.648c2.347,1.274,5.797,0.85,8.391,0.85
				c23.556,0,47.111,0,70.667,0c10.975,0,21.949,0,32.924,0c7.264,0,15.939,0.815,16.926-8.955
				C-651.271,708.861-656.273,708.893-656.595,712.069z"/>
		</g>
	</g>
	<g>
		<path fill="#FFFFFF" d="M-648.956,737.542c0,3.849-3.12,6.969-6.968,6.969h-125.43c-3.849,0-6.969-3.12-6.969-6.969V535.461
			c0-3.85,3.12-6.969,6.969-6.969h125.43c3.848,0,6.968,3.119,6.968,6.969V737.542z"/>
		<g>
			<path d="M-651.456,737.542c-0.47,5.241-5.512,4.469-9.17,4.469c-4.903,0-9.806,0-14.709,0c-15.265,0-30.527,0-45.791,0
				c-14.799,0-29.598,0-44.397,0c-4.202,0-20.298,2.499-20.298-4.631c0-50.528,0-101.056,0-151.583c0-12.093,0-24.186,0-36.277
				c0-3.492,0-6.985,0-10.479c0-1.938-0.253-4.018,0.61-5.835c1.409-2.967,6.339-2.213,8.979-2.213c5.014,0,10.027,0,15.041,0
				c15.346,0,30.691,0,46.036,0c14.695,0,29.392,0,44.085,0c4.277,0,19.615-2.44,19.615,4.702c0,18.779,0,37.561,0,56.341
				C-651.456,640.537-651.456,689.039-651.456,737.542c0,3.224,5,3.224,5,0c0-49.104,0-98.207,0-147.312c0-18.222,0-36.443,0-54.666
				c0-10.686-11.196-9.572-18.483-9.572c-13.451,0-26.901,0-40.352,0c-25.136,0-50.271,0-75.407,0
				c-8.706,0-10.124,7.173-10.124,13.968c0,9.276,0,18.551,0,27.827c0,55.085,0,110.17,0,165.255
				c0,6.795,1.418,13.968,10.124,13.968c9.177,0,18.354,0,27.532,0c29.409,0,58.816,0,88.227,0c7.737,0,17.537,1.104,18.484-9.469
				C-646.168,734.329-651.17,734.357-651.456,737.542z"/>
		</g>
	</g>
	<g>
		<g>
			<path d="M-670.584,568.332c-0.329,8.546-6.682,14.9-15.229,15.229c-8.541,0.33-14.918-7.18-15.229-15.229
				c-0.329-8.54,7.179-14.918,15.229-15.229C-677.273,552.775-670.895,560.283-670.584,568.332c0.124,3.213,5.124,3.227,5,0
				c-0.436-11.322-8.906-19.792-20.229-20.229c-11.313-0.437-19.818,9.56-20.229,20.229c-0.437,11.312,9.56,19.818,20.229,20.229
				c11.312,0.437,19.817-9.561,20.229-20.229C-665.46,565.105-670.46,565.119-670.584,568.332z"/>
		</g>
	</g>
	<g>
		<g>
			<path d="M-721.139,554.918c0,34.78,0,69.559,0,104.339c0,3.224,5,3.224,5,0c0-34.78,0-69.559,0-104.339
				C-716.139,551.693-721.139,551.693-721.139,554.918L-721.139,554.918z"/>
		</g>
	</g>
	<g>
		<g>
			<path d="M-742.044,554.918c0,34.78,0,69.559,0,104.339c0,3.224,5,3.224,5,0c0-34.78,0-69.559,0-104.339
				C-737.044,551.693-742.044,551.693-742.044,554.918L-742.044,554.918z"/>
		</g>
	</g>
	<g>
		<g>
			<path d="M-764.691,554.918c0,34.78,0,69.559,0,104.339c0,3.224,5,3.224,5,0c0-34.78,0-69.559,0-104.339
				C-759.691,551.693-764.691,551.693-764.691,554.918L-764.691,554.918z"/>
		</g>
	</g>
	<g>
		<path fill="#FFFFFF" d="M-666.781,603.484c-4.244,0-10.83,0-17.589,0c0.003,0.195,0.015,0.388,0.015,0.584
			c0,18.922-15.338,34.261-34.261,34.261c-18.922,0-34.261-15.339-34.261-34.261c0-0.195,0.011-0.389,0.015-0.584
			c-7.011,0-13.075,0-16.426,0c-19.577,0-31.21,8.188-31.21,23.8c0,6.485,0,50.446,0,82.35c0,0,0,14.719,0,33.709
			c0,31.904,0,75.864,0,82.352c0,15.61,11.633,23.799,31.21,23.799c12.078,0,90.427,0,102.507,0
			c19.575,0,31.209-8.188,31.209-23.799c0-6.486,0-50.447,0-82.352c0-18.989,0-33.709,0-33.709c0-31.903,0-75.864,0-82.35
			C-635.573,611.673-647.206,603.484-666.781,603.484z"/>
		<g>
			<path d="M-666.781,600.984c-5.863,0-11.726,0-17.589,0c-1.337,0-2.534,1.138-2.5,2.5c0.448,17.798-14.298,32-31.746,32.344
				c-17.466,0.345-32.181-15.064-31.746-32.344c0.034-1.362-1.163-2.5-2.5-2.5c-17.973,0-45.151-2.155-49.664,20.953
				c-1.257,6.438-0.472,13.674-0.472,20.188c0,11.663,0,23.326,0,34.989c0,45.986,0,91.974,0,137.96
				c0,6.684-0.649,13.747,1.602,20.148c2.947,8.382,10.705,13.149,18.919,15.312c6.743,1.773,13.824,1.457,20.735,1.457
				c7.473,0,14.946,0,22.419,0c18.173,0,36.347,0,54.52,0c13.868,0,31.148,2.313,42.735-6.777
				c6.539-5.131,8.995-12.526,8.995-20.634c0-7.865,0-15.729,0-23.595c0-26.095,0-52.188,0-78.283c0-21.26,0-42.518,0-63.775
				c0-9.24,0-18.48,0-27.722c0-7.097-0.464-14.198-5.284-19.883C-645.339,603.09-656.51,601.1-666.781,600.984
				c-3.226-0.035-3.222,4.965,0,5c10.334,0.115,22.887,2.361,27.285,13.099c2.526,6.167,1.423,14.326,1.423,20.865
				c0,23.297,0,46.595,0,69.893c0,23.051,0,46.103,0,69.153c0,11.345,0,22.689,0,34.036c0,6.79,0.859,14.373-1.423,20.864
				c-5.658,16.094-29.031,13.099-42.626,13.099c-17.992,0-35.983,0-53.975,0c-7.836,0-15.672,0-23.508,0
				c-6.768,0-13.621,0.317-20.292-0.992c-10.688-2.1-17.881-9.211-18.101-20.307c-0.137-6.932,0-13.878,0-20.811
				c0-41.54,0-83.079,0-124.618c0-17.431,0-34.86,0-52.291c0-24.418,27.848-21.99,45.136-21.99c-0.833-0.832-1.667-1.666-2.5-2.5
				c-0.517,20.539,16.648,36.947,36.746,37.344c20.118,0.396,37.248-17.402,36.746-37.344c-0.833,0.834-1.667,1.668-2.5,2.5
				c5.863,0,11.726,0,17.589,0C-663.557,605.984-663.557,600.984-666.781,600.984z"/>
		</g>
	</g>
	<g>
		<g>
			<path d="M-788.157,649.202c0,29.434,0,58.868,0,88.302c0,20.62,0,41.24,0,61.86c0,6.779-0.928,14.483,1.514,20.938
				c3.208,8.479,12.234,12.407,20.697,13.285c14.781,1.533,30.211,0.334,45.045,0.334c14.857,0,29.715,0,44.571,0
				c8.748,0,19.168-1.802,24.606-9.455c4.271-6.01,3.811-13.015,3.811-20.011c0-21.895,0-43.789,0-65.683
				c0-20.393,0-40.786,0-61.177c0-3.225-5-3.225-5,0c0,37.722,0,75.443,0,113.166c0,7.448,0.151,14.916-0.029,22.362
				c-0.303,12.402-13.18,15.798-23.388,15.798c-14.856,0-29.714,0-44.571,0c-8.73,0-17.461,0-26.192,0
				c-6.444,0-13.158,0.446-19.553-0.433c-10.428-1.433-16.511-7.693-16.511-18.218c0-8.819,0-17.639,0-26.457
				c0-36.79,0-73.58,0-110.371c0-8.08,0-16.161,0-24.242C-783.157,645.979-788.157,645.979-788.157,649.202L-788.157,649.202z"/>
		</g>
	</g>
	<g>
		<g>
			<path d="M-650.413,661.757c3.224,0,3.224-5,0-5S-653.637,661.757-650.413,661.757L-650.413,661.757z"/>
		</g>
	</g>
</g>
</svg>
