<?xml version="1.0" encoding="utf-8"?>
<!-- Generator: Adobe Illustrator 16.0.0, SVG Export Plug-In . SVG Version: 6.00 Build 0)  -->
<!DOCTYPE svg PUBLIC "-//W3C//DTD SVG 1.1//EN" "http://www.w3.org/Graphics/SVG/1.1/DTD/svg11.dtd">
<svg version="1.1" id="Layer_1" xmlns="http://www.w3.org/2000/svg" xmlns:xlink="http://www.w3.org/1999/xlink" x="0px" y="0px"
	 width="560px" height="560px" viewBox="-999.5 400.5 560 560" enable-background="new -999.5 400.5 560 560" xml:space="preserve">
<g>
	<g>
		<g>
			<path fill="#231F20" d="M-691.771,782.402c-0.485,5.972-5.318,6.004-9.668,6.004c-4.176,0-8.352,0-12.527,0
				c-14.078,0-28.155,0-42.233,0c-28.09,0-56.18,0-84.27,0c-2.224,0-4.447,0-6.67,0c-5.246,0-6.144-4.465-6.144-8.437
				c0-9.813,0-19.629,0-29.443c0-30.983,0-61.966,0-92.949c0-8.043,0-16.086,0-24.128c0-8.623,11.691-6.559,17.356-6.559
				c29.46,0,58.92,0,88.38,0c12.991,0,25.982,0,38.973,0c5.763,0,16.804-1.972,16.804,6.703c0,23.522,0,47.045,0,70.567
				C-691.771,730.242-691.771,756.322-691.771,782.402c0,3.224,5,3.224,5,0c0-48.126,0-96.254,0-144.381c0-1.709,0-3.418,0-5.127
				c0-6.498-5.5-11.004-11.701-11.004c-8.25,0-16.5,0-24.75,0c-31.003,0-62.007,0-93.011,0c-9.628,0-19.257,0-28.885,0
				c-8.601,0-13.165,5.416-13.165,13.721c0,25.839,0,51.677,0,77.515c0,22.95,0,45.9,0,68.851c0,10.396,9.111,11.43,16.946,11.43
				c11.534,0,23.068,0,34.602,0c25.972,0,51.944,0,77.916,0c8.64,0,17.279,0,25.917,0c1.637,0,3.272,0,4.909,0
				c6.406,0,10.726-4.898,11.222-11.004C-686.509,779.188-691.511,779.212-691.771,782.402z"/>
		</g>
	</g>
	<g>
		<g>
			<path fill="#231F20" d="M-682.098,618.684c-9.101,3.566-18.108,3.207-27.596,3.207c-13.25,0-26.501,0-39.752,0
				c-29.192,0-58.384,0-87.577,0c-3.074,0-6.147,0-9.22,0c-2.304,0,1.059,0.178-1.842,2.023c0.801-0.51,1.794-0.827,2.664-1.193
				c10.691-4.498,21.383-8.996,32.074-13.494c14.623-6.152,29.245-12.306,43.867-18.459c8.355-3.516,16.813-7.902,25.665-10.05
				c7.741-1.877,16.132-1.196,24.034-1.196c13.854,0,27.709,0,41.563,0c28.431,0,56.862,0,85.293,0c2.393,0,4.786,0,7.178,0
				c1.235,0,2.532-2.444,0.451-1.568c-0.784,0.33-1.567,0.66-2.351,0.988c-10.493,4.416-20.987,8.83-31.48,13.246
				C-640.116,601.02-661.105,609.852-682.098,618.684c-2.924,1.229-1.642,6.07,1.33,4.82c22.438-9.441,44.879-18.883,67.317-28.324
				c9.623-4.049,19.246-8.097,28.868-12.146c1.438-0.604,3.097-1.097,4.196-2.228c2.71-2.785,0.798-5.552-2.593-6.128
				c-2.11-0.358-4.45-0.157-6.58-0.157c-48.368,0-96.735,0-145.104,0c-10.514,0-19.774,4.537-29.201,8.504
				c-13.935,5.863-27.869,11.726-41.803,17.589c-12.46,5.243-24.921,10.485-37.381,15.729c-2.528,1.063-5.081,2.082-7.561,3.255
				c-2.068,0.979-4.627,4.992-1.336,6.389c1.699,0.72,3.385,0.906,5.218,0.906c48.84,0,97.68,0,146.52,0
				c6.631,0,13.229-0.955,19.438-3.388C-677.801,622.342-679.091,617.505-682.098,618.684z"/>
		</g>
	</g>
	<g>
		<g>
			<path fill="#231F20" d="M-691.771,736.163c-0.662,8.131-12.082,6.004-17.686,6.004c-7.376,0-14.752,0-22.128,0
				c-5.05,0-9.115-1.755-9.115-7.493c0-4.215,0-8.431,0-12.646c0-28.046,0-56.093,0-84.14c0-4.408,0.043-9.865,6.311-9.865
				c6.051,0,12.103,0,18.155,0c6.051,0,12.103,0,18.153,0c6.267,0,6.312,5.457,6.312,9.865c0,28.047,0,56.094,0,84.14
				C-691.771,726.74-691.771,731.452-691.771,736.163c0,3.224,5,3.224,5,0c0-24.422,0-48.845,0-73.269c0-9.555,0-19.108,0-28.664
				c0-15.166-21.865-11.207-31.438-11.207c-9.872,0-27.49-3.024-27.49,11.803c0,10.583,0,21.167,0,31.751c0,15.897,0,31.794,0,47.69
				c0,5.571,0,11.144,0,16.715c0,2.923-0.387,6.381,0.777,9.121c2.372,5.588,7.238,7.062,12.782,7.062c5.96,0,11.92,0,17.881,0
				c9.883,0,26.346,3.062,27.49-11.004C-686.509,732.947-691.511,732.973-691.771,736.163z"/>
		</g>
	</g>
	<g>
		<path d="M-576.445,586.128c0.087-4.676-3.378-7.039-7.699-5.25l-97.27,40.261c-4.322,1.789-7.857,7.079-7.857,11.756v140.357
			c0,4.677,1.511,9.799,3.356,11.382c1.847,1.583,6.776,1.161,10.957-0.937l90.67-45.516c4.18-2.098,7.601-7.642,7.601-12.318
			V607.701c0-4.678,0.07-12.33,0.157-17.006L-576.445,586.128z"/>
		<g>
			<path fill="#231F20" d="M-573.945,586.128c-0.804-13.771-14.69-6.077-21.82-3.125c-13.789,5.708-27.579,11.415-41.368,17.123
				c-12.804,5.299-25.606,10.599-38.409,15.897c-8.124,3.362-16.229,7.164-16.229,17.617c0,46.524,0,93.05,0,139.575
				c0,4.124,0.848,8.525,3.098,12.028c2.449,3.815,7.833,2.993,11.525,2.012c2.926-0.777,5.844-2.599,8.537-3.952
				c12.086-6.065,24.17-12.132,36.254-18.198c13.225-6.639,26.448-13.277,39.672-19.915c8.399-4.217,18.498-8.143,18.498-19.503
				C-574.188,679.182-574.811,632.629-573.945,586.128c0.061-3.226-4.939-3.22-5,0c-0.451,24.229-0.242,48.476-0.242,72.709
				c0,15.554,0,31.108,0,46.662c0,5.132,0,10.264,0,15.396c0,3.682,0.217,6.757-1.529,10.218c-1.99,3.945-5.83,5.413-9.489,7.249
				c-5.001,2.511-10.002,5.021-15.004,7.531c-14.211,7.135-28.422,14.269-42.634,21.401c-9.275,4.656-18.551,9.312-27.825,13.968
				c-2.321,1.165-7.419,3.437-9.256,0.575c-1.65-2.569-1.847-6.211-1.847-9.174c0-2.879,0-5.757,0-8.636c0-29.258,0-58.514,0-87.771
				c0-12.201,0-24.4,0-36.602c0-2.225,0-4.45,0-6.674c0-5.623,4.27-8.705,8.812-10.586c18.04-7.467,36.079-14.934,54.119-22.4
				c9.595-3.971,19.19-7.943,28.785-11.915c2.928-1.212,5.855-2.424,8.783-3.636c2.692-1.113,7.032-3.336,7.326,1.685
				C-578.758,589.333-573.757,589.352-573.945,586.128z"/>
		</g>
	</g>
	<g>
		<g>
			<path fill="#231F20" d="M-742.736,739.995c-36.773,15.036-73.547,30.072-110.32,45.106c-2.942,1.203-1.656,6.042,1.329,4.821
				c36.773-15.036,73.547-30.072,110.32-45.106C-738.464,743.613-739.75,738.774-742.736,739.995L-742.736,739.995z"/>
		</g>
	</g>
</g>
</svg>
