<?xml version="1.0" encoding="utf-8"?>
<!-- Generator: Adobe Illustrator 16.0.0, SVG Export Plug-In . SVG Version: 6.00 Build 0)  -->
<!DOCTYPE svg PUBLIC "-//W3C//DTD SVG 1.1//EN" "http://www.w3.org/Graphics/SVG/1.1/DTD/svg11.dtd">
<svg version="1.1" id="Layer_1" xmlns="http://www.w3.org/2000/svg" xmlns:xlink="http://www.w3.org/1999/xlink" x="0px" y="0px"
	 width="560px" height="560px" viewBox="0 0 560 560" enable-background="new 0 0 560 560" xml:space="preserve">
<g>
	<g>
		<path fill="#FFFFFF" d="M306.841,378.467c0,4.678-3.826,8.504-8.504,8.504H148.833c-4.677,0-8.504-3.826-8.504-8.504V228.959
			c0-4.677,3.827-8.504,8.504-8.504h149.506c4.677,0,8.504,3.827,8.504,8.504v149.507H306.841z"/>
		<g>
			<path fill="#231F20" d="M304.341,378.467c-0.485,5.973-5.318,6.004-9.668,6.004c-4.176,0-8.352,0-12.526,0
				c-14.079,0-28.157,0-42.233,0c-28.09,0-56.18,0-84.27,0c-2.224,0-4.447,0-6.67,0c-5.246,0-6.144-4.465-6.144-8.436
				c0-9.814,0-19.63,0-29.444c0-30.982,0-61.967,0-92.949c0-8.043,0-16.085,0-24.128c0-8.623,11.691-6.558,17.356-6.558
				c29.46,0,58.92,0,88.38,0c12.991,0,25.982,0,38.973,0c5.762,0,16.803-1.972,16.803,6.702c0,23.523,0,47.045,0,70.567
				C304.341,326.306,304.341,352.387,304.341,378.467c0,3.226,5,3.226,5,0c0-48.127,0-96.254,0-144.38c0-1.709,0-3.418,0-5.127
				c0-6.498-5.5-11.004-11.701-11.004c-8.25,0-16.5,0-24.75,0c-31.003,0-62.007,0-93.011,0c-9.628,0-19.257,0-28.885,0
				c-8.601,0-13.165,5.416-13.165,13.721c0,25.838,0,51.675,0,77.514c0,22.95,0,45.899,0,68.852
				c0,10.396,9.111,11.429,16.946,11.429c11.534,0,23.068,0,34.602,0c25.972,0,51.944,0,77.916,0c8.64,0,17.279,0,25.918,0
				c1.637,0,3.272,0,4.91,0c6.404,0,10.725-4.897,11.221-11.004C309.604,375.251,304.602,375.276,304.341,378.467z"/>
		</g>
	</g>
	<g>
		<path fill="#FFFFFF" d="M314.681,217.158c-4.312,1.814-11.666,3.298-16.344,3.298H148.833c-4.677,0-4.977-1.484-0.666-3.298
			l96.906-40.773c4.311-1.814,11.665-3.298,16.342-3.298h149.506c4.677,0,4.977,1.484,0.666,3.298L314.681,217.158z"/>
		<g>
			<path fill="#231F20" d="M314.017,214.747c-9.102,3.566-18.109,3.208-27.598,3.208c-13.251,0-26.502,0-39.753,0
				c-29.192,0-58.384,0-87.577,0c-3.074,0-6.147,0-9.22,0c-2.304,0,1.059,0.178-1.842,2.023c0.801-0.51,1.794-0.827,2.664-1.193
				c10.691-4.499,21.383-8.997,32.074-13.495c14.623-6.152,29.245-12.305,43.867-18.457c8.355-3.516,16.813-7.903,25.665-10.051
				c7.741-1.877,16.132-1.196,24.034-1.196c13.854,0,27.709,0,41.563,0c28.432,0,56.862,0,85.293,0c2.394,0,4.786,0,7.179,0
				c1.235,0,2.532-2.445,0.452-1.569c-0.784,0.33-1.567,0.66-2.352,0.989c-10.493,4.415-20.986,8.83-31.479,13.245
				C355.997,197.083,335.007,205.915,314.017,214.747c-2.926,1.23-1.643,6.071,1.328,4.821
				c22.438-9.441,44.879-18.883,67.318-28.324c9.622-4.049,19.245-8.097,28.867-12.146c1.438-0.604,3.098-1.097,4.195-2.227
				c2.71-2.787,0.798-5.552-2.593-6.128c-2.11-0.359-4.45-0.157-6.58-0.157c-48.367,0-96.735,0-145.104,0
				c-10.514,0-19.774,4.537-29.201,8.503c-13.935,5.863-27.869,11.726-41.803,17.589c-12.46,5.243-24.921,10.485-37.381,15.729
				c-2.528,1.063-5.081,2.082-7.561,3.255c-2.068,0.978-4.627,4.992-1.336,6.388c1.699,0.72,3.385,0.906,5.218,0.906
				c48.84,0,97.68,0,146.52,0c6.631,0,13.231-0.954,19.438-3.387C318.312,218.406,317.022,213.569,314.017,214.747z"/>
		</g>
	</g>
	<g>
		<path fill="#FFFFFF" d="M306.841,332.227c0,4.677-3.826,8.504-8.504,8.504h-36.921c-4.677,0-8.504-3.827-8.504-8.504V230.093
			c0-4.677,3.827-8.504,8.504-8.504h36.923c4.677,0,8.504,3.827,8.504,8.504v102.134H306.841z"/>
		<g>
			<path fill="#231F20" d="M304.341,332.227c-0.66,8.131-12.082,6.004-17.687,6.004c-7.375,0-14.752,0-22.128,0
				c-5.05,0-9.115-1.755-9.115-7.493c0-4.215,0-8.431,0-12.646c0-28.047,0-56.092,0-84.139c0-4.408,0.043-9.864,6.311-9.864
				c6.051,0,12.103,0,18.154,0c6.053,0,12.104,0,18.154,0c6.268,0,6.311,5.456,6.311,9.864c0,28.047,0,56.092,0,84.139
				C304.341,322.804,304.341,327.516,304.341,332.227c0,3.225,5,3.225,5,0c0-24.424,0-48.846,0-73.268c0-9.555,0-19.109,0-28.664
				c0-15.166-21.864-11.207-31.439-11.207c-9.872,0-27.49-3.025-27.49,11.802c0,10.583,0,21.167,0,31.751c0,15.897,0,31.793,0,47.69
				c0,5.572,0,11.145,0,16.715c0,2.923-0.387,6.381,0.777,9.122c2.372,5.587,7.238,7.062,12.782,7.062c5.96,0,11.92,0,17.881,0
				c9.883,0,26.346,3.062,27.49-11.004C309.604,329.011,304.602,329.036,304.341,332.227z"/>
		</g>
	</g>
	<g>
		<path d="M419.667,182.193c0.088-4.676-3.378-7.039-7.698-5.25l-97.27,40.26c-4.321,1.789-7.856,7.079-7.856,11.756v140.358
			c0,4.677,1.511,9.799,3.355,11.382c1.846,1.583,6.776,1.161,10.957-0.938l90.67-45.515c4.181-2.099,7.601-7.643,7.601-12.319
			v-118.16c0-4.677,0.07-12.33,0.157-17.006L419.667,182.193z"/>
		<g>
			<path fill="#231F20" d="M422.167,182.193c-0.805-13.771-14.689-6.077-21.819-3.125c-13.79,5.708-27.579,11.415-41.368,17.123
				c-12.803,5.299-25.605,10.598-38.409,15.897c-8.123,3.362-16.228,7.164-16.228,17.616c0,46.526,0,93.05,0,139.576
				c0,4.124,0.847,8.524,3.097,12.027c2.45,3.816,7.834,2.992,11.524,2.013c2.929-0.777,5.846-2.601,8.539-3.951
				c12.084-6.066,24.17-12.133,36.254-18.199c13.225-6.639,26.447-13.275,39.673-19.915c8.398-4.216,18.496-8.142,18.496-19.503
				C421.925,275.245,421.312,228.695,422.167,182.193c0.061-3.226-4.939-3.22-5,0c-0.444,24.231-0.241,48.476-0.241,72.709
				c0,15.554,0,31.108,0,46.661c0,5.133,0,10.265,0,15.396c0,3.682,0.217,6.756-1.528,10.217c-1.991,3.946-5.829,5.413-9.488,7.25
				c-5.002,2.511-10.003,5.021-15.004,7.531c-14.212,7.134-28.423,14.269-42.635,21.401c-9.273,4.655-18.549,9.312-27.824,13.968
				c-2.32,1.165-7.419,3.437-9.257,0.575c-1.649-2.569-1.847-6.211-1.847-9.174c0-2.88,0-5.758,0-8.637c0-29.258,0-58.515,0-87.771
				c0-12.201,0-24.401,0-36.602c0-2.225,0-4.45,0-6.674c0-5.622,4.27-8.705,8.812-10.585c18.04-7.467,36.079-14.934,54.119-22.4
				c9.595-3.972,19.188-7.943,28.785-11.915c2.928-1.212,5.854-2.424,8.783-3.636c2.691-1.114,7.031-3.336,7.324,1.685
				C417.354,185.396,422.355,185.416,422.167,182.193z"/>
		</g>
	</g>
	<g>
		<line fill="none" x1="254.041" y1="338.469" x2="143.72" y2="383.577"/>
		<g>
			<path fill="#231F20" d="M253.376,336.057c-36.773,15.036-73.547,30.072-110.32,45.108c-2.942,1.203-1.656,6.043,1.329,4.822
				c36.773-15.036,73.547-30.072,110.32-45.108C257.648,339.677,256.361,334.837,253.376,336.057L253.376,336.057z"/>
		</g>
	</g>
</g>
</svg>
