<?xml version="1.0" encoding="utf-8"?>
<!-- Generator: Adobe Illustrator 16.0.0, SVG Export Plug-In . SVG Version: 6.00 Build 0)  -->
<!DOCTYPE svg PUBLIC "-//W3C//DTD SVG 1.1//EN" "http://www.w3.org/Graphics/SVG/1.1/DTD/svg11.dtd">
<svg version="1.1" id="Layer_1" xmlns="http://www.w3.org/2000/svg" xmlns:xlink="http://www.w3.org/1999/xlink" x="0px" y="0px"
	 width="560px" height="560px" viewBox="0 0 560 560" enable-background="new 0 0 560 560" xml:space="preserve">
<g>
	<g>
		<g>
			<path fill="#231F20" d="M255.882,365.025c-3.131-6.78-6.262-13.56-9.394-20.34c-1.026-2.223-3.839-1.138-4.569,0.597
				c-11.412,27.107-31.58,49.28-59.248,60.043c-4.551,1.771-9.243,3.169-13.988,4.312c-2.38,0.574-11.098,0.797-12.179,3.137
				c-3.06,6.624-6.119,13.248-9.179,19.872c-0.704,1.524,0.086,3.979,2.159,3.762c18.92-1.982,37.3-7.195,54.116-16.172
				c22.322-11.916,40.012-30.714,52.282-52.687c1.574-2.818-2.746-5.338-4.317-2.523c-11.962,21.421-28.901,39.099-50.488,50.893
				c-15.848,8.659-33.68,13.613-51.592,15.489c0.72,1.254,1.439,2.508,2.159,3.762c1.599-3.463,3.199-6.925,4.798-10.388
				c1.008-2.183,2.016-4.364,3.024-6.547c0.329-0.711,0.657-1.422,0.985-2.132c0.772-1.671-1.305,0.375,0.291,0.142
				c9.833-1.433,19.371-4.304,28.48-8.249c27.006-11.694,46.262-34.643,57.52-61.383c-1.523,0.198-3.046,0.397-4.569,0.597
				c3.131,6.78,6.262,13.56,9.394,20.34C252.916,370.474,257.225,367.932,255.882,365.025z"/>
		</g>
	</g>
	<g>
		<g>
			<path fill="#231F20" d="M246.489,344.686c-9.037-19.565-18.073-39.13-27.109-58.695c-0.755-1.636-3.562-1.636-4.317,0
				c-19.391,41.982-38.781,83.965-58.172,125.948c-0.128,0.278-0.257,0.557-0.386,0.835c-0.98,2.122,0.6,3.981,2.823,3.673
				c16.022-2.23,31.444-7.843,45.026-16.654c19.579-12.702,33.421-31.883,42.387-53.18c1.25-2.971-3.59-4.254-4.821-1.33
				c-8.803,20.91-22.703,39.2-41.99,51.41c-12.654,8.011-27.139,12.873-41.931,14.932c0.941,1.225,1.882,2.449,2.823,3.673
				c19.391-41.982,38.781-83.965,58.172-125.948c0.128-0.278,0.257-0.557,0.386-0.835c-1.439,0-2.878,0-4.317,0
				c9.037,19.565,18.073,39.13,27.109,58.695C243.522,350.134,247.831,347.592,246.489,344.686z"/>
		</g>
	</g>
	<g>
		<g>
			<path fill="#231F20" d="M251.565,365.025c-15.255,27.318-38.741,48.139-68.247,58.787c-10.615,3.831-21.754,6.265-32.962,7.503
				c-3.845,0.426-4.52,4.555-5.97,7.692c-1.654,3.581-3.308,7.161-4.961,10.742c-0.772,1.672,0.125,3.762,2.159,3.762
				c46.608,0,93.217,0,139.825,0c3.815,0,7.632,0,11.447,0c2.033,0,2.931-2.09,2.159-3.762
				c-13.045-28.241-26.089-56.483-39.133-84.725c-1.351-2.925-5.66-0.383-4.317,2.523c13.044,28.241,26.088,56.483,39.132,84.725
				c0.72-1.254,1.439-2.508,2.159-3.762c-46.608,0-93.217,0-139.825,0c-3.816,0-7.631,0-11.447,0
				c0.72,1.254,1.439,2.508,2.159,3.762c2.633-5.701,5.267-11.403,7.9-17.104c-0.72,0.413-1.439,0.825-2.159,1.238
				c18.92-1.982,37.3-7.195,54.116-16.172c22.322-11.916,40.012-30.714,52.282-52.687
				C257.456,364.73,253.137,362.211,251.565,365.025z"/>
		</g>
	</g>
	<g>
		<g>
			<g>
				<path fill="#231F20" d="M415.916,187.78c-0.278,45.199-28.484,94.048-76.957,99.415c-48.041,5.318-83.481-37.214-90.814-80.893
					c-7.637-45.49,14.267-99.078,60.279-114.633c20.796-7.03,43.488-3.636,62.082,7.646c19.514,11.839,33.033,31.864,40.003,53.283
					C414.203,163.954,415.843,175.863,415.916,187.78c0.02,3.223,5.02,3.225,5,0c-0.268-43.406-24.238-88.518-67.769-101.672
					c-42.649-12.888-83.767,14.668-101.156,52.894c-18.923,41.597-11.632,94.487,20.321,127.673
					c14.242,14.792,33.387,24.166,53.88,25.735c20.612,1.578,40.667-6.016,56.575-18.826c25.452-20.495,37.951-53.772,38.148-85.804
					C420.936,184.555,415.936,184.557,415.916,187.78z"/>
			</g>
		</g>
		<g>
			<g>
				<path fill="#231F20" d="M360.492,120.073c26.624,16.423,37.787,48.708,34.463,78.821c-0.354,3.203,4.65,3.168,5,0
					c3.518-31.874-8.898-65.841-36.939-83.138C360.264,114.058,357.754,118.384,360.492,120.073L360.492,120.073z"/>
			</g>
		</g>
		<g>
			<g>
				<path fill="#231F20" d="M352.611,114.873c3.225,0,3.225-5,0-5S349.387,114.873,352.611,114.873L352.611,114.873z"/>
			</g>
		</g>
		<g>
			<g>
				<path fill="#231F20" d="M327.1,308.186c-3.719,17.375,19.834,9.422,28.566,12.235c4.704,1.516,5.758,8.183,2.603,11.61
					c-1.646,1.787-4.679,2.536-7.042,2.595c-5.02,0.124-10.058,0.004-15.078,0.006c-7.832,0.003-15.664,0.006-23.497,0.009
					c-4.779,0.001-8.626,0.265-12.235,3.966c-5.433,5.57-2.993,16.443,3.663,19.841c4.573,2.333,11.159,1.114,15.993,1.114
					c7.192,0.001,16.663-1.944,22.558,3.152c6.356,5.496,4.146,17.631,4.146,25.169c0,10.562,0,21.123,0,31.684
					c0,13.824,0,27.649,0,41.474c0,6.071,0.54,15.365,8.55,15.9c9.584,0.641,11.046-7.527,11.06-15.276c0.006-3.225-4.994-3.224-5,0
					c-0.005,2.559-0.004,5.066-0.653,7.559c-0.997,3.828-6.217,3.509-7.922,0.581c-1.896-3.256-1.034-8.56-1.034-12.237
					c0-8.79,0-17.581,0-26.371c0-11.967,0-23.933,0-35.899c0-9.044,1.428-19.556-0.863-28.37
					c-1.948-7.494-9.241-12.363-16.735-12.363c-8.636,0-17.271-0.001-25.905-0.002c-1.945,0-3.785-1.705-4.766-3.392
					c-2.742-4.718-0.206-10.218,4.758-11.497c0.318-0.082,1.229-0.03,2.551-0.031c2.167,0,4.333-0.001,6.5-0.002
					c5.946-0.002,11.893-0.004,17.839-0.007c6.787-0.002,14.669,1.118,21.295-0.937c11.535-3.576,11.046-19.713-0.132-23.314
					c-4.945-1.594-11-0.626-16.038-0.626c-4.138,0-9.693,1.001-8.358-5.239C332.594,306.371,327.773,305.033,327.1,308.186
					L327.1,308.186z"/>
			</g>
		</g>
		<g>
			<g>
				<path fill="#231F20" d="M331.311,306.351c-3.396,0-6.791,0-10.187,0c0.72,1.254,1.439,2.508,2.159,3.762
					c3.396-5.881,6.791-11.763,10.186-17.644c-1.438,0-2.878,0-4.316,0c3.396,5.881,6.791,11.762,10.186,17.644
					c0.719-1.254,1.438-2.508,2.158-3.762C338.101,306.351,334.706,306.351,331.311,306.351c-3.225,0-3.225,5,0,5
					c3.396,0,6.79,0,10.186,0c1.902,0,3.105-2.122,2.158-3.762c-3.395-5.882-6.789-11.763-10.186-17.644
					c-0.936-1.622-3.381-1.622-4.316,0c-3.396,5.881-6.791,11.763-10.188,17.644c-0.946,1.64,0.257,3.762,2.159,3.762
					c3.396,0,6.791,0,10.187,0C334.535,311.351,334.535,306.351,331.311,306.351z"/>
			</g>
		</g>
	</g>
	<g>
		<g>
			<path fill="#231F20" d="M219.72,259.88c0-6.23,0-12.46,0-18.69c0-3.224-5-3.224-5,0c0,6.23,0,12.46,0,18.69
				C214.72,263.104,219.72,263.104,219.72,259.88L219.72,259.88z"/>
		</g>
	</g>
	<g>
		<g>
			<path fill="#231F20" d="M229.167,274.327c6.23,0,12.46,0,18.69,0c3.225,0,3.225-5,0-5c-6.23,0-12.46,0-18.69,0
				C225.942,269.327,225.942,274.327,229.167,274.327L229.167,274.327z"/>
		</g>
	</g>
	<g>
		<g>
			<path fill="#231F20" d="M205.272,269.327c-6.23,0-12.46,0-18.69,0c-3.225,0-3.225,5,0,5c6.23,0,12.46,0,18.69,0
				C208.497,274.327,208.497,269.327,205.272,269.327L205.272,269.327z"/>
		</g>
	</g>
	<g>
		<g>
			<path fill="#231F20" d="M210.54,261.611c-4.405-4.405-8.811-8.811-13.217-13.216c-2.282-2.282-5.817,1.253-3.535,3.535
				c4.405,4.405,8.811,8.811,13.217,13.216C209.287,267.428,212.822,263.893,210.54,261.611L210.54,261.611z"/>
		</g>
	</g>
	<g>
		<g>
			<path fill="#231F20" d="M227.437,265.146c4.405-4.405,8.811-8.811,13.216-13.216c2.282-2.282-1.253-5.817-3.535-3.535
				c-4.405,4.405-8.811,8.811-13.216,13.216C221.619,263.893,225.155,267.429,227.437,265.146L227.437,265.146z"/>
		</g>
	</g>
	<g>
		<g>
			<path fill="#231F20" d="M223.901,282.043c4.405,4.405,8.811,8.811,13.216,13.216c2.282,2.282,5.817-1.254,3.535-3.535
				c-4.405-4.405-8.811-8.811-13.216-13.216C225.155,276.226,221.619,279.761,223.901,282.043L223.901,282.043z"/>
		</g>
	</g>
	<g>
		<g>
			<path fill="#231F20" d="M207.004,278.507c-4.405,4.405-8.811,8.811-13.216,13.217c-2.282,2.282,1.253,5.817,3.535,3.535
				c4.405-4.405,8.811-8.811,13.216-13.217C212.821,279.76,209.286,276.225,207.004,278.507L207.004,278.507z"/>
		</g>
	</g>
</g>
</svg>
