<?xml version="1.0" encoding="utf-8"?>
<!-- Generator: Adobe Illustrator 16.0.0, SVG Export Plug-In . SVG Version: 6.00 Build 0)  -->
<!DOCTYPE svg PUBLIC "-//W3C//DTD SVG 1.1//EN" "http://www.w3.org/Graphics/SVG/1.1/DTD/svg11.dtd">
<svg version="1.1" id="Layer_1" xmlns="http://www.w3.org/2000/svg" xmlns:xlink="http://www.w3.org/1999/xlink" x="0px" y="0px"
	 width="560px" height="560px" viewBox="-1138.617 317.54 560 560" enable-background="new -1138.617 317.54 560 560"
	 xml:space="preserve">
<g>
	<g>
		<path fill="#FFFFFF" d="M-885.927,681.892l-9.394-20.34c-21.469,51.841-62.479,64.938-85.667,68.088l-9.18,19.872
			C-960.096,746.447-914.04,732.901-885.927,681.892z"/>
		<g>
			<path fill="#231F20" d="M-883.769,680.63c-3.131-6.78-6.262-13.56-9.395-20.34c-1.025-2.223-3.839-1.138-4.568,0.597
				c-11.412,27.107-31.58,49.28-59.248,60.043c-4.551,1.771-9.243,3.169-13.988,4.312c-2.381,0.574-11.098,0.797-12.179,3.137
				c-3.061,6.624-6.12,13.248-9.18,19.872c-0.703,1.524,0.087,3.979,2.159,3.762c18.92-1.981,37.3-7.194,54.116-16.172
				c22.322-11.916,40.013-30.714,52.282-52.687c1.574-2.818-2.746-5.339-4.317-2.523c-11.962,21.421-28.9,39.099-50.487,50.894
				c-15.85,8.658-33.682,13.612-51.594,15.488c0.721,1.254,1.439,2.508,2.159,3.763c1.599-3.464,3.199-6.926,4.798-10.389
				c1.008-2.183,2.017-4.364,3.024-6.547c0.329-0.711,0.657-1.422,0.984-2.132c0.772-1.671-1.305,0.375,0.291,0.142
				c9.833-1.433,19.371-4.304,28.48-8.249c27.006-11.694,46.263-34.643,57.521-61.383c-1.522,0.198-3.046,0.397-4.568,0.598
				c3.131,6.779,6.262,13.56,9.394,20.34C-886.735,686.078-882.426,683.536-883.769,680.63z"/>
		</g>
	</g>
	<g>
		<path fill="#FFFFFF" d="M-895.321,661.552l-27.11-58.694l-58.557,126.782C-957.799,726.488-916.789,713.393-895.321,661.552z"/>
		<g>
			<path fill="#231F20" d="M-893.162,660.29c-9.036-19.565-18.072-39.13-27.109-58.695c-0.755-1.636-3.562-1.636-4.317,0
				c-19.391,41.982-38.781,83.965-58.171,125.948c-0.128,0.278-0.257,0.557-0.386,0.835c-0.98,2.122,0.6,3.981,2.823,3.673
				c16.021-2.229,31.443-7.843,45.024-16.654c19.58-12.701,33.421-31.883,42.388-53.18c1.25-2.971-3.59-4.254-4.82-1.33
				c-8.804,20.91-22.703,39.2-41.99,51.41c-12.654,8.011-27.139,12.873-41.931,14.932c0.94,1.226,1.882,2.449,2.822,3.674
				c19.392-41.982,38.781-83.966,58.172-125.948c0.128-0.278,0.257-0.558,0.386-0.835c-1.439,0-2.878,0-4.317,0
				c9.037,19.564,18.073,39.13,27.11,58.695C-896.129,665.738-891.82,663.196-893.162,660.29z"/>
		</g>
	</g>
	<g>
		<path fill="#FFFFFF" d="M-885.927,681.892c-28.112,51.011-74.168,64.557-104.24,67.62l-7.899,17.104h75.636h75.636
			L-885.927,681.892z"/>
		<g>
			<path fill="#231F20" d="M-888.086,680.63c-15.255,27.318-38.741,48.139-68.247,58.787c-10.614,3.831-21.754,6.265-32.962,7.503
				c-3.845,0.426-4.52,4.555-5.969,7.692c-1.654,3.581-3.308,7.16-4.961,10.741c-0.772,1.673,0.125,3.763,2.159,3.763
				c46.607,0,93.217,0,139.825,0c3.814,0,7.632,0,11.446,0c2.033,0,2.932-2.09,2.159-3.763
				c-13.045-28.24-26.089-56.482-39.133-84.725c-1.352-2.925-5.66-0.383-4.317,2.523c13.044,28.24,26.088,56.482,39.132,84.725
				c0.721-1.254,1.439-2.508,2.159-3.762c-46.607,0-93.217,0-139.825,0c-3.815,0-7.631,0-11.446,0
				c0.72,1.254,1.438,2.508,2.159,3.762c2.633-5.701,5.267-11.403,7.899-17.104c-0.72,0.413-1.438,0.825-2.159,1.238
				c18.92-1.981,37.301-7.195,54.116-16.172c22.322-11.916,40.013-30.714,52.282-52.687
				C-882.195,680.335-886.514,677.815-888.086,680.63z"/>
		</g>
	</g>
	<g>
		<ellipse fill="#FFFFFF" cx="-808.341" cy="503.385" rx="87.105" ry="102.304"/>
		<g>
			<path fill="#231F20" d="M-723.736,503.385c-0.277,45.199-28.483,94.049-76.956,99.415c-48.041,5.318-83.481-37.214-90.814-80.894
				c-7.637-45.489,14.268-99.077,60.279-114.633c20.796-7.029,43.488-3.636,62.082,7.646c19.514,11.839,33.032,31.864,40.003,53.283
				C-725.448,479.558-723.809,491.468-723.736,503.385c0.021,3.223,5.021,3.225,5,0c-0.268-43.406-24.237-88.518-67.769-101.672
				c-42.648-12.888-83.767,14.668-101.156,52.894c-18.923,41.598-11.632,94.487,20.321,127.673
				c14.243,14.793,33.386,24.166,53.879,25.736c20.612,1.577,40.667-6.017,56.575-18.826c25.452-20.496,37.951-53.772,38.147-85.805
				C-718.716,500.16-723.716,500.162-723.736,503.385z"/>
		</g>
	</g>
	<g>
		<g>
			<path fill="#231F20" d="M-779.159,435.677c26.624,16.423,37.787,48.708,34.464,78.821c-0.354,3.203,4.649,3.168,4.999,0
				c3.519-31.874-8.897-65.841-36.938-83.139C-779.388,429.662-781.898,433.987-779.159,435.677L-779.159,435.677z"/>
		</g>
	</g>
	<g>
		<g>
			<path fill="#231F20" d="M-787.04,430.478c3.226,0,3.226-5,0-5C-790.265,425.478-790.265,430.478-787.04,430.478L-787.04,430.478z
				"/>
		</g>
	</g>
	<g>
		<g>
			<path fill="#231F20" d="M-812.552,623.79c-3.719,17.375,19.834,9.422,28.566,12.235c4.704,1.516,5.758,8.183,2.603,11.609
				c-1.646,1.787-4.679,2.536-7.042,2.595c-5.02,0.124-10.058,0.005-15.078,0.007c-7.832,0.003-15.664,0.006-23.497,0.009
				c-4.778,0.001-8.626,0.265-12.234,3.966c-5.434,5.57-2.993,16.443,3.663,19.841c4.572,2.333,11.158,1.114,15.992,1.114
				c7.192,0.001,16.663-1.944,22.559,3.152c6.355,5.495,4.146,17.631,4.146,25.169c0,10.562,0,21.123,0,31.684
				c0,13.824,0,27.649,0,41.474c0,6.071,0.54,15.365,8.551,15.9c9.584,0.641,11.046-7.527,11.06-15.276c0.006-3.225-4.994-3.224-5,0
				c-0.005,2.56-0.004,5.066-0.653,7.56c-0.997,3.828-6.217,3.509-7.922,0.581c-1.896-3.256-1.034-8.561-1.034-12.237
				c0-8.79,0-17.581,0-26.371c0-11.967,0-23.933,0-35.898c0-9.044,1.429-19.557-0.862-28.37
				c-1.948-7.494-9.241-12.363-16.735-12.363c-8.636,0-17.271-0.001-25.905-0.002c-1.944,0-3.785-1.705-4.766-3.392
				c-2.742-4.719-0.206-10.219,4.758-11.497c0.318-0.082,1.229-0.03,2.551-0.031c2.167,0,4.333-0.001,6.5-0.002
				c5.946-0.002,11.894-0.004,17.839-0.007c6.787-0.002,14.669,1.117,21.295-0.938c11.535-3.576,11.047-19.713-0.132-23.313
				c-4.944-1.595-11-0.626-16.038-0.626c-4.138,0-9.692,1.001-8.357-5.239C-807.058,621.976-811.878,620.638-812.552,623.79
				L-812.552,623.79z"/>
		</g>
	</g>
	<g>
		<polygon fill="#FFFFFF" points="-808.341,624.455 -818.527,624.455 -813.434,615.633 -808.341,606.812 -803.247,615.633 
			-798.155,624.455 		"/>
		<g>
			<path fill="#231F20" d="M-808.341,621.955c-3.396,0-6.791,0-10.187,0c0.72,1.254,1.438,2.508,2.158,3.762
				c3.396-5.881,6.791-11.763,10.187-17.645c-1.438,0-2.878,0-4.316,0c3.396,5.882,6.791,11.763,10.187,17.645
				c0.719-1.254,1.438-2.508,2.158-3.762C-801.551,621.955-804.945,621.955-808.341,621.955c-3.225,0-3.225,5,0,5
				c3.396,0,6.79,0,10.187,0c1.901,0,3.104-2.122,2.157-3.762c-3.395-5.883-6.789-11.764-10.186-17.645
				c-0.937-1.622-3.381-1.622-4.316,0c-3.396,5.881-6.791,11.764-10.188,17.645c-0.946,1.64,0.257,3.762,2.159,3.762
				c3.396,0,6.791,0,10.187,0C-805.115,626.955-805.115,621.955-808.341,621.955z"/>
		</g>
	</g>
	<g>
		<g>
			<path fill="#231F20" d="M-919.931,575.484c0-6.23,0-12.461,0-18.69c0-3.224-5-3.224-5,0c0,6.229,0,12.46,0,18.69
				C-924.931,578.709-919.931,578.709-919.931,575.484L-919.931,575.484z"/>
		</g>
	</g>
	<g>
		<g>
			<path fill="#231F20" d="M-910.484,589.932c6.229,0,12.46,0,18.689,0c3.225,0,3.225-5,0-5c-6.229,0-12.46,0-18.689,0
				C-913.708,584.932-913.708,589.932-910.484,589.932L-910.484,589.932z"/>
		</g>
	</g>
	<g>
		<g>
			<path fill="#231F20" d="M-934.379,584.932c-6.229,0-12.46,0-18.689,0c-3.225,0-3.225,5,0,5c6.229,0,12.46,0,18.689,0
				C-931.154,589.932-931.154,584.932-934.379,584.932L-934.379,584.932z"/>
		</g>
	</g>
	<g>
		<g>
			<path fill="#231F20" d="M-929.111,577.216c-4.405-4.405-8.812-8.812-13.217-13.216c-2.281-2.282-5.816,1.253-3.534,3.535
				c4.404,4.404,8.811,8.811,13.216,13.216C-930.365,583.033-926.829,579.498-929.111,577.216L-929.111,577.216z"/>
		</g>
	</g>
	<g>
		<g>
			<path fill="#231F20" d="M-912.215,580.751c4.405-4.405,8.812-8.812,13.216-13.216c2.282-2.282-1.253-5.817-3.535-3.535
				c-4.404,4.404-8.811,8.811-13.216,13.216C-918.031,579.498-914.497,583.033-912.215,580.751L-912.215,580.751z"/>
		</g>
	</g>
	<g>
		<g>
			<path fill="#231F20" d="M-915.75,597.648c4.405,4.404,8.812,8.811,13.216,13.215c2.282,2.283,5.817-1.254,3.535-3.534
				c-4.404-4.405-8.811-8.812-13.216-13.216C-914.497,591.83-918.031,595.365-915.75,597.648L-915.75,597.648z"/>
		</g>
	</g>
	<g>
		<g>
			<path fill="#231F20" d="M-932.648,594.111c-4.405,4.404-8.812,8.811-13.215,13.217c-2.282,2.281,1.253,5.816,3.534,3.535
				c4.405-4.405,8.812-8.812,13.216-13.217C-926.831,595.365-930.365,591.829-932.648,594.111L-932.648,594.111z"/>
		</g>
	</g>
</g>
</svg>
