<?xml version="1.0" encoding="utf-8"?>
<!-- Generator: Adobe Illustrator 16.0.0, SVG Export Plug-In . SVG Version: 6.00 Build 0)  -->
<!DOCTYPE svg PUBLIC "-//W3C//DTD SVG 1.1//EN" "http://www.w3.org/Graphics/SVG/1.1/DTD/svg11.dtd">
<svg version="1.1" id="Layer_1" xmlns="http://www.w3.org/2000/svg" xmlns:xlink="http://www.w3.org/1999/xlink" x="0px" y="0px"
	 width="560px" height="560px" viewBox="-1252.62 304.18 560 560" enable-background="new -1252.62 304.18 560 560"
	 xml:space="preserve">
<g>
	<g>
		<rect x="-996.982" y="443.66" fill="#FFFFFF" width="48.686" height="261.768"/>
		<g>
			<path fill="#231F20" d="M-948.297,702.928c-16.229,0-32.457,0-48.686,0c0.832,0.833,1.666,1.667,2.5,2.5
				c0-44.793,0-89.587,0-134.38c0-42.463,0-84.925,0-127.388c-0.834,0.833-1.668,1.667-2.5,2.5c16.229,0,32.457,0,48.686,0
				c-0.832-0.833-1.666-1.667-2.5-2.5c0,44.793,0,89.587,0,134.38c0,42.463,0,84.925,0,127.388c0,3.226,5,3.226,5,0
				c0-44.793,0-89.587,0-134.38c0-42.463,0-84.925,0-127.388c0-1.363-1.137-2.5-2.5-2.5c-16.229,0-32.457,0-48.686,0
				c-1.363,0-2.5,1.137-2.5,2.5c0,44.793,0,89.587,0,134.38c0,42.463,0,84.925,0,127.388c0,1.363,1.137,2.5,2.5,2.5
				c16.229,0,32.457,0,48.686,0C-945.072,707.928-945.072,702.928-948.297,702.928z"/>
		</g>
	</g>
	<g>
		<path fill="#FFFFFF" d="M-948.297,431.004c0,0,0-12.02,0-19.078c0-5.369-4.84-8.509-9.477-8.509c-2.816,0-26.916,0-29.73,0
			c-4.639,0-9.479,3.14-9.479,8.509c0,7.06,0,19.078,0,19.078H-948.297z"/>
		<g>
			<path fill="#231F20" d="M-945.797,431.004c0-3.812,0-7.628,0-11.441c0-5.561,0.762-10.879-3.26-15.259
				c-4.982-5.432-16.529-3.387-23.037-3.387c-6.639,0-17.57-1.954-23.154,2.593c-4.768,3.881-4.234,9.1-4.234,14.71
				c0,4.262,0,8.522,0,12.784c0,1.363,1.137,2.5,2.5,2.5c16.23,0,32.457,0,48.688,0c3.225,0,3.225-5,0-5c-16.23,0-32.457,0-48.688,0
				c0.834,0.833,1.668,1.667,2.5,2.5c0-2.504,0-5.009,0-7.513c0-4.479-1.41-12.16,1.795-15.651c2.158-2.354,5.891-1.923,8.779-1.923
				c3.574,0,7.148,0,10.723,0c5.561,0,13.818-1.482,19.047,0.86c5.006,2.241,3.344,10.961,3.344,15.436c0,2.931,0,5.86,0,8.791
				C-950.797,434.228-945.797,434.228-945.797,431.004z"/>
		</g>
	</g>
	<g>
		<path fill="#FFFFFF" d="M-964.104,747.727l3.52-7.206l12.133-24.853h-24.266h-24.266l12.133,24.853l3.582,7.339
			c2.533-1.81,5.504-2.854,8.682-2.854C-969.49,745.007-966.592,746.001-964.104,747.727z"/>
		<g>
			<path fill="#231F20" d="M-961.945,748.989c5.221-10.687,10.438-21.372,15.652-32.06c0.812-1.666-0.156-3.762-2.158-3.762
				c-16.176,0-32.354,0-48.531,0c-2.002,0-2.971,2.096-2.158,3.762c5.238,10.73,10.479,21.46,15.717,32.19
				c0.578,1.188,2.338,1.595,3.42,0.896c4.82-3.106,9.771-3.183,14.641-0.131c2.74,1.718,5.248-2.609,2.523-4.318
				c-6.314-3.959-13.424-3.906-19.689,0.134c1.141,0.299,2.281,0.598,3.42,0.896c-5.236-10.729-10.477-21.46-15.715-32.189
				c-0.719,1.254-1.438,2.508-2.158,3.762c16.178,0,32.355,0,48.531,0c-0.719-1.254-1.438-2.508-2.158-3.762
				c-5.217,10.687-10.434,21.373-15.65,32.059C-967.67,749.35-963.359,751.887-961.945,748.989z"/>
		</g>
	</g>
	<g>
		<path fill="#231F20" d="M-964.104,747.727c-2.488-1.727-5.387-2.721-8.482-2.721c-3.178,0-6.148,1.044-8.682,2.854l8.551,17.514
			L-964.104,747.727z"/>
		<g>
			<path d="M-962.842,745.568c-6.248-3.977-13.488-3.925-19.688,0.133c-1.205,0.788-1.52,2.146-0.896,3.42
				c2.85,5.838,5.699,11.676,8.549,17.514c0.799,1.633,3.521,1.633,4.318,0c2.871-5.882,5.742-11.764,8.613-17.646
				c1.408-2.886-2.902-5.421-4.316-2.523c-2.871,5.882-5.742,11.764-8.615,17.646c1.439,0,2.879,0,4.318,0
				c-2.852-5.839-5.699-11.677-8.551-17.515c-0.299,1.141-0.598,2.28-0.896,3.42c4.771-3.121,9.824-3.194,14.641-0.131
				C-962.637,751.623-960.131,747.294-962.842,745.568z"/>
		</g>
	</g>
	<g>
		<g>
			<path d="M-983.768,443.66c0,44.793,0,89.587,0,134.38c0,42.463,0,84.925,0,127.388c0,3.226,5,3.226,5,0
				c0-44.793,0-89.587,0-134.38c0-42.463,0-84.925,0-127.388C-978.768,440.435-983.768,440.435-983.768,443.66L-983.768,443.66z"/>
		</g>
	</g>
	<g>
		<g>
			<path d="M-966.604,443.66c0,44.793,0,89.587,0,134.38c0,42.463,0,84.925,0,127.388c0,3.226,5,3.226,5,0
				c0-44.793,0-89.587,0-134.38c0-42.463,0-84.925,0-127.388C-961.604,440.435-966.604,440.435-966.604,443.66L-966.604,443.66z"/>
		</g>
	</g>
</g>
</svg>
