<?xml version="1.0" encoding="utf-8"?>
<!-- Generator: Adobe Illustrator 16.0.0, SVG Export Plug-In . SVG Version: 6.00 Build 0)  -->
<!DOCTYPE svg PUBLIC "-//W3C//DTD SVG 1.1//EN" "http://www.w3.org/Graphics/SVG/1.1/DTD/svg11.dtd">
<svg version="1.1" id="Layer_1" xmlns="http://www.w3.org/2000/svg" xmlns:xlink="http://www.w3.org/1999/xlink" x="0px" y="0px"
	 width="560px" height="560px" viewBox="-999.5 400.5 560 560" enable-background="new -999.5 400.5 560 560" xml:space="preserve">
<g>
	<g>
		<g>
			<path fill="#231F20" d="M-691.691,802.496c-16.229,0-32.458,0-48.687,0c0.833,0.833,1.667,1.667,2.5,2.5
				c0-44.793,0-89.586,0-134.38c0-42.462,0-84.925,0-127.388c-0.833,0.834-1.667,1.668-2.5,2.5c16.229,0,32.457,0,48.687,0
				c-0.834-0.832-1.668-1.666-2.5-2.5c0,44.793,0,89.586,0,134.381c0,42.462,0,84.924,0,127.387c0,3.225,5,3.225,5,0
				c0-44.793,0-89.586,0-134.38c0-42.462,0-84.925,0-127.388c0-1.362-1.138-2.5-2.5-2.5c-16.229,0-32.458,0-48.687,0
				c-1.363,0-2.5,1.138-2.5,2.5c0,44.793,0,89.586,0,134.381c0,42.462,0,84.924,0,127.387c0,1.363,1.137,2.5,2.5,2.5
				c16.229,0,32.457,0,48.687,0C-688.468,807.496-688.468,802.496-691.691,802.496z"/>
		</g>
	</g>
	<g>
		<g>
			<path fill="#231F20" d="M-689.191,530.572c0-3.814,0-7.627,0-11.441c0-5.561,0.76-10.878-3.259-15.258
				c-4.983-5.432-16.53-3.387-23.039-3.387c-6.639,0-17.57-1.954-23.154,2.593c-4.767,3.881-4.234,9.098-4.234,14.709
				c0,4.261,0,8.522,0,12.784c0,1.363,1.137,2.5,2.5,2.5c16.229,0,32.457,0,48.686,0c3.225,0,3.225-5,0-5
				c-16.229,0-32.457,0-48.686,0c0.833,0.833,1.667,1.667,2.5,2.5c0-2.504,0-5.008,0-7.514c0-4.479-1.41-12.158,1.794-15.65
				c2.16-2.354,5.89-1.922,8.779-1.922c3.575,0,7.15,0,10.725,0c5.558,0,13.817-1.482,19.046,0.859
				c5.006,2.242,3.342,10.961,3.342,15.436c0,2.93,0,5.859,0,8.791C-694.191,533.796-689.191,533.796-689.191,530.572z"/>
		</g>
	</g>
	<g>
		<g>
			<path fill="#231F20" d="M-705.34,848.558c5.219-10.686,10.436-21.372,15.652-32.059c0.812-1.666-0.156-3.762-2.16-3.762
				c-16.176,0-32.354,0-48.53,0c-2.002,0-2.972,2.096-2.159,3.762c5.238,10.73,10.476,21.461,15.715,32.19
				c0.58,1.188,2.338,1.595,3.42,0.896c4.822-3.108,9.773-3.183,14.641-0.131c2.739,1.718,5.247-2.61,2.522-4.318
				c-6.314-3.959-13.422-3.907-19.688,0.133c1.14,0.3,2.28,0.599,3.42,0.896c-5.239-10.73-10.477-21.46-15.715-32.19
				c-0.72,1.254-1.439,2.509-2.159,3.763c16.177,0,32.354,0,48.53,0c-0.719-1.254-1.438-2.509-2.158-3.763
				c-5.217,10.688-10.434,21.373-15.652,32.06C-711.066,848.919-706.755,851.455-705.34,848.558z"/>
		</g>
	</g>
	<g>
		<path fill="#231F20" d="M-707.499,847.296c-2.489-1.727-5.387-2.721-8.483-2.721c-3.178,0-6.146,1.044-8.681,2.853l8.55,17.516
			L-707.499,847.296z"/>
		<g>
			<path d="M-706.236,845.137c-6.248-3.976-13.49-3.924-19.688,0.133c-1.205,0.788-1.519,2.146-0.897,3.421
				c2.85,5.838,5.7,11.677,8.551,17.515c0.797,1.633,3.521,1.633,4.316,0c2.872-5.882,5.743-11.765,8.614-17.646
				c1.407-2.885-2.903-5.421-4.317-2.522c-2.872,5.882-5.742,11.765-8.613,17.646c1.438,0,2.877,0,4.316,0
				c-2.85-5.838-5.7-11.677-8.55-17.515c-0.299,1.14-0.598,2.28-0.897,3.42c4.77-3.121,9.825-3.195,14.641-0.131
				C-706.032,851.191-703.525,846.862-706.236,845.137z"/>
		</g>
	</g>
	<g>
		<g>
			<path d="M-727.163,543.229c0,44.793,0,89.586,0,134.381c0,42.462,0,84.924,0,127.387c0,3.225,5,3.225,5,0
				c0-44.793,0-89.586,0-134.38c0-42.462,0-84.925,0-127.388C-722.163,540.005-727.163,540.005-727.163,543.229L-727.163,543.229z"
				/>
		</g>
	</g>
	<g>
		<g>
			<path d="M-709.999,543.229c0,44.793,0,89.586,0,134.381c0,42.462,0,84.924,0,127.387c0,3.225,5,3.225,5,0
				c0-44.793,0-89.586,0-134.38c0-42.462,0-84.925,0-127.388C-704.999,540.005-709.999,540.005-709.999,543.229L-709.999,543.229z"
				/>
		</g>
	</g>
</g>
</svg>
