<?xml version="1.0" encoding="utf-8"?>
<!-- Generator: Adobe Illustrator 16.0.0, SVG Export Plug-In . SVG Version: 6.00 Build 0)  -->
<!DOCTYPE svg PUBLIC "-//W3C//DTD SVG 1.1//EN" "http://www.w3.org/Graphics/SVG/1.1/DTD/svg11.dtd">
<svg version="1.1" id="Layer_1" xmlns="http://www.w3.org/2000/svg" xmlns:xlink="http://www.w3.org/1999/xlink" x="0px" y="0px"
	 width="560px" height="560px" viewBox="-999.5 400.5 560 560" enable-background="new -999.5 400.5 560 560" xml:space="preserve">
<g>
	<g>
		<g>
			<path fill="#231F20" d="M-714.128,705.221c0,22.408,0,44.817,0,67.227c0,7.91-0.128,15.831,0.026,23.738
				c0.392,19.807,17.539,35.049,36.798,35.43c0-1.391,0-2.78,0-4.17c-0.034,0-0.067,0-0.102,0c0,1.39,0,2.779,0,4.17
				c20.242-0.4,36.825-16.62,36.825-37.069c0-13.876,0-27.752,0-41.627c0-2.95,0-5.9,0-8.85c0-0.828,0-1.656,0-2.483
				c0-4.041,3.814-2.021,3.814,0.622c0,6.375,0,12.749,0,19.124c0,8.337,0,16.674,0,25.011c0,5.341,0.289,10.823-0.457,16.125
				c-3.396,24.128-27.854,37.719-50.612,32.438c-19.138-4.44-30.108-21.916-30.108-40.748c0-27.014,0-54.025,0-81.038
				c0-44.235,0-88.47,0-132.706c0-7.316,0.051-14.255-2.677-21.257c-5.458-14.015-19.365-22.761-34.147-23.052
				c0,1.39,0,2.778,0,4.168c0.034,0,0.067,0,0.101,0c0-1.39,0-2.778,0-4.168c-20.231,0.398-36.825,16.609-36.825,37.054
				c0,13.612,0,27.224,0,40.835c0,3.169,0,6.338,0,9.507c0,1.03,0,2.06,0,3.09c0,2.354-3.388,5.532-3.814,1.247
				c-0.531-5.341,0-11.007,0-16.369c0-13.261,0-26.521,0-39.781c0-23.707,19.382-40.41,42.395-40.062
				c21.993,0.333,38.782,18.938,38.782,40.469c0,26.206,0,52.412,0,78.618C-714.128,668.882-714.128,687.051-714.128,705.221
				c0,2.688,4.169,2.688,4.169,0c0-44.539,0-89.08,0-133.619c0-20.781-14.298-38.429-34.446-43.104
				c-19.809-4.596-40.775,4.706-50.246,22.684c-6.513,12.363-4.823,27.324-4.823,40.823c0,8.317,0,16.634,0,24.952
				c0,3.711-1.457,11.997,1.441,14.991c2.483,2.565,7.505,3.088,9.596-0.396c1.552-2.584,1.115-5.785,1.115-8.689
				c0-10.405,0-20.812,0-31.217c0-7.142-0.312-14.362,0.11-21.498c1.005-16.946,16.126-29.549,32.546-29.873
				c2.685-0.053,2.691-4.17,0-4.17c-0.034,0-0.067,0-0.101,0c-2.691,0-2.685,4.117,0,4.17c12.55,0.248,23.389,7.008,29.242,18.092
				c2.909,5.51,3.414,11.55,3.414,17.634c0,13.075,0,26.151,0,39.226c0,22.198,0,44.396,0,66.596c0,22.107,0,44.214,0,66.321
				c0,14.076,0,28.152,0,42.229c0,14.274,2.819,27.299,13.433,37.728c14.469,14.218,38.111,15.778,55.227,5.695
				c15.131-8.915,20.856-25.01,20.856-41.726c0-15.232,0-30.464,0-45.696c0-4.966,0.253-11.208-6.476-11.246
				c-6.486-0.038-5.677,7.77-5.677,12.093c0,14.473,0,28.943,0,43.416c0,7.007-0.667,13.517-4.026,19.877
				c-5.574,10.559-16.908,16.701-28.629,16.934c-2.686,0.054-2.691,4.17,0,4.17c0.033,0,0.066,0,0.101,0c2.69,0,2.685-4.116,0-4.17
				c-18.347-0.361-32.656-15.021-32.656-33.354c0-9.021,0-18.041,0-27.061c0-20.604,0-41.207,0-61.811
				C-709.959,702.531-714.128,702.531-714.128,705.221z"/>
		</g>
	</g>
	<g>
		<g>
			<path fill="#231F20" d="M-758.234,539.84c0,46.943,0,93.887,0,140.829c0,31.082,0,62.165,0,93.247
				c0,1.136,0.948,2.084,2.084,2.084c12.03,0,24.06,0,36.09,0c2.688,0,2.688-4.169,0-4.169c-12.03,0-24.06,0-36.09,0
				c0.695,0.695,1.39,1.39,2.084,2.084c0-46.943,0-93.886,0-140.829c0-31.082,0-62.165,0-93.247
				C-754.065,537.15-758.234,537.15-758.234,539.84L-758.234,539.84z"/>
		</g>
	</g>
	<g>
		<g>
			<path fill="#231F20" d="M-724.509,782.244c-5.415,11.041-10.83,22.081-16.244,33.122c1.2,0,2.4,0,3.6,0
				c-5.416-11.041-10.831-22.082-16.247-33.123c-0.6,1.046-1.2,2.091-1.8,3.137c10.83,0,21.661,0,32.491,0
				c2.688,0,2.688-4.169,0-4.169c-10.83,0-21.661,0-32.491,0c-1.667,0-2.481,1.748-1.8,3.137
				c5.416,11.041,10.831,22.082,16.247,33.122c0.667,1.361,2.932,1.361,3.6,0c5.415-11.04,10.83-22.081,16.244-33.121
				C-719.73,781.944-723.325,779.831-724.509,782.244z"/>
		</g>
	</g>
	<g>
		<g>
			<path fill="#231F20" d="M-755.233,460.588c-0.048,0-0.095,0.001-0.143,0.001c-1.136,0.013-2.084,0.938-2.084,2.084
				c0,18.586,0,37.172,0,55.759c0,1.135,0.948,2.084,2.084,2.084c11.619,0,27.249,4.092,34.72,13.635
				c1.173,1.498,3.559,0.186,3.559-1.475c0-13.134,0-26.268,0-39.402C-717.098,473.71-736.989,460.986-755.233,460.588
				c-2.69-0.059-2.684,4.11,0,4.169c11.135,0.244,22.279,5.665,29.458,14.15c4.444,5.254,4.509,11.093,4.509,17.465
				c0,12.103,0,24.204,0,36.305c1.186-0.491,2.372-0.981,3.559-1.474c-8.117-10.367-25.058-14.855-37.668-14.855
				c0.695,0.694,1.39,1.389,2.084,2.084c0-18.587,0-37.173,0-55.759c-0.695,0.695-1.39,1.39-2.084,2.084
				c0.048,0,0.095-0.001,0.143-0.001C-752.546,464.73-752.543,460.561-755.233,460.588z"/>
		</g>
	</g>
	<g>
		<g>
			<path fill="#231F20" d="M-741.038,803.94c0,5.363,0,10.729,0,16.093c0,2.688,4.169,2.688,4.169,0c0-5.364,0-10.729,0-16.093
				C-736.869,801.252-741.038,801.252-741.038,803.94L-741.038,803.94z"/>
		</g>
	</g>
	<g>
		<g>
			<path fill="#231F20" d="M-673.227,828.088c0-46.943,0-93.885,0-140.828c0-31.082,0-62.164,0-93.246
				c0-1.136-0.947-2.084-2.084-2.084c-12.029,0-24.06,0-36.088,0c-2.688,0-2.688,4.17,0,4.17c12.029,0,24.06,0,36.088,0
				c-0.694-0.695-1.39-1.391-2.084-2.084c0,46.942,0,93.885,0,140.827c0,31.082,0,62.164,0,93.246
				C-677.395,830.776-673.227,830.776-673.227,828.088L-673.227,828.088z"/>
		</g>
	</g>
	<g>
		<g>
			<path fill="#231F20" d="M-706.951,585.686c5.415-11.041,10.83-22.082,16.245-33.123c-1.2,0-2.399,0-3.601,0
				c5.416,11.041,10.832,22.082,16.246,33.123c0.601-1.047,1.201-2.092,1.801-3.138c-10.83,0-21.661,0-32.491,0
				c-2.688,0-2.688,4.169,0,4.169c10.83,0,21.661,0,32.491,0c1.667,0,2.48-1.748,1.8-3.137
				c-5.415-11.041-10.831-22.082-16.246-33.123c-0.667-1.361-2.933-1.361-3.601,0c-5.414,11.041-10.829,22.082-16.244,33.123
				C-711.73,585.984-708.135,588.098-706.951,585.686z"/>
		</g>
	</g>
	<g>
		<g>
			<path fill="#231F20" d="M-676.227,907.341c0.048-0.001,0.095-0.002,0.143-0.002c1.136-0.016,2.084-0.937,2.084-2.085
				c0-18.586,0-37.171,0-55.757c0-1.137-0.948-2.085-2.084-2.085c-11.62,0-27.249-4.094-34.72-13.636
				c-1.173-1.499-3.56-0.188-3.56,1.474c0,13.135,0,26.27,0,39.403C-714.361,894.219-694.469,906.94-676.227,907.341
				c2.689,0.06,2.685-4.109,0-4.17c-11.135-0.243-22.279-5.665-29.457-14.148c-4.445-5.255-4.51-11.094-4.51-17.466
				c0-12.103,0-24.204,0-36.307c-1.186,0.491-2.371,0.982-3.559,1.474c8.117,10.368,25.059,14.858,37.668,14.858
				c-0.695-0.695-1.391-1.391-2.084-2.085c0,18.586,0,37.171,0,55.757c0.695-0.695,1.391-1.39,2.084-2.085
				c-0.048,0.001-0.095,0.002-0.143,0.002C-678.913,903.208-678.917,907.377-676.227,907.341z"/>
		</g>
	</g>
	<g>
		<g>
			<path fill="#231F20" d="M-690.422,563.99c0-5.364,0-10.729,0-16.094c0-2.688-4.169-2.688-4.169,0c0,5.364,0,10.729,0,16.094
				C-694.591,566.678-690.422,566.678-690.422,563.99L-690.422,563.99z"/>
		</g>
	</g>
</g>
</svg>
