<?xml version="1.0" encoding="utf-8"?>
<!-- Generator: Adobe Illustrator 16.0.0, SVG Export Plug-In . SVG Version: 6.00 Build 0)  -->
<!DOCTYPE svg PUBLIC "-//W3C//DTD SVG 1.1//EN" "http://www.w3.org/Graphics/SVG/1.1/DTD/svg11.dtd">
<svg version="1.1" id="Layer_1" xmlns="http://www.w3.org/2000/svg" xmlns:xlink="http://www.w3.org/1999/xlink" x="0px" y="0px"
	 width="560px" height="560px" viewBox="0 0 560 560" enable-background="new 0 0 560 560" xml:space="preserve">
<g>
	<g>
		<path fill="#FFFFFF" d="M263.476,213.341c0-24.003-20.055-31.241-20.055-49.698c0-11.577,4.855-38.453,36.701-38.361h0.182h0.182
			c31.846-0.092,36.701,26.784,36.701,38.361c0,18.457-20.054,25.695-20.054,49.698"/>
		<g>
			<path fill="#231F20" d="M265.494,213.341c-0.119-8.408-2.639-15.991-7.042-23.104c-3.831-6.19-8.923-11.699-11.551-18.575
				c-3.978-10.407-0.152-24.75,6.555-33.202c10.051-12.661,31.018-14.321,44.796-7.312c11.121,5.658,16.152,18.231,16.851,30.092
				c0.553,9.407-4.225,16.438-9.434,23.792c-6.117,8.642-10.404,17.525-10.558,28.309c-0.036,2.606,4.002,2.604,4.037,0
				c0.129-9.073,3.453-16.69,8.479-24.082c3.958-5.82,8.364-11.304,10.498-18.12c3.187-10.18-0.141-23.279-5.605-32.073
				c-8.14-13.09-23.64-16.952-38.197-15.5c-14.101,1.408-24.959,9.98-29.95,23.113c-3.481,9.159-4.256,19.803-0.206,28.851
				c2.589,5.782,6.864,10.707,10.307,15.979c4.353,6.659,6.867,13.835,6.98,21.832C261.494,215.943,265.531,215.946,265.494,213.341
				L265.494,213.341z"/>
		</g>
	</g>
	<g>
		<rect x="263.476" y="234.473" fill="#FFFFFF" width="33.657" height="189.992"/>
		<g>
			<path fill="#231F20" d="M297.133,422.446c-11.221,0-22.439,0-33.657,0c0.672,0.675,1.346,1.348,2.019,2.019
				c0-37.95,0-75.903,0-113.855c0-25.381,0-50.758,0-76.137c-0.672,0.672-1.347,1.346-2.019,2.019c11.218,0,22.437,0,33.657,0
				c-0.674-0.673-1.348-1.347-2.02-2.019c0,37.952,0,75.908,0,113.857c0,25.38,0,50.759,0,76.135c0,2.606,4.039,2.606,4.039,0
				c0-37.95,0-75.903,0-113.855c0-25.381,0-50.758,0-76.137c0-1.101-0.92-2.019-2.02-2.019c-11.221,0-22.439,0-33.657,0
				c-1.101,0-2.02,0.918-2.02,2.019c0,37.952,0,75.908,0,113.857c0,25.38,0,50.759,0,76.135c0,1.102,0.918,2.021,2.02,2.021
				c11.218,0,22.437,0,33.657,0C299.734,426.485,299.734,422.446,297.133,422.446z"/>
		</g>
	</g>
	<g>
		<g>
			<path fill="#231F20" d="M276.654,212.528c0-6.691,0-13.385,0-20.078c0-4.71,0.291-9.55-0.257-14.236
				c-0.672-5.751-5.734-12.197-11.396-6.723c-3.779,3.65-3.749,12.017,0.723,15.035c2.552,1.722,5.463-0.035,7.15-2.013
				c3.444-4.043,5.367-9.107,8.968-13.089c1.768-1.95-0.88-4.526-2.854-2.855c-0.291,0.248-0.584,0.496-0.877,0.743
				c0.951,0.952,1.903,1.903,2.854,2.855c3.805-3.946,9.417-10.784,5.377-16.411c-2.444-3.407-7.535-3.939-10.97-1.833
				c-5.251,3.218-2.382,10.012,0.313,13.839c2.752,3.907,6.042,7.185,8.527,11.327c1.624,2.708,3.167,5.946,6.015,7.563
				c8.173,4.642,12.264-16.308,0.801-17.193c-6.337-0.489-7.074,9.108-7.074,13.263c0,9.935,0,19.87,0,29.802
				c0,2.605,4.038,2.605,4.038,0c0-10.6-0.194-21.219,0.028-31.816c0.048-2.155,1.836-10.713,5.143-5.795
				c1.005,1.493,2.186,7.985-0.789,8.23c-1.405,0.117-2.978-3.268-3.553-4.21c-1.439-2.355-2.813-4.725-4.414-6.979
				c-2.588-3.642-8.96-8.145-7.865-13.257c0.55-2.567,4.211-2.233,5.866-1.242c4.437,2.654-2.549,10.042-4.296,11.854
				c-1.832,1.902,0.893,4.518,2.854,2.855c0.294-0.247,0.587-0.496,0.877-0.743c-0.95-0.951-1.902-1.904-2.854-2.855
				c-2.095,2.317-3.853,4.831-5.486,7.491c-0.997,1.624-3.055,6.835-5.268,7.086c-2.818,0.319-2.506-9.353,1.345-9.648
				c4.981-0.385,3.038,35.727,3.038,39.028C272.616,215.131,276.654,215.131,276.654,212.528L276.654,212.528z"/>
		</g>
	</g>
	<g>
		<g>
			<path fill="#231F20" d="M285.341,281.155c0,32.21,0,64.418,0,96.627c0,2.604,4.037,2.604,4.037,0c0-32.211,0-64.419,0-96.627
				C289.378,278.553,285.341,278.553,285.341,281.155L285.341,281.155z"/>
		</g>
	</g>
	<g>
		<path fill="#FFFFFF" d="M297.045,425.002h-16.704h-16.708l8.354,23.725l2.665,7.322c3.013-1.52,6.99-2.309,11.385-0.029
			l2.653-7.293L297.045,425.002z"/>
		<g>
			<path fill="#231F20" d="M297.045,422.983c-11.137,0-22.273,0-33.411,0c-1.242,0-2.387,1.303-1.946,2.557
				c3.647,10.358,7.262,20.727,11.019,31.047c0.474,1.302,1.72,1.782,2.965,1.205c3.155-1.462,6.156-1.48,9.351-0.03
				c1.247,0.568,2.487,0.104,2.967-1.204c3.749-10.312,7.36-20.672,11.006-31.018c0.865-2.463-3.037-3.513-3.896-1.075
				c-3.641,10.351-7.251,20.71-11.005,31.019c0.989-0.402,1.978-0.805,2.966-1.207c-4.592-2.089-8.845-2.09-13.424,0.031
				c0.988,0.401,1.977,0.804,2.965,1.205c-3.756-10.32-7.372-20.688-11.018-31.048c-0.65,0.854-1.298,1.705-1.948,2.556
				c11.138,0,22.274,0,33.411,0C299.649,427.021,299.649,422.983,297.045,422.983z"/>
		</g>
	</g>
	<g>
		<polyline fill="#FFFFFF" points="276.134,456.848 280.342,470.02 284.547,456.848 		"/>
		<g>
			<path fill="#231F20" d="M274.187,457.386c1.403,4.391,2.805,8.78,4.208,13.173c0.614,1.922,3.278,1.922,3.895,0
				c1.4-4.393,2.805-8.782,4.205-13.173c0.795-2.49-3.104-3.546-3.895-1.072c-1.4,4.39-2.801,8.778-4.204,13.171
				c1.298,0,2.596,0,3.895,0c-1.404-4.393-2.807-8.781-4.206-13.173C277.292,453.84,273.393,454.896,274.187,457.386
				L274.187,457.386z"/>
		</g>
	</g>
	<g>
		<g>
			<path fill="#231F20" d="M297.133,243.519c5.064,0,10.132,0,15.197,0c-0.674-0.671-1.348-1.345-2.019-2.019
				c0,21.532,0,43.066,0,64.598c0,2.607,4.038,2.607,4.038,0c0-21.532,0-43.066,0-64.598c0-1.1-0.92-2.019-2.02-2.019
				c-5.065,0-10.133,0-15.197,0C294.527,239.481,294.527,243.519,297.133,243.519L297.133,243.519z"/>
		</g>
	</g>
	<g>
		<g>
			<path fill="#231F20" d="M282.021,111.096c0-9.048,0-18.095,0-27.142c0-2.605-4.037-2.605-4.037,0c0,9.047,0,18.095,0,27.142
				C277.982,113.7,282.021,113.7,282.021,111.096L282.021,111.096z"/>
		</g>
	</g>
	<g>
		<g>
			<path fill="#231F20" d="M330.042,163.156c9.048,0,18.095,0,27.141,0c2.605,0,2.605-4.038,0-4.038c-9.046,0-18.093,0-27.141,0
				C327.439,159.119,327.439,163.156,330.042,163.156L330.042,163.156z"/>
		</g>
	</g>
	<g>
		<g>
			<path fill="#231F20" d="M229.959,159.119c-9.048,0-18.095,0-27.142,0c-2.604,0-2.604,4.038,0,4.038c9.048,0,18.095,0,27.142,0
				C232.562,163.156,232.562,159.119,229.959,159.119L229.959,159.119z"/>
		</g>
	</g>
	<g>
		<g>
			<path fill="#231F20" d="M246.042,124.325c-6.397-6.397-12.794-12.795-19.192-19.194c-1.843-1.843-4.698,1.011-2.855,2.854
				c6.397,6.398,12.795,12.796,19.192,19.194C245.03,129.023,247.885,126.168,246.042,124.325L246.042,124.325z"/>
		</g>
	</g>
	<g>
		<g>
			<path fill="#231F20" d="M316.815,127.18c6.396-6.397,12.794-12.796,19.193-19.195c1.842-1.842-1.014-4.696-2.856-2.854
				c-6.396,6.398-12.793,12.796-19.191,19.195C312.116,126.168,314.971,129.023,316.815,127.18L316.815,127.18z"/>
		</g>
	</g>
	<g>
		<g>
			<path fill="#231F20" d="M259.693,222.69c13.74,0,27.478,0,41.221,0c2.604,0,2.604-4.038,0-4.038c-13.743,0-27.48,0-41.221,0
				C257.09,218.652,257.09,222.69,259.693,222.69L259.693,222.69z"/>
		</g>
	</g>
	<g>
		<g>
			<path fill="#231F20" d="M259.693,229.37c13.74,0,27.478,0,41.221,0c2.604,0,2.604-4.038,0-4.038c-13.743,0-27.48,0-41.221,0
				C257.09,225.332,257.09,229.37,259.693,229.37L259.693,229.37z"/>
		</g>
	</g>
	<g>
		<g>
			<path fill="#231F20" d="M259.693,236.05c13.74,0,27.478,0,41.221,0c2.604,0,2.604-4.038,0-4.038c-13.743,0-27.48,0-41.221,0
				C257.09,232.012,257.09,236.05,259.693,236.05L259.693,236.05z"/>
		</g>
	</g>
</g>
</svg>
