<?xml version="1.0" encoding="utf-8"?>
<!-- Generator: Adobe Illustrator 16.0.0, SVG Export Plug-In . SVG Version: 6.00 Build 0)  -->
<!DOCTYPE svg PUBLIC "-//W3C//DTD SVG 1.1//EN" "http://www.w3.org/Graphics/SVG/1.1/DTD/svg11.dtd">
<svg version="1.1" id="Layer_1" xmlns="http://www.w3.org/2000/svg" xmlns:xlink="http://www.w3.org/1999/xlink" x="0px" y="0px"
	 width="560px" height="560px" viewBox="-999.5 400.5 560 560" enable-background="new -999.5 400.5 560 560" xml:space="preserve">
<g>
	<g>
		<path fill="#FFFFFF" d="M-715.763,700.72v85.21c0,18.254,14.794,33.049,33.049,33.049h-0.096
			c18.254,0,33.048-14.795,33.048-33.049c0,0,0-45.567,0-50.855c0-5.289,7.595-5.204,7.595,0.002c0,5.203,0,52.13,0,52.13
			c0,22.888-17.987,40.021-40.177,40.021h-0.837c-22.19,0-40.177-17.133-40.177-40.021v-86.563v-40.563v-85.207
			c0-18.253-14.795-33.048-33.047-33.048h0.095c-18.253,0-33.048,14.795-33.048,33.048c0,0,0,46.947,0,52.237
			c0,5.287-7.594,5.201-7.594-0.002c0-5.205,0-53.513,0-53.513c0-22.888,17.987-40.019,40.175-40.019h0.838
			c22.189,0,40.176,17.131,40.176,40.019v86.563V700.72z"/>
		<g>
			<path fill="#231F20" d="M-717.746,700.72c0,19.109,0,38.214,0,57.32c0,8.853,0,17.704,0,26.556
				c0,13.537,6.579,25.658,18.564,32.264c5.03,2.766,10.764,4.008,16.468,4.104c0-1.324,0-2.645,0-3.967c-0.032,0-0.064,0-0.096,0
				c0,1.322,0,2.643,0,3.967c17.354-0.287,32.09-12.854,34.671-30.111c0.546-3.649,0.36-7.422,0.36-11.104
				c0-6.169,0-12.342,0-18.511c0-6.364,0-12.728,0-19.088c0-1.929,0-3.855,0-5.782c0-0.833-0.083-1.701,0.292-2.49
				c1.054-2.211,3.336,0.12,3.336,1.612c0,11.253,0,22.502,0,33.754c0,10.628,1.128,22.012-2.604,32.146
				c-6.448,17.511-25.609,26.222-43.35,23.263c-18.175-3.027-31.27-19.203-31.27-37.456c0-6.634,0-13.267,0-19.897
				c0-36.051,0-72.102,0-108.152c0-21.191,0-42.383,0-63.573c0-6.89,0-13.775,0-20.664c0-16.578-11.884-30.854-27.977-34.354
				c-2.311-0.502-4.697-0.676-7.056-0.715c0,1.322,0,2.643,0,3.965c0.033,0,0.064,0,0.095,0c0-1.322,0-2.643,0-3.965
				c-17.354,0.285-32.089,12.854-34.671,30.107c-0.543,3.626-0.362,7.373-0.362,11.028c0,6.149,0,12.299,0,18.446
				c0,6.489,0,12.976,0,19.463c0,2.082,0,4.163,0,6.244c0,0.595,0,1.189,0,1.784c0,2.685-3.408,2.851-3.627,0.192
				c-0.325-3.928,0-8.02,0-11.956c0-6.684,0-13.366,0-20.05c0-9.94-1.145-20.918,1.06-30.697
				c4.107-18.24,21.056-29.059,39.058-28.832c18.948,0.24,34.692,14.953,36.878,33.597c0.808,6.885,0.229,14.128,0.229,21.036
				C-717.746,627.044-717.746,663.882-717.746,700.72c0,2.56,3.966,2.56,3.966,0c0-37.863,0-75.732,0-113.6
				c0-7.53,0.5-15.312-0.97-22.734c-3.254-16.448-17.005-28.935-33.212-32.062c-15.754-3.039-32.916,2.812-42.59,15.814
				c-7.45,10.01-8.384,21.147-8.384,33.085c0,12.65,0,25.302,0,37.95c0,3.412-0.926,8.738,1.229,11.644
				c3.462,4.671,10.332,1.412,10.332-3.901c0-11.087,0-22.176,0-33.265c0-10.501-1.504-22.556,3.088-32.312
				c5.078-10.786,16.232-17.337,27.977-17.534c2.555-0.041,2.559-3.965,0-3.965c-0.032,0-0.063,0-0.095,0
				c-2.56,0-2.556,3.924,0,3.965c17.297,0.289,31.064,14.204,31.064,31.53c0,7.92,0,15.84,0,23.76c0,20.248,0,40.499,0,60.748
				c0,36.916,0,73.835,0,110.752c0,6.963-0.404,14.089,0.228,21.036c1.517,16.658,13.185,30.434,28.903,35.605
				c15.547,5.113,33.422,0.588,44.733-11.111c9.073-9.385,11.295-21.428,11.295-33.944c0-12.541,0-25.077,0-37.617
				c0-3.377,0.987-8.867-0.533-12.033c-2.383-4.968-10.484-4.149-10.96,1.713c-0.878,10.785-0.068,21.944-0.068,32.762
				c0,10.539,1.522,22.667-3.088,32.46c-5.078,10.783-16.232,17.338-27.977,17.531c-2.555,0.043-2.56,3.969,0,3.969
				c0.03,0,0.063,0,0.096,0c2.56,0,2.555-3.926,0-3.969c-17.3-0.285-31.065-14.202-31.065-31.528c0-7.92,0-15.842,0-23.76
				c0-20.249,0-40.499,0-60.746c0-0.081,0-0.159,0-0.24C-713.779,698.165-717.746,698.165-717.746,700.72z"/>
		</g>
	</g>
	<g>
		<polyline fill="#FFFFFF" points="-757.721,543.393 -757.721,766.072 -723.389,766.072 		"/>
		<g>
			<path fill="#231F20" d="M-759.704,543.393c0,34.214,0,68.43,0,102.641c0,39.429,0,78.857,0,118.285c0,0.584,0,1.169,0,1.754
				c0,1.079,0.902,1.981,1.982,1.981c11.444,0,22.889,0,34.333,0c2.557,0,2.557-3.964,0-3.964c-11.444,0-22.888,0-34.333,0
				c0.661,0.66,1.323,1.321,1.983,1.982c0-34.215,0-68.429,0-102.641c0-39.429,0-78.858,0-118.287c0-0.58,0-1.168,0-1.75
				C-755.738,540.834-759.704,540.834-759.704,543.393L-759.704,543.393z"/>
		</g>
	</g>
	<g>
		<polygon fill="#FFFFFF" points="-725.909,774.996 -741.362,806.506 -756.817,774.994 		"/>
		<g>
			<path fill="#231F20" d="M-727.621,773.996c-5.151,10.504-10.303,21.006-15.453,31.51c1.142,0,2.283,0,3.424,0
				c-5.151-10.503-10.304-21.005-15.455-31.513c-0.57,0.995-1.141,1.99-1.712,2.986c10.303,0.001,20.607,0.001,30.909,0.002
				c2.558,0,2.558-3.967,0-3.967c-10.302-0.002-20.606-0.002-30.909-0.002c-1.586,0-2.36,1.664-1.711,2.984
				c5.151,10.505,10.303,21.005,15.454,31.511c0.637,1.295,2.791,1.295,3.424,0c5.152-10.503,10.303-21.004,15.453-31.509
				C-723.073,773.712-726.495,771.7-727.621,773.996z"/>
		</g>
	</g>
	<g>
		<path fill="#FFFFFF" d="M-756.848,469.982c-0.047,0-0.091,0-0.138,0v53.045h0.473c10.746,0,28.11,5.537,33.959,13.555v-40.119
			C-722.554,481.852-742.24,470.002-756.848,469.982z"/>
		<g>
			<path fill="#231F20" d="M-756.848,468c-0.047,0-0.092,0.002-0.138,0.002c-1.081,0.012-1.983,0.893-1.983,1.98
				c0,17.686,0,35.365,0,53.045c0,1.082,0.903,1.984,1.983,1.984c11.006,0,25.987,3.875,33.03,12.971
				c1.108,1.434,3.385,0.172,3.385-1.4c0-12.479,0-24.955,0-37.434c0-7.213-2.128-13.055-7.136-18.428
				C-734.947,472.953-746.302,468.195-756.848,468c-2.559-0.049-2.555,3.92,0,3.967c10.391,0.191,20.873,5.238,27.681,13.049
				c4.34,4.975,4.631,10.439,4.631,16.572c0,11.666,0,23.33,0,34.994c1.128-0.469,2.256-0.938,3.386-1.404
				c-7.651-9.885-23.89-14.133-35.834-14.133c0.661,0.66,1.323,1.322,1.983,1.982c0-17.68,0-35.359,0-53.045
				c-0.66,0.664-1.322,1.322-1.983,1.986c0.046,0,0.091-0.002,0.137-0.002C-754.293,471.938-754.29,467.971-756.848,468z"/>
		</g>
	</g>
	<g>
		<line fill="none" x1="-741.362" y1="794.634" x2="-741.362" y2="809.943"/>
		<g>
			<path fill="#231F20" d="M-743.345,794.634c0,5.104,0,10.208,0,15.31c0,2.559,3.966,2.559,3.966,0c0-5.102,0-10.205,0-15.31
				C-739.379,792.076-743.345,792.076-743.345,794.634L-743.345,794.634z"/>
		</g>
	</g>
	<g>
		<polyline fill="#FFFFFF" points="-680.818,817.607 -680.818,594.93 -715.15,594.93 		"/>
		<g>
			<path fill="#231F20" d="M-678.835,817.607c0-34.214,0-68.427,0-102.641c0-39.429,0-78.856,0-118.284c0-0.585,0-1.168,0-1.753
				c0-1.08-0.902-1.981-1.983-1.981c-11.445,0-22.888,0-34.333,0c-2.558,0-2.558,3.965,0,3.965c11.444,0,22.888,0,34.333,0
				c-0.661-0.66-1.322-1.321-1.983-1.983c0,34.214,0,68.427,0,102.64c0,39.428,0,78.857,0,118.286c0,0.582,0,1.168,0,1.752
				C-682.801,820.166-678.835,820.166-678.835,817.607L-678.835,817.607z"/>
		</g>
	</g>
	<g>
		<polygon fill="#FFFFFF" points="-712.63,586.004 -697.177,554.496 -681.722,586.005 		"/>
		<g>
			<path fill="#231F20" d="M-710.918,587.006c5.151-10.505,10.302-21.008,15.454-31.511c-1.142,0-2.284,0-3.425,0
				c5.153,10.502,10.304,21.006,15.455,31.512c0.571-0.995,1.141-1.99,1.712-2.985c-10.303,0-20.605,0-30.909-0.001
				c-2.559,0-2.559,3.967,0,3.967c10.304,0,20.606,0,30.909,0.001c1.587,0,2.36-1.665,1.712-2.984
				c-5.152-10.504-10.303-21.007-15.455-31.512c-0.636-1.297-2.791-1.297-3.425,0c-5.151,10.503-10.301,21.006-15.452,31.511
				C-715.464,587.29-712.044,589.302-710.918,587.006z"/>
		</g>
	</g>
	<g>
		<path fill="#FFFFFF" d="M-681.69,891.016c0.046,0,0.089,0,0.137,0v-53.041h-0.474c-10.746,0-28.11-5.537-33.959-13.555v40.117
			C-715.986,879.148-696.297,890.994-681.69,891.016z"/>
		<g>
			<path fill="#231F20" d="M-681.69,893c0.046-0.002,0.09-0.002,0.137-0.002c1.08-0.014,1.982-0.893,1.982-1.982
				c0-17.682,0-35.361,0-53.041c0-1.082-0.903-1.986-1.982-1.986c-11.007,0-25.987-3.875-33.031-12.971
				c-1.109-1.434-3.386-0.172-3.386,1.402c0,12.477,0,24.955,0,37.432c0,7.215,2.128,13.059,7.135,18.428
				C-703.592,888.047-692.236,892.807-681.69,893c2.561,0.047,2.555-3.918,0-3.965c-10.392-0.193-20.873-5.242-27.681-13.051
				c-4.34-4.977-4.631-10.438-4.631-16.572c0-11.664,0-23.328,0-34.992c-1.128,0.467-2.257,0.936-3.385,1.402
				c7.651,9.883,23.888,14.133,35.834,14.133c-0.662-0.658-1.323-1.322-1.983-1.98c0,17.68,0,35.359,0,53.041
				c0.661-0.66,1.322-1.322,1.983-1.982c-0.046,0-0.091,0-0.137,0.002C-684.247,889.064-684.248,893.029-681.69,893z"/>
		</g>
	</g>
	<g>
		<line fill="none" x1="-697.177" y1="566.367" x2="-697.177" y2="551.057"/>
		<g>
			<path fill="#231F20" d="M-695.195,566.367c0-5.104,0-10.207,0-15.311c0-2.559-3.965-2.559-3.965,0c0,5.104,0,10.207,0,15.311
				C-699.16,568.925-695.195,568.925-695.195,566.367L-695.195,566.367z"/>
		</g>
	</g>
	<g>
		<path fill="#FFFFFF" d="M-756.777,541.824h-0.944v1.568v222.68h34.333h0.031v-65.429V660.08v-85.208
			c0-18.253-14.795-33.048-33.047-33.048h0.096"/>
		<g>
			<path fill="#231F20" d="M-756.777,539.84c-0.315,0-0.629,0-0.944,0c-1.081,0-1.982,0.9-1.982,1.984c0,33.946,0,67.896,0,101.843
				c0,40.05,0,80.101,0,120.153c0,0.751,0,1.502,0,2.252c0,1.08,0.902,1.982,1.982,1.982c11.455,0,22.909,0,34.363,0
				c1.082,0,1.983-0.902,1.983-1.982c0-35.323,0-70.647,0-105.972c0-18.864,0-37.729,0-56.59c0-9.028,0-18.057,0-27.081
				c0-13.276-6.084-25.125-17.65-31.979c-5.239-3.107-11.337-4.51-17.38-4.611c0,1.322,0,2.645,0,3.965c0.032,0,0.063,0,0.096,0
				c2.557,0,2.557-3.965,0-3.965c-0.033,0-0.064,0-0.096,0c-2.56,0-2.556,3.924,0,3.965c17.297,0.289,31.064,14.204,31.064,31.53
				c0,7.92,0,15.84,0,23.759c0,20.249,0,40.5,0,60.748c0,35.262,0,70.523,0,105.786c0,0.15,0,0.296,0,0.445
				c0.661-0.66,1.322-1.321,1.983-1.981c-11.455,0-22.909,0-34.363,0c0.661,0.66,1.323,1.321,1.983,1.981
				c0-34.216,0-68.428,0-102.64c0-39.429,0-78.858,0-118.287c0-1.105,0-2.215,0-3.32c-0.661,0.66-1.322,1.322-1.983,1.982
				c0.315,0,0.629,0,0.944,0C-754.219,543.805-754.219,539.84-756.777,539.84L-756.777,539.84z"/>
		</g>
	</g>
	<g>
		<path fill="#FFFFFF" d="M-681.747,819.176h0.944v-1.568V594.93h-34.332h-0.031v65.431v40.562v85.209
			c0,18.253,14.796,33.046,33.049,33.046h-0.095"/>
		<g>
			<path fill="#231F20" d="M-681.747,821.16c0.315,0,0.629,0,0.944,0c1.082,0,1.983-0.902,1.983-1.984c0-33.947,0-67.893,0-101.844
				c0-40.051,0-80.102,0-120.152c0-0.75,0-1.503,0-2.253c0-1.08-0.901-1.982-1.983-1.982c-11.454,0-22.911,0-34.364,0
				c-1.08,0-1.982,0.902-1.982,1.982c0,35.323,0,70.648,0,105.974c0,18.863,0,37.727,0,56.593c0,9.024,0,18.051,0,27.078
				c0,13.274,6.085,25.124,17.651,31.979c5.238,3.105,11.336,4.508,17.38,4.609c0-1.322,0-2.643,0-3.965c-0.032,0-0.065,0-0.096,0
				c-2.558,0-2.558,3.965,0,3.965c0.031,0,0.064,0,0.096,0c2.56,0,2.555-3.922,0-3.965c-17.299-0.287-31.065-14.204-31.065-31.529
				c0-7.919,0-15.842,0-23.76c0-20.248,0-40.498,0-60.746c0-35.263,0-70.525,0-105.785c0-0.147,0-0.296,0-0.446
				c-0.661,0.662-1.322,1.323-1.984,1.983c11.454,0,22.911,0,34.364,0c-0.662-0.66-1.323-1.321-1.983-1.983
				c0,34.214,0,68.428,0,102.64c0,39.429,0,78.858,0,118.287c0,1.105,0,2.215,0,3.32c0.66-0.658,1.322-1.322,1.983-1.98
				c-0.314,0-0.628,0-0.944,0C-684.302,817.195-684.302,821.16-681.747,821.16L-681.747,821.16z"/>
		</g>
	</g>
</g>
</svg>
