<?xml version="1.0" encoding="utf-8"?>
<!-- Generator: Adobe Illustrator 16.0.0, SVG Export Plug-In . SVG Version: 6.00 Build 0)  -->
<!DOCTYPE svg PUBLIC "-//W3C//DTD SVG 1.1//EN" "http://www.w3.org/Graphics/SVG/1.1/DTD/svg11.dtd">
<svg version="1.1" id="Layer_1" xmlns="http://www.w3.org/2000/svg" xmlns:xlink="http://www.w3.org/1999/xlink" x="0px" y="0px"
	 width="560px" height="560px" viewBox="-999.5 400.5 560 560" enable-background="new -999.5 400.5 560 560" xml:space="preserve">
<g>
	<g>
		<g>
			<path fill="#231F20" d="M-709.566,626.139c0,39.883,0,79.768,0,119.65c0,3.224,5,3.224,5,0c0-39.883,0-79.768,0-119.65
				C-704.566,622.915-709.566,622.915-709.566,626.139L-709.566,626.139z"/>
		</g>
	</g>
	<g>
		<g>
			<path fill="#231F20" d="M-691.46,537.027c-0.646-16.101-11.217-31.785-28.48-32.274c-17.243-0.489-27.864,16.929-28.481,32.274
				c0.833-0.832,1.667-1.666,2.5-2.5c-0.005,0-0.01,0-0.015,0c-1.363,0-2.5,1.138-2.5,2.5c0,44.648,0,89.297,0,133.945
				c0,30.215,0,60.431,0,90.646c0,9.616,0,19.23,0,28.847c0,5.516-0.208,11.015,0.656,16.479c0.994,6.291,4.104,12.094,8.206,16.88
				c0.952,1.109,2.544,0.806,3.535,0c4.516-3.668,11.933-4.613,17.482-6.344c-1.733,0.54-0.533,0.196,1.015,0.666
				c2.01,0.606,4.021,1.215,6.03,1.821c3.144,0.95,6.246,1.505,8.844,3.482c0.811,0.618,2.396,0.401,3.029-0.392
				c11.318-14.197,8.193-35.329,8.193-52.421c0-28.906,0-57.812,0-86.721c0-48.686,0-97.37,0-146.055c0-0.278,0-0.557,0-0.836
				c0-1.362-1.137-2.5-2.5-2.5c-0.005,0-0.01,0-0.015,0c-3.224,0-3.224,5,0,5c0.005,0,0.01,0,0.015,0
				c-0.832-0.832-1.666-1.666-2.5-2.5c0,44.648,0,89.297,0,133.945c0,30.215,0,60.431,0,90.646c0,9.616,0,19.23,0,28.847
				c0,6.155,0.334,12.311-1.209,18.327c-1.005,3.922-3.008,7.581-5.52,10.732c1.01-0.132,2.02-0.262,3.029-0.392
				c-2.979-2.269-6.482-2.912-10.039-3.986c-2.318-0.701-7.123-3.294-9.633-2.512c-6.623,2.065-14.306,3.225-19.758,7.652
				c1.178,0,2.357,0,3.535,0c-6.777-7.907-7.396-17.145-7.396-26.853c0-8.718,0-17.437,0-26.154c0-29.444,0-58.89,0-88.333
				c0-47.201,0-94.401,0-141.603c0-0.105,0-0.213,0-0.318c-0.833,0.832-1.667,1.666-2.5,2.5c0.005,0,0.01,0,0.015,0
				c1.404,0,2.445-1.139,2.5-2.5c0.535-13.307,9.031-26.866,23.481-27.275c14.432-0.409,22.971,14.604,23.48,27.275
				C-696.332,540.241-691.331,540.254-691.46,537.027z"/>
		</g>
	</g>
	<g>
		<path fill="#FFFFFF" d="M-735.177,820.044l6.354,15.432l9.438,22.898l9.438-22.898l6.463-15.69
			c-4.49-2.985-9.873-4.736-15.67-4.736C-725.108,815.048-730.615,816.907-735.177,820.044z"/>
		<g>
			<path fill="#231F20" d="M-737.587,820.709c5.262,12.777,10.527,25.554,15.793,38.33c0.975,2.366,3.846,2.366,4.821,0
				c5.302-12.863,10.603-25.727,15.9-38.59c0.43-1.042-0.283-2.283-1.148-2.824c-10.68-6.672-23.655-6.604-34.217,0.26
				c-2.692,1.75-0.189,6.08,2.523,4.318c9.13-5.934,19.921-6.039,29.17-0.26c-0.383-0.941-0.766-1.884-1.149-2.824
				c-5.297,12.864-10.599,25.728-15.9,38.59c1.607,0,3.214,0,4.82,0c-5.265-12.775-10.53-25.552-15.792-38.33
				C-733.976,816.441-738.815,817.727-737.587,820.709z"/>
		</g>
	</g>
	<g>
		<g>
			<path fill="#231F20" d="M-721.884,843.406c0,7.09,0,14.18,0,21.27c0,3.226,5,3.226,5,0c0-7.09,0-14.18,0-21.27
				C-716.884,840.182-721.884,840.182-721.884,843.406L-721.884,843.406z"/>
		</g>
	</g>
	<g>
		<path fill="#FFFFFF" d="M-745.936,566.318c0,0,12.407,0,44.901,0c32.494,0,44.901,18.315,44.901,44.902c0,26.586,0,44.9,0,44.9
			c0,6.203,0,9.453-4.449,9.453c-3.823,0-4.449-3.055-4.449-9.453c0-12.801,0-23.582,0-44.9s-9.948-36.005-36.003-36.005
			c-26.056,0-44.901,0-44.901,0V566.318z"/>
		<g>
			<path fill="#231F20" d="M-745.936,568.818c15.477,0,30.958-0.125,46.434,0.015c10.583,0.097,21.564,2.621,29.553,9.917
				c7.01,6.4,9.993,15.93,10.973,25.107c1.351,12.67,0.344,25.838,0.344,38.574c0,6.161,0.742,13.09-0.232,19.221
				c-0.18,1.127-1.943,2.242-2.857,1.05c-0.717-0.935-0.661-2.556-0.743-3.657c-0.188-2.533-0.063-5.113-0.063-7.652
				c0-5.281,0-10.562,0-15.844c0-11.75,1.09-24.008-1.054-35.613c-3.013-16.315-15.771-25.229-31.614-26.951
				c-11.65-1.267-23.852-0.267-35.571-0.267c-5.056,0-10.111,0-15.167,0c0.833,0.833,1.667,1.667,2.5,2.5c0-2.966,0-5.932,0-8.897
				c0-3.223-5-3.223-5,0c0,2.967,0,5.933,0,8.897c0,1.363,1.137,2.5,2.5,2.5c6.415,0,12.83,0,19.244,0
				c12.914,0,27.134-1.753,39.666,1.88c24.069,6.977,19.495,36.738,19.495,55.951c0,4.891,0,9.783,0,14.674
				c0,4.416-0.917,10.2,1.132,14.289c1.403,2.801,4.411,4.141,7.504,3.408c3.896-0.923,4.881-4.066,5.192-7.703
				c0.536-6.262,0.069-12.775,0.069-19.044c0-12.741,0.882-25.812-0.471-38.493c-0.988-9.272-4.101-18.117-10.188-25.268
				c-6.595-7.745-16.791-11.655-26.644-12.928c-13.58-1.754-27.732-0.664-41.414-0.664c-4.529,0-9.058,0-13.587,0
				C-749.16,563.818-749.16,568.818-745.936,568.818z"/>
		</g>
	</g>
</g>
</svg>
