<?xml version="1.0" encoding="utf-8"?>
<!-- Generator: Adobe Illustrator 16.0.0, SVG Export Plug-In . SVG Version: 6.00 Build 0)  -->
<!DOCTYPE svg PUBLIC "-//W3C//DTD SVG 1.1//EN" "http://www.w3.org/Graphics/SVG/1.1/DTD/svg11.dtd">
<svg version="1.1" id="Layer_1" xmlns="http://www.w3.org/2000/svg" xmlns:xlink="http://www.w3.org/1999/xlink" x="0px" y="0px"
	 width="560px" height="560px" viewBox="-999.5 400.5 560 560" enable-background="new -999.5 400.5 560 560" xml:space="preserve">
<g>
	<g>
		<rect x="-734.123" y="637.43" fill="#FFFFFF" width="36.838" height="207.961"/>
		<g>
			<path fill="#231F20" d="M-697.285,843.181c-12.279,0-24.559,0-36.838,0c0.737,0.736,1.473,1.475,2.21,2.21
				c0-48.935,0-97.871,0-146.806c0-20.385,0-40.771,0-61.155c-0.737,0.737-1.473,1.473-2.21,2.211c12.279,0,24.559,0,36.838,0
				c-0.736-0.738-1.473-1.474-2.21-2.211c0,48.936,0,97.871,0,146.807c0,20.385,0,40.771,0,61.154c0,2.851,4.42,2.851,4.42,0
				c0-48.935,0-97.871,0-146.806c0-20.385,0-40.771,0-61.155c0-1.205-1.005-2.21-2.21-2.21c-12.279,0-24.559,0-36.838,0
				c-1.205,0-2.21,1.005-2.21,2.21c0,48.936,0,97.871,0,146.807c0,20.385,0,40.771,0,61.154c0,1.205,1.005,2.21,2.21,2.21
				c12.279,0,24.559,0,36.838,0C-694.436,847.601-694.436,843.181-697.285,843.181z"/>
		</g>
	</g>
	<g>
		<g>
			<path fill="#231F20" d="M-719.699,613.41c0-7.159,0-14.317,0-21.477c0-5.172,0.459-10.643-0.248-15.781
				c-0.864-6.271-5.93-13.752-12.458-7.713c-3.741,3.459-4.614,13.635,0.534,16.384c2.957,1.579,5.619,0.575,7.785-1.773
				c4.005-4.342,6.07-10.192,10.066-14.631c1.926-2.139-0.963-4.957-3.125-3.125c-0.319,0.271-0.64,0.542-0.959,0.813
				c1.041,1.041,2.082,2.082,3.125,3.125c4.189-4.366,10.191-11.659,5.939-17.892c-2.594-3.802-8.122-4.294-11.902-2.184
				c-5.794,3.235-2.914,10.675-0.132,14.821c2.947,4.396,6.742,8.008,9.505,12.592c1.832,3.041,3.5,6.508,6.596,8.457
				c8.551,5.38,13.861-17.358,1.109-18.756c-7.037-0.771-7.848,10.136-7.848,14.612c0,10.843,0,21.685,0,32.525
				c0,2.85,4.42,2.85,4.42,0c0-11.091,0-22.183,0-33.272c0-2.174,1.641-14.003,5.729-7.787c1.172,1.78,1.445,11.248-2.013,8.25
				c-3.536-3.064-5.498-8.718-8.295-12.466c-2.737-3.667-8.826-8.129-8.019-13.38c0.456-2.96,4.454-2.784,6.394-1.684
				c5.022,2.852-2.668,11.015-4.608,13.037c-2,2.084,0.976,4.944,3.125,3.125c0.319-0.271,0.641-0.543,0.959-0.813
				c-1.041-1.042-2.082-2.083-3.125-3.125c-4.2,4.667-6.486,10.75-10.69,15.308c-2.253,2.442-3.045-2.412-3.096-3.703
				c-0.086-2.174,0.727-5.916,3.383-6.207c5.43-0.594,3.429,39.092,3.429,42.719C-724.119,616.26-719.699,616.26-719.699,613.41
				L-719.699,613.41z"/>
		</g>
	</g>
	<g>
		<g>
			<path fill="#231F20" d="M-710.189,688.529c0,35.255,0,70.508,0,105.762c0,2.85,4.42,2.85,4.42,0c0-35.254,0-70.507,0-105.761
				C-705.77,685.68-710.189,685.68-710.189,688.529L-710.189,688.529z"/>
		</g>
	</g>
	<g>
		<g>
			<path fill="#231F20" d="M-697.379,843.768c-12.189,0-24.38,0-36.57,0c-1.36,0-2.614,1.426-2.131,2.799
				c3.992,11.338,7.949,22.688,12.06,33.982c0.521,1.43,1.882,1.945,3.246,1.32c3.458-1.583,6.727-1.604,10.234-0.032
				c1.368,0.612,2.724,0.118,3.246-1.32c4.104-11.285,8.058-22.624,12.045-33.95c0.949-2.696-3.321-3.846-4.262-1.177
				c-3.988,11.328-7.94,22.666-12.046,33.951c1.082-0.438,2.164-0.88,3.246-1.319c-5.068-2.271-9.64-2.283-14.694,0.031
				c1.082,0.44,2.164,0.881,3.246,1.32c-4.111-11.295-8.068-22.645-12.06-33.983c-0.71,0.934-1.42,1.865-2.131,2.799
				c12.19,0,24.38,0,36.57,0C-694.529,848.188-694.529,843.768-697.379,843.768z"/>
		</g>
	</g>
	<g>
		<g>
			<path fill="#231F20" d="M-722.399,881.422c1.535,4.806,3.07,9.611,4.605,14.418c0.672,2.105,3.589,2.105,4.262,0
				c1.535-4.807,3.07-9.612,4.605-14.418c0.87-2.723-3.398-3.879-4.263-1.176c-1.535,4.807-3.069,9.612-4.604,14.418
				c1.42,0,2.841,0,4.262,0c-1.534-4.806-3.069-9.611-4.604-14.418C-719.001,877.543-723.269,878.699-722.399,881.422
				L-722.399,881.422z"/>
		</g>
	</g>
	<g>
		<g>
			<path fill="#231F20" d="M-697.285,647.333c5.545,0,11.09,0,16.637,0c-0.737-0.737-1.474-1.474-2.211-2.21
				c0,23.568,0,47.139,0,70.708c0,2.85,4.42,2.85,4.42,0c0-23.569,0-47.14,0-70.708c0-1.205-1.004-2.21-2.209-2.21
				c-5.545,0-11.091,0-16.637,0C-700.135,642.914-700.135,647.333-697.285,647.333L-697.285,647.333z"/>
		</g>
	</g>
	<g>
		<g>
			<path fill="#231F20" d="M-731.913,614.301c-0.167-10.355-3.689-19.33-9.386-27.857c-5.083-7.607-11.474-14.788-12.47-24.26
				c-1.517-14.424,5.431-30.646,18.235-37.752c17.14-9.514,42.562-4.548,52.447,12.766c3.394,5.941,5,12.925,5.452,19.705
				c0.598,8.986-3.068,16.072-8.068,23.252c-7.439,10.68-13.574,20.705-13.791,34.146c-0.046,2.853,4.374,2.847,4.42,0
				c0.182-11.3,4.943-20.25,11.307-29.255c5.009-7.088,9.621-14.023,10.551-22.861c1.388-13.191-4.18-28.406-14.057-37.17
				c-13.48-11.965-37.254-12.347-52.326-3.343c-12.373,7.392-17.877,22.089-18.626,35.869c-0.515,9.471,3.429,17.269,8.706,24.845
				c6.959,9.991,12.983,19.285,13.187,31.915C-736.287,617.148-731.867,617.152-731.913,614.301L-731.913,614.301z"/>
		</g>
	</g>
	<g>
		<g>
			<path fill="#231F20" d="M-713.825,502.386c0-9.903,0-19.806,0-29.708c0-2.85-4.42-2.85-4.42,0c0,9.903,0,19.807,0,29.708
				C-718.245,505.236-713.825,505.236-713.825,502.386L-713.825,502.386z"/>
		</g>
	</g>
	<g>
		<g>
			<path fill="#231F20" d="M-661.259,559.372c9.901,0,19.805,0,29.708,0c2.85,0,2.85-4.42,0-4.42c-9.902,0-19.805,0-29.708,0
				C-664.109,554.952-664.109,559.372-661.259,559.372L-661.259,559.372z"/>
		</g>
	</g>
	<g>
		<g>
			<path fill="#231F20" d="M-770.81,554.952c-9.903,0-19.806,0-29.708,0c-2.85,0-2.85,4.42,0,4.42c9.903,0,19.806,0,29.708,0
				C-767.96,559.372-767.96,554.952-770.81,554.952L-770.81,554.952z"/>
		</g>
	</g>
	<g>
		<g>
			<path fill="#231F20" d="M-753.205,516.867c-7.002-7.003-14.004-14.006-21.006-21.01c-2.017-2.017-5.142,1.108-3.125,3.125
				c7.002,7.004,14.004,14.007,21.006,21.01C-754.313,522.009-751.188,518.884-753.205,516.867L-753.205,516.867z"/>
		</g>
	</g>
	<g>
		<g>
			<path fill="#231F20" d="M-675.74,519.992c7.002-7.003,14.006-14.006,21.008-21.01c2.017-2.017-1.108-5.142-3.125-3.125
				c-7.002,7.004-14.006,14.007-21.008,21.01C-680.882,518.884-677.757,522.009-675.74,519.992L-675.74,519.992z"/>
		</g>
	</g>
	<g>
		<g>
			<path fill="#231F20" d="M-738.264,624.535c15.04,0,30.081,0,45.122,0c2.85,0,2.85-4.42,0-4.42c-15.041,0-30.082,0-45.122,0
				C-741.114,620.115-741.114,624.535-738.264,624.535L-738.264,624.535z"/>
		</g>
	</g>
	<g>
		<g>
			<path fill="#231F20" d="M-738.264,631.846c15.04,0,30.081,0,45.122,0c2.85,0,2.85-4.42,0-4.42c-15.041,0-30.082,0-45.122,0
				C-741.114,627.426-741.114,631.846-738.264,631.846L-738.264,631.846z"/>
		</g>
	</g>
	<g>
		<g>
			<path fill="#231F20" d="M-738.264,639.157c15.04,0,30.081,0,45.122,0c2.85,0,2.85-4.421,0-4.421c-15.041,0-30.082,0-45.122,0
				C-741.114,634.736-741.114,639.157-738.264,639.157L-738.264,639.157z"/>
		</g>
	</g>
</g>
</svg>
