<?xml version="1.0" encoding="utf-8"?>
<!-- Generator: Adobe Illustrator 16.0.0, SVG Export Plug-In . SVG Version: 6.00 Build 0)  -->
<!DOCTYPE svg PUBLIC "-//W3C//DTD SVG 1.1//EN" "http://www.w3.org/Graphics/SVG/1.1/DTD/svg11.dtd">
<svg version="1.1" id="Layer_1" xmlns="http://www.w3.org/2000/svg" xmlns:xlink="http://www.w3.org/1999/xlink" x="0px" y="0px"
	 width="560px" height="560px" viewBox="0 0 560 560" enable-background="new 0 0 560 560" xml:space="preserve">
<g>
	<g>
		<path fill="#FFFFFF" d="M308.33,131.254c-0.322-16.491-11.815-29.746-25.957-29.746c-14.14,0-25.633,13.255-25.955,29.746h-0.015
			v262.641c0,8.712,3.123,16.56,8.121,22.111c0.831-0.726,1.717-1.386,2.628-2.01l16.009-4.993l15.653,4.731
			c0.714,0.477,1.408,0.974,2.074,1.509c4.609-5.497,7.455-13.032,7.455-21.349V131.254H308.33z"/>
		<g>
			<path fill="#231F20" d="M310.826,131.254c-0.645-16.086-11.206-31.755-28.453-32.244c-17.226-0.488-27.837,16.912-28.453,32.244
				c0.832-0.832,1.666-1.666,2.498-2.498c-0.005,0-0.01,0-0.015,0c-1.362,0-2.498,1.137-2.498,2.498c0,44.604,0,89.209,0,133.813
				c0,30.187,0,60.372,0,90.558c0,9.604,0,19.212,0,28.818c0,5.51-0.208,11.003,0.655,16.463c0.993,6.285,4.099,12.082,8.198,16.864
				c0.951,1.109,2.542,0.805,3.532,0c4.511-3.663,11.923-4.609,17.467-6.34c-1.731,0.54-0.534,0.197,1.014,0.666
				c2.008,0.606,4.017,1.214,6.024,1.82c3.142,0.949,6.239,1.504,8.836,3.48c0.811,0.616,2.395,0.4,3.025-0.392
				c11.307-14.185,8.186-35.297,8.186-52.371c0-28.878,0-57.757,0-86.635c0-48.638,0-97.275,0-145.914c0-0.277,0-0.557,0-0.834
				c0-1.362-1.137-2.498-2.498-2.498c-0.004,0-0.01,0-0.014,0c-3.223,0-3.223,4.995,0,4.995c0.004,0,0.01,0,0.014,0
				c-0.832-0.832-1.664-1.665-2.498-2.497c0,44.604,0,89.209,0,133.813c0,30.186,0,60.372,0,90.558c0,9.604,0,19.212,0,28.818
				c0,6.149,0.334,12.298-1.207,18.311c-1.004,3.918-3.004,7.574-5.515,10.721c1.009-0.13,2.019-0.26,3.026-0.39
				c-2.977-2.268-6.475-2.91-10.029-3.984c-2.316-0.701-7.116-3.29-9.625-2.509c-6.616,2.063-14.292,3.223-19.739,7.646
				c1.177,0,2.355,0,3.532,0c-6.771-7.899-7.389-17.129-7.389-26.829c0-8.709,0-17.418,0-26.129c0-29.414,0-58.831,0-88.246
				c0-47.154,0-94.309,0-141.464c0-0.106,0-0.213,0-0.318c-0.832,0.832-1.666,1.665-2.498,2.497c0.005,0,0.01,0,0.015,0
				c1.402,0,2.442-1.138,2.498-2.497c0.534-13.294,9.022-26.84,23.458-27.249c14.419-0.408,22.951,14.588,23.459,27.249
				C305.961,134.463,310.957,134.477,310.826,131.254z"/>
		</g>
	</g>
	<g>
		<g>
			<path fill="#231F20" d="M292.737,220.278c0,39.845,0,79.689,0,119.534c0,3.221,4.995,3.221,4.995,0c0-39.847,0-79.689,0-119.534
				C297.732,217.058,292.737,217.058,292.737,220.278L292.737,220.278z"/>
		</g>
	</g>
	<g>
		<path fill="#FFFFFF" d="M267.152,413.996l6.348,15.417l9.429,22.876l9.431-22.876l6.455-15.678
			c-4.484-2.981-9.863-4.731-15.653-4.731C277.21,409.003,271.709,410.86,267.152,413.996z"/>
		<g>
			<path fill="#231F20" d="M264.744,414.66c5.257,12.766,10.517,25.529,15.778,38.293c0.974,2.364,3.842,2.364,4.816,0
				c5.298-12.851,10.594-25.703,15.885-38.554c0.43-1.041-0.281-2.281-1.146-2.821c-10.672-6.665-23.634-6.599-34.185,0.262
				c-2.689,1.748-0.188,6.074,2.521,4.312c9.12-5.93,19.901-6.033,29.143-0.263c-0.383-0.938-0.767-1.88-1.148-2.819
				c-5.292,12.852-10.588,25.703-15.885,38.555c1.605,0,3.211,0,4.816,0c-5.261-12.764-10.521-25.527-15.778-38.293
				C268.352,410.397,263.517,411.681,264.744,414.66z"/>
		</g>
	</g>
	<g>
		<g>
			<path fill="#231F20" d="M280.432,437.335c0,7.083,0,14.166,0,21.249c0,3.221,4.996,3.221,4.996,0c0-7.083,0-14.166,0-21.249
				C285.428,434.113,280.432,434.113,280.432,437.335L280.432,437.335z"/>
		</g>
	</g>
	
		<path fill="#FFFFFF" stroke="#231F20" stroke-width="4.9952" stroke-linecap="round" stroke-linejoin="round" stroke-miterlimit="10" d="
		M256.403,160.518c0,0,12.395,0,44.859,0c32.463,0,44.857,18.297,44.857,44.857c0,26.56,0,44.858,0,44.858
		c0,6.197,0,9.444-4.443,9.444c-3.818,0-4.445-3.051-4.445-9.444c0-12.789,0-23.56,0-44.858c0-21.296-9.938-35.969-35.969-35.969
		s-44.859,0-44.859,0V160.518z"/>
</g>
</svg>
