<?xml version="1.0" encoding="utf-8"?>
<!-- Generator: Adobe Illustrator 16.0.0, SVG Export Plug-In . SVG Version: 6.00 Build 0)  -->
<!DOCTYPE svg PUBLIC "-//W3C//DTD SVG 1.1//EN" "http://www.w3.org/Graphics/SVG/1.1/DTD/svg11.dtd">
<svg version="1.1" id="Layer_1" xmlns="http://www.w3.org/2000/svg" xmlns:xlink="http://www.w3.org/1999/xlink" x="0px" y="0px"
	 width="600px" height="600px" viewBox="-999.5 400.5 600 600" enable-background="new -999.5 400.5 600 600" xml:space="preserve">
<g>
	<g>
		<g>
			<path fill="#231F20" d="M-693.843,655.08c0,43.424,0,86.849,0,130.271c0,3.511,5.443,3.511,5.443,0c0-43.425,0-86.851,0-130.271
				C-688.399,651.568-693.843,651.568-693.843,655.08L-693.843,655.08z"/>
		</g>
	</g>
	<g>
		<g>
			<path fill="#231F20" d="M-677.643,852.479c-16.159,0-32.317,0-48.476,0c0.907,0.907,1.815,1.814,2.722,2.723
				c0-51.236,0-102.475,0-153.711c0-33.925,0-67.852,0-101.776c-0.906,0.907-1.814,1.815-2.722,2.722c16.158,0,32.316,0,48.476,0
				c-0.907-0.905-1.815-1.813-2.722-2.722c0,51.236,0,102.476,0,153.711c0,33.925,0,67.852,0,101.776c0,3.512,5.443,3.512,5.443,0
				c0-51.236,0-102.475,0-153.711c0-33.925,0-67.852,0-101.776c0-1.482-1.238-2.722-2.722-2.722c-16.159,0-32.317,0-48.476,0
				c-1.484,0-2.722,1.238-2.722,2.722c0,51.236,0,102.476,0,153.711c0,33.925,0,67.852,0,101.776c0,1.482,1.237,2.723,2.722,2.723
				c16.158,0,32.316,0,48.476,0C-674.132,857.923-674.132,852.479-677.643,852.479z"/>
		</g>
	</g>
	<g>
		<g>
			<path fill="#231F20" d="M-677.643,587.072c-16.159,0-32.317,0-48.476,0c0.907,0.906,1.815,1.813,2.722,2.722
				c0-36.932,0-73.862,0-110.795c-0.906,0.908-1.814,1.815-2.722,2.723c16.158,0,32.316,0,48.476,0
				c-0.907-0.906-1.815-1.813-2.722-2.723c0,36.932,0,73.862,0,110.795c0,3.511,5.443,3.511,5.443,0c0-36.932,0-73.862,0-110.795
				c0-1.483-1.238-2.722-2.722-2.722c-16.159,0-32.317,0-48.476,0c-1.484,0-2.722,1.237-2.722,2.722c0,36.932,0,73.862,0,110.795
				c0,1.483,1.237,2.723,2.722,2.723c16.158,0,32.316,0,48.476,0C-674.132,592.517-674.132,587.072-677.643,587.072z"/>
		</g>
	</g>
	<g>
		<polyline fill="#231F20" points="-726.119,502.057 -656.335,502.057 -656.335,610.181 -650.104,610.181 -650.104,495.202 
			-726.119,495.202 		"/>
	</g>
	<g>
		<g>
			<path fill="#231F20" d="M-687.701,893.979c4.026-9.188,8.051-18.375,12.076-27.564c0.799-1.825-0.106-4.096-2.351-4.096
				c-16.094,0-32.188,0-48.283,0c-2.244,0-3.15,2.271-2.351,4.096c5.94,13.558,11.88,27.116,17.848,40.662
				c0.373,0.848,1.476,1.348,2.351,1.348c4.196,0,8.393,0,12.589,0c0.875,0,1.976-0.5,2.351-1.348
				C-691.546,902.709-689.624,898.345-687.701,893.979c1.402-3.182-3.287-5.954-4.7-2.746c-1.924,4.365-3.846,8.729-5.77,13.096
				c0.784-0.45,1.566-0.898,2.35-1.35c-4.195,0-8.393,0-12.588,0c0.784,0.45,1.566,0.898,2.35,1.35
				c-5.967-13.546-11.907-27.104-17.847-40.662c-0.785,1.366-1.567,2.731-2.352,4.097c16.094,0,32.189,0,48.283,0
				c-0.784-1.364-1.567-2.729-2.351-4.097c-4.025,9.188-8.05,18.377-12.076,27.564
				C-693.794,894.414-689.105,897.188-687.701,893.979z"/>
		</g>
	</g>
	<g>
		<polygon points="-705.391,914.58 -702.117,922.011 -698.841,914.578 		"/>
		<g>
			<path fill="#231F20" d="M-707.74,915.954c1.091,2.477,2.182,4.954,3.274,7.431c0.785,1.783,3.915,1.783,4.7,0
				c1.091-2.477,2.183-4.956,3.275-7.433c0.804-1.825-0.109-4.099-2.351-4.096c-2.183,0-4.366,0-6.549,0.002
				c-3.51,0.001-3.511,5.443,0,5.442c2.183-0.001,4.366-0.001,6.549-0.002c-0.784-1.365-1.566-2.729-2.35-4.096
				c-1.091,2.477-2.183,4.956-3.276,7.433c1.567,0,3.133,0,4.701,0c-1.091-2.477-2.183-4.954-3.274-7.431
				c-0.599-1.359-2.556-1.662-3.724-0.977C-708.151,913.042-708.338,914.597-707.74,915.954z"/>
		</g>
	</g>
</g>
</svg>
