<?xml version="1.0" encoding="utf-8"?>
<!-- Generator: Adobe Illustrator 16.0.0, SVG Export Plug-In . SVG Version: 6.00 Build 0)  -->
<!DOCTYPE svg PUBLIC "-//W3C//DTD SVG 1.1//EN" "http://www.w3.org/Graphics/SVG/1.1/DTD/svg11.dtd">
<svg version="1.1" id="Layer_1" xmlns="http://www.w3.org/2000/svg" xmlns:xlink="http://www.w3.org/1999/xlink" x="0px" y="0px"
	 width="560px" height="560px" viewBox="0 0 560 560" enable-background="new 0 0 560 560" xml:space="preserve">
<g>
	<g>
		<rect x="260.438" y="198.642" fill="#FFFFFF" width="39.132" height="206.237"/>
		<g>
			<path fill="#231F20" d="M299.571,402.684c-13.045,0-26.088,0-39.132,0c0.732,0.732,1.465,1.465,2.197,2.197
				c0-41.36,0-82.72,0-124.082c0-27.385,0-54.771,0-82.157c-0.732,0.732-1.465,1.465-2.197,2.197c13.045,0,26.088,0,39.132,0
				c-0.731-0.732-1.465-1.465-2.197-2.197c0,41.361,0,82.72,0,124.082c0,27.385,0,54.771,0,82.157c0,2.835,4.395,2.835,4.395,0
				c0-41.36,0-82.72,0-124.082c0-27.385,0-54.771,0-82.157c0-1.197-0.999-2.197-2.197-2.197c-13.045,0-26.088,0-39.132,0
				c-1.197,0-2.197,1-2.197,2.197c0,41.361,0,82.72,0,124.082c0,27.385,0,54.771,0,82.157c0,1.198,1,2.197,2.197,2.197
				c13.045,0,26.088,0,39.132,0C302.404,407.078,302.404,402.684,299.571,402.684z"/>
		</g>
	</g>
	<g>
		<rect x="260.438" y="101.197" fill="#FFFFFF" width="39.132" height="89.438"/>
		<g>
			<path fill="#231F20" d="M299.571,188.438c-13.045,0-26.088,0-39.132,0c0.732,0.733,1.465,1.466,2.197,2.197
				c0-29.812,0-59.625,0-89.438c-0.732,0.732-1.465,1.465-2.197,2.197c13.045,0,26.088,0,39.132,0
				c-0.731-0.732-1.465-1.465-2.197-2.197c0,29.812,0,59.625,0,89.438c0,2.834,4.395,2.834,4.395,0c0-29.812,0-59.625,0-89.438
				c0-1.197-0.999-2.197-2.197-2.197c-13.045,0-26.088,0-39.132,0c-1.197,0-2.197,1-2.197,2.197c0,29.812,0,59.625,0,89.438
				c0,1.198,1,2.197,2.197,2.197c13.045,0,26.088,0,39.132,0C302.404,192.832,302.404,188.438,299.571,188.438z"/>
		</g>
	</g>
	<g>
		<polygon fill="#FFFFFF" points="289.556,435.074 299.303,412.823 279.814,412.823 260.327,412.823 270.076,435.074 
			274.733,445.646 284.896,445.646 		"/>
		<g>
			<path fill="#231F20" d="M291.452,436.184c3.249-7.416,6.498-14.834,9.748-22.25c0.645-1.475-0.087-3.308-1.897-3.308
				c-12.991,0-25.983,0-38.976,0c-1.811,0-2.542,1.833-1.896,3.308c4.794,10.943,9.588,21.887,14.406,32.822
				c0.301,0.686,1.19,1.089,1.897,1.089c3.387,0,6.775,0,10.163,0c0.706,0,1.595-0.403,1.896-1.089
				C288.348,443.23,289.9,439.709,291.452,436.184c1.131-2.567-2.655-4.808-3.793-2.217c-1.555,3.524-3.106,7.049-4.66,10.57
				c0.633-0.362,1.264-0.724,1.897-1.087c-3.388,0-6.776,0-10.163,0c0.633,0.363,1.264,0.726,1.898,1.087
				c-4.817-10.934-9.613-21.879-14.407-32.823c-0.632,1.103-1.264,2.205-1.897,3.307c12.992,0,25.984,0,38.976,0
				c-0.634-1.102-1.265-2.204-1.896-3.307c-3.25,7.417-6.5,14.835-9.747,22.251C286.533,436.534,290.317,438.773,291.452,436.184z"
				/>
		</g>
	</g>
	<g>
		<g>
			<path fill="#231F20" d="M286.494,243.336c0,35.054,0,70.108,0,105.16c0,2.834,4.395,2.834,4.395,0c0-35.054,0-70.108,0-105.16
				C290.889,240.502,286.494,240.502,286.494,243.336L286.494,243.336z"/>
		</g>
	</g>
	<g>
		<polyline fill="#231F20" points="260.438,119.81 316.77,119.81 316.77,207.092 321.803,207.092 321.803,114.277 260.438,114.277 
					"/>
	</g>
	<g>
		<polygon points="277.17,452.814 279.814,458.812 282.459,452.812 		"/>
		<g>
			<path fill="#231F20" d="M275.275,453.922c0.881,1.999,1.761,3.999,2.643,5.998c0.634,1.44,3.161,1.439,3.793,0
				c0.881-1.999,1.764-4,2.645-5.999c0.649-1.474-0.088-3.309-1.896-3.308c-1.762,0.001-3.525,0.001-5.289,0.002
				c-2.833,0.001-2.834,4.396,0,4.395c1.763-0.001,3.526-0.001,5.289-0.002c-0.633-1.102-1.265-2.204-1.896-3.307
				c-0.882,2-1.764,4.001-2.646,6c1.264,0,2.529,0,3.793,0c-0.88-1.999-1.761-3.999-2.643-5.998
				c-0.483-1.097-2.063-1.341-3.006-0.788C274.942,451.574,274.791,452.826,275.275,453.922z"/>
		</g>
	</g>
</g>
</svg>
