<?xml version="1.0" encoding="utf-8"?>
<!-- Generator: Adobe Illustrator 16.0.0, SVG Export Plug-In . SVG Version: 6.00 Build 0)  -->
<!DOCTYPE svg PUBLIC "-//W3C//DTD SVG 1.1//EN" "http://www.w3.org/Graphics/SVG/1.1/DTD/svg11.dtd">
<svg version="1.1" id="Layer_1" xmlns="http://www.w3.org/2000/svg" xmlns:xlink="http://www.w3.org/1999/xlink" x="0px" y="0px"
	 width="560px" height="560px" viewBox="0 0 560 560" enable-background="new 0 0 560 560" xml:space="preserve">
<g>
	<g>
		<path fill="#FFFFFF" d="M454.551,279.917v109.166c0,8.281-5.143,14.884-12.176,14.884h-161.52H119.338
			c-7.035,0-12.177-6.603-12.177-14.884V279.917V170.758c0-8.285,5.143-14.891,12.177-14.891h161.518h161.519
			c7.034,0,12.177,6.605,12.177,14.891V279.917L454.551,279.917z"/>
		<g>
			<path fill="#231F20" d="M452.59,279.917c0,36.192,0,72.387,0,108.578c0,6.079-3.104,13.514-10.22,13.514
				c-1.077,0-2.156,0-3.232,0c-7.089,0-14.179,0-21.268,0c-24.333,0-48.669,0-73.003,0c-27.832,0-55.666,0-83.499,0
				c-44.63,0-89.258,0-133.886,0c-5.92,0-12.152,1.04-16.05-4.579c-3.594-5.19-2.308-14.279-2.308-20.308
				c0-23.809,0-47.614,0-71.425c0-34.282,0-68.571,0-102.862c0-9.26,0-18.518,0-27.772c0-7.392,1.104-17.231,10.712-17.231
				c15.446,0,30.892,0,46.337,0c38.228,0,76.459,0,114.688,0c38.705,0,77.408,0,116.112,0c15.027,0,30.055,0,45.081,0
				c9.879,0,10.535,10.5,10.535,17.917c0,9.517,0,19.026,0,28.539C452.59,229.496,452.59,254.706,452.59,279.917
				c0,2.532,3.923,2.532,3.923,0c0-36.189,0-72.383,0-108.577c0-9.112-5.38-17.435-15.104-17.435c-5.65,0-11.299,0-16.95,0
				c-23.427,0-46.854,0-70.282,0c-28.949,0-57.898,0-86.849,0c-44.972,0-89.943,0-134.915,0c-4.33,0-8.663,0-12.991,0
				c-10.604,0-14.22,10.532-14.22,19.389c0,21.111,0,42.216,0,63.326c0,34.064,0,68.125,0,102.184
				c0,17.128-0.475,34.332,0.034,51.447c0.212,7.188,5.298,15.284,13.112,15.634c1.256,0.056,2.507,0.046,3.764,0.046
				c6.859,0,13.723,0,20.582,0c44.139,0,88.276,0,132.415,0c31.576,0,63.152,0,94.728,0c21.215,0,42.432,0,63.646,0
				c4.199,0,9.713,0.744,13.674-0.954c8.961-3.84,9.356-13.282,9.356-21.616c0-34.479,0-68.963,0-103.444
				C456.513,277.39,452.59,277.39,452.59,279.917z"/>
		</g>
	</g>
	<circle fill="#231F20" cx="377.769" cy="246.954" r="5.096"/>
	<g>
		<g>
			<path fill="#231F20" d="M452.858,301.279c12.831,22.232,25.665,44.454,38.497,66.684c0.565-0.983,1.129-1.97,1.694-2.954
				c-12.834,0-25.667,0-38.501,0c-2.529,0-2.529,3.923,0,3.923c12.834,0,25.667,0,38.501,0c1.492,0,2.435-1.662,1.694-2.948
				c-12.834-22.229-25.668-44.453-38.499-66.685C454.981,297.114,451.592,299.088,452.858,301.279L452.858,301.279z"/>
		</g>
	</g>
	<g>
		<g>
			<path fill="#231F20" d="M418.217,347.363c-0.232,7.769-5.675,15.101-13.955,15.101c-0.97,0-1.941,0-2.909,0
				c-5.378,0-10.752,0-16.131,0c-20.46,0-40.923,0-61.383,0c-47.474,0-94.947,0-142.417,0c-6.506,0-13.014,0-19.518,0
				c-4.081,0-8.295,0.406-12.083-1.399c-8.406-4.011-8.003-13.027-8.003-20.785c0-9.213,0-18.421,0-27.632c0-24.75,0-49.5,0-74.25
				c0-7.823,0-15.647,0-23.461c0-1.462-0.013-2.924,0.032-4.377c0.221-7.424,6.495-13.978,13.967-13.978c33.346,0,66.692,0,100.04,0
				c44.787,0,89.574,0,134.36,0c4.334,0,8.671,0,13.006,0c9.091,0,14.995,7.042,14.995,15.938c0,17.667,0,35.332,0,53.001
				C418.217,292.798,418.217,320.082,418.217,347.363c0,2.529,3.923,2.529,3.923,0c0-39.114,0-78.229,0-117.342
				c0-5.919,0-11.843,0-17.754c0-10.229-7.293-19.608-18.025-19.608c-10.963,0-21.926,0-32.891,0c-48.4,0-96.805,0-145.207,0
				c-18.99,0-37.978,0-56.967,0c-4.155,0-8.312,0-12.469,0c-10.559,0-18.688,8.46-18.688,19.043c0,39.469,0,78.946,0,118.415
				c0,5.626,0,11.246,0,16.868c0,10.261,7.526,19.4,18.152,19.4c11.293,0,22.584,0,33.877,0c48.505,0,97.01,0,145.517,0
				c18.515,0,37.027,0,55.543,0c4.118,0,8.237,0,12.356,0c10.812,0,18.48-8.371,18.8-19.022
				C422.216,344.83,418.293,344.84,418.217,347.363z"/>
		</g>
	</g>
	<g>
		<g>
			<path fill="#231F20" d="M339.268,186.381c19.501,0,39.007,0,58.51,0c4.401,0,8.806,0,13.207,0c3.664,0,6.91-0.005,10.288,1.893
				c9.499,5.312,7.138,19.513,7.138,28.609c0,13.476,0,26.939,0,40.407c0,2.531,3.922,2.531,3.922,0c0-18.373,0-36.752,0-55.122
				c0-11.262-7.977-19.71-19.24-19.71c-9.461,0-18.919,0-28.377,0c-15.151,0-30.298,0-45.447,0
				C336.738,182.458,336.738,186.381,339.268,186.381L339.268,186.381z"/>
		</g>
	</g>
	<g>
		<g>
			<path fill="#231F20" d="M221.041,373.07c-19.502,0-39.006,0-58.508,0c-4.403,0-8.809,0-13.21,0
				c-3.662,0-6.911,0.003-10.288-1.888c-9.497-5.315-7.136-19.517-7.136-28.619c0-13.468,0-26.934,0-40.403
				c0-2.525-3.923-2.525-3.923,0c0,18.377,0,36.748,0,55.124c0,11.257,7.978,19.709,19.24,19.709c9.459,0,18.92,0,28.378,0
				c15.148,0,30.298,0,45.446,0C223.571,376.993,223.571,373.07,221.041,373.07L221.041,373.07z"/>
		</g>
	</g>
	<g>
		<g>
			<path fill="#231F20" d="M186.757,309.886c13.891-14.17,29.194-27.541,45.736-38.51c8.405-5.577,20.276-13.516,30.968-11.874
				c14.415,2.212,7.468,18.11,3.579,26.363c-3.785,8.041-12.525,20.969-7.188,30.013c4.153,7.035,12.957,7.96,20.221,6.694
				c10.447-1.823,20.305-7.543,29.166-13.095c10.706-6.706,20.764-14.45,30.506-22.476c10.84-8.921,21.405-18.301,31.347-28.227
				c1.792-1.786-0.982-4.563-2.772-2.775c-11.178,11.16-23.126,21.646-35.419,31.548c-9.91,7.983-20.234,15.56-31.261,21.935
				c-8.305,4.805-18.086,9.933-27.952,9.729c-3.562-0.074-6.869-1.337-9.348-3.925c-3.446-3.602-1.954-8.687-0.494-12.864
				c3.832-10.973,12.211-21.337,12.505-33.325c0.263-10.704-10.755-14.689-19.711-13.238c-11.763,1.902-22.782,9.579-32.246,16.358
				c-14.418,10.325-27.993,22.233-40.411,34.895C182.21,308.92,184.983,311.694,186.757,309.886L186.757,309.886z"/>
		</g>
	</g>
</g>
</svg>
