<?xml version="1.0" encoding="utf-8"?>
<!-- Generator: Adobe Illustrator 16.0.0, SVG Export Plug-In . SVG Version: 6.00 Build 0)  -->
<!DOCTYPE svg PUBLIC "-//W3C//DTD SVG 1.1//EN" "http://www.w3.org/Graphics/SVG/1.1/DTD/svg11.dtd">
<svg version="1.1" id="Layer_1" xmlns="http://www.w3.org/2000/svg" xmlns:xlink="http://www.w3.org/1999/xlink" x="0px" y="0px"
	 width="560px" height="560px" viewBox="-999.5 400.5 560 560" enable-background="new -999.5 400.5 560 560" xml:space="preserve">
<g>
	<g>
		<g>
			<path fill="#231F20" d="M-548.322,683.964c0,24.125,0,48.25,0,72.376c0,11.567,0,23.134,0,34.701
				c0,6.793-2.094,14.747-10.229,15.198c-1.584,0.087-3.198,0-4.784,0c-51.482,0-102.964,0-154.446,0c-46.276,0-92.552,0-138.828,0
				c-8.166,0-16.332,0-24.498,0c-11.945,0-11.197-12.891-11.197-21.416c0-29.122,0-58.245,0-87.367c0-40.94,0-81.881,0-122.822
				c0-7.301,4.471-12.942,11.781-12.942c3.205,0,6.409,0,9.614,0c12.68,0,25.359,0,38.04,0c30.714,0,61.429,0,92.143,0
				c41.809,0,83.618,0,125.427,0c13.645,0,27.29,0,40.935,0c5.874,0,15.028-1.627,20.463,1.322
				c8.19,4.445,5.581,21.762,5.581,29.459c0,15.592,0,31.185,0,46.776C-548.322,654.154-548.322,669.059-548.322,683.964
				c0,2.533,3.93,2.533,3.93,0c0-24.125,0-48.25,0-72.375c0-11.567,0-23.134,0-34.7c0-9.865-4.502-19.125-15.499-19.125
				c-51.212,0-102.423,0-153.636,0c-44.507,0-89.015,0-133.522,0c-10.317,0-20.634,0-30.951,0c-1.891,0-3.942-0.18-5.818,0.137
				c-8.13,1.373-12.416,9.156-12.416,16.927c0,25.315,0,50.63,0,75.944c0,45.396,0,90.79,0,136.187
				c0,9.742,1.388,23.21,14.234,23.21c6.552,0,13.104,0,19.655,0c30.633,0,61.266,0,91.899,0c39.854,0,79.708,0,119.563,0
				c28.063,0,56.126,0,84.189,0c8.49,0,17.454,0.354,20.976-9.594c2.827-7.986,1.324-18.383,1.324-26.664
				c0-29.981,0-59.963,0-89.944C-544.395,681.432-548.322,681.432-548.322,683.964z"/>
		</g>
	</g>
	<circle fill="#231F20" cx="-623.256" cy="650.948" r="5.104"/>
	<g>
		<g>
			<path fill="#231F20" d="M-548.053,705.361c12.852,22.26,25.704,44.52,38.556,66.778c0.565-0.984,1.131-1.97,1.696-2.956
				c-12.854,0-25.706,0-38.56,0c-2.532,0-2.532,3.93,0,3.93c12.854,0,25.706,0,38.56,0c1.495,0,2.439-1.667,1.695-2.956
				c-12.853-22.261-25.704-44.52-38.556-66.779C-545.926,701.186-549.322,703.163-548.053,705.361L-548.053,705.361z"/>
		</g>
	</g>
	<g>
		<g>
			<path fill="#231F20" d="M-582.746,751.51c-0.307,8.204-5.946,15.123-14.493,15.123c-1.948,0-3.896,0-5.846,0
				c-8.992,0-17.983,0-26.978,0c-30.03,0-60.062,0-90.094,0c-30.222,0-60.444,0-90.666,0c-9.229,0-18.46,0-27.691,0
				c-2.103,0-4.207,0-6.31,0c-7.229,0-12.505-4.647-14.351-11.539c-0.69-2.575-0.39-5.72-0.39-8.376c0-4.746,0-9.492,0-14.236
				c0-14.975,0-29.948,0-44.921c0-23.865,0-47.73,0-71.596c0-7.913,5.604-15.466,13.991-15.466c1.473,0,2.946,0,4.419,0
				c8.255,0,16.51,0,24.765,0c29.414,0,58.828,0,88.243,0c30.748,0,61.496,0,92.242,0c9.922,0,19.844,0,29.766,0
				c6.401,0,13.197-0.955,18.44,3.537c6.886,5.899,4.95,18.348,4.95,26.491c0,14.359,0,28.719,0,43.078c0,25.517,0,51.033,0,76.55
				C-582.746,750.606-582.746,751.058-582.746,751.51c0,2.533,3.929,2.533,3.929,0c0-45.246,0-90.49,0-135.736
				c0-11.547-8.812-19.205-19.849-19.205c-6.95,0-13.9,0-20.852,0c-28.232,0-56.465,0-84.699,0c-47.134,0-94.268,0-141.401,0
				c-8.169,0-14.405,5.711-16.996,13.127c-1.066,3.05-0.877,6.397-0.877,9.584c0,11.119,0,22.238,0,33.357
				c0,29.603,0,59.203,0,88.806c0,9.126-0.987,19.396,7.451,25.552c5.637,4.112,11.771,3.564,18.275,3.564
				c23.548,0,47.096,0,70.644,0c54.905,0,109.811,0,164.714,0c1.906,0,3.812,0,5.717,0c10.507,0,17.503-9.17,17.873-19.051
				C-578.722,748.975-582.651,748.984-582.746,751.51z"/>
		</g>
	</g>
	<g>
		<g>
			<path fill="#231F20" d="M-661.814,590.289c24.096,0,48.19,0,72.286,0c7.402,0,13.581,2.591,16.255,10.244
				c1.486,4.251,0.737,9.958,0.737,14.371c0,14.435,0,28.869,0,43.303c0,1.032,0,2.064,0,3.096c0,2.533,3.929,2.533,3.929,0
				c0-11.945,0-23.889,0-35.834c0-11.144,2.947-27.957-7.451-35.543c-4.312-3.145-8.841-3.564-13.91-3.564
				c-5.922,0-11.844,0-17.766,0c-15.154,0-30.307,0-45.459,0c-2.875,0-5.748,0-8.621,0
				C-664.348,586.359-664.348,590.289-661.814,590.289L-661.814,590.289z"/>
		</g>
	</g>
	<g>
		<g>
			<path fill="#231F20" d="M-780.218,777.255c-24.095,0-48.19,0-72.286,0c-7.402,0-13.581-2.591-16.255-10.244
				c-1.485-4.251-0.736-9.958-0.736-14.372c0-14.434,0-28.867,0-43.302c0-1.032,0-2.063,0-3.096c0-2.533-3.929-2.533-3.929,0
				c0,11.943,0,23.889,0,35.834c0,11.144-2.947,27.958,7.452,35.544c4.311,3.145,8.84,3.564,13.91,3.564c5.922,0,11.844,0,17.766,0
				c15.153,0,30.306,0,45.458,0c2.874,0,5.747,0,8.621,0C-777.685,781.184-777.685,777.255-780.218,777.255L-780.218,777.255z"/>
		</g>
	</g>
	<g>
		<g>
			<path fill="#231F20" d="M-814.555,713.976c6.902-7.037,14.234-13.686,21.709-20.104c12.69-10.898,26.668-22.34,42.489-28.318
				c5.949-2.248,12.411-3.443,18.035,0.193c6.629,4.288,2.585,14.125,0.225,19.665c-4.213,9.888-16.663,26.416-7.594,36.688
				c6.655,7.538,18.132,5.354,26.419,2.396c13.22-4.719,25.195-12.988,36.406-21.263c16.57-12.229,32.34-25.892,46.92-40.444
				c1.795-1.792-0.983-4.569-2.777-2.778c-16.18,16.15-33.783,31.307-52.502,44.42c-11.278,7.901-24.115,16.426-37.983,18.643
				c-4.729,0.756-9.78,0.083-13.325-3.352c-5.023-4.864-1.164-12.848,1.179-18.121c4.277-9.631,15.987-26.099,7.958-36.515
				c-7.823-10.149-22.669-4.466-31.814,0.134c-21.742,10.936-41.174,28.697-58.125,45.98
				C-819.107,713.007-816.331,715.787-814.555,713.976L-814.555,713.976z"/>
		</g>
	</g>
</g>
</svg>
