<?xml version="1.0" encoding="utf-8"?>
<!-- Generator: Adobe Illustrator 16.0.0, SVG Export Plug-In . SVG Version: 6.00 Build 0)  -->
<!DOCTYPE svg PUBLIC "-//W3C//DTD SVG 1.1//EN" "http://www.w3.org/Graphics/SVG/1.1/DTD/svg11.dtd">
<svg version="1.1" id="Layer_1" xmlns="http://www.w3.org/2000/svg" xmlns:xlink="http://www.w3.org/1999/xlink" x="0px" y="0px"
	 width="560px" height="560px" viewBox="0 0 560 560" enable-background="new 0 0 560 560" xml:space="preserve">
<g>
	<g>
		<path fill="#FFFFFF" d="M152.555,199.851c0,0,0-96.477,0-105.92c0-14.246,8.157-21.719,21.885-21.719c8.471,0,41.633,0,41.633,0
			s0.646,0,1.756,0c5.346,0,21.48,0,28.494,0c13.727,0,21.885,7.473,21.885,21.719c0,9.443,0,105.92,0,105.92v-30.764
			c0,0,0,96.477,0,105.918c0,14.246-8.158,21.722-21.885,21.722c-8.471,0-63.412,0-71.883,0c-13.728,0-21.885-7.476-21.885-21.722
			c0-9.441,0-105.918,0-105.918"/>
		<g>
			<path d="M155.055,199.851c0-25.822,0-51.645,0-77.465c0-6.688,0-13.375,0-20.062c0-5.127-0.369-10.455,0.869-15.457
				c2.661-10.764,13.145-12.153,22.53-12.153c8.81,0,17.617,0,26.426,0c5.42,0,10.841,0,16.261,0
				c10.007,0,21.039-1.301,30.903,0.528c16.3,3.025,13.662,21.64,13.662,34.103c0,29.205,0,58.408,0,87.613c0,0.965,0,1.93,0,2.895
				c0,3.225,5,3.225,5,0c0-10.254,0-20.51,0-30.764c0-3.226-5-3.226-5,0c0,25.821,0,51.645,0,77.465c0,6.688,0,13.373,0,20.061
				c0,5.127,0.369,10.455-0.868,15.459c-2.479,10.021-12.062,12.154-21.047,12.154c-7.188,0-14.377,0-21.565,0
				c-15.698,0-31.396,0-47.095,0c-11.555,0-19.342-5.943-20.049-17.816c-0.245-4.11-0.027-8.297-0.027-12.411
				c0-29.8,0-59.599,0-89.396c0-1.838,0-3.676,0-5.514c0-3.226-5-3.226-5,0c0,25.821,0,51.645,0,77.465
				c0,11.262-1.132,23.271,0.52,34.453c1.344,9.106,8.077,15.468,16.813,17.513c6.036,1.414,12.897,0.709,19.06,0.709
				c17.356,0,34.713,0,52.068,0c6.633,0,13.68,0.555,19.85-2.34c8.751-4.105,12.164-12.634,12.343-21.882
				c0.537-27.818,0-55.701,0-83.525c0-7.465,0-14.928,0-22.393c0-3.226-5-3.226-5,0c0,10.254,0,20.51,0,30.764c0,3.225,5,3.225,5,0
				c0-25.822,0-51.645,0-77.465c0-11.262,1.133-23.271-0.519-34.455c-3.318-22.482-30.569-18.219-46.924-18.219
				c-14.367,0-28.733,0-43.101,0c-8.238,0-16.079,0.135-22.811,5.543c-6.021,4.842-7.301,13.051-7.301,20.283
				c0,28.979,0,57.963,0,86.942c0,5.789,0,11.578,0,17.367C150.055,203.075,155.055,203.075,155.055,199.851L155.055,199.851z"/>
		</g>
	</g>
	<g>
		<g>
			<path d="M164.871,262.897c30.021,0,60.043,0,90.063,0c3.226,0,3.226-5,0-5c-30.021,0-60.043,0-90.063,0
				C161.647,257.897,161.647,262.897,164.871,262.897L164.871,262.897z"/>
		</g>
	</g>
	<g>
		<g>
			<path d="M164.871,111.038c30.021,0,60.043,0,90.063,0c3.226,0,3.226-5,0-5c-30.021,0-60.043,0-90.063,0
				C161.647,106.038,161.647,111.038,164.871,111.038L164.871,111.038z"/>
		</g>
	</g>
	<g>
		<g>
			<path d="M202.864,96.667c6.839,0,13.677,0,20.516,0c4.191,0,4.191-6.5,0-6.5c-6.839,0-13.677,0-20.516,0
				C198.671,90.167,198.671,96.667,202.864,96.667L202.864,96.667z"/>
		</g>
	</g>
	<g>
		<g>
			<path d="M191.299,96.667c4.19,0,4.19-6.5,0-6.5C187.108,90.167,187.108,96.667,191.299,96.667L191.299,96.667z"/>
		</g>
	</g>
	<g>
		<g>
			<path d="M210.126,158.276c-8.168,8.168-16.336,16.336-24.504,24.504c-2.282,2.281,1.254,5.816,3.535,3.535
				c8.168-8.168,16.336-16.336,24.504-24.504C215.945,159.53,212.408,155.995,210.126,158.276L210.126,158.276z"/>
		</g>
	</g>
	<g>
		<g>
			<path d="M234.821,155.563c-17.689,17.689-35.379,35.379-53.066,53.068c-2.282,2.281,1.252,5.815,3.534,3.535
				c17.689-17.689,35.378-35.379,53.067-53.068C240.637,156.817,237.102,153.282,234.821,155.563L234.821,155.563z"/>
		</g>
	</g>
	<g>
		<g>
			<path d="M232.235,180.009c-8.553,8.551-17.104,17.102-25.654,25.654c-2.282,2.278,1.254,5.815,3.535,3.532
				c8.552-8.551,17.104-17.102,25.654-25.651C238.051,181.263,234.516,177.726,232.235,180.009L232.235,180.009z"/>
		</g>
	</g>
	<g>
		<g>
			<path d="M218.018,156.673c3.225,0,3.225-5,0-5C214.792,151.673,214.792,156.673,218.018,156.673L218.018,156.673z"/>
		</g>
	</g>
	<g>
		<path fill="#FFFFFF" d="M235.008,319.325c0,4.187-3.396,7.582-7.58,7.582h-30.01c-4.188,0-7.581-3.396-7.581-7.582v-10.739h45.171
			V319.325L235.008,319.325z"/>
		<g>
			<path d="M232.508,319.325c-0.561,6.255-7.348,5.082-11.728,5.082c-5.291,0-10.58,0-15.871,0c-3.786,0-9.361,1.043-11.879-2.519
				c-2.079-2.94-0.693-9.94-0.693-13.307c-0.833,0.834-1.667,1.668-2.5,2.5c15.058,0,30.114,0,45.171,0
				c-0.833-0.832-1.667-1.666-2.5-2.5C232.508,312.163,232.508,315.745,232.508,319.325c0,3.226,5,3.226,5,0
				c0-3.58,0-7.159,0-10.739c0-1.363-1.138-2.5-2.5-2.5c-15.057,0-30.113,0-45.17,0c-1.363,0-2.5,1.137-2.5,2.5
				c0,5.434-1.184,12.209,2.125,16.887c3.367,4.769,9.541,3.937,14.604,3.937c6.788,0,13.576,0,20.365,0
				c6.787,0,12.395-2.467,13.076-10.079C237.796,316.112,232.794,316.14,232.508,319.325z"/>
		</g>
	</g>
	
		<path fill="#FFFFFF" stroke="#000000" stroke-width="5" stroke-linecap="round" stroke-linejoin="round" stroke-miterlimit="10" d="
		M410.323,230.649c0,4.187-3.396,7.58-7.581,7.58h-71.068c-4.188,0-7.582-3.395-7.582-7.58V88.106c0-4.188,3.396-7.58,7.582-7.58
		h71.068c4.187,0,7.581,3.396,7.581,7.58V230.649z"/>
	<g>
		<g>
			<g>
				<path d="M373.156,145.032c8.396,6.232,4.229,18.822-5.946,19.336c-10.83,0.548-13.229-13.188-6.138-19.231
					c2.458-2.094-1.096-5.613-3.535-3.535c-11.625,9.902-4.146,28.467,11.011,27.701c6.478-0.328,11.438-5.154,13.562-10.959
					c2.447-6.683-1.104-13.676-6.43-17.627C373.087,138.79,370.598,143.134,373.156,145.032L373.156,145.032z"/>
			</g>
		</g>
		<g>
			<g>
				<path d="M369.708,153.562c0-5.729,0-11.463,0-17.19c0-3.228-5-3.228-5,0c0,5.729,0,11.461,0,17.19
					C364.708,156.786,369.708,156.786,369.708,153.562L369.708,153.562z"/>
			</g>
		</g>
	</g>
	<g>
		<g>
			<path d="M345.568,220.937c3.226,0,3.226-5,0-5C342.342,215.937,342.344,220.937,345.568,220.937L345.568,220.937z"/>
		</g>
	</g>
	<g>
		<g>
			<path d="M360.309,220.937c3.226,0,3.226-5,0-5S357.083,220.937,360.309,220.937L360.309,220.937z"/>
		</g>
	</g>
	<g>
		<g>
			<path d="M374.417,220.937c3.226,0,3.226-5,0-5S371.193,220.937,374.417,220.937L374.417,220.937z"/>
		</g>
	</g>
	<g>
		<g>
			<path d="M388.527,220.937c3.226,0,3.226-5,0-5C385.303,215.937,385.303,220.937,388.527,220.937L388.527,220.937z"/>
		</g>
	</g>
	
		<path fill="#FFFFFF" stroke="#000000" stroke-width="5" stroke-linecap="round" stroke-linejoin="round" stroke-miterlimit="10" d="
		M380.286,249.44c0,0,0,6.422,0,8.949c0,7.582-4.211,10.424-10.636,10.424c-1.213,0-3.338,0-3.338,0c-2.028,0-2.265,0-3.477,0
		c-6.426,0-10.637-2.842-10.637-10.424c0-2.527,0-8.949,0-8.949H380.286z"/>
	<g>
		<g>
			<path d="M209.155,327.915c0,24.852,0,49.7,0,74.553c0,11.933-0.271,23.617,2.798,35.299c5.44,20.726,19.821,38.392,38.343,48.892
				c39.44,22.358,90.565,5.416,110.617-34.601c11.062-22.069,8.219-48.215,8.219-72.149c0-36.192,0-72.387,0-108.577
				c0-3.228-5-3.228-5,0c0,47.432,0,94.862,0,142.297c0,15.762-3.547,30.519-12.077,43.926
				c-12.49,19.631-34.269,32.106-57.315,33.957c-23.348,1.875-46.156-7.838-61.758-25.094
				c-12.749-14.104-18.823-32.582-18.823-51.396c0-29.033,0-58.07,0-87.104C214.155,324.69,209.155,324.69,209.155,327.915
				L209.155,327.915z"/>
		</g>
	</g>
</g>
</svg>
