<?xml version="1.0" encoding="utf-8"?>
<!-- Generator: Adobe Illustrator 16.0.0, SVG Export Plug-In . SVG Version: 6.00 Build 0)  -->
<!DOCTYPE svg PUBLIC "-//W3C//DTD SVG 1.1//EN" "http://www.w3.org/Graphics/SVG/1.1/DTD/svg11.dtd">
<svg version="1.1" id="Layer_1" xmlns="http://www.w3.org/2000/svg" xmlns:xlink="http://www.w3.org/1999/xlink" x="0px" y="0px"
	 width="560px" height="560px" viewBox="-999.5 400.5 560 560" enable-background="new -999.5 400.5 560 560" xml:space="preserve">
<g>
	<g>
		<g>
			<path d="M-823.817,612.875c0-26.148,0-52.297,0-78.445c0-4.418-0.068-8.843,0.031-13.259c0.122-5.435,2.466-10.299,7.219-13.039
				c4.016-2.313,8.938-1.975,13.402-1.975c15.06,0,30.119,0,45.179,0c7.519,0,17.117-1.556,23.452,3.39
				c4.745,3.704,5.082,9.922,5.082,15.444c0,10.061,0,20.12,0,30.181c0,19.235,0,38.469,0,57.704c0,2.75,4.264,2.75,4.264,0
				c0-8.745,0-17.49,0-26.235c0-2.75-4.264-2.75-4.264,0c0,26.148,0,52.297,0,78.445c0,4.418,0.068,8.842-0.031,13.258
				c-0.256,11.469-9.151,15.016-19.133,15.016c-16.511,0-33.021,0-49.532,0c-4.861,0-10.013,0.416-14.782-0.627
				c-8.19-1.793-10.888-9.2-10.888-16.771c0-9.537,0-19.073,0-28.61c0-20.236,0-40.474,0-60.711c0-2.75-4.264-2.75-4.264,0
				c0,26.148,0,52.297,0,78.445c0,12.641-1.102,27.553,14.018,31.758c6.043,1.682,13.362,0.779,19.573,0.779
				c9.144,0,18.288,0,27.431,0c6.329,0,12.658,0,18.988,0c7.057,0,13.958-1.146,18.69-6.874c6.544-7.917,4.193-22.532,4.193-32.155
				c0-23.984,0-47.969,0-71.953c0-2.75-4.264-2.75-4.264,0c0,8.744,0,17.489,0,26.234c0,2.75,4.264,2.75,4.264,0
				c0-26.148,0-52.297,0-78.446c0-12.639,1.102-27.553-14.017-31.757c-4.295-1.193-9.008-0.779-13.414-0.779
				c-5.375,0-10.751,0-16.126,0c-5.841,0-11.683,0-17.524,0c-12.819,0-32.469-3.734-39.609,10.021
				c-2.391,4.605-2.203,9.879-2.203,14.914c0,5.586,0,11.172,0,16.758c0,23.096,0,46.193,0,69.289
				C-828.081,615.624-823.817,615.624-823.817,612.875L-823.817,612.875z"/>
		</g>
	</g>
	<g>
		<g>
			<path d="M-815.446,666.643c25.603,0,51.206,0,76.808,0c2.75,0,2.75-4.265,0-4.265c-25.603,0-51.206,0-76.808,0
				C-818.196,662.378-818.196,666.643-815.446,666.643L-815.446,666.643z"/>
		</g>
	</g>
	<g>
		<g>
			<path d="M-815.446,537.135c25.603,0,51.206,0,76.808,0c2.75,0,2.75-4.264,0-4.264c-25.603,0-51.206,0-76.808,0
				C-818.196,532.872-818.196,537.135-815.446,537.135L-815.446,537.135z"/>
		</g>
	</g>
	<g>
		<g>
			<path d="M-783.046,524.878c5.832,0,11.665,0,17.497,0c3.575,0,3.575-5.543,0-5.543c-5.832,0-11.665,0-17.497,0
				C-786.621,519.335-786.621,524.878-783.046,524.878L-783.046,524.878z"/>
		</g>
	</g>
	<g>
		<g>
			<path d="M-792.908,524.878c3.575,0,3.575-5.543,0-5.543C-796.483,519.335-796.482,524.878-792.908,524.878L-792.908,524.878z"/>
		</g>
	</g>
	<g>
		<g>
			<path d="M-776.852,577.42c-6.966,6.966-13.932,13.932-20.897,20.896c-1.946,1.945,1.069,4.961,3.016,3.016
				c6.965-6.966,13.931-13.932,20.896-20.896C-771.891,578.489-774.906,575.475-776.852,577.42L-776.852,577.42z"/>
		</g>
	</g>
	<g>
		<g>
			<path d="M-755.792,575.105c-15.086,15.086-30.171,30.172-45.257,45.258c-1.946,1.945,1.069,4.961,3.015,3.015
				c15.086-15.085,30.171-30.171,45.257-45.256C-750.831,576.176-753.846,573.161-755.792,575.105L-755.792,575.105z"/>
		</g>
	</g>
	<g>
		<g>
			<path d="M-757.997,595.953c-7.293,7.292-14.586,14.585-21.879,21.878c-1.946,1.946,1.069,4.961,3.016,3.017
				c7.292-7.293,14.585-14.586,21.878-21.88C-753.036,597.021-756.051,594.007-757.997,595.953L-757.997,595.953z"/>
		</g>
	</g>
	<g>
		<g>
			<path d="M-770.123,576.052c2.75,0,2.75-4.264,0-4.264S-772.872,576.052-770.123,576.052L-770.123,576.052z"/>
		</g>
	</g>
	<g>
		<g>
			<path d="M-757.764,714.763c-0.542,5.374-6.409,4.333-10.11,4.333c-4.393,0-8.786,0-13.179,0c-2.894,0-7.23,0.769-9.7-1.27
				c-2.555-2.108-1.27-9.412-1.27-12.225c-0.71,0.711-1.421,1.422-2.132,2.133c12.841,0,25.682,0,38.522,0
				c-0.71-0.71-1.421-1.422-2.132-2.133C-757.764,708.656-757.764,711.71-757.764,714.763c0,2.75,4.264,2.75,4.264,0
				c0-3.053,0-6.106,0-9.159c0-1.162-0.97-2.133-2.132-2.133c-12.841,0-25.682,0-38.522,0c-1.162,0-2.132,0.971-2.132,2.133
				c0,4.229-1.194,10.739,1.729,14.281c3.347,4.057,7.935,3.476,12.647,3.476c5.879,0,11.758,0,17.637,0
				c5.737,0,10.146-2.375,10.773-8.598C-753.224,712.028-757.491,712.055-757.764,714.763z"/>
		</g>
	</g>
	<g>
		<g>
			<g>
				<path d="M-608.253,639.141c-0.608,6.032-9.914,4.332-13.991,4.332c-7.714,0-15.428,0-23.141,0c-7.211,0-14.422,0-21.635,0
					c-3.654,0-10.508,1.127-10.508-4.6c0-24.623,0-49.245,0-73.867c0-13.253,0-26.507,0-39.76c0-2.523,0-5.046,0-7.569
					c0-5.788,8.226-4.431,11.829-4.431c14.974,0,29.946,0,44.919,0c3.59,0,12.526-1.463,12.526,4.377c0,2.371,0,4.743,0,7.113
					C-608.253,562.871-608.253,601.006-608.253,639.141c0,2.75,4.264,2.75,4.264,0c0-23.076,0-46.15,0-69.227
					c0-13.967,0-27.936,0-41.902c0-7.007,1.736-19.029-8.79-19.029c-12.512,0-25.023,0-37.535,0c-6.508,0-13.016,0-19.522,0
					c-5.291,0-9.929,0.867-11.747,6.727c-0.65,2.096-0.208,5.018-0.208,7.148c0,5.142,0,10.283,0,15.425c0,15.514,0,31.028,0,46.543
					c0,14.226,0,28.45,0,42.676c0,6.979-2.071,20.235,8.619,20.235c11.917,0,23.833,0,35.75,0c6.813,0,13.626,0,20.438,0
					c4.946,0,9.451,0.049,12.195-5.004c0.605-1.114,0.676-2.365,0.799-3.592C-603.714,636.404-607.98,636.432-608.253,639.141z"/>
			</g>
		</g>
		<g>
			<g>
				<g>
					<path d="M-637.818,566.125c7.146,5.307,3.616,16.021-5.072,16.49c-9.262,0.499-11.256-11.271-5.231-16.402
						c2.097-1.786-0.935-4.788-3.016-3.016c-9.945,8.473-3.49,24.312,9.463,23.615c5.434-0.291,9.538-4.314,11.426-9.127
						c2.246-5.727-0.84-11.845-5.417-15.242C-637.877,560.802-640,564.506-637.818,566.125L-637.818,566.125z"/>
				</g>
			</g>
			<g>
				<g>
					<path d="M-640.759,573.398c0-4.887,0-9.774,0-14.662c0-2.75-4.265-2.75-4.265,0c0,4.888,0,9.775,0,14.662
						C-645.021,576.148-640.759,576.148-640.759,573.398L-640.759,573.398z"/>
				</g>
			</g>
		</g>
		<g>
			<g>
				<path d="M-661.346,630.855c2.75,0,2.75-4.264,0-4.264S-664.096,630.855-661.346,630.855L-661.346,630.855z"/>
			</g>
		</g>
		<g>
			<g>
				<path d="M-648.773,630.855c2.75,0,2.75-4.264,0-4.264S-651.523,630.855-648.773,630.855L-648.773,630.855z"/>
			</g>
		</g>
		<g>
			<g>
				<path d="M-636.742,630.855c2.75,0,2.75-4.264,0-4.264S-639.492,630.855-636.742,630.855L-636.742,630.855z"/>
			</g>
		</g>
		<g>
			<g>
				<path d="M-624.709,630.855c2.75,0,2.75-4.264,0-4.264S-627.459,630.855-624.709,630.855L-624.709,630.855z"/>
			</g>
		</g>
	</g>
	<g>
		<g>
			<path d="M-633.869,655.165c0,2.983,0.068,5.976-0.055,8.956c-0.227,5.513-5.619,5.434-9.73,5.434
				c-4.479,0-9.109,0.092-9.847-5.434c-0.387-2.9-0.056-6.031-0.056-8.956c-0.709,0.71-1.42,1.421-2.131,2.132
				c7.982,0,15.967,0,23.949,0c2.75,0,2.75-4.264,0-4.264c-7.982,0-15.967,0-23.949,0c-1.162,0-2.133,0.97-2.133,2.132
				c0,4.715-0.687,9.858,1.588,14.163c2.397,4.539,8.201,4.49,12.578,4.49c4.926,0,9.361-0.2,12.461-4.49
				c2.664-3.688,1.586-9.913,1.586-14.163C-629.605,652.416-633.869,652.416-633.869,655.165z"/>
		</g>
	</g>
	<g>
		<g>
			<path d="M-777.681,722.089c0,24.196,0,48.392,0,72.587c0,16.772,4.445,32.16,14.794,45.548
				c13.269,17.165,34.729,26.426,56.213,25.755c21.359-0.665,41.012-12.081,53.291-29.325c8.836-12.41,12.131-27.09,12.131-42.089
				c0-27.711,0-55.423,0-83.133c0-12.533,0-25.065,0-37.6c0-2.75-4.264-2.75-4.264,0c0,22.994,0,45.988,0,68.98
				c0,14.291,0,28.582,0,42.873c0,10.789,0.19,21.196-3.045,31.697c-6.89,22.35-26.479,38.801-49.15,43.318
				c-23.379,4.659-47.411-5.167-62.161-23.492c-10.646-13.226-13.546-29.104-13.546-45.562c0-14.807,0-29.613,0-44.421
				c0-8.379,0-16.758,0-25.137C-773.417,719.339-777.681,719.339-777.681,722.089L-777.681,722.089z"/>
		</g>
	</g>
</g>
</svg>
