<?xml version="1.0" encoding="utf-8"?>
<!-- Generator: Adobe Illustrator 16.0.0, SVG Export Plug-In . SVG Version: 6.00 Build 0)  -->
<!DOCTYPE svg PUBLIC "-//W3C//DTD SVG 1.1//EN" "http://www.w3.org/Graphics/SVG/1.1/DTD/svg11.dtd">
<svg version="1.1" id="Layer_1" xmlns="http://www.w3.org/2000/svg" xmlns:xlink="http://www.w3.org/1999/xlink" x="0px" y="0px"
	 width="560px" height="560px" viewBox="0 0 560 560" enable-background="new 0 0 560 560" xml:space="preserve">
<g>
	<path fill="none" stroke="#000000" stroke-width="5" stroke-linecap="round" stroke-linejoin="round" stroke-miterlimit="10" d="
		M384.191,386.967H180.709c-29.424,0-53.276-23.854-53.276-53.276c0-29.425,23.853-53.278,53.276-53.278h198.292
		c29.424,0,53.276-23.853,53.276-53.277c0-29.424-23.853-53.277-53.276-53.277H193.238"/>
	<g>
		<polyline fill="#FFFFFF" points="370.778,366.27 405.64,366.27 405.64,408.078 370.778,408.078 		"/>
		<g>
			<path d="M370.778,368.77c11.62,0,23.241,0,34.861,0c-0.833-0.833-1.667-1.667-2.5-2.5c0,13.937,0,27.872,0,41.809
				c0.833-0.833,1.667-1.667,2.5-2.5c-11.62,0-23.241,0-34.861,0c-3.225,0-3.225,5,0,5c11.62,0,23.241,0,34.861,0
				c1.362,0,2.5-1.137,2.5-2.5c0-13.937,0-27.872,0-41.809c0-1.363-1.138-2.5-2.5-2.5c-11.62,0-23.241,0-34.861,0
				C367.554,363.77,367.554,368.77,370.778,368.77L370.778,368.77z"/>
		</g>
	</g>
	
		<path fill="#FFFFFF" stroke="#000000" stroke-width="5" stroke-linecap="round" stroke-linejoin="round" stroke-miterlimit="10" d="
		M294.386,386.967c0,9.533,0,15.262,0,17.406c0,8.226,7.233,11.707,11.098,11.707c2.877,0,64.868,0,64.868,0v-29.113v-29.114
		c0,0-61.991,0-64.868,0c-3.864,0-11.098,3.257-11.098,11.708C294.386,371.703,294.386,377.432,294.386,386.967"/>
	<g>
		<rect x="386.16" y="376.542" width="3.215" height="6.292"/>
		<g>
			<path d="M388.66,382.834c0-2.098,0-4.194,0-6.292c-0.833,0.833-1.667,1.667-2.5,2.5c1.071,0,2.144,0,3.215,0
				c-0.833-0.833-1.667-1.667-2.5-2.5c0,2.098,0,4.194,0,6.292c0.833-0.833,1.667-1.667,2.5-2.5c-1.071,0-2.144,0-3.215,0
				c-3.225,0-3.225,5,0,5c1.071,0,2.144,0,3.215,0c1.363,0,2.5-1.137,2.5-2.5c0-2.098,0-4.194,0-6.292c0-1.362-1.137-2.5-2.5-2.5
				c-1.071,0-2.144,0-3.215,0c-1.363,0-2.5,1.138-2.5,2.5c0,2.098,0,4.194,0,6.292C383.66,386.059,388.66,386.059,388.66,382.834z"
				/>
		</g>
	</g>
	<g>
		<rect x="386.16" y="392.033" width="3.215" height="6.294"/>
		<g>
			<path d="M388.66,398.327c0-2.098,0-4.196,0-6.294c-0.833,0.833-1.667,1.667-2.5,2.5c1.071,0,2.144,0,3.215,0
				c-0.833-0.833-1.667-1.667-2.5-2.5c0,2.098,0,4.196,0,6.294c0.833-0.833,1.667-1.667,2.5-2.5c-1.071,0-2.144,0-3.215,0
				c-3.225,0-3.225,5,0,5c1.071,0,2.144,0,3.215,0c1.363,0,2.5-1.138,2.5-2.5c0-2.098,0-4.196,0-6.294c0-1.363-1.137-2.5-2.5-2.5
				c-1.071,0-2.144,0-3.215,0c-1.363,0-2.5,1.137-2.5,2.5c0,2.098,0,4.196,0,6.294C383.66,401.552,388.66,401.552,388.66,398.327z"
				/>
		</g>
	</g>
	
		<path fill="#FFFFFF" stroke="#000000" stroke-width="5" stroke-linecap="round" stroke-linejoin="round" stroke-miterlimit="10" d="
		M294.386,401.26c0,0-6.422,0-8.949,0c-7.582,0-10.424-4.212-10.424-10.635c0-1.214,0-3.34,0-3.34c0-2.028,0-2.263,0-3.475
		c0-6.424,2.842-10.635,10.424-10.635c2.527,0,8.949,0,8.949,0V401.26z"/>
	<g>
		<polyline fill="#FFFFFF" points="188.934,194.555 154.071,194.555 154.071,152.748 188.934,152.748 		"/>
		<g>
			<path d="M188.934,192.055c-11.621,0-23.242,0-34.862,0c0.833,0.833,1.667,1.667,2.5,2.5c0-13.936,0-27.872,0-41.808
				c-0.833,0.833-1.667,1.667-2.5,2.5c11.621,0,23.242,0,34.862,0c3.225,0,3.225-5,0-5c-11.621,0-23.242,0-34.862,0
				c-1.363,0-2.5,1.137-2.5,2.5c0,13.936,0,27.872,0,41.808c0,1.363,1.137,2.5,2.5,2.5c11.621,0,23.242,0,34.862,0
				C192.158,197.055,192.158,192.055,188.934,192.055L188.934,192.055z"/>
		</g>
	</g>
	<g>
		<rect x="170.336" y="177.991" width="3.215" height="6.292"/>
		<g>
			<path d="M171.051,177.991c0,2.097,0,4.195,0,6.292c0.833-0.833,1.667-1.667,2.5-2.5c-1.072,0-2.143,0-3.215,0
				c0.833,0.833,1.667,1.667,2.5,2.5c0-2.097,0-4.195,0-6.292c-0.833,0.833-1.667,1.667-2.5,2.5c1.072,0,2.143,0,3.215,0
				c3.225,0,3.225-5,0-5c-1.072,0-2.143,0-3.215,0c-1.363,0-2.5,1.137-2.5,2.5c0,2.097,0,4.195,0,6.292c0,1.363,1.137,2.5,2.5,2.5
				c1.072,0,2.143,0,3.215,0c1.363,0,2.5-1.137,2.5-2.5c0-2.097,0-4.195,0-6.292C176.051,174.767,171.051,174.767,171.051,177.991z"
				/>
		</g>
	</g>
	<g>
		<rect x="170.336" y="162.498" width="3.215" height="6.293"/>
		<g>
			<path d="M171.051,162.498c0,2.098,0,4.196,0,6.293c0.833-0.833,1.667-1.667,2.5-2.5c-1.072,0-2.143,0-3.215,0
				c0.833,0.833,1.667,1.667,2.5,2.5c0-2.098,0-4.196,0-6.293c-0.833,0.833-1.667,1.667-2.5,2.5c1.072,0,2.143,0,3.215,0
				c3.225,0,3.225-5,0-5c-1.072,0-2.143,0-3.215,0c-1.363,0-2.5,1.137-2.5,2.5c0,2.098,0,4.196,0,6.293c0,1.363,1.137,2.5,2.5,2.5
				c1.072,0,2.143,0,3.215,0c1.363,0,2.5-1.137,2.5-2.5c0-2.098,0-4.196,0-6.293C176.051,159.273,171.051,159.273,171.051,162.498z"
				/>
		</g>
	</g>
	<g>
		
			<path fill="#FFFFFF" stroke="#000000" stroke-width="5" stroke-linecap="round" stroke-linejoin="round" stroke-miterlimit="10" d="
			M265.326,159.565c0-1.399,0-2.437,0-3.114c0-8.225-7.234-11.707-11.098-11.707c-2.877,0-64.869,0-64.869,0v29.113v29.114
			c0,0,61.992,0,64.869,0c3.863,0,11.098-3.257,11.098-11.708c0-0.754,0-1.963,0-3.616c0-3.042,0-7.612,0-13.791
			C265.326,167.336,265.326,162.597,265.326,159.565z"/>
		
			<path fill="#FFFFFF" stroke="#000000" stroke-width="5" stroke-linecap="round" stroke-linejoin="round" stroke-miterlimit="10" d="
			M274.275,159.565c-2.527,0-8.949,0-8.949,0c0,3.031,0,7.771,0,14.293c0,6.179,0,10.749,0,13.791c0,0,6.422,0,8.949,0
			c7.582,0,10.424-4.211,10.424-10.635c0-1.212,0-1.446,0-3.475c0,0,0-2.126,0-3.34
			C284.699,163.777,281.857,159.565,274.275,159.565z"/>
	</g>
</g>
</svg>
