<?xml version="1.0" encoding="utf-8"?>
<!-- Generator: Adobe Illustrator 16.0.0, SVG Export Plug-In . SVG Version: 6.00 Build 0)  -->
<!DOCTYPE svg PUBLIC "-//W3C//DTD SVG 1.1//EN" "http://www.w3.org/Graphics/SVG/1.1/DTD/svg11.dtd">
<svg version="1.1" id="Layer_1" xmlns="http://www.w3.org/2000/svg" xmlns:xlink="http://www.w3.org/1999/xlink" x="0px" y="0px"
	 width="560px" height="560px" viewBox="0 0 560 560" enable-background="new 0 0 560 560" xml:space="preserve">
<g>
	<g>
		<g>
			<path fill="#FFFFFF" d="M358.888,185.454c-48.843,0-97.686,0-146.526,0c-4.892,0-12.804-1.289-17.402,1.048
				c-5.885,2.992-4.839,8.565-4.839,14.058c-0.008,21.909-0.011,43.818-0.018,65.727c-0.015,49.113-0.025,98.225-0.039,147.338
				c0,1.072,0,2.146,0,3.221c0,5.33,5.806,7.68,10.32,7.68c6.676,0,13.351,0,20.027,0c28.178,0,56.349,0,84.526,0
				c14.603,0,29.206,0,43.812,0c6.96,0,20.27,2.096,22.108-6.914c0.076-0.229,0.13-0.478,0.13-0.762
				c0.026-0.209,0.021-0.398,0-0.578c0.014-42.271,0.02-84.548,0.034-126.824c0.008-25.707,0.015-51.413,0.022-77.12
				c0-5.982,0-11.969,0.002-17.956C371.05,187.406,364.869,185.454,358.888,185.454z"/>
		</g>
	</g>
	<g>
		<path fill="#FFFFFF" d="M361.59,188.099c0,0,5.242-1.368,4.424-4.218c-3.066-10.664-6.133-21.33-9.201-31.993
			c-1.42-4.941-2.844-9.882-4.264-14.824c-1.4-4.874-2.783-10.112-9.104-10.112c-21.109,0-42.213,0-63.316,0
			c-21.106,0-42.211,0-63.315,0c-6.289,0-7.749,5.225-9.098,10.112c-1.363,4.942-2.726,9.883-4.091,14.824
			c-2.945,10.663-5.891,21.33-8.838,31.993c-0.791,2.857,4.423,4.218,4.423,4.218H361.59z"/>
	</g>
	<g>
		<g>
			<path fill="#231F20" d="M366.168,415.819c-0.609,4.85-15.821,3.086-18.711,3.086c-11.94,0-23.886,0-35.823,0
				c-28.709,0-57.422,0-86.128,0c-7.994,0-15.99,0-23.987,0c-2.433,0-7.106,0.16-7.106-3.209c0-1.379,0.005-2.758,0.005-4.141
				c0.002-20.117,0.011-40.24,0.017-60.363c0.011-51.008,0.024-102.017,0.036-153.026c0.003-4.817-0.985-9.154,6.004-9.154
				c7.015,0,14.033,0,21.05,0c28.327,0,56.658,0,84.988,0c18.154,0,36.309,0,54.467,0c7.085,0,5.245,7.343,5.245,12.008
				c-0.004,9.254-0.007,18.511-0.007,27.769c-0.015,54.822-0.029,109.644-0.043,164.464
				C366.168,400.776,366.168,408.294,366.168,415.819c-0.004,2.961,4.584,2.961,4.584,0c0.014-42.465,0.02-84.934,0.034-127.402
				c0.008-25.707,0.015-51.413,0.022-77.12c0-5.982,0-11.969,0.002-17.956c0.004-6.966-6.177-8.918-12.158-8.918
				c-48.843,0-97.686,0-146.526,0c-4.892,0-12.804-1.289-17.402,1.048c-5.885,2.992-4.839,8.565-4.839,14.058
				c-0.008,21.909-0.011,43.818-0.018,65.727c-0.015,49.113-0.025,98.225-0.039,147.338c0,1.072,0,2.146,0,3.221
				c0,5.33,5.806,7.68,10.32,7.68c6.676,0,13.351,0,20.027,0c28.178,0,56.349,0,84.526,0c14.603,0,29.206,0,43.812,0
				c7.151,0,21.009,2.217,22.238-7.676C371.119,412.892,366.527,412.927,366.168,415.819z"/>
		</g>
		<g>
			<path fill="#231F20" d="M204.563,360.433c2.956,0,2.956-4.588,0-4.588C201.605,355.845,201.605,360.433,204.563,360.433
				L204.563,360.433z"/>
		</g>
		<g>
			<path fill="#231F20" d="M253.202,408.448c-14.951,0-29.897,0-44.849,0c-2.49,0-1.501-3.477-1.501-5.342
				c0-4.814,0-29.266,0-36.672c0-2.961-4.585-2.961-4.585,0c0,8.012,0,33.6,0,38.387c0,3.305-0.188,5.996,3.319,7.699
				c2.158,1.045,5.666,0.516,7.963,0.516c5.1,0,31.532,0,39.652,0C256.159,413.036,256.159,408.448,253.202,408.448L253.202,408.448
				z"/>
		</g>
		<g>
			<path fill="#231F20" d="M359.389,306.374c0.011-21.802,0.054-88.258,0.062-99.688c0-2.424,0.497-6.316-1.429-8.118
				c-2.826-2.652-7.483-1.72-11.083-1.72c-13.387,0-26.772,0-40.164,0c-2.959,0-2.959,4.588,0,4.588c11.07,0,42.708,0,47.451,0
				c1.041,0,0.632,5.362,0.632,6.041c-0.014,26.256-0.049,92.188-0.057,98.897C354.801,309.333,359.386,309.333,359.389,306.374
				L359.389,306.374z"/>
		</g>
		<g>
			<path fill="#231F20" d="M198.143,179.411c2.945-10.663,11.563-41.875,12.927-46.817c0.733-2.652,0.678-6.746,4.542-6.746
				c0.548,0,1.095,0,1.639,0c23.645,0,47.29,0,70.935,0c18.065,0,36.128,0,54.192,0c4.188,0,4.473,6.026,5.41,9.285
				c1.588,5.518,10.08,35.038,12.735,44.278c0.815,2.84,5.242,1.632,4.423-1.218c-3.066-10.664-12.045-41.875-13.465-46.817
				c-1.399-4.874-2.783-10.112-9.104-10.112c-21.109,0-42.213,0-63.315,0c-21.107,0-42.212,0-63.315,0
				c-6.29,0-7.749,5.225-9.099,10.112c-1.363,4.942-9.981,36.154-12.928,46.817C192.929,181.05,197.357,182.262,198.143,179.411
				L198.143,179.411z"/>
		</g>
		<g>
			<path fill="#231F20" d="M313.251,345.438c-0.326,18.182-14.722,32.574-32.901,32.898c-18.179,0.328-32.582-15.211-32.904-32.898
				c-0.324-18.18,15.22-32.584,32.904-32.902C298.529,312.208,312.934,327.751,313.251,345.438c0.053,2.951,4.642,2.959,4.588,0
				c-0.365-20.227-16.024-36.377-36.199-37.469c-20.222-1.092-36.925,15.34-38.69,34.9c-1.823,20.205,14.104,37.389,33.564,39.852
				c19.649,2.484,38.5-12.752,40.96-32.195c0.212-1.699,0.333-3.377,0.365-5.088C317.893,342.476,313.304,342.485,313.251,345.438z"
				/>
		</g>
		<g>
			<path fill="#231F20" d="M313.251,249.98c-0.326,18.179-14.722,32.573-32.901,32.901c-18.179,0.326-32.582-15.213-32.904-32.901
				c-0.324-18.183,15.22-32.586,32.904-32.904C298.529,216.751,312.934,232.292,313.251,249.98c0.053,2.953,4.642,2.96,4.588,0
				c-0.365-20.227-16.024-36.376-36.199-37.467c-20.222-1.094-36.925,15.339-38.69,34.896
				c-1.823,20.211,14.104,37.391,33.564,39.852c19.649,2.486,38.5-12.75,40.96-32.194c0.212-1.699,0.333-3.376,0.365-5.086
				C317.893,247.021,313.304,247.024,313.251,249.98z"/>
		</g>
		<g>
			<path fill="#231F20" d="M302.326,249.98c-0.321,12.214-9.758,21.658-21.977,21.978c-12.218,0.317-21.669-10.24-21.977-21.978
				c-0.321-12.217,10.24-21.673,21.977-21.976C292.562,227.683,302.019,238.244,302.326,249.98c0.074,2.953,4.662,2.96,4.587,0
				c-0.387-14.742-11.82-26.179-26.563-26.563c-14.743-0.385-26.192,12.396-26.564,26.563c-0.38,14.739,12.397,26.192,26.564,26.561
				c14.738,0.385,26.189-12.396,26.563-26.561C306.988,247.021,302.4,247.028,302.326,249.98z"/>
		</g>
		<g>
			<path fill="#231F20" d="M325.393,345.438c-0.291,22.234-16.238,40.723-38.096,44.525c-22.061,3.838-43.557-10.635-50.105-31.572
				c-6.66-21.289,4.345-44.061,23.961-53.729c20.144-9.924,44.906-2.004,57.046,16.338
				C322.992,328.245,325.28,336.81,325.393,345.438c0.043,2.953,4.628,2.959,4.589,0c-0.265-19.908-11.983-37.822-30.329-45.717
				c-18.309-7.887-39.683-3.395-53.978,10.201c-14.512,13.807-18.64,35.873-11.272,54.271c7.311,18.266,25.226,30.082,44.666,30.857
				c27.786,1.109,50.554-22.395,50.913-49.613C330.021,342.476,325.436,342.485,325.393,345.438z"/>
		</g>
		<g>
			<path fill="#231F20" d="M387.782,281.988c12.623,13.106,12.623,33.427,0,46.534c-2.049,2.129,1.191,5.377,3.246,3.242
				c14.365-14.916,14.365-38.104,0-53.02C388.974,276.612,385.733,279.858,387.782,281.988L387.782,281.988z"/>
		</g>
		<g>
			<path fill="#231F20" d="M396.15,258.302c25.529,26.031,25.525,67.879-0.004,93.904c-2.071,2.109,1.173,5.357,3.242,3.24
				c27.277-27.805,27.277-72.58,0.003-100.386C397.319,252.947,394.075,256.193,396.15,258.302L396.15,258.302z"/>
		</g>
		<g>
			<path fill="#231F20" d="M413.382,242.616c33.372,33.872,33.372,88.812-0.003,122.686c-2.073,2.105,1.166,5.35,3.246,3.242
				c16.885-17.139,26.413-39.898,26.747-63.959c0.344-24.353-9.739-47.95-26.747-65.211
				C414.549,237.266,411.306,240.508,413.382,242.616L413.382,242.616z"/>
		</g>
		<g>
			<path fill="#231F20" d="M172.217,327.228c-12.622-13.109-12.622-33.428,0-46.536c2.05-2.13-1.187-5.376-3.241-3.243
				c-14.364,14.912-14.364,38.104,0,53.02C171.03,332.601,174.267,329.354,172.217,327.228L172.217,327.228z"/>
		</g>
		<g>
			<path fill="#231F20" d="M163.854,350.907c-25.529-26.027-25.529-67.875,0-93.902c2.07-2.111-1.168-5.354-3.242-3.242
				c-27.274,27.804-27.274,72.582,0,100.39C162.682,356.267,165.924,353.019,163.854,350.907L163.854,350.907z"/>
		</g>
		<g>
			<path fill="#231F20" d="M146.617,366.597c-33.37-33.871-33.37-88.812,0.004-122.684c2.077-2.109-1.165-5.354-3.245-3.242
				c-16.884,17.138-26.413,39.897-26.748,63.958c-0.343,24.354,9.74,47.951,26.748,65.211
				C145.451,371.948,148.694,368.702,146.617,366.597L146.617,366.597z"/>
		</g>
	</g>
</g>
</svg>
