<?xml version="1.0" encoding="utf-8"?>
<!-- Generator: Adobe Illustrator 16.0.0, SVG Export Plug-In . SVG Version: 6.00 Build 0)  -->
<!DOCTYPE svg PUBLIC "-//W3C//DTD SVG 1.1//EN" "http://www.w3.org/Graphics/SVG/1.1/DTD/svg11.dtd">
<svg version="1.1" id="Layer_1" xmlns="http://www.w3.org/2000/svg" xmlns:xlink="http://www.w3.org/1999/xlink" x="0px" y="0px"
	 width="560px" height="560px" viewBox="0 0 560 560" enable-background="new 0 0 560 560" xml:space="preserve">
<g>
	<g>
		<path fill="#FFFFFF" d="M168.678,419.63V140.359c0-11.778,9.548-21.327,21.327-21.327l0,0h200.532v279.27"/>
		<g>
			<path d="M171.178,419.63c0-43.381,0-86.763,0-130.144c0-49.152,0-98.304,0-147.456c0-11.539,7.852-20.498,19.758-20.498
				c7.03,0,14.059,0,21.089,0c29.906,0,59.812,0,89.717,0c29.601,0,59.198,0,88.797,0c-0.832-0.833-1.667-1.667-2.5-2.5
				c0,43.381,0,86.762,0,130.145c0,49.15,0,98.304,0,147.455c0,0.559,0,1.113,0,1.67c0,3.227,5,3.227,5,0
				c0-43.381,0-86.763,0-130.144c0-49.151,0-98.304,0-147.455c0-0.558,0-1.114,0-1.671c0-1.363-1.137-2.5-2.5-2.5
				c-49.315,0-98.633,0-147.949,0c-17.525,0-35.052,0-52.576,0c-14.137,0-23.834,11.833-23.834,25.329c0,6.059,0,12.118,0,18.177
				c0,58.976,0,117.949,0,176.922c0,27.558,0,55.112,0,82.67C166.178,422.854,171.178,422.854,171.178,419.63L171.178,419.63z"/>
		</g>
	</g>
	<g>
		<polygon fill="#FFFFFF" points="255.679,247.584 221.232,224.125 221.232,190.95 255.679,167.491 304.396,167.491 338.844,190.95 
			338.844,224.125 304.396,247.584 		"/>
		<g>
			<path d="M256.941,245.425c-11.481-7.817-22.965-15.639-34.447-23.457c0.413,0.72,0.826,1.438,1.238,2.158
				c0-11.059,0-22.117,0-33.176c-0.413,0.72-0.825,1.439-1.238,2.159c10.033-6.833,20.067-13.666,30.101-20.499
				c1.415-0.963,2.83-1.928,4.245-2.892c-0.251,0.171-1.818,0.271-0.522,0.271c0.93,0,1.86,0,2.791,0c6.978,0,13.954,0,20.931,0
				c6.792,0,13.584,0,20.376,0c1.317,0,2.639,0,3.955,0c-1.392,0-1.448-0.487-0.355,0.256c0.973,0.662,1.943,1.325,2.917,1.987
				c10.218,6.958,20.436,13.917,30.652,20.875c-0.413-0.721-0.825-1.439-1.237-2.159c0,11.059,0,22.117,0,33.176
				c0.413-0.72,0.824-1.438,1.237-2.158c-6.425,4.373-12.848,8.748-19.271,13.123c-3.968,2.701-7.938,5.404-11.904,8.106
				c-0.958,0.651-1.916,1.305-2.875,1.958c-0.938,0.64,1.92-0.07-0.046-0.07c-15.936,0-31.872,0-47.808,0c-3.226,0-3.226,5,0,5
				c12.223,0,24.445,0,36.668,0c3.824,0,8.97,0.94,12.713-0.089c1.211-0.333,2.376-1.463,3.382-2.146
				c2.802-1.908,5.604-3.815,8.405-5.726c6.304-4.292,12.605-8.585,18.911-12.878c3.01-2.049,5.586-2.994,5.586-6.888
				c0-7.202,0-14.403,0-21.604c0-2.931,1.441-10.136-1.466-12.115c-10.631-7.239-21.264-14.479-31.895-21.72
				c-2.748-1.871-4.249-1.927-7.572-1.927c-7.12,0-14.241,0-21.361,0c-6.82,0-13.642,0-20.462,0c-3.369,0-4.633,0.656-7.444,2.569
				c-10.383,7.071-20.766,14.143-31.148,21.213c-1.776,1.21-1.264,3.762-1.264,5.626c0,4.379,0,8.758,0,13.138s0,8.758,0,13.14
				c0,1.954-0.51,4.418,1.34,5.678c11.448,7.796,22.896,15.593,34.346,23.389C257.09,251.563,259.589,247.228,256.941,245.425z"/>
		</g>
	</g>
	<g>
		<polygon fill="#FFFFFF" points="261.804,237.515 236.018,219.955 236.018,195.12 261.804,177.56 298.272,177.56 324.06,195.12 
			324.06,219.955 298.272,237.515 		"/>
		<g>
			<path d="M263.066,235.357c-8.596-5.854-17.19-11.707-25.787-17.562c0.413,0.722,0.826,1.439,1.238,2.159
				c0-8.278,0-16.557,0-24.835c-0.413,0.721-0.825,1.439-1.238,2.159c7.404-5.042,14.808-10.083,22.211-15.125
				c1.146-0.781,2.293-1.562,3.44-2.343c0.572-0.39-1.814,0.248-0.812,0.248c0.593,0,1.186,0,1.777,0c5.215,0,10.431,0,15.646,0
				c5.184,0,10.368,0,15.551,0c1.048,0,2.097,0,3.144,0c-1.34,0-1.455-0.498-0.412,0.213c0.729,0.498,1.461,0.994,2.19,1.491
				c7.596,5.173,15.188,10.345,22.782,15.516c-0.413-0.72-0.825-1.438-1.237-2.159c0,8.278,0,16.557,0,24.835
				c0.412-0.72,0.824-1.438,1.237-2.159c-4.709,3.207-9.418,6.413-14.126,9.62c-2.887,1.966-5.771,3.932-8.656,5.896
				c-0.824,0.562-1.649,1.123-2.478,1.687c-1.311,0.895,1.625,0.02,0.184,0.02c-11.974,0-23.943,0-35.917,0c-3.226,0-3.226,5,0,5
				c11.873,0,23.746,0,35.618,0c3.717,0,7.675-4.13,10.562-6.095c5.604-3.815,11.205-7.632,16.81-11.446
				c3.341-2.275,1.768-9.521,1.768-12.982c0-3.617,0-7.234,0-10.852c0-1.85,0.529-4.476-1.238-5.68
				c-4.709-3.206-9.417-6.413-14.126-9.62c-2.886-1.965-5.771-3.93-8.654-5.895c-1.17-0.795-2.773-2.389-4.305-2.389
				c-11.859,0-23.721,0-35.582,0c-3.501,0-7.066,3.717-9.792,5.571c-5.765,3.925-11.529,7.852-17.294,11.776
				c-3.365,2.291-2.052,7.647-2.052,11.267c0,3.748,0,7.495,0,11.243c0,1.694-0.583,4.723,0.341,6.3
				c0.73,1.246,2.771,2.175,3.902,2.943c2.885,1.965,5.77,3.93,8.655,5.896c4.709,3.207,9.417,6.414,14.126,9.62
				C263.216,241.494,265.714,237.16,263.066,235.357z"/>
		</g>
	</g>
	<g>
		<path fill="#FFFFFF" d="M390.528,398.302H190.006c-11.779,0-21.327,9.55-21.327,21.328c0,11.779,9.548,21.327,21.327,21.327H391.4
			"/>
		<g>
			<path d="M390.528,395.802c-49.312,0-98.628,0-147.941,0c-17.525,0-35.05,0-52.574,0c-22.589,0-31.834,29.166-14.371,42.811
				c6.771,5.289,14.66,4.847,22.64,4.847c56.205,0,112.41,0,168.615,0c8.167,0,16.335,0,24.503,0c3.226,0,3.226-5,0-5
				c-49.133,0-98.268,0-147.398,0c-17.979,0-35.957,0-53.937,0c-12.46,0-20.994-11.764-18.271-23.615
				c1.969-8.571,10.266-14.038,18.739-14.038c6.521,0,13.043,0,19.565,0c56.602,0,113.203,0,169.807,0c3.541,0,7.082,0,10.623,0
				C393.752,400.802,393.752,395.802,390.528,395.802L390.528,395.802z"/>
		</g>
	</g>
	<g>
		<line fill="none" x1="197.089" y1="419.479" x2="389.232" y2="419.479"/>
		<g>
			<path d="M197.089,421.979c49.565,0,99.132,0,148.697,0c14.481,0,28.964,0,43.444,0c3.226,0,3.226-5,0-5
				c-49.565,0-99.134,0-148.699,0c-14.48,0-28.962,0-43.443,0C193.865,416.979,193.865,421.979,197.089,421.979L197.089,421.979z"/>
		</g>
	</g>
	<g>
		<line fill="none" x1="197.089" y1="409.304" x2="389.232" y2="409.304"/>
		<g>
			<path d="M197.089,411.804c49.565,0,99.132,0,148.697,0c14.481,0,28.964,0,43.444,0c3.226,0,3.226-5,0-5
				c-49.565,0-99.134,0-148.699,0c-14.48,0-28.962,0-43.443,0C193.865,406.804,193.865,411.804,197.089,411.804L197.089,411.804z"/>
		</g>
	</g>
	<g>
		<line fill="none" x1="197.089" y1="430.202" x2="389.232" y2="430.202"/>
		<g>
			<path d="M197.089,432.702c49.565,0,99.132,0,148.697,0c14.481,0,28.964,0,43.444,0c3.226,0,3.226-5,0-5
				c-49.565,0-99.134,0-148.699,0c-14.48,0-28.962,0-43.443,0C193.865,427.702,193.865,432.702,197.089,432.702L197.089,432.702z"/>
		</g>
	</g>
	<rect x="357.868" y="119.032" width="15.145" height="321.925"/>
</g>
</svg>
