<?xml version="1.0" encoding="utf-8"?>
<!-- Generator: Adobe Illustrator 16.0.0, SVG Export Plug-In . SVG Version: 6.00 Build 0)  -->
<!DOCTYPE svg PUBLIC "-//W3C//DTD SVG 1.1//EN" "http://www.w3.org/Graphics/SVG/1.1/DTD/svg11.dtd">
<svg version="1.1" id="Layer_1" xmlns="http://www.w3.org/2000/svg" xmlns:xlink="http://www.w3.org/1999/xlink" x="0px" y="0px"
	 width="560px" height="560px" viewBox="-999.5 400.5 560 560" enable-background="new -999.5 400.5 560 560" xml:space="preserve">
<g>
	<g>
		<g>
			<g>
				<path d="M-605.546,799.772c-49.313,0-98.628,0-147.942,0c-17.525,0-35.049,0-52.574,0c-22.588,0-31.835,29.165-14.371,42.808
					c6.771,5.289,14.66,4.847,22.64,4.847c56.205,0,112.41,0,168.613,0c8.169,0,16.336,0,24.504,0c3.224,0,3.224-5,0-5
					c-49.133,0-98.266,0-147.399,0c-17.979,0-35.957,0-53.936,0c-12.459,0-20.994-11.762-18.272-23.614
					c1.969-8.571,10.266-14.039,18.741-14.039c6.521,0,13.043,0,19.565,0c56.602,0,113.206,0,169.807,0c3.541,0,7.082,0,10.623,0
					C-602.322,804.772-602.322,799.772-605.546,799.772L-605.546,799.772z"/>
			</g>
		</g>
		<g>
			<g>
				<path d="M-824.896,823.601c0-43.381,0-86.763,0-130.145c0-49.151,0-98.304,0-147.456c0-11.539,7.852-20.498,19.758-20.498
					c7.03,0,14.059,0,21.089,0c29.906,0,59.812,0,89.717,0c29.6,0,59.198,0,88.797,0c-0.833-0.833-1.667-1.667-2.5-2.5
					c0,43.381,0,86.764,0,130.145c0,49.151,0,98.304,0,147.455c0,0.558,0,1.114,0,1.672c0,3.225,5,3.225,5,0
					c0-43.382,0-86.764,0-130.145c0-49.152,0-98.304,0-147.456c0-0.557,0-1.114,0-1.671c0-1.363-1.137-2.5-2.5-2.5
					c-49.316,0-98.633,0-147.95,0c-17.526,0-35.051,0-52.577,0c-14.137,0-23.834,11.833-23.834,25.329c0,6.06,0,12.118,0,18.177
					c0,58.975,0,117.949,0,176.923c0,27.558,0,55.113,0,82.669C-829.896,826.825-824.896,826.825-824.896,823.601L-824.896,823.601z
					"/>
			</g>
		</g>
		<g>
			<g>
				<path d="M-798.984,825.95c49.566,0,99.132,0,148.699,0c14.481,0,28.962,0,43.444,0c3.224,0,3.224-5,0-5
					c-49.566,0-99.132,0-148.699,0c-14.481,0-28.962,0-43.444,0C-802.208,820.95-802.208,825.95-798.984,825.95L-798.984,825.95z"/>
			</g>
		</g>
		<g>
			<g>
				<path d="M-798.984,815.773c49.566,0,99.132,0,148.699,0c14.481,0,28.962,0,43.444,0c3.224,0,3.224-5,0-5
					c-49.566,0-99.132,0-148.699,0c-14.481,0-28.962,0-43.444,0C-802.208,810.773-802.208,815.773-798.984,815.773L-798.984,815.773
					z"/>
			</g>
		</g>
		<g>
			<g>
				<path d="M-798.984,836.672c49.566,0,99.132,0,148.699,0c14.481,0,28.962,0,43.444,0c3.224,0,3.224-5,0-5
					c-49.566,0-99.132,0-148.699,0c-14.481,0-28.962,0-43.444,0C-802.208,831.672-802.208,836.672-798.984,836.672L-798.984,836.672
					z"/>
			</g>
		</g>
		<g>
			<g>
				<path d="M-739.133,649.395c-11.482-7.818-22.965-15.639-34.447-23.457c0.413,0.72,0.826,1.438,1.238,2.158
					c0-11.059,0-22.117,0-33.176c-0.413,0.721-0.826,1.439-1.238,2.159c10.033-6.833,20.067-13.666,30.1-20.499
					c1.415-0.964,2.83-1.928,4.245-2.891c-0.251,0.17-1.818,0.271-0.522,0.271c0.93,0,1.86,0,2.791,0c6.977,0,13.954,0,20.931,0
					c6.792,0,13.584,0,20.376,0c1.319,0,2.638,0,3.956,0c-1.392,0-1.449-0.486-0.357,0.256c0.973,0.662,1.945,1.325,2.918,1.987
					c10.218,6.958,20.436,13.917,30.652,20.875c-0.412-0.72-0.826-1.438-1.238-2.159c0,11.059,0,22.117,0,33.176
					c0.414-0.72,0.826-1.438,1.238-2.158c-6.423,4.373-12.847,8.748-19.271,13.123c-3.968,2.701-7.938,5.403-11.904,8.105
					c-0.958,0.652-1.917,1.305-2.875,1.958c-0.94,0.64,1.919-0.069-0.046-0.069c-15.936,0-31.872,0-47.808,0c-3.224,0-3.224,5,0,5
					c12.223,0,24.445,0,36.667,0c3.826,0,8.97,0.939,12.713-0.09c1.211-0.333,2.377-1.463,3.382-2.146
					c2.801-1.908,5.603-3.816,8.405-5.725c6.304-4.293,12.607-8.585,18.912-12.878c3.008-2.049,5.584-2.993,5.584-6.888
					c0-7.202,0-14.403,0-21.604c0-2.932,1.443-10.137-1.465-12.117c-10.631-7.239-21.262-14.479-31.893-21.719
					c-2.749-1.871-4.249-1.927-7.572-1.927c-7.121,0-14.242,0-21.363,0c-6.819,0-13.641,0-20.461,0c-3.369,0-4.633,0.656-7.444,2.57
					c-10.383,7.071-20.766,14.142-31.148,21.212c-1.777,1.21-1.264,3.762-1.264,5.626c0,4.379,0,8.758,0,13.138
					c0,4.381,0,8.758,0,13.139c0,1.955-0.51,4.418,1.34,5.678c11.448,7.796,22.896,15.592,34.345,23.389
					C-738.983,655.533-736.485,651.198-739.133,649.395z"/>
			</g>
		</g>
		<g>
			<g>
				<path d="M-733.008,639.327c-8.596-5.854-17.191-11.707-25.787-17.562c0.413,0.721,0.826,1.439,1.238,2.159
					c0-8.278,0-16.557,0-24.835c-0.413,0.721-0.826,1.439-1.238,2.159c7.404-5.042,14.807-10.083,22.211-15.125
					c1.146-0.781,2.293-1.562,3.44-2.343c0.572-0.389-1.814,0.248-0.812,0.248c0.592,0,1.185,0,1.777,0c5.215,0,10.431,0,15.646,0
					c5.184,0,10.369,0,15.553,0c1.047,0,2.096,0,3.144,0c-1.34,0-1.456-0.497-0.413,0.213c0.73,0.498,1.461,0.994,2.191,1.492
					c7.595,5.172,15.188,10.344,22.783,15.515c-0.414-0.72-0.826-1.438-1.238-2.159c0,8.278,0,16.557,0,24.835
					c0.412-0.72,0.826-1.438,1.238-2.159c-4.709,3.207-9.418,6.414-14.127,9.62c-2.885,1.966-5.77,3.931-8.654,5.896
					c-0.826,0.562-1.651,1.123-2.478,1.687c-1.311,0.894,1.625,0.019,0.183,0.019c-11.971,0-23.944,0-35.917,0c-3.224,0-3.224,5,0,5
					c11.873,0,23.747,0,35.618,0c3.717,0,7.676-4.129,10.562-6.094c5.603-3.816,11.206-7.632,16.81-11.447
					c3.34-2.275,1.767-9.52,1.767-12.982c0-3.617,0-7.234,0-10.852c0-1.848,0.53-4.475-1.238-5.678
					c-4.708-3.207-9.417-6.414-14.126-9.621c-2.885-1.965-5.77-3.93-8.655-5.895c-1.168-0.795-2.772-2.389-4.303-2.389
					c-11.86,0-23.722,0-35.583,0c-3.501,0-7.067,3.717-9.792,5.572c-5.764,3.926-11.529,7.852-17.293,11.776
					c-3.365,2.291-2.052,7.647-2.052,11.267c0,3.748,0,7.496,0,11.244c0,1.693-0.583,4.721,0.341,6.299
					c0.73,1.246,2.771,2.174,3.902,2.943c2.885,1.965,5.77,3.93,8.655,5.895c4.709,3.207,9.417,6.414,14.126,9.621
					C-732.858,645.464-730.36,641.13-733.008,639.327z"/>
			</g>
		</g>
	</g>
	<rect x="-638.206" y="523.002" width="15.144" height="321.925"/>
</g>
</svg>
