<?xml version="1.0" encoding="utf-8"?>
<!-- Generator: Adobe Illustrator 16.0.0, SVG Export Plug-In . SVG Version: 6.00 Build 0)  -->
<!DOCTYPE svg PUBLIC "-//W3C//DTD SVG 1.1//EN" "http://www.w3.org/Graphics/SVG/1.1/DTD/svg11.dtd">
<svg version="1.1" id="Layer_1" xmlns="http://www.w3.org/2000/svg" xmlns:xlink="http://www.w3.org/1999/xlink" x="0px" y="0px"
	 width="560px" height="560px" viewBox="0 0 560 560" enable-background="new 0 0 560 560" xml:space="preserve">
<g>
	<g>
		<path fill="#FFFFFF" d="M325.172,409.794h34.132l38.932-119.656c31.827,0.027,57.002,0.051,57.312,0.051
			c10.515,0,37.509-8.529,37.509-19.044c0-9.992-26.163-18.177-35.952-18.971v-0.074h-58.79l-39.012-119.897h-34.131l21.347,119.897
			h-76.789l-15.632-32.766H227.87l9.139,51.728l-9.139,51.729h26.228l15.632-32.768c8.456,0.008,41.116,0.035,76.754,0.069
			L325.172,409.794z"/>
		<g>
			<path d="M325.172,411.952c11.377,0,22.753,0,34.132,0c0.992,0,1.778-0.664,2.079-1.584
				c12.703-39.037,25.401-78.072,38.106-117.112c0.273-0.847,0.55-1.694,0.827-2.542c-0.695,0.524-1.387,1.057-2.081,1.582
				c17.566,0.018,35.136,0.03,52.701,0.047c10.107,0.01,19.528-2.079,28.87-6.072c8.845-3.783,21.198-12.578,11.867-22.494
				c-4.342-4.615-10.915-7.224-16.719-9.396c-5.707-2.134-11.77-3.795-17.851-4.363c0.719,0.719,1.438,1.439,2.156,2.156
				c0-0.024,0-0.049,0-0.074c0-1.174-0.98-2.157-2.156-2.157c-19.599,0-39.193,0-58.79,0c0.691,0.526,1.387,1.055,2.079,1.582
				c-12.702-39.035-25.402-78.068-38.104-117.102c-0.301-0.932-0.604-1.864-0.907-2.793c-0.3-0.919-1.086-1.584-2.079-1.584
				c-11.378,0-22.755,0-34.133,0c-1.498,0-2.318,1.37-2.076,2.731c7.048,39.596,14.097,79.19,21.145,118.787
				c0.068,0.372,0.133,0.739,0.2,1.11c0.692-0.912,1.387-1.821,2.079-2.73c-25.595,0-51.192,0-76.789,0
				c0.622,0.355,1.242,0.711,1.863,1.067c-5.211-10.922-10.422-21.844-15.633-32.769c-0.319-0.667-1.151-1.067-1.862-1.067
				c-8.743,0-17.485,0-26.228,0c-1.502,0-2.32,1.37-2.081,2.731c3.046,17.236,6.09,34.472,9.136,51.71
				c-0.365-2.06-0.173-0.134-0.357,0.915c-0.356,2.014-0.712,4.027-1.067,6.041c-1.047,5.927-2.094,11.854-3.142,17.783
				c-1.523,8.617-3.046,17.24-4.569,25.865c-0.241,1.359,0.578,2.73,2.081,2.73c8.743,0,17.485,0,26.228,0
				c0.71,0,1.542-0.402,1.862-1.07c5.211-10.922,10.423-21.844,15.633-32.767c-0.621,0.358-1.241,0.712-1.864,1.069
				c25.585,0.019,51.168,0.045,76.754,0.065c-0.695-0.909-1.386-1.816-2.082-2.731c-7.036,39.535-14.072,79.066-21.112,118.598
				c-0.064,0.369-0.133,0.74-0.196,1.107c-0.486,2.719,3.671,3.881,4.159,1.146c7.036-39.531,14.076-79.064,21.112-118.595
				c0.064-0.37,0.132-0.739,0.197-1.108c0.245-1.363-0.58-2.729-2.079-2.73c-25.586-0.021-51.169-0.047-76.753-0.066
				c-0.71,0-1.543,0.398-1.862,1.067c-5.212,10.923-10.423,21.843-15.633,32.767c0.622-0.357,1.241-0.709,1.863-1.068
				c-8.743,0-17.485,0-26.228,0c0.693,0.912,1.386,1.818,2.08,2.73c1.523-8.619,3.046-17.242,4.569-25.865
				c1.047-5.928,2.095-11.854,3.142-17.779c0.485-2.75,1.505-5.846,1.505-8.657c0-2.609-0.944-5.482-1.396-8.036
				c-1.034-5.852-2.067-11.705-3.103-17.56c-1.573-8.902-3.146-17.806-4.718-26.708c-0.694,0.91-1.386,1.819-2.08,2.731
				c8.743,0,17.485,0,26.228,0c-0.622-0.356-1.241-0.712-1.863-1.068c5.21,10.921,10.422,21.843,15.633,32.768
				c0.319,0.667,1.151,1.066,1.862,1.066c25.596,0,51.194,0,76.789,0c1.499,0,2.322-1.37,2.079-2.73
				c-7.049-39.596-14.099-79.19-21.147-118.786c-0.063-0.372-0.133-0.739-0.196-1.11c-0.695,0.912-1.386,1.821-2.083,2.729
				c11.378,0,22.755,0,34.133,0c-0.696-0.524-1.387-1.054-2.082-1.582c12.702,39.035,25.401,78.069,38.104,117.104
				c0.303,0.93,0.604,1.862,0.907,2.792c0.299,0.918,1.085,1.583,2.082,1.583c19.597,0,39.191,0,58.79,0
				c-0.718-0.719-1.438-1.437-2.156-2.156c0,0.025,0,0.05,0,0.075c0,1.259,0.985,2.049,2.156,2.158
				c10.463,0.978,23.847,5.066,31.52,12.493c9.391,9.091-13.594,16.963-19.253,18.684c-7.713,2.346-14.916,2.523-22.842,2.516
				c-16.097-0.016-32.195-0.029-48.294-0.043c-0.993-0.002-1.78,0.664-2.08,1.582c-12.702,39.039-25.402,78.074-38.105,117.109
				c-0.275,0.848-0.551,1.697-0.828,2.547c0.695-0.529,1.386-1.055,2.082-1.584c-11.379,0-22.755,0-34.132,0
				C322.393,407.638,322.393,411.952,325.172,411.952z"/>
		</g>
	</g>
	<g>
		<line fill="none" x1="192.269" y1="255.85" x2="80.263" y2="255.85"/>
		<g>
			<path d="M192.269,253.694c-37.335,0-74.67,0-112.005,0c-2.781,0-2.781,4.314,0,4.314c37.335,0,74.67,0,112.005,0
				C195.05,258.008,195.05,253.694,192.269,253.694L192.269,253.694z"/>
		</g>
	</g>
	<g>
		<line fill="none" x1="192.269" y1="286.833" x2="80.263" y2="286.833"/>
		<g>
			<path d="M192.269,284.676c-37.335,0-74.67,0-112.005,0c-2.781,0-2.781,4.315,0,4.315c37.335,0,74.67,0,112.005,0
				C195.05,288.991,195.05,284.676,192.269,284.676L192.269,284.676z"/>
		</g>
	</g>
	<g>
		<line fill="none" x1="205.444" y1="271.498" x2="67.088" y2="271.498"/>
		<g>
			<path d="M205.444,269.341c-42.569,0-85.137,0-127.708,0c-3.549,0-7.098,0-10.648,0c-2.783,0-2.783,4.312,0,4.312
				c42.567,0,85.137,0,127.706,0c3.55,0,7.101,0,10.651,0C208.226,273.654,208.226,269.341,205.444,269.341L205.444,269.341z"/>
		</g>
	</g>
	<g>
		<line fill="none" x1="276.117" y1="280.142" x2="332.991" y2="280.142"/>
		<g>
			<path d="M276.117,282.3c18.958,0,37.917,0,56.875,0c2.783,0,2.783-4.314,0-4.314c-18.958,0-37.917,0-56.875,0
				C273.334,277.986,273.334,282.3,276.117,282.3L276.117,282.3z"/>
		</g>
	</g>
	<g>
		<path fill="#FFFFFF" d="M339.978,280.142"/>
		<g>
			<path d="M339.978,282.3c2.782,0,2.782-4.314,0-4.314C337.194,277.986,337.194,282.3,339.978,282.3L339.978,282.3z"/>
		</g>
	</g>
</g>
</svg>
