<?xml version="1.0" encoding="utf-8"?>
<!-- Generator: Adobe Illustrator 16.0.0, SVG Export Plug-In . SVG Version: 6.00 Build 0)  -->
<!DOCTYPE svg PUBLIC "-//W3C//DTD SVG 1.1//EN" "http://www.w3.org/Graphics/SVG/1.1/DTD/svg11.dtd">
<svg version="1.1" id="Layer_1" xmlns="http://www.w3.org/2000/svg" xmlns:xlink="http://www.w3.org/1999/xlink" x="0px" y="0px"
	 width="560px" height="560px" viewBox="-999.5 400.5 560 560" enable-background="new -999.5 400.5 560 560" xml:space="preserve">
<g>
	<g>
		<g>
			<path d="M-663.762,847.334c13.186,0,26.371,0,39.557,0c1.151,0,2.064-0.771,2.411-1.835
				c14.722-45.246,29.443-90.49,44.165-135.735c0.32-0.982,0.64-1.967,0.96-2.95c-0.804,0.611-1.607,1.224-2.411,1.835
				c20.361,0.018,40.723,0.035,61.083,0.054c11.714,0.011,22.635-2.411,33.461-7.039c10.253-4.383,24.57-14.578,13.755-26.072
				c-5.033-5.349-12.649-8.372-19.378-10.889c-6.614-2.474-13.641-4.399-20.688-5.058c0.833,0.832,1.667,1.666,2.5,2.5
				c0-0.029,0-0.058,0-0.086c0-1.363-1.138-2.5-2.5-2.5c-22.715,0-45.429,0-68.143,0c0.805,0.611,1.607,1.224,2.411,1.834
				c-14.721-45.242-29.442-90.484-44.163-135.728c-0.351-1.079-0.701-2.158-1.053-3.235c-0.346-1.065-1.259-1.836-2.411-1.836
				c-13.187,0-26.371,0-39.558,0c-1.738,0-2.69,1.588-2.41,3.165c8.17,45.894,16.341,91.786,24.511,137.679
				c0.076,0.429,0.153,0.857,0.229,1.285c0.804-1.055,1.606-2.109,2.41-3.164c-29.666,0-59.332,0-89,0
				c0.72,0.412,1.439,0.825,2.159,1.237c-6.04-12.659-12.08-25.319-18.119-37.979c-0.37-0.774-1.335-1.237-2.159-1.237
				c-10.133,0-20.267,0-30.4,0c-1.74,0-2.689,1.587-2.411,3.165c3.53,19.979,7.059,39.957,10.589,59.936
				c-0.422-2.389-0.199-0.158-0.414,1.057c-0.413,2.335-0.825,4.669-1.237,7.003c-1.214,6.87-2.427,13.739-3.641,20.609
				c-1.766,9.993-3.531,19.985-5.296,29.979c-0.279,1.578,0.67,3.165,2.411,3.165c10.133,0,20.267,0,30.4,0
				c0.823,0,1.789-0.463,2.159-1.238c6.04-12.658,12.08-25.316,18.119-37.976c-0.72,0.413-1.438,0.826-2.159,1.237
				c29.653,0.024,59.306,0.053,88.959,0.078c-0.805-1.055-1.607-2.109-2.412-3.164c-8.156,45.818-16.313,91.637-24.471,137.455
				c-0.076,0.429-0.152,0.855-0.229,1.283c-0.562,3.152,4.257,4.5,4.82,1.33c8.157-45.819,16.314-91.638,24.472-137.457
				c0.075-0.428,0.151-0.855,0.229-1.283c0.281-1.578-0.672-3.162-2.411-3.165c-29.652-0.026-59.306-0.054-88.958-0.077
				c-0.823,0-1.789,0.463-2.159,1.237c-6.04,12.658-12.08,25.317-18.119,37.977c0.72-0.413,1.439-0.826,2.159-1.238
				c-10.133,0-20.267,0-30.4,0c0.804,1.055,1.607,2.109,2.411,3.165c1.766-9.993,3.531-19.985,5.296-29.979
				c1.214-6.87,2.428-13.74,3.641-20.609c0.563-3.184,1.745-6.775,1.745-10.033c0-3.023-1.095-6.355-1.617-9.311
				c-1.199-6.785-2.397-13.57-3.596-20.354c-1.823-10.319-3.646-20.638-5.469-30.956c-0.804,1.055-1.607,2.109-2.411,3.165
				c10.133,0,20.267,0,30.4,0c-0.72-0.413-1.439-0.826-2.159-1.238c6.04,12.66,12.08,25.319,18.119,37.979
				c0.37,0.775,1.335,1.238,2.159,1.238c29.667,0,59.333,0,89,0c1.739,0,2.691-1.588,2.411-3.166
				c-8.17-45.893-16.341-91.785-24.511-137.679c-0.076-0.428-0.152-0.856-0.229-1.284c-0.805,1.055-1.607,2.109-2.412,3.164
				c13.187,0,26.371,0,39.558,0c-0.804-0.611-1.606-1.224-2.411-1.835c14.721,45.243,29.442,90.485,44.163,135.728
				c0.351,1.08,0.702,2.158,1.053,3.236c0.347,1.065,1.259,1.836,2.411,1.836c22.714,0,45.428,0,68.143,0
				c-0.833-0.834-1.667-1.668-2.5-2.5c0,0.028,0,0.057,0,0.086c0,1.457,1.144,2.373,2.5,2.5c12.127,1.131,27.637,5.873,36.53,14.481
				c10.886,10.536-15.756,19.66-22.312,21.655c-8.94,2.72-17.291,2.924-26.474,2.916c-18.659-0.018-37.317-0.033-55.977-0.049
				c-1.151-0.002-2.064,0.771-2.411,1.834c-14.722,45.245-29.442,90.49-44.165,135.735c-0.32,0.983-0.64,1.967-0.96,2.95
				c0.804-0.611,1.606-1.224,2.411-1.835c-13.186,0-26.371,0-39.557,0C-666.986,842.334-666.986,847.334-663.762,847.334z"/>
		</g>
	</g>
	<g>
		<g>
			<path d="M-817.803,663.908c-43.273,0-86.545,0-129.818,0c-3.224,0-3.224,5,0,5c43.273,0,86.545,0,129.818,0
				C-814.579,668.908-814.579,663.908-817.803,663.908L-817.803,663.908z"/>
		</g>
	</g>
	<g>
		<g>
			<path d="M-817.803,699.816c-43.273,0-86.545,0-129.818,0c-3.224,0-3.224,5,0,5c43.273,0,86.545,0,129.818,0
				C-814.579,704.816-814.579,699.816-817.803,699.816L-817.803,699.816z"/>
		</g>
	</g>
	<g>
		<g>
			<path d="M-802.531,682.043c-49.339,0-98.678,0-148.017,0c-4.115,0-8.23,0-12.345,0c-3.224,0-3.224,5,0,5
				c49.339,0,98.678,0,148.017,0c4.115,0,8.23,0,12.345,0C-799.307,687.043-799.307,682.043-802.531,682.043L-802.531,682.043z"/>
		</g>
	</g>
	<g>
		<g>
			<path d="M-720.619,697.062c21.973,0,43.947,0,65.92,0c3.225,0,3.225-5,0-5c-21.973,0-43.947,0-65.92,0
				C-723.843,692.062-723.843,697.062-720.619,697.062L-720.619,697.062z"/>
		</g>
	</g>
	<g>
		<g>
			<path d="M-646.604,697.062c3.224,0,3.224-5,0-5C-649.828,692.062-649.828,697.062-646.604,697.062L-646.604,697.062z"/>
		</g>
	</g>
</g>
</svg>
