<?xml version="1.0" encoding="utf-8"?>
<!-- Generator: Adobe Illustrator 16.0.0, SVG Export Plug-In . SVG Version: 6.00 Build 0)  -->
<!DOCTYPE svg PUBLIC "-//W3C//DTD SVG 1.1//EN" "http://www.w3.org/Graphics/SVG/1.1/DTD/svg11.dtd">
<svg version="1.1" id="Layer_1" xmlns="http://www.w3.org/2000/svg" xmlns:xlink="http://www.w3.org/1999/xlink" x="0px" y="0px"
	 width="560px" height="560px" viewBox="0 0 560 560" enable-background="new 0 0 560 560" xml:space="preserve">
<g>
	<g>
		<path fill="#FFFFFF" d="M171.22,234.735c28.995,0,52.5,17.733,52.5,46.729c0-28.995,23.504-46.729,52.5-46.729
			c28.996,0,52.5,17.733,52.5,46.729c0-28.995,23.506-46.729,52.5-46.729c26.668,0,48.69,13.15,52.054,38.903
			c-3.48-89.929-72.531-154.956-157.207-154.956c-86.748,0-157.098,64.737-157.343,157.744
			C118.847,247.539,142.302,234.735,171.22,234.735z"/>
		<g>
			<path fill="#231F20" d="M171.22,237.235c26.182,0.259,49.635,16.383,50,44.229c0.042,3.225,4.958,3.225,5,0
				c0.365-27.847,23.817-43.971,50-44.229c26.191-0.26,49.639,16.771,50,44.229c0.042,3.225,4.958,3.225,5,0
				c0.341-26.007,21.066-42.374,45.832-44.104c24.903-1.743,49.977,10.45,53.812,36.944c0.406,2.812,5.028,2.112,4.91-0.665
				c-1.885-44.15-19.843-86.401-52.593-116.453c-31.875-29.249-74.989-43.192-117.922-40.664
				c-39.526,2.327-77.49,19.071-105.153,47.492c-29.161,29.96-43.607,70.989-43.88,112.413c-0.021,3.229,4.944,3.223,5,0
				c0.212-12.229,4.961-23.074,15.142-30.17C146.4,239.266,159.262,237.321,171.22,237.235c3.223-0.023,3.225-5.023,0-5
				c-13.73,0.099-27.959,2.708-39.216,11.023c-10.673,7.888-15.555,20.169-15.781,33.168c1.667,0,3.333,0,5,0
				c0.297-45.178,18.044-88.456,52.403-118.315c33.361-28.994,79.084-40.937,122.594-35.682c35.708,4.312,69,21.828,93.339,48.175
				c25.863,27.993,39.599,65.222,41.212,103.033c1.638-0.222,3.274-0.441,4.911-0.665c-4.191-28.96-31.664-41.957-58.633-40.613
				c-27.525,1.37-50.459,20.67-50.832,49.104c1.667,0,3.333,0,5,0c-0.183-13.948-5.519-26.779-16.108-36.005
				c-10.655-9.284-25.009-13.088-38.89-13.225c-14.042-0.141-28.026,4.253-38.891,13.225c-10.729,8.859-15.93,22.336-16.109,36.005
				c1.667,0,3.333,0,5,0c-0.183-13.948-5.52-26.779-16.109-36.005c-10.656-9.284-25.009-13.088-38.891-13.225
				C167.995,232.203,167.997,237.203,171.22,237.235z"/>
		</g>
	</g>
	<g>
		<path fill="#FFFFFF" d="M269.353,238.278v188.01c0,22.897,18.562,41.46,41.459,41.46c22.898,0,41.461-18.562,41.461-41.46
			c0,0,0-7.994,0-23.177c0-11.681-11.17-11.681-11.103,0v16.576c0,19.347-8.242,35.027-32.11,35.027
			c-19.347,0-28.021-16.851-28.021-36.195V238.278"/>
		<g>
			<path fill="#231F20" d="M266.853,238.278c0,49.66,0,99.319,0,148.978c0,10.652,0,21.307,0,31.957
				c0,9.709,0.585,18.787,5.151,27.736c9.935,19.47,33.893,27.791,54.078,20.562c18.441-6.604,28.69-24.472,28.69-43.424
				c0-4.569,0-9.143,0-13.714c0-5.148,0.872-11.215-2.477-15.591c-4.938-6.451-12.05-1.13-13.349,5.083
				c-1.262,6.035-0.277,13.036-0.277,19.16c0,8.793-1.443,17.982-7.375,24.845c-7.07,8.178-20.45,10.098-30.364,7.096
				c-10.956-3.315-15.727-15.318-17.021-25.67c-0.819-6.554-0.372-13.452-0.372-20.038c0-54.106,0-108.217,0-162.322
				c0-1.556,0-3.106,0-4.659c0-3.227-5-3.227-5,0c0,49.87,0,99.738,0,149.607c0,9.187,0,18.369,0,27.556
				c0,12.437,1.874,25.397,11.179,34.501c13.473,13.18,39.063,8.111,48.565-7.212c4.321-6.973,5.388-15.668,5.388-23.701
				c0-3.36,0-6.724,0-10.082c0-3.188-0.509-7.196,0.788-10.181c0.833-1.916,2.674-2.562,4.036-0.784
				c1.822,2.381,1.278,6.155,1.278,8.927c0,5.504,0,11.008,0,16.513c0,9.295-1.894,17.665-7.201,25.456
				c-14.357,21.074-45.257,20.997-61.514,2.575c-7.937-8.992-9.206-20.094-9.206-31.438c0-10.371,0-20.743,0-31.115
				c0-50.196,0-100.396,0-150.593c0-0.01,0-0.019,0-0.026C271.853,235.053,266.853,235.053,266.853,238.278L266.853,238.278z"/>
		</g>
	</g>
	<g>
		<path fill="#FFFFFF" d="M268.391,112.492c0-7.417,0-0.712,0-4.204c0-13.104,13.166-13.097,13.166,0v4.205"/>
		<g>
			<path fill="#231F20" d="M270.891,112.492c0-1.227,0-2.451,0-3.678c0-3.226-5-3.226-5,0c0,0.187,0,0.372,0,0.56
				c0,3.226,5,3.226,5,0c0-2.81,0.624-9.588,5.079-8.217c3.955,1.217,3.086,8.251,3.086,11.336c0,3.225,5,3.225,5,0
				c0-6.047-0.076-14.659-7.49-16.354c-7.809-1.783-10.675,7.303-10.675,13.234c0,3.225,5,3.225,5,0c0-0.187,0-0.373,0-0.56
				c0-3.226-5-3.226-5,0c0,1.227,0,2.45,0,3.678C265.891,115.716,270.891,115.716,270.891,112.492L270.891,112.492z"/>
		</g>
	</g>
	<g>
		<path fill="#FFFFFF" d="M223.862,238.61c3.572-31.236,20.666-62.177,30.29-75.004"/>
		<g>
			<path fill="#231F20" d="M226.362,238.61c3.188-26.062,14.307-52.649,29.949-73.742c1.923-2.594-2.42-5.082-4.317-2.523
				c-16.188,21.83-27.337,49.337-30.631,76.268C220.972,241.806,225.976,241.768,226.362,238.61L226.362,238.61z"/>
		</g>
	</g>
	<g>
		<path fill="#FFFFFF" d="M258.848,156.727"/>
		<g>
			<path fill="#231F20" d="M258.848,159.227c3.225,0,3.225-5,0-5C255.622,154.227,255.623,159.227,258.848,159.227L258.848,159.227z
				"/>
		</g>
	</g>
	<g>
		<path fill="#FFFFFF" d="M326.808,238.61c-3.57-31.236-24.357-69.057-33.981-81.883"/>
		<g>
			<path fill="#231F20" d="M329.308,238.61c-2.003-16.376-7.471-31.994-14.12-47.021c-5.543-12.524-12.022-25.09-20.204-36.124
				c-1.896-2.56-6.239-0.068-4.316,2.523c7.305,9.854,13.084,20.92,18.309,31.979c7.227,15.303,13.269,31.768,15.333,48.642
				C324.695,241.768,329.7,241.806,329.308,238.61L329.308,238.61z"/>
		</g>
	</g>
	<g>
		<line fill="none" x1="269.353" y1="389.664" x2="281.04" y2="389.664"/>
		<g>
			<path fill="#231F20" d="M269.353,392.164c3.896,0,7.792,0,11.687,0c3.224,0,3.224-5,0-5c-3.896,0-7.792,0-11.687,0
				C266.129,387.164,266.129,392.164,269.353,392.164L269.353,392.164z"/>
		</g>
	</g>
	<g>
		<line fill="none" x1="269.353" y1="405.751" x2="281.143" y2="405.751"/>
		<g>
			<path fill="#231F20" d="M269.353,408.251c3.93,0,7.86,0,11.79,0c3.226,0,3.226-5,0-5c-3.93,0-7.859,0-11.79,0
				C266.129,403.251,266.129,408.251,269.353,408.251L269.353,408.251z"/>
		</g>
	</g>
</g>
</svg>
