<?xml version="1.0" encoding="utf-8"?>
<!-- Generator: Adobe Illustrator 16.0.0, SVG Export Plug-In . SVG Version: 6.00 Build 0)  -->
<!DOCTYPE svg PUBLIC "-//W3C//DTD SVG 1.1//EN" "http://www.w3.org/Graphics/SVG/1.1/DTD/svg11.dtd">
<svg version="1.1" id="Layer_1" xmlns="http://www.w3.org/2000/svg" xmlns:xlink="http://www.w3.org/1999/xlink" x="0px" y="0px"
	 width="560px" height="560px" viewBox="-999.5 400.5 560 560" enable-background="new -999.5 400.5 560 560" xml:space="preserve">
<g>
	<g>
		<g>
			<path fill="#231F20" d="M-820.813,638.094c26.182,0.26,49.635,16.383,50,44.229c0.042,3.224,4.958,3.224,5,0
				c0.365-27.847,23.817-43.972,50-44.229c26.19-0.259,49.64,16.771,50,44.229c0.041,3.224,4.957,3.224,5,0
				c0.34-26.007,21.065-42.373,45.832-44.105c24.902-1.743,49.976,10.451,53.812,36.945c0.407,2.812,5.029,2.114,4.911-0.665
				c-1.885-44.15-19.843-86.402-52.594-116.454c-31.875-29.249-74.988-43.192-117.922-40.664
				c-39.526,2.328-77.49,19.074-105.153,47.494c-29.161,29.96-43.607,70.989-43.88,112.414c-0.021,3.228,4.944,3.22,5,0
				c0.212-12.229,4.961-23.076,15.142-30.169C-845.633,640.125-832.771,638.18-820.813,638.094c3.223-0.023,3.225-5.023,0-5
				c-13.73,0.1-27.959,2.708-39.216,11.025c-10.673,7.886-15.555,20.169-15.781,33.168c1.667,0,3.333,0,5,0
				c0.297-45.178,18.044-88.457,52.403-118.317c33.361-28.993,79.084-40.935,122.595-35.68c35.707,4.312,69,21.829,93.339,48.174
				c25.862,27.995,39.598,65.222,41.212,103.035c1.637-0.222,3.273-0.442,4.911-0.665c-4.192-28.96-31.665-41.958-58.634-40.616
				c-27.524,1.37-50.459,20.671-50.832,49.105c1.668,0,3.334,0,5,0c-0.183-13.947-5.519-26.779-16.107-36.005
				c-10.656-9.284-25.01-13.088-38.891-13.225c-14.042-0.139-28.026,4.254-38.892,13.225c-10.729,8.859-15.93,22.336-16.109,36.005
				c1.667,0,3.333,0,5,0c-0.183-13.948-5.519-26.779-16.109-36.005c-10.656-9.283-25.009-13.088-38.891-13.225
				C-824.039,633.062-824.036,638.062-820.813,638.094z"/>
		</g>
	</g>
	<g>
		<g>
			<path fill="#231F20" d="M-725.18,639.137c0,49.66,0,99.32,0,148.98c0,10.651,0,21.305,0,31.957
				c0,9.709,0.585,18.787,5.151,27.736c9.936,19.471,33.894,27.791,54.078,20.562c18.442-6.605,28.691-24.473,28.691-43.425
				c0-4.571,0-9.144,0-13.714c0-5.149,0.872-11.215-2.477-15.59c-4.938-6.452-12.051-1.131-13.35,5.081
				c-1.262,6.036-0.277,13.038-0.277,19.162c0,8.793-1.443,17.983-7.375,24.846c-7.07,8.178-20.449,10.097-30.363,7.095
				c-10.957-3.316-15.728-15.32-17.021-25.669c-0.818-6.554-0.372-13.452-0.372-20.038c0-54.108,0-108.217,0-162.325
				c0-1.553,0-3.106,0-4.659c0-3.224-5-3.224-5,0c0,49.87,0,99.74,0,149.61c0,9.185,0,18.369,0,27.554
				c0,12.438,1.874,25.398,11.179,34.501c13.475,13.181,39.064,8.113,48.565-7.211c4.321-6.972,5.388-15.669,5.388-23.702
				c0-3.359,0-6.722,0-10.083c0-3.188-0.509-7.195,0.788-10.179c0.833-1.917,2.675-2.563,4.036-0.785
				c1.822,2.38,1.279,6.157,1.279,8.926c0,5.505,0,11.009,0,16.514c0,9.295-1.895,17.666-7.202,25.457
				c-14.356,21.074-45.256,20.997-61.513,2.575c-7.938-8.993-9.207-20.095-9.207-31.438c0-10.372,0-20.744,0-31.116
				c0-50.196,0-100.395,0-150.593c0-0.009,0-0.02,0-0.027C-720.18,635.913-725.18,635.913-725.18,639.137L-725.18,639.137z"/>
		</g>
	</g>
	<g>
		<g>
			<path fill="#231F20" d="M-721.142,513.352c0-1.227,0-2.453,0-3.678c0-3.224-5-3.224-5,0c0,0.188,0,0.373,0,0.561
				c0,3.224,5,3.224,5,0c0-2.812,0.624-9.588,5.08-8.217c3.955,1.217,3.086,8.25,3.086,11.334c0,3.225,5,3.225,5,0
				c0-6.045-0.076-14.658-7.489-16.353c-7.81-1.785-10.676,7.3-10.676,13.235c0,3.224,5,3.224,5,0c0-0.188,0-0.373,0-0.561
				c0-3.224-5-3.224-5,0c0,1.227,0,2.452,0,3.678C-726.142,516.575-721.142,516.575-721.142,513.352L-721.142,513.352z"/>
		</g>
	</g>
	<g>
		<g>
			<path fill="#231F20" d="M-765.671,639.469c3.188-26.061,14.307-52.65,29.949-73.742c1.923-2.594-2.42-5.084-4.317-2.523
				c-16.188,21.83-27.337,49.337-30.631,76.266C-771.062,642.665-766.057,642.627-765.671,639.469L-765.671,639.469z"/>
		</g>
	</g>
	<g>
		<g>
			<path fill="#231F20" d="M-733.186,560.086c3.224,0,3.224-5,0-5S-736.41,560.086-733.186,560.086L-733.186,560.086z"/>
		</g>
	</g>
	<g>
		<g>
			<path fill="#231F20" d="M-662.725,639.469c-2.004-16.376-7.472-31.994-14.12-47.021c-5.544-12.526-12.023-25.091-20.204-36.124
				c-1.897-2.559-6.24-0.07-4.317,2.523c7.306,9.854,13.084,20.92,18.31,31.98c7.226,15.3,13.268,31.765,15.332,48.64
				C-667.338,642.627-662.333,642.665-662.725,639.469L-662.725,639.469z"/>
		</g>
	</g>
	<g>
		<g>
			<path fill="#231F20" d="M-722.68,793.023c3.896,0,7.792,0,11.687,0c3.224,0,3.224-5,0-5c-3.896,0-7.792,0-11.687,0
				C-725.904,788.023-725.904,793.023-722.68,793.023L-722.68,793.023z"/>
		</g>
	</g>
	<g>
		<g>
			<path fill="#231F20" d="M-722.68,809.11c3.93,0,7.86,0,11.79,0c3.225,0,3.225-5,0-5c-3.93,0-7.859,0-11.79,0
				C-725.904,804.11-725.904,809.11-722.68,809.11L-722.68,809.11z"/>
		</g>
	</g>
</g>
</svg>
