<?xml version="1.0" encoding="utf-8"?>
<!-- Generator: Adobe Illustrator 16.0.0, SVG Export Plug-In . SVG Version: 6.00 Build 0)  -->
<!DOCTYPE svg PUBLIC "-//W3C//DTD SVG 1.1//EN" "http://www.w3.org/Graphics/SVG/1.1/DTD/svg11.dtd">
<svg version="1.1" id="Layer_1" xmlns="http://www.w3.org/2000/svg" xmlns:xlink="http://www.w3.org/1999/xlink" x="0px" y="0px"
	 width="560px" height="560px" viewBox="-999.5 400.5 560 560" enable-background="new -999.5 400.5 560 560" xml:space="preserve">
<g>
	<g>
		<g>
			<path d="M-724.722,871.897c11.211,0,22.422,0,33.634,0c8.734,0,15.802-2.489,21.454-9.425c7.141-8.763,8.479-19.472,8.479-30.29
				c0-27.003,0-54.007,0-81.011c0-31.465,0-62.93,0-94.395c0-1.363-1.138-2.5-2.5-2.5c-40.713,0-81.425,0-122.137,0
				c-1.363,0-2.5,1.137-2.5,2.5c0,51.043,0,102.086,0,153.129c0,11.492-1.272,23.92,0.707,35.312
				c1.988,11.443,9.066,22.921,20.805,26.038c4.59,1.219,9.874,0.641,14.58,0.641C-743.04,871.897-733.881,871.897-724.722,871.897
				c3.223,0,3.223-5-0.001-5c-11.211,0-22.422,0-33.634,0c-10.218,0-16.96-4.402-21.462-13.62
				c-4.065-8.323-3.472-17.34-3.472-26.287c0-29.012,0-58.025,0-87.038c0-27.726,0-55.45,0-83.175c-0.833,0.832-1.667,1.666-2.5,2.5
				c40.712,0,81.424,0,122.136,0c-0.833-0.834-1.667-1.668-2.5-2.5c0,51.043,0,102.086,0,153.129c0,9.749,0.148,19.512-0.014,29.26
				c-0.19,11.453-7.097,24.952-18.992,27.49c-4.456,0.951-9.785,0.24-14.306,0.24c-8.418,0-16.838,0-25.256,0
				C-727.946,866.897-727.946,871.897-724.722,871.897L-724.722,871.897z"/>
		</g>
	</g>
	<g>
		<g>
			<path d="M-714.381,553.201c11.545-13.836,22.587-28.467,34.918-41.625c8.227-8.778,23.32-14.738,33.835-6.586
				c6.778,5.257,13.219,11.029,19.805,16.523c10.041,8.377,20.082,16.754,30.122,25.129c2.409,2.01,4.856,3.981,7.203,6.065
				c4.715,4.188,6.014,10.385,5.606,16.411c-0.544,8.043-4.785,15.046-9.693,21.148c-5.925,7.367-11.867,14.719-17.861,22.03
				c-4.188,5.11-8.403,10.198-12.634,15.272c1.178,0,2.357,0,3.535,0c-31.612-25.969-63.225-51.937-94.836-77.904
				c-2.471-2.029-6.029,1.486-3.535,3.535c31.611,25.969,63.225,51.938,94.836,77.904c0.975,0.803,2.604,1.119,3.535,0
				c8.302-9.959,16.528-19.98,24.673-30.068c3.715-4.602,7.851-9.129,10.999-14.148c4.932-7.861,7.349-17.736,5.292-26.869
				c-1.871-8.305-9.083-13.158-15.211-18.271c-10.312-8.603-20.624-17.206-30.937-25.808c-6.229-5.198-12.316-11.319-19.09-15.824
				c-16.035-10.666-33.697,1.264-44.187,13.779c-9.984,11.912-19.954,23.834-29.912,35.769
				C-719.966,552.122-716.449,555.68-714.381,553.201z"/>
		</g>
	</g>
	<g>
		<g>
			<path d="M-633.032,530.379c7.556,6.294,15.207,12.469,22.767,18.758c5.748,4.782,12.395,10.385,15.19,17.467
				c3.214,8.138-6.553,17.551-10.962,23.207c-4.87,6.248-9.941,12.347-14.945,18.487c-2.018,2.478,1.498,6.037,3.535,3.535
				c5.756-7.065,11.543-14.108,17.14-21.304c4.795-6.168,12.135-14.072,10.699-22.623c-1.354-8.078-8.614-14.969-14.516-20.1
				c-8.274-7.195-16.949-13.947-25.373-20.964C-631.955,524.796-635.512,528.312-633.032,530.379L-633.032,530.379z"/>
		</g>
	</g>
	<g>
		<g>
			<path d="M-737.438,858.995c11.211,0,22.422,0,33.634,0c7.641,0,16.686-0.002,22.814-5.331c9.216-8.012,7.118-22.922,7.118-33.933
				c0-29.81,0-59.618,0-89.428c0-5.878,0-11.756,0-17.634c0-3.224-5-3.224-5,0c0,24.928,0,49.855,0,74.783
				c0,12.014,0,24.028,0,36.042c0,6.505,0.354,13.227-1.29,19.575c-2.498,9.646-12.692,10.924-21.241,10.924
				c-12.012,0-24.023,0-36.036,0C-740.663,853.995-740.663,858.995-737.438,858.995L-737.438,858.995z"/>
		</g>
	</g>
	<g>
		<g>
			<path d="M-759.598,656.025c0-20.489,0-40.979,0-61.467c-0.833,0.832-1.667,1.666-2.5,2.5c24.571,0,49.142,0,73.713,0
				c-0.833-0.834-1.667-1.668-2.5-2.5c0,20.488,0,40.978,0,61.467c0,3.224,5,3.224,5,0c0-20.489,0-40.979,0-61.467
				c0-1.363-1.137-2.5-2.5-2.5c-24.571,0-49.142,0-73.713,0c-1.363,0-2.5,1.137-2.5,2.5c0,20.488,0,40.978,0,61.467
				C-764.598,659.249-759.598,659.249-759.598,656.025L-759.598,656.025z"/>
		</g>
	</g>
	<g>
		<rect x="-743.986" y="623.236" width="11.095" height="5.668"/>
		<g>
			<path d="M-732.892,626.404c-3.698,0-7.396,0-11.095,0c0.833,0.832,1.667,1.666,2.5,2.5c0-1.889,0-3.778,0-5.668
				c-0.833,0.834-1.667,1.668-2.5,2.5c3.698,0,7.396,0,11.095,0c-0.833-0.832-1.667-1.666-2.5-2.5c0,1.89,0,3.779,0,5.668
				c0,3.224,5,3.224,5,0c0-1.889,0-3.778,0-5.668c0-1.362-1.137-2.5-2.5-2.5c-3.698,0-7.396,0-11.095,0c-1.363,0-2.5,1.138-2.5,2.5
				c0,1.89,0,3.779,0,5.668c0,1.363,1.137,2.5,2.5,2.5c3.698,0,7.396,0,11.095,0C-729.667,631.404-729.667,626.404-732.892,626.404z
				"/>
		</g>
	</g>
	<g>
		<rect x="-716.671" y="623.236" width="11.095" height="5.668"/>
		<g>
			<path d="M-705.576,626.404c-3.697,0-7.396,0-11.095,0c0.833,0.832,1.667,1.666,2.5,2.5c0-1.889,0-3.778,0-5.668
				c-0.833,0.834-1.667,1.668-2.5,2.5c3.698,0,7.396,0,11.095,0c-0.833-0.832-1.667-1.666-2.5-2.5c0,1.89,0,3.779,0,5.668
				c0,3.224,5,3.224,5,0c0-1.889,0-3.778,0-5.668c0-1.362-1.137-2.5-2.5-2.5c-3.697,0-7.396,0-11.095,0c-1.363,0-2.5,1.138-2.5,2.5
				c0,1.89,0,3.779,0,5.668c0,1.363,1.137,2.5,2.5,2.5c3.698,0,7.396,0,11.095,0C-702.352,631.404-702.352,626.404-705.576,626.404z
				"/>
		</g>
	</g>
	<g>
		<g>
			<path d="M-676.371,700.504c3.225,0,3.225-5,0-5C-679.595,695.504-679.595,700.504-676.371,700.504L-676.371,700.504z"/>
		</g>
	</g>
	<g>
		<g>
			<path d="M-638.792,524.504c3.224,0,3.224-5,0-5S-642.016,524.504-638.792,524.504L-638.792,524.504z"/>
		</g>
	</g>
</g>
</svg>
