<?xml version="1.0" encoding="utf-8"?>
<!-- Generator: Adobe Illustrator 16.0.0, SVG Export Plug-In . SVG Version: 6.00 Build 0)  -->
<!DOCTYPE svg PUBLIC "-//W3C//DTD SVG 1.1//EN" "http://www.w3.org/Graphics/SVG/1.1/DTD/svg11.dtd">
<svg version="1.1" id="Layer_1" xmlns="http://www.w3.org/2000/svg" xmlns:xlink="http://www.w3.org/1999/xlink" x="0px" y="0px"
	 width="560px" height="560px" viewBox="0 0 560 560" enable-background="new 0 0 560 560" xml:space="preserve">
<g>
	<g>
		<polyline fill="#FFFFFF" points="238.174,244.017 238.174,182.55 311.889,182.55 311.889,244.017 		"/>
		<g>
			<path d="M240.674,244.017c0-20.488,0-40.979,0-61.467c-0.833,0.834-1.667,1.668-2.5,2.5c24.571,0,49.144,0,73.716,0
				c-0.833-0.832-1.667-1.666-2.5-2.5c0,20.487,0,40.979,0,61.467c0,3.225,5,3.225,5,0c0-20.488,0-40.979,0-61.467
				c0-1.363-1.139-2.5-2.5-2.5c-24.572,0-49.145,0-73.716,0c-1.362,0-2.5,1.137-2.5,2.5c0,20.487,0,40.979,0,61.467
				C235.674,247.241,240.674,247.241,240.674,244.017L240.674,244.017z"/>
		</g>
	</g>
	<g>
		<path fill="#FFFFFF" d="M275.549,457.39c20,0,32.017,0,36.514,0c17.253,0,24.558-20.244,24.558-31.062c0-8.053,0-181.56,0-181.56
			h-61.068h-61.068c0,0,0,173.507,0,181.56c0,10.814,6.832,31.062,24.557,31.062C243.536,457.39,255.549,457.39,275.549,457.39"/>
		<g>
			<path d="M275.549,459.89c11.212,0,22.424,0,33.637,0c8.734,0,15.803-2.49,21.454-9.424c7.142-8.765,8.479-19.474,8.479-30.291
				c0-27.002,0-54.008,0-81.013c0-31.465,0-62.93,0-94.394c0-1.363-1.138-2.5-2.5-2.5c-40.714,0-81.426,0-122.139,0
				c-1.363,0-2.5,1.137-2.5,2.5c0,51.042,0,102.085,0,153.128c0,11.492-1.272,23.92,0.707,35.312
				c1.988,11.442,9.064,22.922,20.805,26.036c4.59,1.222,9.874,0.642,14.58,0.642C257.232,459.89,266.391,459.89,275.549,459.89
				c3.225,0,3.225-5-0.001-5c-11.211,0-22.422,0-33.634,0c-10.218,0-16.96-4.402-21.462-13.621
				c-4.064-8.322-3.472-17.34-3.472-26.287c0-29.012,0-58.022,0-87.037c0-27.725,0-55.448,0-83.173
				c-0.833,0.832-1.667,1.666-2.5,2.5c40.712,0,81.424,0,122.138,0c-0.833-0.834-1.667-1.668-2.5-2.5c0,51.042,0,102.085,0,153.128
				c0,9.748,0.147,19.513-0.015,29.261c-0.189,11.452-7.098,24.95-18.992,27.489c-4.456,0.951-9.785,0.24-14.307,0.24
				c-8.418,0-16.839,0-25.258,0C272.326,454.89,272.326,459.89,275.549,459.89L275.549,459.89z"/>
		</g>
	</g>
	<g>
		<path fill="#FFFFFF" d="M284.124,139.425c20.326-24.359,31.602-37.771,33.535-40.095c6.929-8.305,25.506-19.17,38.755-8.116
			c3.453,2.883,12.678,10.575,28.036,23.391c15.355,12.812,24.581,20.508,28.036,23.389c13.608,11.354,5.889,31.275-1.041,39.578
			c-1.811,2.17-13.965,17.562-32.483,39.761L284.124,139.425z"/>
		<g>
			<path d="M285.891,141.192c11.546-13.836,22.589-28.467,34.92-41.625c8.227-8.779,23.32-14.738,33.835-6.586
				c6.778,5.256,13.22,11.029,19.806,16.523c10.041,8.377,20.082,16.752,30.122,25.129c2.409,2.01,4.855,3.979,7.203,6.063
				c4.715,4.189,6.014,10.386,5.604,16.412c-0.544,8.043-4.784,15.045-9.692,21.148c-5.925,7.364-11.866,14.719-17.86,22.028
				c-4.188,5.109-8.404,10.197-12.634,15.273c1.178,0,2.355,0,3.534,0c-31.611-25.969-63.226-51.939-94.838-77.906
				c-2.471-2.028-6.028,1.488-3.534,3.535c31.613,25.969,63.226,51.939,94.838,77.906c0.976,0.801,2.603,1.119,3.534,0
				c8.303-9.959,16.527-19.982,24.674-30.07c3.715-4.6,7.85-9.127,10.999-14.146c4.932-7.861,7.349-17.736,5.292-26.867
				c-1.871-8.308-9.083-13.158-15.212-18.271c-10.312-8.604-20.624-17.207-30.937-25.809c-6.229-5.199-12.316-11.32-19.09-15.824
				c-16.035-10.666-33.697,1.264-44.188,13.779c-9.984,11.91-19.956,23.834-29.914,35.768
				C280.306,140.114,283.823,143.671,285.891,141.192z"/>
		</g>
	</g>
	<g>
		<g>
			<path d="M367.242,118.372c7.555,6.293,15.207,12.472,22.766,18.759c5.748,4.782,12.396,10.385,15.191,17.467
				c3.214,8.139-6.554,17.551-10.962,23.209c-4.87,6.248-9.942,12.346-14.945,18.486c-2.019,2.477,1.498,6.034,3.535,3.534
				c5.756-7.063,11.543-14.108,17.139-21.305c4.795-6.166,12.136-14.072,10.7-22.623c-1.354-8.078-8.615-14.967-14.517-20.098
				c-8.273-7.195-16.948-13.947-25.372-20.967C368.319,112.788,364.762,116.306,367.242,118.372L367.242,118.372z"/>
		</g>
	</g>
	<g>
		<g>
			<path d="M262.833,446.986c11.211,0,22.422,0,33.636,0c7.642,0,16.687-0.002,22.815-5.332c9.215-8.012,7.118-22.922,7.118-33.932
				c0-29.811,0-59.617,0-89.426c0-5.881,0-11.758,0-17.638c0-3.225-5-3.225-5,0c0,24.931,0,49.855,0,74.783
				c0,12.015,0,24.027,0,36.043c0,6.504,0.354,13.228-1.29,19.574c-2.498,9.646-12.693,10.924-21.242,10.924
				c-12.013,0-24.024,0-36.038,0C259.609,441.986,259.609,446.986,262.833,446.986L262.833,446.986z"/>
		</g>
	</g>
	<g>
		<rect x="256.286" y="211.229" width="11.095" height="5.666"/>
		<g>
			<path d="M267.379,214.395c-3.697,0-7.396,0-11.095,0c0.833,0.834,1.667,1.668,2.5,2.5c0-1.889,0-3.777,0-5.666
				c-0.833,0.832-1.667,1.666-2.5,2.5c3.698,0,7.396,0,11.095,0c-0.833-0.834-1.667-1.668-2.5-2.5c0,1.889,0,3.777,0,5.666
				c0,3.225,5,3.225,5,0c0-1.889,0-3.777,0-5.666c0-1.363-1.137-2.5-2.5-2.5c-3.697,0-7.396,0-11.095,0c-1.363,0-2.5,1.137-2.5,2.5
				c0,1.889,0,3.777,0,5.666c0,1.363,1.137,2.5,2.5,2.5c3.698,0,7.396,0,11.095,0C270.604,219.395,270.604,214.395,267.379,214.395z
				"/>
		</g>
	</g>
	<g>
		<rect x="283.601" y="211.229" width="11.096" height="5.666"/>
		<g>
			<path d="M294.696,214.395c-3.698,0-7.396,0-11.096,0c0.833,0.834,1.667,1.668,2.5,2.5c0-1.889,0-3.777,0-5.666
				c-0.833,0.832-1.667,1.666-2.5,2.5c3.697,0,7.396,0,11.096,0c-0.833-0.834-1.667-1.668-2.5-2.5c0,1.889,0,3.777,0,5.666
				c0,3.225,5,3.225,5,0c0-1.889,0-3.777,0-5.666c0-1.363-1.137-2.5-2.5-2.5c-3.698,0-7.396,0-11.096,0c-1.362,0-2.5,1.137-2.5,2.5
				c0,1.889,0,3.777,0,5.666c0,1.363,1.138,2.5,2.5,2.5c3.697,0,7.396,0,11.096,0C297.922,219.395,297.922,214.395,294.696,214.395z
				"/>
		</g>
	</g>
	<g>
		<g>
			<path d="M323.903,288.496c3.225,0,3.225-5,0-5C320.678,283.496,320.678,288.496,323.903,288.496L323.903,288.496z"/>
		</g>
	</g>
	<g>
		<g>
			<path d="M361.481,112.497c3.226,0,3.226-5,0-5S358.257,112.497,361.481,112.497L361.481,112.497z"/>
		</g>
	</g>
</g>
</svg>
